<svg xmlns="http://www.w3.org/2000/svg" viewBox="0 0 303.09 137.22"><g id="Слой_2" data-name="Слой 2"><g id="Layer_1" data-name="Layer 1" fill="#9fcd4f"><path d="M99.17 137.22l-2-5.73c-9-26.1 1.51-48.2 6.54-58.83.4-.85.76-1.62 1.07-2.3 1.17-2.57 2.38-5 3.56-7.32 4.33-8.59 7.75-15.37 7.73-27.76 0-8.33-4.76-20.71-6.58-24.77L107 5l11-5 2.48 5.53c.31.69 7.63 17.12 7.65 29.73 0 15.29-4.57 24.42-9 33.25-1.11 2.21-2.24 4.46-3.34 6.87-.33.74-.73 1.57-1.16 2.48-4.34 9.17-13.38 28.26-6 49.68l2 5.74zm106.26 0L194 133.28l2-5.74c7.35-21.42-1.68-40.51-6-49.68-.44-.92-.83-1.74-1.16-2.48-1.1-2.41-2.24-4.66-3.35-6.87-4.45-8.83-9.06-18-9-33.25 0-12.61 7.34-29 7.65-29.73L186.53 0l11 5-2.48 5.53c-1.83 4.08-6.57 16.48-6.58 24.78 0 12.39 3.39 19.17 7.72 27.76 1.19 2.35 2.4 4.75 3.56 7.32.31.68.68 1.45 1.08 2.3 5 10.62 15.49 32.73 6.53 58.83z"/><rect x="29.77" y=".05" width="12.13" height="71.6" transform="rotate(-89.69 35.829 35.846)"/><polygon points="41.04 11.57 66.99 36 40.75 60.18 49.32 68.77 84.76 36.1 49.6 2.99 41.04 11.57"/><rect x="231.46" y="29.78" width="71.6" height="12.13" transform="rotate(-.31 271.597 35.852)"/><polygon points="262.05 11.57 236.11 36 262.34 60.18 253.77 68.77 218.34 36.1 253.49 2.99 262.05 11.57"/></g></g></svg>