<svg xmlns="http://www.w3.org/2000/svg" viewBox="0 0 346.59 58.31"><path d="M173.18 51.92l.16.07c0-.09 0-.13-.08-.15l-.08.08m-.17-.11l.17.11.08-.08a1.15 1.15 0 0 1-.14-.17l-.11.14m11 5.57a29.5 29.5 0 0 0 21.35-2.6c.4-.21.61-.35.22-.8-.6-.7-1.15-1.43-1.69-2.18-.26-.36-.44-.33-.76 0a24.14 24.14 0 0 1-15.57 5.63 36.17 36.17 0 0 1-3.75-.08l.2.08m11.75-49.57a6.44 6.44 0 0 0-8.19-1.71 6 6 0 0 0-2.77 7.67c.9 2.55 2.61 4.59 4.24 6.69.23.3.42.16.64 0a28.89 28.89 0 0 0 3.83-2.51 8.35 8.35 0 0 0 3.34-7.18 5.57 5.57 0 0 0-1.09-3m-18.53 35c.89 3.92 3.07 6.73 7 8a11.71 11.71 0 0 0 4.93.27 15.89 15.89 0 0 0 10-4.72c.28-.29.33-.46.06-.81q-6.21-7.94-12.39-15.9c-.27-.34-.46-.43-.86-.18a46.42 46.42 0 0 0-4.64 3.24c-2.58 2.1-4.28 4.65-4.18 8.17a6.71 6.71 0 0 0 .15 1.93m-4.11 8.83c-.15-.2-.29-.41-.45-.61a15.16 15.16 0 0 1 .48-19.77 34.77 34.77 0 0 1 8.75-6.64c.54-.31.57-.51.2-1a33.09 33.09 0 0 1-4-6.74 11.38 11.38 0 0 1 1.41-12.1 13.58 13.58 0 0 1 6.76-4.72 2.41 2.41 0 0 0-1.19.14A29.34 29.34 0 0 0 162.34 33 28.65 28.65 0 0 0 173 51.81l.11-.14m30.56-12.57c-1.23-1.55-2.4-3-3.56-4.51-2.21-2.81-4.4-5.63-6.63-8.42-.41-.52-.29-.71.21-1A28.67 28.67 0 0 0 201.5 19 11.79 11.79 0 0 0 196.08.14v-.1a5.43 5.43 0 0 1 2.37.34c11.85 3.35 19.37 11 21.82 23.06 2 9.75-.79 18.41-7.54 25.77-.47.52-.71.52-1.12 0a92.32 92.32 0 0 0-2.59-3.32.62.62 0 0 1-.07-.86 34.17 34.17 0 0 0 4.5-14.39c.06-.57-.14-.7-.67-.69h-6.44c-.51 0-.67.11-.71.66a28.27 28.27 0 0 1-1.68 8c-.06.16-.13.31-.24.56" fill="#63be63"/><path d="M64.17 32.86h10.27c.58 0 .71-.17.59-.7a18.83 18.83 0 0 0-1.37-4.27 9.93 9.93 0 0 0-9.52-6A10 10 0 0 0 54.66 28a14.92 14.92 0 0 0-1.24 4c-.16.91-.16.91.78.91h10m3.8 5.82H53.8c-.32 0-.74-.15-.68.48.34 3.29 1 6.47 3.29 9A11 11 0 0 0 66.09 52a11.88 11.88 0 0 0 4.44-1.27 6.57 6.57 0 0 0 4-5.47c0-.49.22-.57.65-.56h6.36c.58 0 .73.12.63.75-.9 5.5-4.12 9.12-9.19 11.07a21.85 21.85 0 0 1-16.14 0 16.72 16.72 0 0 1-10.27-11.17 27.13 27.13 0 0 1 0-17C49 21.25 54 17.05 61.58 16.14a20 20 0 0 1 11.21 1.6C78 20.23 81 24.51 82.28 30.06A36.17 36.17 0 0 1 83 38c0 .61-.17.79-.78.79H67.96m64.81-17.2a21.3 21.3 0 0 1 3.81-3.23 15.32 15.32 0 0 1 14.76-1.06c3.65 1.51 5.43 4.62 6.26 8.34a25.18 25.18 0 0 1 .5 5.48v25c0 .7-.17.91-.89.89q-2.83-.07-5.67 0c-.69 0-.91-.15-.9-.88V31.59a17 17 0 0 0-.7-5.44 5.54 5.54 0 0 0-4.94-3.86c-3.94-.57-7 1.12-9.82 3.64-2.46 2.22-2.44 2.24-2.44 5.55v24.61c0 .76-.22.94-.94.92h-5.83c-.55 0-.69-.17-.69-.7V2.41c0-.54.15-.71.69-.7h5.91c.66 0 .86.15.86.84v18.1zM89.78 44.67h3.15c.3 0 .49 0 .54.42.43 4 1.93 5.72 5.9 6.56a15.41 15.41 0 0 0 8-.24 6 6 0 0 0 4.36-4.3 4 4 0 0 0-2.48-5.11 74.32 74.32 0 0 0-9.35-2.78 48.73 48.73 0 0 1-7.63-2.62c-4.23-1.92-5.68-4.9-5.3-9.84.41-5.42 4-8.33 8.78-9.92a23.67 23.67 0 0 1 9.18-.72 20.06 20.06 0 0 1 6.95 1.63 10 10 0 0 1 6.12 9.01c0 .59-.09.8-.73.79h-6.06c-.37 0-.59 0-.65-.48-.32-2.76-2-4.23-4.62-4.79a13.82 13.82 0 0 0-8.84.66 4.17 4.17 0 0 0-2.76 4.18 3.37 3.37 0 0 0 2.26 3.3 49.47 49.47 0 0 0 7.15 2.16 55.2 55.2 0 0 1 9.92 3.21c4.41 2 5.92 5.14 5.6 10.19-.35 5.58-3.72 9-8.73 10.76a24.1 24.1 0 0 1-17.21-.55c-4.45-1.8-6.71-5.36-7.26-10.06-.16-1.45-.13-1.45 1.31-1.45zm-76.53-4.82v16.34c0 .64-.17.83-.81.81h-5.6c-1 0-1 0-1-1V23.71c0-.76-.14-1-.94-1-1.43.07-2.87 0-4.3 0-.46 0-.63-.12-.62-.61v-4.67c0-.47.14-.63.61-.62H5.2c.5 0 .64-.14.64-.64a41 41 0 0 1 .29-6.73C7 4.23 10.75.93 16.13.81a30.5 30.5 0 0 1 5.73.29c.61.1.78.33.76.92v4.84c0 1 0 1-1 .86a15.8 15.8 0 0 0-4.34-.19 4 4 0 0 0-3.86 3.94 43.61 43.61 0 0 0-.16 5c0 .47.25.46.58.45h6.13c.61 0 .86.12.83.79-.05 1.46 0 2.92 0 4.37 0 .57-.14.75-.73.74h-6.05c-.6 0-.77.13-.77.75V39.9m18.27-17.99c.71-.79 1.3-1.49 1.91-2.14a11.58 11.58 0 0 1 11.06-3.59c.41.07.65.17.64.71v6.06c0 .61-.12.75-.79.63-3.1-.56-6.15-.62-8.92 1.25a14.63 14.63 0 0 0-3.66 3.66 1.54 1.54 0 0 0-.23 1v26.53c0 .76-.16 1-1 1-1.91-.06-3.83 0-5.75 0-.55 0-.75-.12-.75-.71V17.59c0-.56.19-.68.71-.68h6.06c.55 0 .69.17.68.7v4.32m255.33 10.93h10.2c.64 0 .72-.21.6-.74a19.22 19.22 0 0 0-1.21-3.93c-1.82-3.95-4.88-6.17-9.24-6.31a10 10 0 0 0-9.58 5.43 15.93 15.93 0 0 0-1.58 4.83c-.12.59-.05.73.57.73h10.27m3.76 5.87h-14.21c-.34 0-.74-.13-.67.49.34 3.29 1 6.47 3.29 9A11 11 0 0 0 288.7 52a11.48 11.48 0 0 0 5.3-1.77 6 6 0 0 0 3.06-4.68c.07-.72.34-.88 1-.86 2 .06 4 0 6 0 .56 0 .8.05.69.76a13.41 13.41 0 0 1-8.37 10.7 21.65 21.65 0 0 1-17.81 0 16.17 16.17 0 0 1-9-9.68 26.61 26.61 0 0 1 .31-19.72c2.61-6.24 7.5-9.75 14.24-10.55a20.33 20.33 0 0 1 10.66 1.33c5.57 2.4 8.74 6.79 10.11 12.6a36.2 36.2 0 0 1 .75 7.91c0 .62-.2.77-.8.77h-14.26m37.12-5.95h10.27c.65 0 .73-.21.6-.74a19.22 19.22 0 0 0-1.21-3.93c-1.82-3.95-4.88-6.17-9.25-6.31a10 10 0 0 0-9.57 5.43 15.93 15.93 0 0 0-1.61 4.82c-.12.59-.05.74.57.73h10.2m3.83 5.87h-14.19c-.34 0-.73-.12-.66.49.34 3.29 1 6.47 3.3 9a11 11 0 0 0 9.68 3.7 12 12 0 0 0 4.65-1.38 6.5 6.5 0 0 0 3.77-5.3c0-.48.18-.63.67-.62h6.29c.57 0 .8.06.69.76a13.42 13.42 0 0 1-8.37 10.71 21.65 21.65 0 0 1-17.81 0 16.47 16.47 0 0 1-9.46-10.91 26.88 26.88 0 0 1 .73-18.5c2.65-6.23 7.51-9.74 14.26-10.54A20.16 20.16 0 0 1 336 17.59c5.42 2.45 8.5 6.79 9.83 12.48a36.2 36.2 0 0 1 .75 7.91c0 .63-.21.77-.8.77h-14.26m-95.68 1.12v16.26c0 .73-.22.89-.9.88h-5.68c-.68 0-.85-.17-.85-.85V23.72c0-.79-.19-1-1-1-1.43.07-2.86 0-4.29 0-.48 0-.62-.15-.61-.62v-4.68c0-.48.17-.6.62-.6h4.53c.6 0 .71-.18.71-.74a40 40 0 0 1 .29-6.65c.88-5.31 4.6-8.6 10-8.72a30.41 30.41 0 0 1 5.8.3c.47.08.69.23.68.77v5.29c0 .49-.09.66-.64.59a17.05 17.05 0 0 0-4.73-.23c-2.4.36-3.55 1.61-3.85 4-.2 1.61-.1 3.22-.16 4.82 0 .49.2.53.6.53h6.21c.57 0 .75.14.74.73v4.52c0 .51-.17.66-.66.65h-6.22c-.55 0-.67.15-.67.68v16.42M254.12 22a29.92 29.92 0 0 1 2.57-2.87 11.58 11.58 0 0 1 10.48-2.92c.37.07.56.18.55.63v6.21c0 .55-.14.67-.73.56-3.1-.56-6.15-.64-8.93 1.2a14.58 14.58 0 0 0-3.72 3.71 1.54 1.54 0 0 0-.22 1v26.53c0 .79-.19 1-1 1-1.87-.06-3.73 0-5.6 0-.7 0-.9-.16-.9-.88V17.6c0-.49.12-.68.64-.67h6.13c.57 0 .69.2.68.71v4.38" fill="#000003"/></svg>