<svg xmlns="http://www.w3.org/2000/svg" viewBox="0 0 55.9 55.7"><path d="M30.1 47H4.3A4.27 4.27 0 0 1 0 42.7V11.8a4.27 4.27 0 0 1 4.3-4.3h43a4.27 4.27 0 0 1 4.3 4.3v9.3l-2.2-.7v-8.5a2.11 2.11 0 0 0-2.1-2.1h-43a2.11 2.11 0 0 0-2.1 2.1v30.9a2.11 2.11 0 0 0 2.1 2.1h25.8V47z" fill="#353636"/><path d="M37 8.3h-2.2v-4a2.11 2.11 0 0 0-2.1-2.1H18.8a2.11 2.11 0 0 0-2.1 2.1v4h-2.2v-4A4.27 4.27 0 0 1 18.8 0h13.9A4.27 4.27 0 0 1 37 4.3v4z" fill="#353636"/><rect x="1.9" y="29.4" width="28.4" height="2.2" fill="#353636"/><rect x="21.8" y="20.9" width="8" height="2.2" fill="#353636"/><path d="M44.3 55.7a13.07 13.07 0 0 1-8.5-2.6 9.55 9.55 0 0 1-1.9-12.2 9.12 9.12 0 0 1 2.4-2.4 11.9 11.9 0 0 1-1.9-2 7.68 7.68 0 0 1-1.3-4.5 8.63 8.63 0 0 1 3.1-7.1 12 12 0 0 1 8-2.6 12 12 0 0 1 8 2.6 8.93 8.93 0 0 1 3.1 7.1 7.68 7.68 0 0 1-1.3 4.5 7.56 7.56 0 0 1-1.9 2.1 10 10 0 0 1 2.3 2.3 8.45 8.45 0 0 1 1.5 5 9.11 9.11 0 0 1-3.2 7.3c-2 1.7-4.9 2.5-8.4 2.5zm-.1-31.2a9.71 9.71 0 0 0-6.5 2 6.8 6.8 0 0 0-2.3 5.4 6 6 0 0 0 .9 3.3 6.48 6.48 0 0 0 2.6 2.3l2 1-2 1a7.24 7.24 0 0 0-3.1 2.6 7.22 7.22 0 0 0 1.4 9.3 10.93 10.93 0 0 0 7.1 2.1c3 0 5.4-.7 7-2.1a7 7 0 0 0 2.4-5.6 6.24 6.24 0 0 0-1.1-3.7 7.35 7.35 0 0 0-3-2.5l-2-1 1.9-1a7.32 7.32 0 0 0 2.6-2.3A6 6 0 0 0 53 32a6.8 6.8 0 0 0-2.3-5.4c-1.5-1.5-3.7-2.1-6.5-2.1zm.1 25.8a4.6 4.6 0 0 1-3.4-1.4 4.84 4.84 0 0 1-1.3-3.6 5.08 5.08 0 0 1 1.3-3.7 4.83 4.83 0 0 1 6.8 0 4.92 4.92 0 0 1 1.3 3.7 4.84 4.84 0 0 1-1.3 3.6 4.6 4.6 0 0 1-3.4 1.4zm0-7.8a2.27 2.27 0 0 0-1.8.7 3.3 3.3 0 0 0-.7 2.1 2.82 2.82 0 0 0 .7 2.1 2.27 2.27 0 0 0 1.8.7 2.06 2.06 0 0 0 1.7-.7 3.3 3.3 0 0 0 .7-2.1 2.54 2.54 0 0 0-.7-2.1 2.06 2.06 0 0 0-1.7-.7zm0-5.5a3.56 3.56 0 0 1-3.1-1.5 5.86 5.86 0 0 1-1-3.3 4.83 4.83 0 0 1 1-3.3 3.72 3.72 0 0 1 3-1.4 3.53 3.53 0 0 1 3.1 1.4 4.83 4.83 0 0 1 1 3.3 5.82 5.82 0 0 1-.9 3.3 3.56 3.56 0 0 1-3.1 1.5zm-.1-7.1a1.58 1.58 0 0 0-1.3.5 3.09 3.09 0 0 0-.5 1.9 3.94 3.94 0 0 0 .5 2 1.35 1.35 0 0 0 1.3.6 1.58 1.58 0 0 0 1.3-.5 3.68 3.68 0 0 0 .5-2 3.31 3.31 0 0 0-.5-1.9c-.1-.3-.4-.6-1.3-.6z" fill="#353636"/></svg>