<svg xmlns="http://www.w3.org/2000/svg" viewBox="0 0 59.11 57"><path d="M6.7 27.6H4.9A4.91 4.91 0 0 1 0 22.7v-.2L2.7 6.1a1.06 1.06 0 0 1 1-.9h8.6a1 1 0 0 1 1 1 1.08 1.08 0 0 1-1 1H4.6L2 22.6a2.78 2.78 0 0 0 2.8 2.7h1.8a2.8 2.8 0 0 0 2.8-2.8 1 1 0 0 1 1-1 1.08 1.08 0 0 1 1 1 4.68 4.68 0 0 1-4.7 5.1z" fill="#353636"/><path d="M16.2 27.6h-1.8a4.91 4.91 0 0 1-4.9-4.9 1 1 0 0 1 1-1 1.08 1.08 0 0 1 1 1 2.8 2.8 0 0 0 2.8 2.8h1.8a2.8 2.8 0 0 0 2.8-2.8 1 1 0 0 1 1-1 1.08 1.08 0 0 1 1 1 4.62 4.62 0 0 1-4.7 4.9z" fill="#353636"/><path d="M10.5 23.7h-.1a1 1 0 0 1-.9-1.1l1.8-16.4a1 1 0 0 1 2 .2l-1.8 16.4c0 .6-.4.9-1 .9zm15.3 3.9H24a4.91 4.91 0 0 1-4.9-4.9 1 1 0 0 1 1-1 1.08 1.08 0 0 1 1 1 2.8 2.8 0 0 0 2.8 2.8h1.8a2.8 2.8 0 0 0 2.8-2.8 1 1 0 0 1 1-1 1.08 1.08 0 0 1 1 1 4.62 4.62 0 0 1-4.7 4.9z" fill="#353636"/><path d="M20.1 23.7a1 1 0 0 1-1-1.1l.7-12.6a1.05 1.05 0 0 1 2.1.1l-.7 12.6a1.16 1.16 0 0 1-1.1 1zm15.2 3.9h-1.8a4.91 4.91 0 0 1-4.9-4.9 1 1 0 0 1 1-1 1.08 1.08 0 0 1 1 1 2.8 2.8 0 0 0 2.8 2.8h1.8a2.8 2.8 0 0 0 2.8-2.8 1 1 0 0 1 1-1 1.08 1.08 0 0 1 1 1 4.62 4.62 0 0 1-4.7 4.9z" fill="#353636"/><path d="M29.6 23.7a1 1 0 0 1-1-1V10.1a1 1 0 0 1 1-1 1.08 1.08 0 0 1 1 1v12.6c.1.6-.4 1-1 1zm15.2 3.9H43a4.91 4.91 0 0 1-4.9-4.9 1 1 0 0 1 1-1 1.08 1.08 0 0 1 1 1 2.8 2.8 0 0 0 2.8 2.8h1.8a2.8 2.8 0 0 0 2.8-2.8 1 1 0 0 1 1-1 1.08 1.08 0 0 1 1 1 4.62 4.62 0 0 1-4.7 4.9z" fill="#353636"/><path d="M39.2 23.7a1 1 0 0 1-1-1l-.7-12.6a1.05 1.05 0 0 1 2.1-.1l.7 12.6a1.18 1.18 0 0 1-1.1 1.1zm15.2 3.9h-1.8a4.91 4.91 0 0 1-4.9-4.9 1 1 0 0 1 1-1 1.08 1.08 0 0 1 1 1 2.8 2.8 0 0 0 2.8 2.8h1.8a2.78 2.78 0 0 0 2.8-2.7L54.5 7.4h-7.3a1 1 0 0 1-1-1 1.08 1.08 0 0 1 1-1h8.2a1.06 1.06 0 0 1 1 .9l2.7 16.4v.2a4.57 4.57 0 0 1-4.7 4.7z" fill="#353636"/><path d="M48.7 23.7a1 1 0 0 1-1-.9l-1.4-12.6a1 1 0 1 1 2-.2l1.4 12.6a.9.9 0 0 1-.9 1.1zM55.3 57H50a1 1 0 0 1-1-1 1.08 1.08 0 0 1 1-1h4.3V26.6a1 1 0 0 1 1-1 1.08 1.08 0 0 1 1 1V56a1 1 0 0 1-1 1zm-14.6 0H3.9a1 1 0 0 1-1-1V27.1a1 1 0 0 1 1-1 1.08 1.08 0 0 1 1 1v27.8h35.8a1 1 0 0 1 1 1 1.09 1.09 0 0 1-1 1.1z" fill="#353636"/><path d="M33.9 47.8H10.5l-1-1V32.7l1-1h23.4l1 1v14.1zm-22.3-2.1h21.3v-12H11.6zM49.1 57a1 1 0 0 1-1-1V33.7h-7.2V56a1 1 0 0 1-1 1 1.08 1.08 0 0 1-1-1V31.6h11.3V56a1.27 1.27 0 0 1-1.1 1z" fill="#353636"/><path d="M50 57h-9.3a1 1 0 0 1-1-1 1.08 1.08 0 0 1 1-1h9.2a1 1 0 0 1 1 1 .92.92 0 0 1-.9 1zm-2.7-45.9a1 1 0 0 1-1-1V6.3a1 1 0 0 1 1-1 1.08 1.08 0 0 1 1 1v3.8a1 1 0 0 1-1 1zm-26.5 0h-8.4a1 1 0 0 1-1-1V6.3a1 1 0 0 1 1-1 1.08 1.08 0 0 1 1 1V9h7.4a1 1 0 0 1 1 1 1.09 1.09 0 0 1-1 1.1z" fill="#353636"/><path d="M47.3 7.3a1 1 0 0 1-1-1V2H13.4v4.3a1 1 0 0 1-1 1 1.08 1.08 0 0 1-1-1V1a1 1 0 0 1 1-1h34.9a1 1 0 0 1 1 1v5.3a.94.94 0 0 1-1 1zm-17.7 3.8h-8.8a1 1 0 0 1-1-1 1.08 1.08 0 0 1 1-1h8.8a1 1 0 1 1 0 2z" fill="#353636"/><path d="M38.5 11.1h-8.8a1 1 0 0 1-1-1 1.08 1.08 0 0 1 1-1h8.8a1 1 0 0 1 1 1 1.08 1.08 0 0 1-1 1z" fill="#353636"/><path d="M38.5 11.1V9h8.8a1 1 0 0 1 0 2z" fill="#353636"/></svg>