<svg xmlns="http://www.w3.org/2000/svg" viewBox="0 0 54.3 52.35"><path d="M51 43.6h-2.2v-2.2H51a1.11 1.11 0 0 0 1.1-1.1v-37A1.11 1.11 0 0 0 51 2.2H3.3a1.11 1.11 0 0 0-1.1 1.1v37a1.11 1.11 0 0 0 1.1 1.1h28.1v2.2H3.3A3.33 3.33 0 0 1 0 40.3v-37A3.33 3.33 0 0 1 3.3 0H51a3.33 3.33 0 0 1 3.3 3.3v37a3.33 3.33 0 0 1-3.3 3.3z" fill="#353636"/><path d="M28.2 38.1H12.1A1.11 1.11 0 0 1 11 37a4.37 4.37 0 0 0-4.4-4.4 1.11 1.11 0 0 1-1.1-1.1V11.9a1.11 1.11 0 0 1 1.1-1.1A4.37 4.37 0 0 0 11 6.4a1.11 1.11 0 0 1 1.1-1.1h30.3a1.11 1.11 0 0 1 1.1 1.1 4.37 4.37 0 0 0 4.4 4.4 1.11 1.11 0 0 1 1.1 1.1v9.8h-2.3v-8.8a6.71 6.71 0 0 1-5.4-5.4H13a6.71 6.71 0 0 1-5.4 5.4v17.6a6.71 6.71 0 0 1 5.4 5.4h15.1v2.2z" fill="#353636"/><path d="M40.1 42.5a9.8 9.8 0 1 1 9.8-9.8 9.82 9.82 0 0 1-9.8 9.8zm0-17.4a7.6 7.6 0 1 0 7.6 7.6 7.47 7.47 0 0 0-7.6-7.6z" fill="#353636"/><path d="M45.6 52.3a1.85 1.85 0 0 1-.7-.2l-4.8-3.8-4.8 3.8a1 1 0 0 1-1.5-.2.84.84 0 0 1-.2-.7v-12h2.2v9.7l3.7-2.9a1.2 1.2 0 0 1 1.4 0l3.7 2.9v-9.7h2.2v12a1.28 1.28 0 0 1-1.2 1.1zm-6.5-34.9H15.4a1.11 1.11 0 0 1-1.1-1.1v-4.4a1.11 1.11 0 0 1 1.1-1.1h23.7a1.11 1.11 0 0 1 1.1 1.1v4.4c-.1.7-.5 1.1-1.1 1.1zm-22.7-2.1H38v-2.2H16.4v2.2zm-3.3 5.4h2.2v2.2h-2.2zm4.4 0h2.2v2.2h-2.2zm-4.4 4.4h15v2.2h-15v-2.2zm27 13a5.4 5.4 0 1 1 5.4-5.4 5.26 5.26 0 0 1-5.4 5.4zm0-8.7a3.3 3.3 0 1 0 3.3 3.3 3.33 3.33 0 0 0-3.3-3.3zM5.5 36h2.2v2.2H5.5zM46.7 5.5h2.2v2.2h-2.2zm-41.2 0h2.2v2.2H5.5z" fill="#353636"/></svg>