<svg xmlns="http://www.w3.org/2000/svg" viewBox="0 0 54.74 52.2"><path d="M17.7 10.7a1.06 1.06 0 1 0-1.5 0 .94.94 0 0 0 1.5 0z" fill="#353636"/><path d="M.1 42.5a.85.85 0 0 0 .8.7l6.2 1.2a.55.55 0 0 1 .5.3c.2.2.3.3.3.5l1.2 6.2a1.14 1.14 0 0 0 .7.8h.3a1.14 1.14 0 0 0 .8-.3l11.6-11.7a20.31 20.31 0 0 0 9.8 0l11.6 11.7a1.14 1.14 0 0 0 .8.3h.3a.85.85 0 0 0 .7-.8l1.2-6.2a.86.86 0 0 1 .3-.6c.2-.2.3-.3.5-.3l6.2-1.2a1.14 1.14 0 0 0 .8-.7 1.13 1.13 0 0 0-.3-1.1l-9.9-10a20 20 0 0 0 3.1-10.9 20.4 20.4 0 1 0-40.8 0 20.89 20.89 0 0 0 3.1 10.9L0 41.3c.1.4 0 .8.1 1.2zm47.4-.1a6.37 6.37 0 0 0-.7.2l-3.4-3.5a1.06 1.06 0 0 0-1.5 1.5l3.4 3.5a6.89 6.89 0 0 0-.3.8l-.8 4.2-9.4-9.4a20.7 20.7 0 0 0 8.8-6.4l8.2 8.3zm-20-40a18.2 18.2 0 0 1 18.2 18.2A18.48 18.48 0 0 1 42.5 31a18.59 18.59 0 0 1-10 7.2 16.79 16.79 0 0 1-5 .7 16.79 16.79 0 0 1-5-.7 18.1 18.1 0 0 1-10-7.2 18.48 18.48 0 0 1-3.2-10.4A18.2 18.2 0 0 1 27.5 2.4zm-16 30.8a20.11 20.11 0 0 0 8.8 6.4L10.9 49l-.8-4.2a2.61 2.61 0 0 0-.3-.8l3.7-3.8a1.06 1.06 0 0 0-1.5-1.5l-3.7 3.8a1.85 1.85 0 0 0-.7-.2l-4.2-.8z" fill="#353636"/><path d="M38.2 16.7a1 1 0 0 0-.9-.7l-6.1-.9-2.7-5.6a1.1 1.1 0 0 0-1-.6 1.1 1.1 0 0 0-1 .6l-2.7 5.6-6.1.9a1.27 1.27 0 0 0-.9.7 1.13 1.13 0 0 0 .3 1.1l4.4 4.3-1 6.1a1 1 0 0 0 .4 1 1.1 1.1 0 0 0 1.1.1l5.5-2.9 5.5 2.9a.9.9 0 0 0 .5.1 1.42 1.42 0 0 0 .6-.2 1 1 0 0 0 .4-1l-1-6.1 4.4-4.3a1.19 1.19 0 0 0 .3-1.1zm-6.6 4.2a.91.91 0 0 0-.3 1l.8 4.5-4.1-2.1a.91.91 0 0 0-1 0l-4.1 2.1.8-4.5a1.31 1.31 0 0 0-.3-1l-3.3-3.2 4.5-.7c.3-.1.7-.3.8-.6l2-4.1 2 4.1a1.56 1.56 0 0 0 .8.6l4.5.7z" fill="#353636"/><path d="M27.5 36.7a16.1 16.1 0 1 0-7.7-30.2 1.1 1.1 0 1 0 1.1 1.9 13.89 13.89 0 0 1 6.7-1.7 14 14 0 1 1-14 14 14.49 14.49 0 0 1 1.7-6.7 1.1 1.1 0 1 0-1.9-1.1 16 16 0 0 0 14.1 23.8z" fill="#353636"/></svg>