<svg xmlns="http://www.w3.org/2000/svg" viewBox="0 0 63.84 84.36"><path d="M6.48 14.56a.91.91 0 0 1-.7-.3l-.1-.1a1.06 1.06 0 0 1 .1-1.5 1.09 1.09 0 0 1 1.5.1c.1.1.2.2.2.3s.1.2.1.3a1.14 1.14 0 0 1-.3.8 1 1 0 0 1-.8.4z" fill="#353636"/><path d="M28.38 84.36c-.2 0-.3 0-.4-.1l-6.1-3a1.06 1.06 0 0 1-.6-.7 1 1 0 0 1 .2-.9c.2-.3.3-.4 0-.7-1-1.1-3.7-1.5-4.3-1.1a1.18 1.18 0 0 1-1 .1 1.05 1.05 0 0 1-.5-.9c0-2.5 2.9-4.3 4.8-5.5l.1-.1a3.93 3.93 0 0 1 2.3-.7h.2a3 3 0 0 0 .3-.4 3.92 3.92 0 0 1-1.4-.8 1.16 1.16 0 0 1-.4-1 1 1 0 0 1 .7-.8c.1 0 .1 0 .2-.1a14.2 14.2 0 0 0-1.2-1.3l-1.1-1.1a28 28 0 0 1-4.7-5.7l-.2-.3a3 3 0 0 0-1.5-1.6l-.1-.1a9.25 9.25 0 0 0-1-.5 3.45 3.45 0 0 1-.5 1.1A1.27 1.27 0 0 1 11 59h-.2l-.1.1a3.36 3.36 0 0 1-2.6.8h-.6a1 1 0 0 1-.9.7 1 1 0 0 1-1-.5 2.19 2.19 0 0 0-.3-.5c-.9.4-2.1.6-4-.8a.87.87 0 0 1-.4-.9 1 1 0 0 1 .5-.8 5.58 5.58 0 0 0 0-1.3 4.12 4.12 0 0 1 .5-2.9 2.08 2.08 0 0 1 1.9-.5 1.37 1.37 0 0 1 1-.8A1.29 1.29 0 0 1 6 52a4.05 4.05 0 0 1 1-.3 3.44 3.44 0 0 1 1.6.2.76.76 0 0 0 .4.1 12.76 12.76 0 0 1 .7-2.8 7.17 7.17 0 0 0-2.1-3.5A13.09 13.09 0 0 1 5.18 42a7.48 7.48 0 0 1-.1-3.3c.2-1.2.3-2-.7-3L1 35.46a1 1 0 0 1-.9-.7c-.2-.5 0-.8.5-1.4 2.1-2.8 2.5-3.6 2.6-3.9a.75.75 0 0 1 .5-.7 1 1 0 0 1 .9-.1 3.26 3.26 0 0 0 1 .3.37.37 0 0 0-.1-.3 4.89 4.89 0 0 1-.1-2.1 1 1 0 0 1 .5-.6 1.06 1.06 0 0 1 .8-.1 1.58 1.58 0 0 0 .4.1 3.47 3.47 0 0 0 .2-1.3 3.87 3.87 0 0 0-2.5 1.1 1 1 0 0 1-1.2-.1 4.48 4.48 0 0 1-1.5-3.4 1.88 1.88 0 0 1 .2-.8 1.73 1.73 0 0 1-.6-1.2 3.18 3.18 0 0 1 1.4-2.7c1.1-.9 2.8-1.5 4-1a1.38 1.38 0 0 1 .4.3v-.6c0-.1-.1-.1-.1-.2a9.87 9.87 0 0 1-1.8-1.8l-.1-.1a1.14 1.14 0 0 1-.3-.8l.1-1a6.76 6.76 0 0 1-.5-2.4 8.8 8.8 0 0 0-.1-1.4 1.23 1.23 0 0 1 .3-1.1 4.25 4.25 0 0 0-1.1-.2 1.08 1.08 0 0 1-1-.8L2 1.16a.92.92 0 0 1 .7-1.1 1 1 0 0 1 1.2.5 5.72 5.72 0 0 0 3.4.5 4.06 4.06 0 0 0 2.2-.6 1 1 0 0 1 1-.4 1 1 0 0 1 .8.7c.8 2.3.1 4.7-.4 6.5a11.15 11.15 0 0 0-.3 1.3c-.4 2-.5 3.7 1.3 5.4a3.73 3.73 0 0 0 2 1 1 1 0 0 1 .2-.9 7.78 7.78 0 0 1 3.1-2.1 6.69 6.69 0 0 0 2.5-1.6 11.09 11.09 0 0 1 1.1-1.1l.2-.2a8.9 8.9 0 0 1-.3-2.5 5.79 5.79 0 0 0-.3-1.7 2 2 0 0 1 0-1.5 2.28 2.28 0 0 1 1.6-.9 2.08 2.08 0 0 1 .3-1.3 2.46 2.46 0 0 1 2.1-.8 2.55 2.55 0 0 0 1.3-.2.91.91 0 0 1 1 0 1.05 1.05 0 0 1 .5.9v3.5l1.2 2.7a19.12 19.12 0 0 0 4.8 3.2 19.85 19.85 0 0 0 3 .6 10.37 10.37 0 0 1 6.3 2.7c.6.5 1.2 1.1 1.8 1.6l-1.3 1.5c-.6-.5-1.2-1-1.8-1.6a8.47 8.47 0 0 0-5.3-2.2 15.05 15.05 0 0 1-3.3-.7c-1.1-.3-5.5-2.9-6.1-4.4l-1.3-2.9a.6.6 0 0 1-.1-.4v-2.4a1.48 1.48 0 0 0-.7.1H24a1.09 1.09 0 0 0 .1.5 1.06 1.06 0 0 1-.1.8 1.28 1.28 0 0 1-.7.5c-.3.1-.7.1-1 .2a15.82 15.82 0 0 1 .4 2.1 10.65 10.65 0 0 0 .3 2.1c.3 1 0 1.4-.7 2.1a9.11 9.11 0 0 0-1 1 7.78 7.78 0 0 1-3.1 2 10.93 10.93 0 0 0-1.5.8c.2.7-.4 1.2-.7 1.5a2.62 2.62 0 0 1-1.8.9 5.09 5.09 0 0 1-3.7-1.6c-2.5-2.4-2.3-5-1.9-7.3.1-.4.2-.9.4-1.5a16.71 16.71 0 0 0 .7-4 8.7 8.7 0 0 1-3.6.4 11.14 11.14 0 0 1-1.7-.2l.4 2.4a3 3 0 0 1 2.6 1.6 1.39 1.39 0 0 1-.5 1.7 7.6 7.6 0 0 1 .1 1.4 5.06 5.06 0 0 0 .4 2 .75.75 0 0 1 .1.5l-.1.8a5.06 5.06 0 0 1 .8.9 1 1 0 0 1 .9.7.76.76 0 0 1 .1.4l.1.1a1.4 1.4 0 0 1 .3.9 3.75 3.75 0 0 1-.1.8c-.1.9-.4 2.5-1.6 3.2-.5.2-1.4.8-2.1.1a1.38 1.38 0 0 1-.2-1.7 3.55 3.55 0 0 0-.9.4c-.7.4-1 .8-1 1s.2.1.5.2a1.12 1.12 0 0 1 .7.8 1 1 0 0 1-.5 1c-.1 0-.2.1-.2.4a3 3 0 0 0 .3 1.2 6 6 0 0 1 4.1-.8 1 1 0 0 1 .7.4 1.08 1.08 0 0 1 .2.8c0 .3-.1.6-.1.9-.1 1.2-.2 2.3-1.2 3a1.14 1.14 0 0 1-.8.3.6.6 0 0 0 .1.4c.1.8.3 1.8-.4 2.4a2.58 2.58 0 0 1-2.3.2c-.3.6-.9 1.4-1.7 2.6l1.9.1a1.08 1.08 0 0 1 .7.3 4.89 4.89 0 0 1 1.5 5 6.46 6.46 0 0 0 0 2.4 7.9 7.9 0 0 0 2 3c1.2 1.4 2.4 2.8 2.6 4.8v.5c-.1.4-.6 2-.7 2.6a1 1 0 0 1-.3 1 2.3 2.3 0 0 1-2.7.6 1.34 1.34 0 0 0-.9-.1c-.1.1-.1.2-.2.4a1.05 1.05 0 0 1-.9.5 1 1 0 0 1-.8-.4l-.1.1a1.08 1.08 0 0 1-.8.2c-.2 0-.6-.1-.9-.1v1.2a6.73 6.73 0 0 1-.1 2c.6.3.9.2 1.1 0a1.75 1.75 0 0 1 2.1.3 4.14 4.14 0 0 1 1.5-.2c.6 0 .9 0 1.1-.2a3.07 3.07 0 0 1 1.4-.9c.1-.2.1-.4.2-.6a1.55 1.55 0 0 1 .8-1.2c.7-.3 1.2 0 3 .8l.1.1a5.54 5.54 0 0 1 2.4 2.4l.2.3a26.38 26.38 0 0 0 4.4 5.3l1.1 1.1c1.1 1.1 2.1 2.1 1.8 3.3 0 .1 0 .2-.1.2h.4a1.27 1.27 0 0 1 .9.4 1.18 1.18 0 0 1 .1 1c-1.1 2.3-1.7 2.9-3 2.8a2.27 2.27 0 0 0-1.2.3l-.1.1a17.83 17.83 0 0 0-3.2 2.4 7.74 7.74 0 0 1 4.7 1.9 2.57 2.57 0 0 1 .7 2.3l4.1 2a1.42 1.42 0 0 0 .2-.6 4.11 4.11 0 0 0 .3-3.1c-.1-.2-.2-.7-.4-1.2-.9-2.5-1.7-4.8-.9-6.3 1.2-2.2 3-2.6 4.6-3l.3-.1a7 7 0 0 1 2.5 0 6.23 6.23 0 0 0 1.9.1c.6-.1.7-.2.8-.4a6.49 6.49 0 0 1 1.1-.9 40.71 40.71 0 0 0 10.7-9.3c2-2.3 1.9-3 1.9-5.3V49a.91.91 0 0 1 .3-.7 1.08 1.08 0 0 1 .7-.3 4.19 4.19 0 0 1 1.6.4c0-.2-.1-.4-.1-.6-.1-.5-.2-1-.3-1.7a1.08 1.08 0 0 1 .2-.8 1 1 0 0 1 .7-.4 2.52 2.52 0 0 1 2 .6 16.59 16.59 0 0 1 1.6-.6 10.78 10.78 0 0 0 4.2-2.4 1.27 1.27 0 0 0-.6-.4v.1c-.9 1-4.3 1.6-5.4.9a2.3 2.3 0 0 1-1.2-1.8 4.35 4.35 0 0 1 1.8-3 .35.35 0 0 0-.1-.2c-.2-.1-.8.1-1.2.2-.9.2-2.4.6-3.1-.7-.6-1-.6-3.1-.5-5.9a17.36 17.36 0 0 0 0-2.3 11.23 11.23 0 0 0-1-4.1l1.9-.8a15.29 15.29 0 0 1 1.1 4.8v2.5a34.81 34.81 0 0 0 .1 4.7 3.71 3.71 0 0 0 .9-.2 3.3 3.3 0 0 1 2.9.2 2.53 2.53 0 0 1 .9 2.2 1.09 1.09 0 0 1-.4.9c-1.2.9-1.5 1.5-1.4 1.6s0 .1.2.1a6.36 6.36 0 0 0 2.6-.4.37.37 0 0 1 .1-.3.84.84 0 0 1 .8-.6 3.21 3.21 0 0 1 3.6 2.2 1.18 1.18 0 0 1-.1 1c-1.5 2-3.3 2.7-5.5 3.6-.7.3-1.4.6-2.2.9a1.48 1.48 0 0 1-.7.1 4.54 4.54 0 0 1-.2 3c-.1.3-.5.5-.8.6a1 1 0 0 1-.9-.4 1.34 1.34 0 0 0-.7-.6v1.1c0 2.6 0 3.9-2.4 6.7a44.4 44.4 0 0 1-11.2 9.7 6.82 6.82 0 0 0-.7.5 3.25 3.25 0 0 1-1.9 1 7.56 7.56 0 0 1-2.6 0 5.74 5.74 0 0 0-1.8-.1l-.3.1c-1.5.3-2.5.6-3.3 2-.4.8.6 3.5 1 4.6.2.6.4 1.1.5 1.4a5.41 5.41 0 0 1-.4 4.4 9.12 9.12 0 0 0-.6 1.6.9.9 0 0 1-.6.6c.28.26.18.36-.02.36zm28.4-42.7z" fill="#353636"/><path d="M52.58 25.66l-1.9-.8a3.81 3.81 0 0 0 .4-1.7 6.12 6.12 0 0 0-6.1-6.1 4.48 4.48 0 0 0-1.1.1l-.4-2a7.08 7.08 0 0 1 1.4-.1 8.07 8.07 0 0 1 8.1 8.1 3.8 3.8 0 0 1-.4 2.5z" fill="#353636"/><path d="M45.08 34.46l-.7-.6c-.8-.7-7.4-6.5-7.4-10.8a8.14 8.14 0 0 1 6.7-8l1-.2.4 2-1 .2a6 6 0 0 0-5 6c0 2.3 3.5 6.3 6 8.6 1.4-1.3 4.5-4.3 5.6-7l.4-.9 1.9.8-.4.9c-1.7 3.8-6.6 8.1-6.8 8.3z" fill="#353636"/><path d="M45.08 27.46a4.3 4.3 0 1 1 4.3-4.3 4.27 4.27 0 0 1-4.3 4.3zm0-6.6a2.2 2.2 0 1 0 2.2 2.2 2.16 2.16 0 0 0-2.2-2.2zm-25.2 23.7l-.7-.6c-.8-.7-7.4-6.5-7.4-10.8a8.1 8.1 0 1 1 16.2 0c0 4.3-6.7 10.1-7.4 10.8zm0-17.4a6.12 6.12 0 0 0-6.1 6.1c0 2.3 3.5 6.3 6.1 8.6 2.2-2 6.1-6.1 6.1-8.6a6.06 6.06 0 0 0-6.1-6.1z" fill="#353636"/><path d="M19.88 37.46a4.3 4.3 0 1 1 4.3-4.3 4.27 4.27 0 0 1-4.3 4.3zm0-6.5a2.2 2.2 0 1 0 2.2 2.2 2.1 2.1 0 0 0-2.2-2.16zm19.7 29.7l-.7-.6c-.8-.7-7.4-6.5-7.4-10.8a8.1 8.1 0 1 1 16.2 0c0 4.3-6.7 10.1-7.4 10.8zm0-17.4a6.12 6.12 0 0 0-6.1 6.1c0 2.3 3.5 6.3 6.1 8.6 2.2-2 6.1-6.1 6.1-8.6a6.26 6.26 0 0 0-6.1-6.1z" fill="#353636"/><path d="M39.58 53.56a4.3 4.3 0 1 1 4.3-4.3 4.33 4.33 0 0 1-4.3 4.3zm0-6.5a2.2 2.2 0 1 0 2.2 2.2 2.22 2.22 0 0 0-2.2-2.2z" fill="#353636"/></svg>