<svg xmlns="http://www.w3.org/2000/svg" viewBox="0 0 55.6 65"><path d="M28.2 65h-.6l-.3-.1C26.4 64.4 5.8 52.6 2.9 43 .1 33.6 0 13.3 0 12.5v-.8l.8-.2A94 94 0 0 0 13.7 7C20.1 4.2 27.2.1 27.3.1l.2-.1h.5l.3.1c.1 0 7.2 4.1 13.6 6.9a94 94 0 0 0 12.9 4.5l.8.2v.8c0 .8 0 20.5-2.9 29.9-2.9 9.6-23.5 22-24.4 22.5zm-26-51.8c0 3.9.3 21.1 2.8 29.2S24.8 61 28 62.8c3.2-2 20.5-13 23-21.1s2.7-24.7 2.8-28.5a93.11 93.11 0 0 1-12.4-4.4C35.9 6.4 29.8 3 28.1 2.1c-1.7 1-7.8 4.3-13.3 6.7C9.4 11 4.1 12.6 2.2 13.2z" fill="#353636"/><path d="M28.3 58.5h-.8l-.2-.1c-.7-.4-17.2-9.8-19.5-17.5-2.3-7.5-2.3-23.7-2.3-24.4v-.8l.8-.2a75.89 75.89 0 0 0 10.2-3.6c5.1-2.2 10.7-5.5 10.8-5.5l.2-.1h.8l.2.1c.1 0 5.7 3.3 10.8 5.5a88.23 88.23 0 0 0 10.2 3.6l.8.2v.8c0 .7 0 16.3-2.3 23.8-2.3 7.7-18.8 17.6-19.5 18.1zM7.5 17.3c0 3.4.3 16.7 2.2 23S25.3 55 27.9 56.4c2.5-1.6 16.3-10.3 18.2-16.6s2.2-19.2 2.2-22.5a90.41 90.41 0 0 1-9.8-3.5 118.74 118.74 0 0 1-10.6-5.4 118.74 118.74 0 0 1-10.6 5.4 83.36 83.36 0 0 1-9.8 3.5z" fill="#353636"/><path d="M27 45.2a10.9 10.9 0 0 1-1.7-.1l-2.2-.3a10.55 10.55 0 0 1-2.4-.6 24.43 24.43 0 0 1-2.4-1l-.8-.4 2.2-6.2.9.3c.7.2 1.3.4 1.9.6a8.87 8.87 0 0 0 1.4.3c.4.1.8.1 1.2.2a6.1 6.1 0 0 0 3.6-.5 1.51 1.51 0 0 0 .7-1.4 1.48 1.48 0 0 0-.1-.7 1.76 1.76 0 0 0-.4-.5 4.61 4.61 0 0 0-1-.5 8.62 8.62 0 0 0-3.3-.1l-.9.1-1-4.8.4-.4.9-.9a15.38 15.38 0 0 1 1.3-1.2l.6-.6H19v-6.9h17.7l1 5.4-4.6 3.9c.3.1.6.3.9.4a6.52 6.52 0 0 1 2.1 1.6 5.94 5.94 0 0 1 1.4 2.3 9.29 9.29 0 0 1 .5 2.9 8.72 8.72 0 0 1-.9 4 9.55 9.55 0 0 1-2.4 2.9 10.37 10.37 0 0 1-3.5 1.7 13.45 13.45 0 0 1-4.2.5zm-6.9-3.3a5.64 5.64 0 0 0 1.2.4 17.42 17.42 0 0 0 2.2.5c.7.1 1.4.2 2 .3a9.73 9.73 0 0 0 1.6.1 14.38 14.38 0 0 0 3.7-.5 8.18 8.18 0 0 0 2.8-1.4 5.49 5.49 0 0 0 1.8-2.2A7.45 7.45 0 0 0 36 36a5.09 5.09 0 0 0-.4-2.2 5.37 5.37 0 0 0-1-1.6A6.69 6.69 0 0 0 33 31a6.79 6.79 0 0 0-2-.7l-.7-.2-.1-1.4 5.3-4.5-.5-2.6H21.1v2.8h7.8l.6 1.6-.5.5a11.15 11.15 0 0 1-1 .9c-.4.4-.9.8-1.3 1.2s-.9.8-1.3 1.2c-.2.2-.4.3-.5.5l.4 1.9a7.24 7.24 0 0 1 3.1.3 5.39 5.39 0 0 1 1.7.8 3.05 3.05 0 0 1 1 1.3 4 4 0 0 1 .3 1.5 3.62 3.62 0 0 1-1.5 3.1 7.4 7.4 0 0 1-5 .9 5.85 5.85 0 0 1-1.3-.2 12.44 12.44 0 0 1-1.6-.4c-.3-.1-.6-.2-1-.3z" fill="#353636"/></svg>