<svg xmlns="http://www.w3.org/2000/svg" xmlns:xlink="http://www.w3.org/1999/xlink" viewBox="0 0 450.3 143"><defs><linearGradient id="a" x1="71.8" y1="-16.6" x2="71.8" y2="126.4" gradientTransform="matrix(1 0 0 -1 0 126.4)" gradientUnits="userSpaceOnUse"><stop offset="0" stop-color="#201600"/><stop offset="1" stop-color="#201600" stop-opacity="0"/></linearGradient><linearGradient id="b" x1="72" y1="8.63" x2="72" y2="104.84" xlink:href="#a"/><linearGradient id="c" x1=".01" y1="63.35" x2="143.62" y2="63.35" gradientTransform="matrix(1 0 0 -1 0 126.4)" gradientUnits="userSpaceOnUse"><stop offset="0" stop-color="#fff"/><stop offset=".85" stop-color="#fff" stop-opacity="0"/></linearGradient></defs><path d="M176.9 36.5h3.4c-1.7 3.5-4.8 5.3-9.1 5.3a9.91 9.91 0 0 1-7.4-3.2 10.57 10.57 0 0 1-3-7.6 10 10 0 0 1 3.1-7.4 10 10 0 0 1 7.4-3.1 10.85 10.85 0 0 1 5.4 1.4 8.47 8.47 0 0 1 3.6 4.1H177a6.72 6.72 0 0 0-5.8-2.8 6.94 6.94 0 0 0-5.3 2.4 7.81 7.81 0 0 0-2.3 5.5 7.94 7.94 0 0 0 2.2 5.6 7.23 7.23 0 0 0 11.1-.2zm21.1 4.9h-2.4v-2.1a7.21 7.21 0 0 1-5.2 2.4 7.52 7.52 0 0 1-7.7-7.7 7.32 7.32 0 0 1 2.2-5.4 7 7 0 0 1 5.3-2.2 7.14 7.14 0 0 1 5.2 2.3v-1.9h2.5v14.6zM185.4 34a5.37 5.37 0 0 0 1.5 3.8 4.71 4.71 0 0 0 3.7 1.6 4.59 4.59 0 0 0 3.5-1.6 5.25 5.25 0 0 0 1.5-3.6 5.14 5.14 0 0 0-1.5-3.7 4.85 4.85 0 0 0-7.2 0 4.54 4.54 0 0 0-1.5 3.5zm18.9 1.1v6.3h-2.5V26.7h2.5v6.1h7.1v-6.1h2.5v14.6h-2.5V35h-7.1zm15.7 6.3h-2.3V26.7h2.5v10.8l8-10.8h2.4v14.6h-2.5V30.5zm19.4 0h-2.5V29.1H233v-2.3h10.4v2.3h-3.9v12.3zm20.9 0h-2.4v-2.1a7.21 7.21 0 0 1-5.2 2.4A7.52 7.52 0 0 1 245 34a7.32 7.32 0 0 1 2.2-5.4 7 7 0 0 1 5.3-2.2 7.14 7.14 0 0 1 5.2 2.3v-1.9h2.5v14.6zM247.7 34a5.37 5.37 0 0 0 1.5 3.8 4.71 4.71 0 0 0 3.7 1.6 4.59 4.59 0 0 0 3.5-1.6 5.25 5.25 0 0 0 1.5-3.6 5.14 5.14 0 0 0-1.5-3.7 4.85 4.85 0 0 0-7.2 0 4.54 4.54 0 0 0-1.5 3.5zm24.1 7.7a7.71 7.71 0 0 1-5.3-2.3v8.3H264v-21h2.5v2a7 7 0 0 1 5-2.3 7.24 7.24 0 0 1 5.5 2.2 7.79 7.79 0 0 1 2.2 5.5 7.64 7.64 0 0 1-2.1 5.4 6.66 6.66 0 0 1-5.3 2.2zm-5.4-7.7a5.54 5.54 0 0 0 1.5 3.8 4.65 4.65 0 0 0 3.6 1.6 4.91 4.91 0 0 0 3.6-1.5 5.14 5.14 0 0 0 1.5-3.7 5.37 5.37 0 0 0-1.5-3.8 5.06 5.06 0 0 0-3.7-1.6 4.59 4.59 0 0 0-3.5 1.6 4.91 4.91 0 0 0-1.5 3.6zm18.5 1.1v6.3h-2.5V26.7h2.5v6.1h7.1v-6.1h2.5v14.6H292V35h-7.1zm27.9 6.3h-2.4v-2.1a7.21 7.21 0 0 1-5.2 2.4 7.52 7.52 0 0 1-7.7-7.7 7.32 7.32 0 0 1 2.2-5.4 7 7 0 0 1 5.3-2.2 7.14 7.14 0 0 1 5.2 2.3v-1.9h2.5v14.6zM300.1 34a5.37 5.37 0 0 0 1.5 3.8 4.71 4.71 0 0 0 3.7 1.6 4.59 4.59 0 0 0 3.5-1.6 5.25 5.25 0 0 0 1.5-3.6 5.14 5.14 0 0 0-1.5-3.7 4.85 4.85 0 0 0-7.2 0 4.91 4.91 0 0 0-1.5 3.5zm19.2 7.4h-2.8l4-5.9c-2.9-.4-4.3-1.8-4.3-4.3a3.88 3.88 0 0 1 1.6-3.4 6 6 0 0 1 3.7-1h5.7v14.6h-2.5V29h-3c-2 0-3 .7-3 2.2a2.08 2.08 0 0 0 1.3 2.1 7.94 7.94 0 0 0 2.6.3h1.9zm5.4-7.9h-.2l.2-.3z" fill="#d76446"/><path d="M160.9 69.1h3.4a6.59 6.59 0 0 0 5.7 2.7 7.2 7.2 0 0 0 5-2 8.6 8.6 0 0 0 2.5-4.8h-9.6v-2.6h9.5a7.66 7.66 0 0 0-2.6-4.6 7.46 7.46 0 0 0-10.8.9h-3.2a8.52 8.52 0 0 1 3.6-4.1 10.85 10.85 0 0 1 5.4-1.4 10 10 0 0 1 7.4 3.1 10.13 10.13 0 0 1 3.1 7.4 10.57 10.57 0 0 1-3 7.6 9.91 9.91 0 0 1-7.4 3.2 10.79 10.79 0 0 1-5.4-1.3 9.61 9.61 0 0 1-3.6-4.1zm25.1-7.4v12.4h-2.5V59.5h11.8v14.6h-2.5V61.7zm15.4 12.4h-2.3V59.5h2.5v10.8l8-10.8h2.4v14.6h-2.5V63.2zm12.7-2.3h1.5l4.3-12.4h2.6l4.3 12.4h1.5v5.4h-2.4V74h-9.5v3.2H214v-5.4zm7.1-9.2l-3 9.2h6zm20.5 7h2.8c-1.4 3.3-3.7 4.9-7 4.9a7 7 0 0 1-5.3-2.3 7.73 7.73 0 0 1 0-10.8 7.19 7.19 0 0 1 5.3-2.3 6.87 6.87 0 0 1 4.3 1.3 8 8 0 0 1 2.7 3.7 10.36 10.36 0 0 1 .5 3.7h-12.4a5.58 5.58 0 0 0 1.7 3.2 4.82 4.82 0 0 0 3.2 1.3 5.46 5.46 0 0 0 4.2-2.7zm-4.2-8.1a4.69 4.69 0 0 0-3.1 1.1 5.16 5.16 0 0 0-1.8 2.9h9.7c-.8-2.7-2.4-4-4.8-4zm19.6 12.6H255l-4.7-10.7v10.7h-2.4V59.5h3.3l4.9 11.8 4.8-11.8h3.3v14.6h-2.4V63.4zm13.2 0H268V59.5h2.5v10.8l8-10.8h2.4v14.6h-2.5V63.2zm28.6-7.5a7.54 7.54 0 0 1-2.2 5.5 7.14 7.14 0 0 1-5.4 2.4 7.41 7.41 0 0 1-5.4-2.3 7.32 7.32 0 0 1-2.2-5.4 7.71 7.71 0 0 1 2.2-5.5 6.94 6.94 0 0 1 5.3-2.4 7.86 7.86 0 0 1 7.7 7.7zm-12.6.1a5.49 5.49 0 0 0 1.4 3.7 4.75 4.75 0 0 0 3.6 1.5 4.65 4.65 0 0 0 3.6-1.6 5 5 0 0 0 1.4-3.7 5.75 5.75 0 0 0-1.4-3.8 4.91 4.91 0 0 0-3.6-1.5 4.31 4.31 0 0 0-3.5 1.6 5.73 5.73 0 0 0-1.5 3.8zm20.4-3.6l-3.8 11h-2.7l5.4-14.6h2.1l5.4 14.6h-2.5zm22.8 3.5a7.54 7.54 0 0 1-2.2 5.5 7.14 7.14 0 0 1-5.4 2.4 7.41 7.41 0 0 1-5.4-2.3 7.32 7.32 0 0 1-2.2-5.4 7.71 7.71 0 0 1 2.2-5.5 6.94 6.94 0 0 1 5.3-2.4 7.86 7.86 0 0 1 7.7 7.7zm-12.6.1a5.49 5.49 0 0 0 1.4 3.7 4.75 4.75 0 0 0 3.6 1.5 4.65 4.65 0 0 0 3.6-1.6 5 5 0 0 0 1.4-3.7 5.75 5.75 0 0 0-1.4-3.8 4.91 4.91 0 0 0-3.6-1.5 4.31 4.31 0 0 0-3.5 1.6 5.27 5.27 0 0 0-1.5 3.8zm18-4.9v12.3h-2.5V59.5h8.3v2.3zm10.7 12.3h-2.3V59.5h2.5v10.8l8-10.8h2.4v14.6h-2.6V63.2zm24.7 0h-2.5v-6.2a9.86 9.86 0 0 1-3.8.7 4.9 4.9 0 0 1-3.2-1 3.39 3.39 0 0 1-1.5-2.9v-5.2h2.4v4.6a2.06 2.06 0 0 0 2.3 2.3 8.55 8.55 0 0 0 3.8-.8v-6.1h2.5v14.6zm14.8-4.5h2.8c-1.4 3.3-3.7 4.9-7 4.9a7 7 0 0 1-5.3-2.3 7.73 7.73 0 0 1 0-10.8 7.19 7.19 0 0 1 5.3-2.3 6.87 6.87 0 0 1 4.3 1.3 8 8 0 0 1 2.7 3.7 10.36 10.36 0 0 1 .5 3.7H376a5.58 5.58 0 0 0 1.7 3.2 4.82 4.82 0 0 0 3.2 1.3 5.46 5.46 0 0 0 4.2-2.7zm-4.2-8.1a4.69 4.69 0 0 0-3.1 1.1 5.16 5.16 0 0 0-1.8 2.9h9.7c-.8-2.7-2.4-4-4.8-4zm21.6 7.7h2.7c-1.3 3.5-3.6 5.3-7.1 5.3a7 7 0 0 1-5.4-2.2 7.71 7.71 0 0 1-2.1-5.5 7.24 7.24 0 0 1 2.2-5.5 7.39 7.39 0 0 1 5.5-2.2 6.93 6.93 0 0 1 4.3 1.4 7.44 7.44 0 0 1 2.6 3.8h-2.7a4.47 4.47 0 0 0-4.5-2.7 4.31 4.31 0 0 0-3.5 1.6 5.68 5.68 0 0 0-1.4 3.7 5.31 5.31 0 0 0 1.4 3.7 4.78 4.78 0 0 0 8-1.4zm8.1 4.9h-2.5V59.5h2.5v6.9l.1-.2v.2l6.2-6.9h2.8l-6.2 6.9 6.3 7.7h-3.2l-6-7.5v.3l-.1-.2v7.4zm25.3 0h-2.4V72a7.21 7.21 0 0 1-5.2 2.4 7.71 7.71 0 0 1-5.5-13.1 7 7 0 0 1 5.3-2.2 7.14 7.14 0 0 1 5.2 2.3v-1.9h2.5v14.6zm-12.7-7.4a5.37 5.37 0 0 0 1.5 3.8 4.71 4.71 0 0 0 3.7 1.6 4.59 4.59 0 0 0 3.5-1.6 5.25 5.25 0 0 0 1.5-3.6 5.14 5.14 0 0 0-1.5-3.7 4.85 4.85 0 0 0-7.2 0 4.91 4.91 0 0 0-1.5 3.5zm19.2 7.4h-2.8l4-5.9c-2.9-.4-4.3-1.8-4.3-4.3a3.88 3.88 0 0 1 1.6-3.4 6 6 0 0 1 3.7-1h5.7v14.6h-2.5V61.7h-3c-2 0-3 .7-3 2.2a2.08 2.08 0 0 0 1.3 2.1 7.94 7.94 0 0 0 2.6.3h1.9zm5.4-7.9h-.2l.2-.3zm-270.9 35.6h3.4c-1.7 3.5-4.8 5.3-9.1 5.3a9.91 9.91 0 0 1-7.4-3.2 10.57 10.57 0 0 1-3-7.6 10.59 10.59 0 0 1 10.5-10.5 10.85 10.85 0 0 1 5.4 1.4 8.47 8.47 0 0 1 3.6 4.1H177a6.72 6.72 0 0 0-5.8-2.8 6.94 6.94 0 0 0-5.3 2.4 7.81 7.81 0 0 0-2.3 5.5 7.94 7.94 0 0 0 2.2 5.6 6.91 6.91 0 0 0 5.4 2.5 6.47 6.47 0 0 0 5.7-2.7zm11.5-6l-3.8 11h-2.7l5.4-14.6h2.1l5.4 14.6h-2.7zm13.2 10.6l-5.8-14.3h2.7l4.5 11.2 4.2-11.2h2.7l-8.2 21H199zm8.6-14.3h2.9l5.9 7.1-5.6 7.5h-3.2l6-7.7zm8.9 14.6V92.1h2.4v14.6zm8.2 0l-5.7-7.5 5.9-7.1h2.9l-6 6.9 6 7.7h-3.1zm18.2-21.9v2.3h-5c-3.3 0-5.4 1.5-6.2 4.4a15.84 15.84 0 0 0-.3 3.4 5.39 5.39 0 0 1 2.4-2 6.7 6.7 0 0 1 3.1-.7 6.35 6.35 0 0 1 5.1 2.1 7.57 7.57 0 0 1 1.8 5.3 7.71 7.71 0 0 1-2.1 5.5 7 7 0 0 1-5.3 2.2 7.08 7.08 0 0 1-5.3-2.1 7.24 7.24 0 0 1-2.1-5.3v-2.7c0-6.5 1.7-10.4 5-11.6a9 9 0 0 1 3.4-.6h5.5zM234 99.7a5.17 5.17 0 0 0 1.3 3.8 4.59 4.59 0 0 0 3.6 1.4 4.9 4.9 0 0 0 3.6-1.4 5.24 5.24 0 0 0 1.3-3.7 5.67 5.67 0 0 0-1.2-3.7 4.42 4.42 0 0 0-3.4-1.6 5.12 5.12 0 0 0-5.2 5.2zm29.8 7h-2.4v-2.1a7.21 7.21 0 0 1-5.2 2.4 7.71 7.71 0 0 1-5.5-13.1 7 7 0 0 1 5.3-2.2 7.14 7.14 0 0 1 5.2 2.3v-1.9h2.5v14.6zm-12.6-7.3a5.37 5.37 0 0 0 1.5 3.8 4.71 4.71 0 0 0 3.7 1.6 4.59 4.59 0 0 0 3.5-1.6 5.25 5.25 0 0 0 1.5-3.6 5.14 5.14 0 0 0-1.5-3.7 4.85 4.85 0 0 0-7.2 0 4.4 4.4 0 0 0-1.5 3.5z" fill="#fff"/><path d="M66.8 2L48.5 0a105.43 105.43 0 0 1-14.9 4.8c-6.9 1.5-12.2-.7-19.5 6.3S1.9 23 0 27.8v12.4h.6a5.44 5.44 0 0 1 5.5 5.3V86a5.44 5.44 0 0 1-5.5 5.3H0v5.1s5 17.8 20.2 23.7 34 10.4 40.9 13.7a24.21 24.21 0 0 1 10.1 9.2 34.06 34.06 0 0 1 11.3-9.2c6.9-3.3 25.6-7.8 40.9-13.7s20.2-23.7 20.2-23.7v-5.1h-.6a5.44 5.44 0 0 1-5.5-5.3V45.5a5.44 5.44 0 0 1 5.5-5.3h.6V27.8c-1.9-4.8-6.9-9.7-14.1-16.7S116.9 6.3 110 4.8A105.43 105.43 0 0 1 95.1 0L76.8 2z" fill="#d76446"/><path d="M66.8 2L48.5 0a105.43 105.43 0 0 1-14.9 4.8c-6.9 1.5-12.2-.7-19.5 6.3S1.9 23 0 27.8v12.4h.6a5.44 5.44 0 0 1 5.5 5.3V86a5.44 5.44 0 0 1-5.5 5.3H0v5.1s5 17.8 20.2 23.7 34 10.4 40.9 13.7a24.21 24.21 0 0 1 10.1 9.2 34.06 34.06 0 0 1 11.3-9.2c6.9-3.3 25.6-7.8 40.9-13.7s20.2-23.7 20.2-23.7v-5.1h-.6a5.44 5.44 0 0 1-5.5-5.3V45.5a5.44 5.44 0 0 1 5.5-5.3h.6V27.8c-1.9-4.8-6.9-9.7-14.1-16.7S116.9 6.3 110 4.8A105.43 105.43 0 0 1 95.1 0L76.8 2z" fill="url(#a)" opacity=".05"/><path d="M94.1 5.3a105.5 105.5 0 0 0 14.8 4.7 54.28 54.28 0 0 0 6.3.8c4.2.3 6.8.5 10.6 4.1 5.7 5.5 10.6 10.3 12.5 14v7a10.67 10.67 0 0 0-6.1 9.6V86a10.67 10.67 0 0 0 6.1 9.6c-1 3-5.8 15.2-16.8 19.5-7.5 2.9-15.9 5.5-23.4 7.7-7.9 2.4-14.1 4.3-17.9 6.1a36.92 36.92 0 0 0-8.6 5.9 31.42 31.42 0 0 0-8.1-5.9c-3.8-1.8-10-3.7-17.9-6.1-7.4-2.3-15.9-4.8-23.4-7.7-11-4.3-15.8-16.5-16.8-19.5a10.67 10.67 0 0 0 6.1-9.6V45.5a10.67 10.67 0 0 0-6.1-9.6v-7c1.9-3.7 6.8-8.5 12.5-14 3.8-3.7 6.3-3.8 10.6-4.1a38.76 38.76 0 0 0 6.3-.8 105.5 105.5 0 0 0 14.8-4.7l17.3 2h9.9l17.3-2m1-5.3L76.8 2h-9.9L48.6 0a105.43 105.43 0 0 1-14.9 4.8c-6.9 1.5-12.2-.7-19.5 6.3S2 23 .1 27.8v12.4h.5a5.44 5.44 0 0 1 5.5 5.3V86a5.44 5.44 0 0 1-5.5 5.3H0v5.1s5 17.8 20.2 23.7 34 10.4 40.9 13.7a24.21 24.21 0 0 1 10.1 9.2 34.06 34.06 0 0 1 11.3-9.2c6.9-3.3 25.6-7.8 40.9-13.7s20.2-23.7 20.2-23.7v-5.1h-.6a5.44 5.44 0 0 1-5.5-5.3V45.5a5.44 5.44 0 0 1 5.5-5.3h.6V27.8c-1.9-4.8-6.9-9.7-14.1-16.7S116.9 6.3 110 4.8A105.43 105.43 0 0 1 95.1 0z" fill="#606060"/><path d="M94.2 4.7A115.36 115.36 0 0 0 109 9.4a55.59 55.59 0 0 0 6.2.8c4.2.3 7 .5 10.9 4.3 5.8 5.6 10.8 10.4 12.7 14.3v7.5a10.09 10.09 0 0 0-6.1 9.2V86a10 10 0 0 0 6.1 9.2v.4c-1 2.8-5.8 15.5-17.2 20-7.5 2.9-16 5.5-23.4 7.7-7.6 2.3-14.1 4.3-17.8 6.1a39.68 39.68 0 0 0-8.9 6.2 30.53 30.53 0 0 0-8.4-6.2c-3.8-1.8-10.3-3.8-17.8-6.1s-15.9-4.8-23.4-7.7c-11.4-4.4-16.2-17.2-17.2-20v-.4a10.09 10.09 0 0 0 6.1-9.2V45.5a10 10 0 0 0-6.1-9.2v-7.5c1.9-3.8 6.9-8.7 12.7-14.3 3.9-3.8 6.7-4 10.9-4.3a39 39 0 0 0 6.2-.8 110.27 110.27 0 0 0 14.8-4.7l17.4 2h9.9l17.6-2m.9-4.7L76.8 2h-9.9L48.6 0a105.43 105.43 0 0 1-14.9 4.8c-6.9 1.5-12.2-.7-19.5 6.3S2 23 .1 27.8v12.4h.5a5.44 5.44 0 0 1 5.5 5.3V86a5.44 5.44 0 0 1-5.5 5.3H0v5.1s5 17.8 20.2 23.7 34 10.4 40.9 13.7a24.21 24.21 0 0 1 10.1 9.2 34.06 34.06 0 0 1 11.3-9.2c6.9-3.3 25.6-7.8 40.9-13.7s20.2-23.7 20.2-23.7v-5.1h-.6a5.44 5.44 0 0 1-5.5-5.3V45.5a5.44 5.44 0 0 1 5.5-5.3h.6V27.8c-1.9-4.8-6.9-9.7-14.1-16.7S116.9 6.3 110 4.8A105.43 105.43 0 0 1 95.1 0z" fill="#d76446"/><path d="M94.4 3.6a97.28 97.28 0 0 0 14.8 4.7 34.61 34.61 0 0 0 6.1.7c4.3.3 7.4.5 11.7 4.6 6.9 6.6 11.3 11 13 14.9v8.6a8.83 8.83 0 0 0-6.1 8.4V86a9 9 0 0 0 6.1 8.4v1.5c-.8 2.6-5.8 16.2-18 20.9-7.6 2.9-16 5.5-23.5 7.8s-14 4.3-17.7 6a36.82 36.82 0 0 0-9.4 6.8 27.12 27.12 0 0 0-8.8-6.8c-3.7-1.8-10.1-3.7-17.7-6s-15.9-4.8-23.5-7.8c-12.1-4.7-17.1-18.3-18-20.9v-1.5A8.83 8.83 0 0 0 9.5 86V45.5a9 9 0 0 0-6.1-8.4v-8.6c1.8-3.8 6.2-8.2 13-14.9 4.3-4.1 7.4-4.3 11.7-4.6a49.69 49.69 0 0 0 6.1-.7A110.35 110.35 0 0 0 49 3.6l17.6 2h9.9l17.9-2m.7-3.6L76.8 2h-9.9L48.6 0a105.43 105.43 0 0 1-14.9 4.8c-6.9 1.5-12.2-.7-19.5 6.3S2 23 .1 27.8v12.4h.5a5.44 5.44 0 0 1 5.5 5.3V86a5.44 5.44 0 0 1-5.5 5.3H0v5.1s5 17.8 20.2 23.7 34 10.4 40.9 13.7a24.21 24.21 0 0 1 10.1 9.2 34.06 34.06 0 0 1 11.3-9.2c6.9-3.3 25.6-7.8 40.9-13.7s20.2-23.7 20.2-23.7v-5.1h-.6a5.44 5.44 0 0 1-5.5-5.3V45.5a5.44 5.44 0 0 1 5.5-5.3h.6V27.8c-1.9-4.8-6.9-9.7-14.1-16.7S116.9 6.3 110 4.8A105.43 105.43 0 0 1 95.1 0z" fill="#eadfa9"/><path d="M94.5 3a103.62 103.62 0 0 0 14.9 4.7 33.56 33.56 0 0 0 6 .7c4.3.3 7.6.5 12.1 4.8 7 6.7 11.4 11.2 13.2 15.2v9.2a8.37 8.37 0 0 0-6.1 8v40.5a8.37 8.37 0 0 0 6.1 8v2c-.8 2.4-5.8 16.5-18.3 21.3-7.6 2.9-16.1 5.5-23.5 7.8s-13.9 4.2-17.6 6a36.4 36.4 0 0 0-9.7 7.2 29.72 29.72 0 0 0-9.1-7.2c-3.6-1.8-10.1-3.7-17.6-6s-15.9-4.8-23.5-7.8C8.9 112.5 3.8 98.5 3.1 96.1v-2a8.37 8.37 0 0 0 6.1-8V45.5a8.37 8.37 0 0 0-6.1-8v-9.2c1.8-4 6.3-8.4 13.2-15.2 4.4-4.3 7.8-4.5 12.1-4.8a46.18 46.18 0 0 0 6-.7 103.62 103.62 0 0 0 14.9-4.7l17.7 2h9.9L94.5 3m.6-3L76.8 2h-9.9L48.6 0a105.43 105.43 0 0 1-14.9 4.8c-6.9 1.5-12.2-.7-19.5 6.3S2 23 .1 27.8v12.4h.5a5.44 5.44 0 0 1 5.5 5.3V86a5.44 5.44 0 0 1-5.5 5.3H0v5.1s5 17.8 20.2 23.7 34 10.4 40.9 13.7a24.21 24.21 0 0 1 10.1 9.2 34.06 34.06 0 0 1 11.3-9.2c6.9-3.3 25.6-7.8 40.9-13.7s20.2-23.7 20.2-23.7v-5.1h-.6a5.44 5.44 0 0 1-5.5-5.3V45.5a5.44 5.44 0 0 1 5.5-5.3h.6V27.8c-1.9-4.8-6.9-9.7-14.1-16.7S116.9 6.3 110 4.8A105.43 105.43 0 0 1 95.1 0z" fill="#ce5942"/><ellipse cx="69.5" cy="92.4" rx=".6" ry="1.2" fill="#fff"/><path d="M71.9 50.2c-.3-4.4-3.9-10.6-6.8-13.5l.6-.3c.5-.3 1-2.2 1-2.2l-.5.3a3 3 0 0 1-1.3.3l-.1.1a7 7 0 0 0 1.5-1.9 9.4 9.4 0 0 1-2.7 1.1s-1.9-.9-3.7-1.7c-1.6-.6-3.8-.5-4.6.1a2.44 2.44 0 0 0-.6 2 3.39 3.39 0 0 0-3.7.9 3.23 3.23 0 0 0-.9 3.2 5.85 5.85 0 0 1 2.4-.9 5.94 5.94 0 0 1 3.6 1.2c-1.6 0-3.6.2-3.8 1.9a3.16 3.16 0 0 1 2.1-.8 25.63 25.63 0 0 1 3.3.6 44.16 44.16 0 0 1 2.9 3.7c1.7 2.8 1.4 5.1.4 5.8a3.36 3.36 0 0 1-4.1-.5 2.33 2.33 0 0 0 .5 2.2 4.06 4.06 0 0 0 3.8.9.76.76 0 0 0 .5-.2 3.85 3.85 0 0 1-3.4 1.4 4.16 4.16 0 0 1-3.3-1.7 5.06 5.06 0 0 0 .1 3.7 4.49 4.49 0 0 0 2.7 1.8 5.43 5.43 0 0 1-5.5 2.6 10.6 10.6 0 0 1-5.7-2.1 7.31 7.31 0 0 1-1.4-1.6 2.37 2.37 0 0 1-.2-2 8.34 8.34 0 0 1 .8-1.2 4.58 4.58 0 0 0-.6-5.9 10.33 10.33 0 0 1-3.7-2.6 9.35 9.35 0 0 1-1.8-3.3 10.3 10.3 0 0 0-.4 2.3l-.1-.1c-2.2-.5-4.8-5.2-5.5-7.6a4.19 4.19 0 0 0-.9 1.1v-.1a22.46 22.46 0 0 1-6.5-7.1 33.83 33.83 0 0 1-3.4-8.4 7.22 7.22 0 0 0-2.1 3.6c-1 3.5.8 8.3 3.5 11.8l-.7-.9a19.44 19.44 0 0 1-3.9-4.4s-1 .7-1 3.2c0 5.1 4.7 10.5 10.3 11.9A19.42 19.42 0 0 1 18.7 42a9.89 9.89 0 0 0 2.6 8.2 15.79 15.79 0 0 0 8.3 3.6 24.52 24.52 0 0 1-10.3-2.6 9.5 9.5 0 0 0 3.5 6.1 11.57 11.57 0 0 0 7.3 1.8 38.44 38.44 0 0 1-7.6.2 9.31 9.31 0 0 0 5.7 4 10.49 10.49 0 0 0 6.5-.7 22.15 22.15 0 0 1-6.8 1.9c2.9 1.3 5.9 2.2 9.1.7a13 13 0 0 1-4.2 3.2c2.7 2.1 5.4 1 7.8-.4a11 11 0 0 1-2.6 3.1c3 1 5.5-.6 7.7-2.5a15.72 15.72 0 0 1-3 3.3c2.8.9 5.1-1.1 6.4-3.4a2.51 2.51 0 0 1 .4 2.4 7.81 7.81 0 0 0 2.9-1.4 3 3 0 0 0 1.1-2.5l.2 1.2a6 6 0 0 1 4.3 2.5 6.54 6.54 0 0 1 .9 4.9 9.17 9.17 0 0 1-.9 2.3 3.75 3.75 0 0 1-1.9 1.6 2.29 2.29 0 0 1-2.1-.4 7 7 0 0 0 1.1 2.1 7.37 7.37 0 0 0-4.1 3 5.44 5.44 0 0 0-.2 5.1 3.46 3.46 0 0 1 .1 4 2.53 2.53 0 0 0 2.2-.1c.2-.1.3-.2.5-.3l-.1.1a36 36 0 0 1-5.8 8.8c-.1.2-.4.3-.4.5a.1.1 0 0 0-.1-.1 1.1 1.1 0 0 0-.7.1c-.1 0-.1.1-.2.1a12.9 12.9 0 0 1-3.9.8 1.28 1.28 0 0 0-1.2 0 1.38 1.38 0 0 0-.3.4 2.92 2.92 0 0 0-.2.9 2.77 2.77 0 0 0 .3 1.3l.3.3c.4.6.7 1.1 1.1 1.7.1 0 .1.1.2.1a.37.37 0 0 1 .3.1h-.1l.1.1c.1.1.1.2.2.2a.88.88 0 0 0 .8.2c.1.1.1.2.2.3s.1.1.2.1a1.09 1.09 0 0 0 .5.1 1.49 1.49 0 0 0 1.4.4c-.2-.3-.4-.4-.6-.7l.2-.2a.1.1 0 0 0-.1-.1 4 4 0 0 0-.3-.4 5.9 5.9 0 0 1-.4-.8l-.3-.5v-.7c.3-.1.6-.1 1-.2s.8-.2 1.1-.3c.1 0 .2-.1.3-.1a5.67 5.67 0 0 0 1.3-.8 1.7 1.7 0 0 0 1.3 1h-.2a2 2 0 0 1-.4.9 2.22 2.22 0 0 0-.4.5 1 1 0 0 0 .1.4l-.1-.1c-.3.3-.5.4-.7.6a1.4 1.4 0 0 0 1.4-.2h.5a4.36 4.36 0 0 0 1.3-1.4 2 2 0 0 0 .3-1.8 2.34 2.34 0 0 1-1.7-1.5c3.3-3.4 5.6-5.4 8.8-6.7 0 0 1.8-.8 1.9-1.2s-.1-1.3-.1-1.3l-.2-.3a2.85 2.85 0 0 0 2 .2 4.23 4.23 0 0 1-2.4-4.4 13 13 0 0 1 2.2 0c2.1.3 3.9 1 4.3 2.7.3 1.3-.9 2.9-.9 2.9a3.88 3.88 0 0 0 2.9-.8 3.63 3.63 0 0 0 1.3-2.4l-.1 1.4-.3-.1a4.86 4.86 0 0 1-.5 2.3c-.5 1.3-2.5 2.7-4.7 4.3a11.31 11.31 0 0 0-4.3 6.9c-.7 3 .2 4.8 2 6a4.25 4.25 0 0 0 2.4.7H64a8.8 8.8 0 0 0 2.2 2.1 2.66 2.66 0 0 0 1.2.3c.2 0 .3.1.5.1h.5c.2.9 2.2 1.8 3.3 2.1v.2a.77.77 0 0 0 .3-.1.77.77 0 0 0 .3.1v-.2c1.1-.4 3.1-1.2 3.3-2.1h.5a.9.9 0 0 0 .5-.1l1.2-.3a8.8 8.8 0 0 0 2.2-2.1h-.1a4.25 4.25 0 0 0 2.4-.7c1.8-1.2 2.8-3 2-6a11.77 11.77 0 0 0-4.3-6.9c-2.2-1.6-4.1-3-4.7-4.3a7.08 7.08 0 0 1-.5-2.3l-.3.1-.1-1.4a3.63 3.63 0 0 0 1.3 2.4 3.94 3.94 0 0 0 2.9.8s-1.3-1.6-.9-2.9c.5-1.8 2.2-2.5 4.3-2.7a6.54 6.54 0 0 1 2.2 0 4.1 4.1 0 0 1-2.4 4.4 2.4 2.4 0 0 0 2-.2l-.2.3s-.1.9-.1 1.3 1.9 1.2 1.9 1.2c3.3 1.3 5.6 3.3 8.8 6.7a2.18 2.18 0 0 1-1.7 1.5 1.7 1.7 0 0 0 .3 1.8 5.71 5.71 0 0 0 1.3 1.4.69.69 0 0 0 .5 0 1.44 1.44 0 0 0 1.4.2c-.2-.3-.4-.3-.7-.6l-.1.1a1 1 0 0 0 .1-.4 2.22 2.22 0 0 0-.4-.5 2.52 2.52 0 0 1-.4-.9h-.2a2.12 2.12 0 0 0 1.3-1 9.13 9.13 0 0 0 1.3.8c.1 0 .2.1.3.1.3.1.7.2 1.1.3s.7.1 1 .2v.7s-.2.5-.3.5a5.94 5.94 0 0 0-.4.8 4 4 0 0 0-.3.4.1.1 0 0 1-.1.1.22.22 0 0 0 .2.2c-.2.3-.4.4-.6.7a1.79 1.79 0 0 0 1.4-.4.75.75 0 0 0 .5-.1c.1 0 .1 0 .2-.1s.1-.2.2-.3c.2.1.5-.1.8-.2a.22.22 0 0 0 .2-.2l.1-.1h-.1a.37.37 0 0 0 .3-.1c.1 0 .1 0 .2-.1.4-.6.7-1.1 1.1-1.7l.3-.3a3.08 3.08 0 0 0 .3-1.3 2.92 2.92 0 0 0-.2-.9c-.1-.1-.1-.3-.3-.4a1.65 1.65 0 0 0-1.2 0 10.46 10.46 0 0 1-3.9-.8c-.1 0-.1-.1-.2-.1s-.5-.2-.7-.1a.1.1 0 0 0-.1.1 2.18 2.18 0 0 0-.4-.5 36 36 0 0 1-5.8-8.8l-.1-.1a2.19 2.19 0 0 0 .5.3 2.53 2.53 0 0 0 2.2.1 3.45 3.45 0 0 1 .1-4c.9-1.2.7-3.9-.2-5.1a8.52 8.52 0 0 0-4.1-3 10.35 10.35 0 0 0 1.1-2.1 2.62 2.62 0 0 1-2.1.4 3.33 3.33 0 0 1-1.9-1.6 9.17 9.17 0 0 1-.9-2.3 6.62 6.62 0 0 1 .9-4.9 5.42 5.42 0 0 1 4.3-2.5l.2-1.2a3.21 3.21 0 0 0 1.1 2.5 9.75 9.75 0 0 0 2.9 1.4 2.92 2.92 0 0 1 .4-2.4c1.3 2.3 3.6 4.4 6.4 3.4a15.72 15.72 0 0 1-3-3.3c2.2 1.9 4.8 3.5 7.7 2.5a11 11 0 0 1-2.6-3.1c2.4 1.4 5.1 2.5 7.8.4a13 13 0 0 1-4.2-3.2c3.2 1.6 6.1.7 9.1-.7a27.59 27.59 0 0 1-6.8-1.9 11.18 11.18 0 0 0 6.5.7 10.17 10.17 0 0 0 5.7-4 38.64 38.64 0 0 1-7.6-.2 12.25 12.25 0 0 0 7.3-1.8c2-1.3 3.1-3.8 3.5-6.1a26.56 26.56 0 0 1-10.3 2.6 16.52 16.52 0 0 0 8.3-3.6 10 10 0 0 0 2.6-8.2 18.72 18.72 0 0 1-10.3 4.9c5.6-1.4 10.4-6.8 10.3-11.9 0-2.5-1-3.2-1-3.2a22.25 22.25 0 0 1-3.9 4.4l-.9.7c2.7-3.5 4.5-8.3 3.5-11.8a7.92 7.92 0 0 0-2.1-3.6 39 39 0 0 1-3.4 8.4A25 25 0 0 1 111 37v.1a4.19 4.19 0 0 0-.9-1.1c-.7 2.5-3.3 7.2-5.5 7.6l-.1.1a10.31 10.31 0 0 0-.4-2.3 7.68 7.68 0 0 1-1.8 3.3 10.33 10.33 0 0 1-3.7 2.6 4.58 4.58 0 0 0-.6 5.9 5 5 0 0 1 .8 1.2 2.37 2.37 0 0 1-.2 2 4.28 4.28 0 0 1-1.4 1.6 10.6 10.6 0 0 1-5.7 2.1 5.43 5.43 0 0 1-5.5-2.6 5 5 0 0 0 2.7-1.8 4.22 4.22 0 0 0 .1-3.7 3.9 3.9 0 0 1-3.3 1.7 4 4 0 0 1-3.4-1.4c.2.1.3.2.5.2a4.34 4.34 0 0 0 3.8-.9 2.34 2.34 0 0 0 .5-2.2 3.35 3.35 0 0 1-4.1.5c-.9-.7-1.3-3 .4-5.8a29.49 29.49 0 0 1 2.9-3.7 25.63 25.63 0 0 1 3.3-.6 2.7 2.7 0 0 1 2.1.8c-.2-1.7-2.2-1.9-3.8-1.9a5.36 5.36 0 0 1 3.6-1.2 5.85 5.85 0 0 1 2.4.9 3.75 3.75 0 0 0-.9-3.2 3.42 3.42 0 0 0-3.7-.9 2.14 2.14 0 0 0-.6-2c-.8-.6-3-.7-4.6-.1-1.8.7-3.7 1.7-3.7 1.7a9.4 9.4 0 0 1-2.7-1.1 7 7 0 0 0 1.5 1.9l-.1-.1a2 2 0 0 1-1.3-.3l-.5-.3a8 8 0 0 0 1 2.2.86.86 0 0 0 .6.3c-2.8 3.1-6.5 9.4-6.8 13.7" fill="#eadfa9"/><path d="M71.9 50.2c-.3-4.4-3.9-10.6-6.8-13.5l.6-.3c.5-.3 1-2.2 1-2.2l-.5.3a3 3 0 0 1-1.3.3l-.1.1a7 7 0 0 0 1.5-1.9 9.4 9.4 0 0 1-2.7 1.1s-1.9-.9-3.7-1.7c-1.6-.6-3.8-.5-4.6.1a2.44 2.44 0 0 0-.6 2 3.39 3.39 0 0 0-3.7.9 3.23 3.23 0 0 0-.9 3.2 5.85 5.85 0 0 1 2.4-.9 5.94 5.94 0 0 1 3.6 1.2c-1.6 0-3.6.2-3.8 1.9a3.16 3.16 0 0 1 2.1-.8 25.63 25.63 0 0 1 3.3.6 44.16 44.16 0 0 1 2.9 3.7c1.7 2.8 1.4 5.1.4 5.8a3.36 3.36 0 0 1-4.1-.5 2.33 2.33 0 0 0 .5 2.2 4.06 4.06 0 0 0 3.8.9.76.76 0 0 0 .5-.2 3.85 3.85 0 0 1-3.4 1.4 4.16 4.16 0 0 1-3.3-1.7 5.06 5.06 0 0 0 .1 3.7 4.49 4.49 0 0 0 2.7 1.8 5.43 5.43 0 0 1-5.5 2.6 10.6 10.6 0 0 1-5.7-2.1 7.31 7.31 0 0 1-1.4-1.6 2.37 2.37 0 0 1-.2-2 8.34 8.34 0 0 1 .8-1.2 4.58 4.58 0 0 0-.6-5.9 10.33 10.33 0 0 1-3.7-2.6 9.35 9.35 0 0 1-1.8-3.3 10.3 10.3 0 0 0-.4 2.3l-.1-.1c-2.2-.5-4.8-5.2-5.5-7.6a4.19 4.19 0 0 0-.9 1.1v-.1a22.46 22.46 0 0 1-6.5-7.1 33.83 33.83 0 0 1-3.4-8.4 7.22 7.22 0 0 0-2.1 3.6c-1 3.5.8 8.3 3.5 11.8l-.7-.9a19.44 19.44 0 0 1-3.9-4.4s-1 .7-1 3.2c0 5.1 4.7 10.5 10.3 11.9A19.42 19.42 0 0 1 18.7 42a9.89 9.89 0 0 0 2.6 8.2 15.79 15.79 0 0 0 8.3 3.6 24.52 24.52 0 0 1-10.3-2.6 9.5 9.5 0 0 0 3.5 6.1 11.57 11.57 0 0 0 7.3 1.8 38.44 38.44 0 0 1-7.6.2 9.31 9.31 0 0 0 5.7 4 10.49 10.49 0 0 0 6.5-.7 22.15 22.15 0 0 1-6.8 1.9c2.9 1.3 5.9 2.2 9.1.7a13 13 0 0 1-4.2 3.2c2.7 2.1 5.4 1 7.8-.4a11 11 0 0 1-2.6 3.1c3 1 5.5-.6 7.7-2.5a15.72 15.72 0 0 1-3 3.3c2.8.9 5.1-1.1 6.4-3.4a2.51 2.51 0 0 1 .4 2.4 7.81 7.81 0 0 0 2.9-1.4 3 3 0 0 0 1.1-2.5l.2 1.2a6 6 0 0 1 4.3 2.5 6.54 6.54 0 0 1 .9 4.9 9.17 9.17 0 0 1-.9 2.3 3.75 3.75 0 0 1-1.9 1.6 2.29 2.29 0 0 1-2.1-.4 7 7 0 0 0 1.1 2.1 7.37 7.37 0 0 0-4.1 3 5.44 5.44 0 0 0-.2 5.1 3.46 3.46 0 0 1 .1 4 2.53 2.53 0 0 0 2.2-.1c.2-.1.3-.2.5-.3l-.1.1a36 36 0 0 1-5.8 8.8c-.1.2-.4.3-.4.5a.1.1 0 0 0-.1-.1 1.1 1.1 0 0 0-.7.1c-.1 0-.1.1-.2.1a12.9 12.9 0 0 1-3.9.8 1.28 1.28 0 0 0-1.2 0 1.38 1.38 0 0 0-.3.4 2.92 2.92 0 0 0-.2.9 2.77 2.77 0 0 0 .3 1.3l.3.3c.4.6.7 1.1 1.1 1.7.1 0 .1.1.2.1a.37.37 0 0 1 .3.1h-.1l.1.1c.1.1.1.2.2.2a.88.88 0 0 0 .8.2c.1.1.1.2.2.3s.1.1.2.1a1.09 1.09 0 0 0 .5.1 1.49 1.49 0 0 0 1.4.4c-.2-.3-.4-.4-.6-.7l.2-.2a.1.1 0 0 0-.1-.1 4 4 0 0 0-.3-.4 5.9 5.9 0 0 1-.4-.8l-.3-.5v-.7c.3-.1.6-.1 1-.2s.8-.2 1.1-.3c.1 0 .2-.1.3-.1a5.67 5.67 0 0 0 1.3-.8 1.7 1.7 0 0 0 1.3 1h-.2a2 2 0 0 1-.4.9 2.22 2.22 0 0 0-.4.5 1 1 0 0 0 .1.4l-.1-.1c-.3.3-.5.4-.7.6a1.4 1.4 0 0 0 1.4-.2h.5a4.36 4.36 0 0 0 1.3-1.4 2 2 0 0 0 .3-1.8 2.34 2.34 0 0 1-1.7-1.5c3.3-3.4 5.6-5.4 8.8-6.7 0 0 1.8-.8 1.9-1.2s-.1-1.3-.1-1.3l-.2-.3a2.85 2.85 0 0 0 2 .2 4.23 4.23 0 0 1-2.4-4.4 13 13 0 0 1 2.2 0c2.1.3 3.9 1 4.3 2.7.3 1.3-.9 2.9-.9 2.9a3.88 3.88 0 0 0 2.9-.8 3.63 3.63 0 0 0 1.3-2.4l-.1 1.4-.3-.1a4.86 4.86 0 0 1-.5 2.3c-.5 1.3-2.5 2.7-4.7 4.3a11.31 11.31 0 0 0-4.3 6.9c-.7 3 .2 4.8 2 6a4.25 4.25 0 0 0 2.4.7H64a8.8 8.8 0 0 0 2.2 2.1 2.66 2.66 0 0 0 1.2.3c.2 0 .3.1.5.1h.5c.2.9 2.2 1.8 3.3 2.1v.2a.77.77 0 0 0 .3-.1.77.77 0 0 0 .3.1v-.2c1.1-.4 3.1-1.2 3.3-2.1h.5a.9.9 0 0 0 .5-.1l1.2-.3a8.8 8.8 0 0 0 2.2-2.1h-.1a4.25 4.25 0 0 0 2.4-.7c1.8-1.2 2.8-3 2-6a11.77 11.77 0 0 0-4.3-6.9c-2.2-1.6-4.1-3-4.7-4.3a7.08 7.08 0 0 1-.5-2.3l-.3.1-.1-1.4a3.63 3.63 0 0 0 1.3 2.4 3.94 3.94 0 0 0 2.9.8s-1.3-1.6-.9-2.9c.5-1.8 2.2-2.5 4.3-2.7a6.54 6.54 0 0 1 2.2 0 4.1 4.1 0 0 1-2.4 4.4 2.4 2.4 0 0 0 2-.2l-.2.3s-.1.9-.1 1.3 1.9 1.2 1.9 1.2c3.3 1.3 5.6 3.3 8.8 6.7a2.18 2.18 0 0 1-1.7 1.5 1.7 1.7 0 0 0 .3 1.8 5.71 5.71 0 0 0 1.3 1.4.69.69 0 0 0 .5 0 1.44 1.44 0 0 0 1.4.2c-.2-.3-.4-.3-.7-.6l-.1.1a1 1 0 0 0 .1-.4 2.22 2.22 0 0 0-.4-.5 2.52 2.52 0 0 1-.4-.9h-.2a2.12 2.12 0 0 0 1.3-1 9.13 9.13 0 0 0 1.3.8c.1 0 .2.1.3.1.3.1.7.2 1.1.3s.7.1 1 .2v.7s-.2.5-.3.5a5.94 5.94 0 0 0-.4.8 4 4 0 0 0-.3.4.1.1 0 0 1-.1.1.22.22 0 0 0 .2.2c-.2.3-.4.4-.6.7a1.79 1.79 0 0 0 1.4-.4.75.75 0 0 0 .5-.1c.1 0 .1 0 .2-.1s.1-.2.2-.3c.2.1.5-.1.8-.2a.22.22 0 0 0 .2-.2l.1-.1h-.1a.37.37 0 0 0 .3-.1c.1 0 .1 0 .2-.1.4-.6.7-1.1 1.1-1.7l.3-.3a3.08 3.08 0 0 0 .3-1.3 2.92 2.92 0 0 0-.2-.9c-.1-.1-.1-.3-.3-.4a1.65 1.65 0 0 0-1.2 0 10.46 10.46 0 0 1-3.9-.8c-.1 0-.1-.1-.2-.1s-.5-.2-.7-.1a.1.1 0 0 0-.1.1 2.18 2.18 0 0 0-.4-.5 36 36 0 0 1-5.8-8.8l-.1-.1a2.19 2.19 0 0 0 .5.3 2.53 2.53 0 0 0 2.2.1 3.45 3.45 0 0 1 .1-4c.9-1.2.7-3.9-.2-5.1a8.52 8.52 0 0 0-4.1-3 10.35 10.35 0 0 0 1.1-2.1 2.62 2.62 0 0 1-2.1.4 3.33 3.33 0 0 1-1.9-1.6 9.17 9.17 0 0 1-.9-2.3 6.62 6.62 0 0 1 .9-4.9 5.42 5.42 0 0 1 4.3-2.5l.2-1.2a3.21 3.21 0 0 0 1.1 2.5 9.75 9.75 0 0 0 2.9 1.4 2.92 2.92 0 0 1 .4-2.4c1.3 2.3 3.6 4.4 6.4 3.4a15.72 15.72 0 0 1-3-3.3c2.2 1.9 4.8 3.5 7.7 2.5a11 11 0 0 1-2.6-3.1c2.4 1.4 5.1 2.5 7.8.4a13 13 0 0 1-4.2-3.2c3.2 1.6 6.1.7 9.1-.7a27.59 27.59 0 0 1-6.8-1.9 11.18 11.18 0 0 0 6.5.7 10.17 10.17 0 0 0 5.7-4 38.64 38.64 0 0 1-7.6-.2 12.25 12.25 0 0 0 7.3-1.8c2-1.3 3.1-3.8 3.5-6.1a26.56 26.56 0 0 1-10.3 2.6 16.52 16.52 0 0 0 8.3-3.6 10 10 0 0 0 2.6-8.2 18.72 18.72 0 0 1-10.3 4.9c5.6-1.4 10.4-6.8 10.3-11.9 0-2.5-1-3.2-1-3.2a22.25 22.25 0 0 1-3.9 4.4l-.9.7c2.7-3.5 4.5-8.3 3.5-11.8a7.92 7.92 0 0 0-2.1-3.6 39 39 0 0 1-3.4 8.4A25 25 0 0 1 111 37v.1a4.19 4.19 0 0 0-.9-1.1c-.7 2.5-3.3 7.2-5.5 7.6l-.1.1a10.31 10.31 0 0 0-.4-2.3 7.68 7.68 0 0 1-1.8 3.3 10.33 10.33 0 0 1-3.7 2.6 4.58 4.58 0 0 0-.6 5.9 5 5 0 0 1 .8 1.2 2.37 2.37 0 0 1-.2 2 4.28 4.28 0 0 1-1.4 1.6 10.6 10.6 0 0 1-5.7 2.1 5.43 5.43 0 0 1-5.5-2.6 5 5 0 0 0 2.7-1.8 4.22 4.22 0 0 0 .1-3.7 3.9 3.9 0 0 1-3.3 1.7 4 4 0 0 1-3.4-1.4c.2.1.3.2.5.2a4.34 4.34 0 0 0 3.8-.9 2.34 2.34 0 0 0 .5-2.2 3.35 3.35 0 0 1-4.1.5c-.9-.7-1.3-3 .4-5.8a29.49 29.49 0 0 1 2.9-3.7 25.63 25.63 0 0 1 3.3-.6 2.7 2.7 0 0 1 2.1.8c-.2-1.7-2.2-1.9-3.8-1.9a5.36 5.36 0 0 1 3.6-1.2 5.85 5.85 0 0 1 2.4.9 3.75 3.75 0 0 0-.9-3.2 3.42 3.42 0 0 0-3.7-.9 2.14 2.14 0 0 0-.6-2c-.8-.6-3-.7-4.6-.1-1.8.7-3.7 1.7-3.7 1.7a9.4 9.4 0 0 1-2.7-1.1 7 7 0 0 0 1.5 1.9l-.1-.1a2 2 0 0 1-1.3-.3l-.5-.3a8 8 0 0 0 1 2.2.86.86 0 0 0 .6.3c-2.8 3.1-6.5 9.4-6.8 13.7" opacity=".1" fill="url(#b)" style="isolation:isolate"/><path d="M71.8 50.5a.27.27 0 0 1-.3-.3c-.2-4.1-3.7-10.3-6.7-13.3a.28.28 0 0 1 .4-.4c3.1 3 6.7 9.4 6.9 13.7.1.1-.1.3-.3.3zM56.3 39.3c-.1 0-.2 0-.2-.1a5.45 5.45 0 0 0-3.6-1.4h-.1a4.87 4.87 0 0 0-2.2.9.19.19 0 0 1-.3 0 .22.22 0 0 1-.2-.2c-.1-1.7.1-2.5 1-3.4a3.6 3.6 0 0 1 4.1-.9c.1.1.2.3.1.4s-.3.2-.4.1a3 3 0 0 0-3.4.8 3 3 0 0 0-.9 2.5 4.76 4.76 0 0 1 2.1-.7h.1a5.36 5.36 0 0 1 4 1.6.3.3 0 0 1 0 .4z" fill="#545454"/><path d="M52.3 41h-.1c-.1-.1-.2-.2-.2-.3.3-2.1 2.9-2.1 4.1-2.1a.3.3 0 1 1 0 .6 4.94 4.94 0 0 0-3.1.7 2.1 2.1 0 0 1 1.4-.2 14.86 14.86 0 0 1 3.3.6c.2 0 .3.2.2.4s-.2.3-.4.2a17.52 17.52 0 0 0-3.3-.5 2 2 0 0 0-1.8.7c0-.2-.1-.1-.1-.1zm.7 19.5h-.7a9.65 9.65 0 0 1-5.8-2.2 5.52 5.52 0 0 1-1.4-1.7 2.7 2.7 0 0 1-.2-2.3c.1-.4.4-.6.6-.9.1-.1.2-.2.2-.3a4.26 4.26 0 0 0-.5-5.5 12.13 12.13 0 0 1-3.8-2.7 9.94 9.94 0 0 1-1.5-2.4 9.58 9.58 0 0 0-.1 2.5c.1 1.7 2 3.7 2 3.7a.28.28 0 0 1-.4.4c-.1-.1-2-2.2-2.2-4.1a11.19 11.19 0 0 1 .4-3.7c0-.1.2-.2.3-.2s.2.1.3.2a7.49 7.49 0 0 0 1.7 3.2 11 11 0 0 0 3.6 2.5.1.1 0 0 1 .1.1 4.88 4.88 0 0 1 .6 6.3l-.3.3a3.51 3.51 0 0 0-.5.8 2.33 2.33 0 0 0 .2 1.8 4.71 4.71 0 0 0 1.3 1.5 9.58 9.58 0 0 0 5.5 2.1 5.11 5.11 0 0 0 5-2.1 5.24 5.24 0 0 1-2.5-1.8 4.67 4.67 0 0 1-.2-3.9.22.22 0 0 1 .2-.2.37.37 0 0 1 .3.1 3.84 3.84 0 0 0 3.1 1.6c1.5 0 2.6-.4 3.1-1.3.1-.1.3-.2.4-.1s.2.3.1.4a4.09 4.09 0 0 1-3.6 1.5 4.31 4.31 0 0 1-3.2-1.4 3.89 3.89 0 0 0 .3 2.9 4.31 4.31 0 0 0 2.5 1.7c.1 0 .1.1.2.2v.2a5.69 5.69 0 0 1-5.1 2.8z" fill="#545454"/><path d="M34.7 45c-.1 0-.1 0-.2-.1a7.42 7.42 0 0 1-2.4-5.4 4.74 4.74 0 0 1 1.7-3.8.37.37 0 0 1 .3-.1.22.22 0 0 1 .2.2c.6 2.3 3.2 7 5.2 7.4.2 0 .3.2.2.4s-.2.3-.4.2c-2.2-.5-4.7-4.8-5.5-7.4a4.42 4.42 0 0 0-1.2 3 8 8 0 0 0 2.2 5 .3.3 0 0 1 0 .4c.1.2 0 .2-.1.2zm23.2 38.2c-1.8-.2-3.2-1.5-4.1-4 0-.1 0-.3.1-.3s.2-.1.4 0a2.09 2.09 0 0 0 1.9.3 2.91 2.91 0 0 0 1.7-1.4 9.17 9.17 0 0 0 .9-2.3 6.25 6.25 0 0 0-.9-4.6 5.68 5.68 0 0 0-4.1-2.4.3.3 0 0 1 0-.6 6.11 6.11 0 0 1 4.5 2.7 6.91 6.91 0 0 1 1 5.1 7.2 7.2 0 0 1-1 2.4 3.45 3.45 0 0 1-2.1 1.7 4.3 4.3 0 0 1-1.6 0c.8 1.8 1.9 2.8 3.3 2.9a.32.32 0 0 1 .3.3c0 .1-.2.2-.3.2z" fill="#545454"/><path d="M51.9 93.8a1.94 1.94 0 0 1-1.1-.3c-.1 0-.1-.1-.1-.2v-.2a3.33 3.33 0 0 0-.1-3.7c-1-1.3-.7-4.2.2-5.5a7.85 7.85 0 0 1 3.9-2.9l.4-.2c.2-.1.3 0 .4.2s0 .3-.2.4l-.4.2a7.51 7.51 0 0 0-3.7 2.7 5.1 5.1 0 0 0-.2 4.8 3.81 3.81 0 0 1 .3 4.1 1.94 1.94 0 0 0 1.6-.2 2.13 2.13 0 0 0 1.4-1.7.3.3 0 1 1 .6 0 2.56 2.56 0 0 1-1.7 2.1 2.69 2.69 0 0 1-1.3.4z" fill="#545454"/><path d="M54.9 94.8a2.77 2.77 0 0 1-1.3-.3.22.22 0 0 1-.2-.2.37.37 0 0 1 .1-.3 3.64 3.64 0 0 0 .4-4.2.29.29 0 1 1 .5-.3 4.08 4.08 0 0 1-.2 4.6 2.92 2.92 0 0 0 2.4-.4 2.42 2.42 0 0 0 1-2.3.3.3 0 0 1 .6 0 3.35 3.35 0 0 1-1.3 2.9 6.53 6.53 0 0 1-2 .5zm-6 9.4a.27.27 0 0 1-.3-.3 2.26 2.26 0 0 1 .5-1.1c3.6-3.7 5.9-5.8 9.2-7.1a6.63 6.63 0 0 0 1.7-1c0-.3-.1-1-.1-1.2a.3.3 0 1 1 .6 0s.1.9.1 1.4-.7.9-2 1.5c-3.2 1.3-5.4 3.2-9 6.9-.2.2-.4.4-.4.6a.32.32 0 0 1-.3.3zM33 37.3c-.1 0-.1 0-.2-.1a24.1 24.1 0 0 1-6.6-7.2 34.45 34.45 0 0 1-3.3-8 7.66 7.66 0 0 0-1.7 3.1c-1 3.6 1 8.4 3.5 11.6a.29.29 0 1 1-.5.3c-2.6-3.3-4.7-8.3-3.6-12.1a7.58 7.58 0 0 1 2.2-3.7.19.19 0 0 1 .3 0 .22.22 0 0 1 .2.2 37.13 37.13 0 0 0 3.4 8.3 24.33 24.33 0 0 0 6.5 7c.1.1.2.3.1.4s-.2.2-.3.2z" fill="#545454"/><path d="M29 47.2c-5.8-1.4-10.7-7-10.6-12.2 0-2.6 1.1-3.4 1.2-3.4s.2-.1.2 0 .1.1.2.1a21.55 21.55 0 0 0 3.8 4.3l.3.3a15.36 15.36 0 0 0 5 3.1c.2.1.2.2.2.4s-.2.2-.4.2a17.29 17.29 0 0 1-5.2-3.2l-.3-.3a19.94 19.94 0 0 1-3.8-4.1 3.92 3.92 0 0 0-.7 2.7c0 4.9 4.6 10.3 10.1 11.6.2 0 .3.2.2.4a.35.35 0 0 1-.2.1zm28.6-6.4c-.1 0-.2-.1-.3-.2s-1.2-2.9-1.5-3.5-1.1-1.8-1.4-2.3v-.1a2.67 2.67 0 0 1 .7-2.4c.9-.7 3.2-.8 4.9-.1s3.7 1.7 3.7 1.7.2.3.1.4-.3.2-.4.1-1.9-.9-3.7-1.7c-1.6-.6-3.6-.5-4.3 0s-.5 1.5-.5 1.8a17 17 0 0 1 1.4 2.4c.2.6 1.5 3.5 1.5 3.5.1.2 0 .3-.2.4q.15 0 0 0z" fill="#545454"/><path d="M63.4 36.1c-.1 0-.2-.1-.3-.2s0-.3.1-.4a5.2 5.2 0 0 0 2.1-1.8 4.76 4.76 0 0 1-1.8.6 8.38 8.38 0 0 1-3-.3c-.2 0-.3-.2-.2-.4s.2-.3.4-.2a18.87 18.87 0 0 0 2.9.3 10.18 10.18 0 0 0 2.6-1.1.3.3 0 0 1 .4 0c.1.1.1.2.1.4a7.23 7.23 0 0 1-3 3c-.2 0-.2.1-.3.1zM60.2 53a4.62 4.62 0 0 1-3-1.1 2.5 2.5 0 0 1-.6-2.5.22.22 0 0 1 .2-.2.37.37 0 0 1 .3.1c1 .8 2.5 1.4 3.7.5.8-.6 1.1-2.7-.5-5.4a24.94 24.94 0 0 0-2.9-3.6c-.1-.1-.1-.1-.1-.2a4.71 4.71 0 0 0-.2-.5c-.1-.1 0-.3.1-.4s.3 0 .4.1a2.12 2.12 0 0 1 .3.7 36.71 36.71 0 0 1 2.9 3.6c1.7 2.8 1.5 5.3.4 6.2a3.32 3.32 0 0 1-4-.2 1.64 1.64 0 0 0 .5 1.4 3.91 3.91 0 0 0 3.5.8c1.1-.2 2.1-1.8 2.1-1.8s.3-.2.4-.1.2.3.1.4a4.53 4.53 0 0 1-2.5 2 5.16 5.16 0 0 1-1.1.2z" fill="#545454"/><path d="M64.7 37.1c-.1 0-.2-.1-.3-.2s0-.3.2-.4a2.5 2.5 0 0 0 .8-.4c.2-.1.4-.7.7-1.3a2.16 2.16 0 0 1-1.2.2.3.3 0 1 1 0-.6 3.08 3.08 0 0 0 1.1-.2l.5-.3a.19.19 0 0 1 .3 0 .37.37 0 0 1 .1.3c-.1.3-.6 2-1.2 2.4a4.17 4.17 0 0 1-1 .5c.1 0 0 0 0 0zm-23 16.4h-.2a6.4 6.4 0 0 1-1.7-1.9c-.9-1.5-.6-4.1-.6-4.2a.22.22 0 0 1 .2-.2.37.37 0 0 1 .3.1 3.87 3.87 0 0 0 1.6 1.3 2.47 2.47 0 0 0 1.7.1c.2-.1.3 0 .4.2s0 .3-.2.4a3.58 3.58 0 0 1-2.1-.1 3 3 0 0 1-1.4-1 7 7 0 0 0 .5 3.1 5 5 0 0 0 1.5 1.7c.1.1.2.3.1.4.1 0 0 .1-.1.1zM64 113.1a4.55 4.55 0 0 1-2.5-.8c-2.2-1.4-2.9-3.5-2.2-6.3a12.28 12.28 0 0 1 4.5-7l.6-.4c1.8-1.4 3.6-2.7 4-3.8a6 6 0 0 0 .5-2.1.3.3 0 0 1 .6 0 5.17 5.17 0 0 1-.5 2.4c-.5 1.2-2.2 2.5-4.2 4l-.6.4a11.45 11.45 0 0 0-4.2 6.7c-.6 2.6 0 4.4 1.9 5.6a4.23 4.23 0 0 0 2.6.7 3.78 3.78 0 0 1-.9-1.2 12.08 12.08 0 0 1-.8-2.4.37.37 0 0 1 .1-.3.19.19 0 0 1 .3 0 3.46 3.46 0 0 0 1.4.2 2.32 2.32 0 0 0 2.1-1 3.38 3.38 0 0 1-2.1-3.1c.1-1.5.9-2.4 2-3.8.6-.7 1.2-1.5 1.9-2.5a13 13 0 0 0 2.1-6.4.3.3 0 0 1 .6 0 13.74 13.74 0 0 1-2.2 6.7c-.7 1-1.3 1.8-1.9 2.5-1.1 1.3-1.8 2.2-1.9 3.5-.2 1.8 2 2.6 2 2.6l.2.2a.14.14 0 0 1 0 .2 2.89 2.89 0 0 1-2.9 1.6c-.5 0-.8-.1-1.1-.1a8.8 8.8 0 0 0 .6 1.7 3.5 3.5 0 0 0 1.2 1.4c.1.1.2.2.1.3s-.1.2-.2.3c.1.1-.4.2-1.1.2z" fill="#545454"/><path d="M68.2 115.6a5.7 5.7 0 0 1-2.2-.4 12.87 12.87 0 0 1-2.3-2.1.29.29 0 1 1 .5-.3 10.17 10.17 0 0 0 2.1 2 5.84 5.84 0 0 0 3.9.1 5.69 5.69 0 0 1-1.7-3.3c-.6-2.8.6-6.8 1.7-9.9a51.94 51.94 0 0 0 1.5-7.4.3.3 0 1 1 .6 0 52.47 52.47 0 0 1-1.5 7.5c-.7 2-2.3 6.6-1.7 9.6.6 2.7 1.9 3.2 1.9 3.2s.2.2.2.3-.1.2-.2.3a11.7 11.7 0 0 1-2.8.4zM65.7 95c-.3 0-.5 0-.6-.1a.22.22 0 0 1-.2-.2v-.3s1.2-1.5.9-2.6c-.4-1.4-1.7-2.2-4.1-2.5a16.67 16.67 0 0 0-1.9-.1 4 4 0 0 0 2.2 3.9c.1 0 .2.2.2.3s-.1.2-.2.3a3 3 0 0 1-2.7-.4 5.84 5.84 0 0 1-2.6-3.9.3.3 0 1 1 .6 0 5.34 5.34 0 0 0 2.3 3.5 2.65 2.65 0 0 0 1.4.5 4.56 4.56 0 0 1-1.8-4.3c0-.1.1-.2.3-.2a14 14 0 0 1 2.3 0c2.6.3 4.1 1.3 4.6 3a3.47 3.47 0 0 1-.7 2.7 3.47 3.47 0 0 0 2.2-.8 3.61 3.61 0 0 0 1.3-2.9.3.3 0 1 1 .6 0 4.07 4.07 0 0 1-1.5 3.5 6.23 6.23 0 0 1-2.6.6z" fill="#545454"/><path d="M71.6 118h-.1c-.3-.1-3.2-1.2-3.5-2.6a.32.32 0 0 1 .6-.2c.2.8 2 1.7 3.1 2.1.2.1.2.2.2.4s-.2.3-.3.3zm-22-10.1c-.1 0-.2 0-.2-.1a.3.3 0 0 1 0-.4 5.35 5.35 0 0 0 1.3-1.3 1.74 1.74 0 0 0 .3-1.4 2.41 2.41 0 0 1-1.7-1.7c-.1-.2 0-.3.2-.4s.3 0 .4.2a2.1 2.1 0 0 0 1.5 1.4.22.22 0 0 1 .2.2 2.09 2.09 0 0 1-.3 2.1 6.73 6.73 0 0 1-1.4 1.5c-.1-.2-.2-.1-.3-.1z" fill="#545454"/><path d="M49.9 105.7a2.43 2.43 0 0 1-1.8-.9 3 3 0 0 1-1.1.6c-.1.1-.3 0-.4-.1s0-.3.1-.4c.4-.2.8-.5 1.3-.8.1 0 .2-.1.2 0a.22.22 0 0 1 .2.2 1.86 1.86 0 0 0 1.5.9.3.3 0 0 1 0 .6z" fill="#545454"/><path d="M46.6 105.6c-.1 0-.2-.1-.3-.2s0-.3.1-.4.2-.1.3-.1.3 0 .4.1 0 .3-.1.4-.2.1-.3.2zm.6-2.7c-.1 0-.3-.1-.3-.2a1 1 0 0 1 .4-.9l.1-.1a36.16 36.16 0 0 0 5.8-8.8c.1-.1.3-.2.4-.1s.2.3.1.4a34.84 34.84 0 0 1-5.8 8.9l-.1.1c-.1.1-.3.3-.2.3a.37.37 0 0 1-.4.4zm-2.7 6.2a1.27 1.27 0 0 1-.6-.1c-.2-.1-.2-.2-.2-.4s.2-.2.4-.2a1.09 1.09 0 0 0 1.1-.2 4.12 4.12 0 0 1-1-2.1.3.3 0 1 1 .6 0 3.52 3.52 0 0 0 1 1.9.19.19 0 0 1 0 .3 1.21 1.21 0 0 1-1.3.8zm-1.2-.9a.37.37 0 0 1-.3-.1l-.6-.9-.2-.3v-.1a3.93 3.93 0 0 1-.3-1.4 1.69 1.69 0 0 1 .3-1c.1-.1.3-.2.4-.1s.2.3.1.4a1.85 1.85 0 0 0-.2.7 7.38 7.38 0 0 0 .2 1.2l.2.3.6.9a.25.25 0 0 1-.1.4z" fill="#545454"/><path d="M44 109c-.2 0-.2-.1-.3-.1l-.1-.1-.5-.8a.29.29 0 1 1 .5-.3l.5.7h.1c.2.1.2.2.2.4a.4.4 0 0 1-.4.2zm.5-2.5a.27.27 0 0 1-.3-.3v-.4c0-.1.1-.2.2-.3h.1a10.55 10.55 0 0 0 1.9-.5c.1-.1.3 0 .4.1s0 .3-.1.4a10.55 10.55 0 0 1-1.9.5v.1c0 .3-.1.4-.3.4zm-2-1.7h-.1c-.1-.1-.2-.3-.1-.4v-.1c.1-.1.2-.3.4-.4a1.7 1.7 0 0 1 1.4 0 6.71 6.71 0 0 0 2.7-1.3.35.35 0 0 0-.2.1.35.35 0 0 1-.2.1 11.83 11.83 0 0 1-4 .8h-.1c-.4-.1-.6-.2-1 0a.1.1 0 0 1-.1.1l-.1.1c-.1.1-.3.2-.4.1s-.2-.3-.1-.4v-.1c.1-.1.2-.3.4-.4a1.71 1.71 0 0 1 1.4 0 12.68 12.68 0 0 0 3.7-.7l.1-.1a1.64 1.64 0 0 1 1-.2q.3.15.3.3c.1.2 0 .4 0 .5l-.1.1a7.08 7.08 0 0 1-3.4 1.6h-.1c-.4-.1-.7-.2-1 0a282866.68 282866.68 0 0 1-.2.2c0 .1-.1.1-.2.1z" fill="#545454"/><path d="M42.9 108.3a1.27 1.27 0 0 1-.6-.1c-.2-.1-.2-.2-.2-.4s.2-.2.4-.2a1.1 1.1 0 0 0 .8 0c.2 0 .3 0 .4.2s0 .3-.2.4-.4.1-.6.1z" fill="#545454"/><path d="M42.4 108.2c-.2 0-.2-.1-.3-.1l-.1-.1-1.1-1.7-.2-.3v-.1a3.93 3.93 0 0 1-.3-1.4 1.69 1.69 0 0 1 .3-1c.1-.1.3-.2.4-.1s.2.3.1.4a1.85 1.85 0 0 0-.2.7 7.38 7.38 0 0 0 .2 1.2l.2.3 1 1.6h.1c.2.1.2.2.2.4s-.2.2-.3.2zm3.3 1.4a2.11 2.11 0 0 1-1.3-.5.28.28 0 1 1 .4-.4.91.91 0 0 0 .5.3l-.2-.2a.29.29 0 1 1 .5-.3l.3.3a1.38 1.38 0 0 1 .3.4.19.19 0 0 1 0 .3.22.22 0 0 1-.2.2.37.37 0 0 0-.3-.1zm2.6-1.5a1.27 1.27 0 0 1-.6-.1.22.22 0 0 1-.2-.2.37.37 0 0 1 .1-.3c.1-.1.3-.2.4-.3l.3-.3a.28.28 0 0 1 .4.4l-.2.2a1.42 1.42 0 0 0 .6-.2c.1-.1.3 0 .4.1s0 .3-.1.4a2.61 2.61 0 0 1-1.1.3z" fill="#545454"/><path d="M49.3 107.8a1 1 0 0 1-.7-.2 1.06 1.06 0 0 1-.5-.9v-.1a1.41 1.41 0 0 1 .5-.6 1.33 1.33 0 0 0 .3-.7v-.1c0-.1.1-.2.3-.2s.2.1.3.2a1.57 1.57 0 0 1-.4 1.2c-.2.2-.3.3-.3.4s0 .2.2.3a.85.85 0 0 0 .7 0 .32.32 0 1 1 .2.6 1.08 1.08 0 0 1-.6.1zm-5.8.9a2 2 0 0 1-1.2-.6.29.29 0 1 1 .5-.3 1.23 1.23 0 0 0 .8.4c.2 0 .3 0 .4.2s0 .3-.2.4a.37.37 0 0 0-.3-.1zm6-37.6c-.1 0-.1 0-.2-.1a.37.37 0 0 1-.1-.3 2.44 2.44 0 0 0-.4-2.2.28.28 0 0 1 .4-.4 2.6 2.6 0 0 1 .6 2.2 7.72 7.72 0 0 0 2.4-1.2 2.55 2.55 0 0 0 .9-2.6c-.1-.2 0-.3.2-.4s.3 0 .4.2a3.18 3.18 0 0 1-1.1 3.2 6.61 6.61 0 0 1-3.1 1.6zm-19.2-17a15.16 15.16 0 0 1-9.3-3.8 10.36 10.36 0 0 1-2.7-8.5.22.22 0 0 1 .2-.2.37.37 0 0 1 .3.1 18 18 0 0 0 12.7 5 .3.3 0 0 1 0 .6 18.21 18.21 0 0 1-12.7-4.8 9.32 9.32 0 0 0 2.6 7.4 14 14 0 0 0 9.5 3.5.3.3 0 0 1 0 .6c-.1.1-.3.1-.6.1z" fill="#545454"/><path d="M44 72.4a7.72 7.72 0 0 1-1.5-.2.22.22 0 0 1-.2-.2.37.37 0 0 1 .1-.3 19.24 19.24 0 0 0 3-3.2c.1-.1.3-.2.4-.1s.2.3.1.4a16 16 0 0 1-2.6 3c2.7.5 4.9-1.8 5.9-4.1.1-.2.2-.2.4-.1s.2.2.1.4c-1 2.1-3.1 4.4-5.7 4.4zM29.1 59.5a12.68 12.68 0 0 1-6.6-1.9 9.53 9.53 0 0 1-3.7-6.3.37.37 0 0 1 .1-.3.19.19 0 0 1 .3 0 25.2 25.2 0 0 0 16.2 2 .52.52 0 0 1 .4.2c.1.1-.1.3-.2.4a26.2 26.2 0 0 1-16.1-1.8 8 8 0 0 0 3.3 5.3 11.41 11.41 0 0 0 7.3 1.8.3.3 0 0 1 0 .6z" fill="#545454"/><path d="M39.7 71.7a6.79 6.79 0 0 1-1.9-.3.22.22 0 0 1-.2-.2.37.37 0 0 1 .1-.3 11.44 11.44 0 0 0 2.6-3.2c.1-.1.3-.2.4-.1s.2.3.1.4a16 16 0 0 1-2.3 3c3.1.7 5.8-1.6 8.1-3.7l.2-.2a.28.28 0 1 1 .4.4l-.2.2c-2 1.9-4.4 4-7.3 4zm-9.5-7.8a14.92 14.92 0 0 1-2.1-.2 10.08 10.08 0 0 1-5.9-4.2.19.19 0 0 1 0-.3c.1-.1.2-.2.3-.2a38.68 38.68 0 0 0 16.2-2.3c.2-.1.3 0 .4.2s0 .3-.2.4a38.76 38.76 0 0 1-15.8 2.4 8.94 8.94 0 0 0 5.1 3.4 11.19 11.19 0 0 0 7.1-1c.1-.1.3 0 .4.1s0 .3-.1.4a11.61 11.61 0 0 1-5.4 1.3z" fill="#545454"/><path d="M35.9 69.9a5.25 5.25 0 0 1-3.4-1.2.37.37 0 0 1-.1-.3.22.22 0 0 1 .2-.2 13.93 13.93 0 0 0 5.9-5.6c.1-.1.3-.2.4-.1s.2.3.1.4a16.11 16.11 0 0 1-5.7 5.6c2.9 1.9 5.8.1 8.4-1.5l.1-.1c.1-.1.3 0 .4.1s0 .3-.1.4l-.1.1c-1.8 1.1-3.9 2.4-6.1 2.4z" fill="#545454"/><path d="M33.4 66.4a14.2 14.2 0 0 1-5.7-1.5c-.1-.1-.2-.2-.2-.3s.1-.2.3-.3a25 25 0 0 0 11.1-4.4.29.29 0 0 1 .3.5 26.19 26.19 0 0 1-10.3 4.4c2.8 1.2 5.3 1.6 7.9.2.1-.1.3 0 .4.1s0 .3-.1.4a7.47 7.47 0 0 1-3.7.9zm.3-17.4h-.1c-1-.4-3.6-2.6-4.1-4.4a4.7 4.7 0 0 1 .3-3.4c0-.1.1-.1.2-.2a.37.37 0 0 1 .3.1s1.3 1.3 1.8 1.7a18.87 18.87 0 0 0 3.7 2.2h.1c.1.1.2.3.1.4s-.3.2-.4.1h-.1a23.52 23.52 0 0 1-3.8-2.3 19.2 19.2 0 0 1-1.5-1.4 4.3 4.3 0 0 0-.1 2.6c.5 1.6 3 3.7 3.8 4.1.2.1.2.2.2.4-.2 0-.3.1-.4.1z" fill="#545454"/><path d="M35.5 51.9a9.55 9.55 0 0 1-4.5-2.5 3.15 3.15 0 0 1-.8-1.5.37.37 0 0 1 .1-.3.19.19 0 0 1 .3 0 12.67 12.67 0 0 0 4.7.9.3.3 0 0 1 0 .6 10.45 10.45 0 0 1-4.3-.6c.1.2.3.4.4.6a9.27 9.27 0 0 0 4.2 2.4c.2 0 .3.2.2.4 0-.1-.1 0-.3 0zM60.7 35a2.14 2.14 0 0 1-1.2-.4 3.55 3.55 0 0 0-.9-.4 1.27 1.27 0 0 0-.6.1 2 2 0 0 1-1.1 0 .54.54 0 0 1-.3-.4c.1-.2.2-.2.4-.2h.8c.3 0 .5-.1.8-.1a2.1 2.1 0 0 1 1.1.4c.4.2.7.4 1 .3a.3.3 0 0 1 0 .6c.1.1 0 .1 0 .1z" fill="#545454"/><path d="M58.9 35.3h-.3a1.63 1.63 0 0 1-1.5-1.1c-.1-.2 0-.3.2-.4s.3 0 .4.2a1.2 1.2 0 0 0 1 .7c.6 0 .9-.1 1.1-.4.1-.1.3-.2.4-.1s.2.3.1.4a1.42 1.42 0 0 1-1.4.7zm13 15.4a.32.32 0 0 1-.3-.3c.4-4.6 4-10.9 7-14a.28.28 0 0 1 .4.4c-3 3-6.4 9.1-6.8 13.6a.27.27 0 0 1-.3.3zm15.7-11.4c-.1 0-.2 0-.2-.1a.3.3 0 0 1 0-.4 6 6 0 0 1 4.1-1.6 4.76 4.76 0 0 1 2.1.7 2.72 2.72 0 0 0-.9-2.5 3 3 0 0 0-3.4-.8c-.1.1-.3 0-.4-.1s0-.3.1-.4a3.84 3.84 0 0 1 4.1.9c.9.9 1.1 1.8 1 3.4a.22.22 0 0 1-.2.2h-.3a5.94 5.94 0 0 0-2.2-.9h-.1a5.45 5.45 0 0 0-3.6 1.4c0 .2 0 .2-.1.2z" fill="#545454"/><path d="M91.6 41c-.1 0-.2 0-.2-.1a2.73 2.73 0 0 0-1.8-.7c-1.2.1-3.2.5-3.3.5a.32.32 0 0 1-.2-.6 30 30 0 0 1 3.3-.6 5.9 5.9 0 0 1 1.4.2c-.6-.6-1.9-.7-3.1-.7a.3.3 0 1 1 0-.6c1.1 0 3.8 0 4.1 2.1 0 .1-.1.3-.2.3.1.2.1.2 0 .2zm-.7 19.5a5.43 5.43 0 0 1-5-2.8v-.2c0-.1.1-.1.2-.2a4 4 0 0 0 2.5-1.7 4.35 4.35 0 0 0 .3-2.9 4.31 4.31 0 0 1-3.2 1.4 4.09 4.09 0 0 1-3.6-1.5.29.29 0 1 1 .5-.3 3.63 3.63 0 0 0 3.1 1.3 3.84 3.84 0 0 0 3.1-1.6.37.37 0 0 1 .3-.1.22.22 0 0 1 .2.2 4.26 4.26 0 0 1-.2 3.9 5.24 5.24 0 0 1-2.5 1.8 5.23 5.23 0 0 0 5 2.1 9.58 9.58 0 0 0 5.5-2.1 4.71 4.71 0 0 0 1.3-1.5 2.33 2.33 0 0 0 .2-1.8 3.51 3.51 0 0 0-.5-.8l-.3-.3a4.87 4.87 0 0 1 .6-6.3.1.1 0 0 0 .1-.1 11 11 0 0 0 3.6-2.5 7.49 7.49 0 0 0 1.7-3.2c0-.1.1-.2.3-.2s.3.1.3.2a11.8 11.8 0 0 1 .4 3.7c-.1 1.9-2.1 4-2.2 4.1a.28.28 0 0 1-.4-.4s1.9-2 2-3.7a9.58 9.58 0 0 0-.1-2.5 9.94 9.94 0 0 1-1.5 2.4 12.13 12.13 0 0 1-3.8 2.7 4.26 4.26 0 0 0-.5 5.5c.1.1.2.2.2.3a4.7 4.7 0 0 1 .6.9 2.7 2.7 0 0 1-.2 2.3 5.52 5.52 0 0 1-1.4 1.7 10 10 0 0 1-5.8 2.2 2.08 2.08 0 0 0-.8 0z" fill="#545454"/><path d="M109.2 45c-.1 0-.2 0-.2-.1a.3.3 0 0 1 0-.4 6.72 6.72 0 0 0 2.2-5 4.42 4.42 0 0 0-1.2-3c-.9 2.6-3.3 6.9-5.5 7.4a.32.32 0 0 1-.2-.6c2-.5 4.6-5.1 5.2-7.4a.22.22 0 0 1 .2-.2.37.37 0 0 1 .3.1 5.19 5.19 0 0 1 1.7 3.8 8.27 8.27 0 0 1-2.4 5.4zM86 83.2a.3.3 0 0 1 0-.6c1.4-.1 2.5-1.1 3.3-2.9a2.21 2.21 0 0 1-1.6 0 3.74 3.74 0 0 1-2.1-1.7 12.23 12.23 0 0 1-1-2.4 6.91 6.91 0 0 1 1-5.1 6.5 6.5 0 0 1 4.5-2.7.3.3 0 1 1 0 .6 5.68 5.68 0 0 0-4.1 2.4 6.34 6.34 0 0 0-.9 4.6 9.17 9.17 0 0 0 .9 2.3 3.14 3.14 0 0 0 1.7 1.4 2.59 2.59 0 0 0 1.9-.3.3.3 0 0 1 .4 0 .37.37 0 0 1 .1.3c-.9 2.6-2.3 3.9-4.1 4.1z" fill="#545454"/><path d="M92 93.8a3.45 3.45 0 0 1-1.3-.3 2.68 2.68 0 0 1-1.7-2.1.3.3 0 0 1 .6 0 2.27 2.27 0 0 0 1.4 1.7 2.46 2.46 0 0 0 1.6.2 3.81 3.81 0 0 1 .3-4.1c.8-1.1.6-3.7-.2-4.8a6.59 6.59 0 0 0-3.7-2.7l-.4-.2c-.2-.1-.2-.2-.2-.4s.2-.2.4-.2l.4.2a7.85 7.85 0 0 1 3.9 2.9c.9 1.2 1.2 4.2.2 5.5a3.32 3.32 0 0 0-.1 3.7c0 .1.1.2 0 .2a.35.35 0 0 1-.1.2c0-.1-.4.2-1.1.2z" fill="#545454"/><path d="M89 94.8a3.61 3.61 0 0 1-2-.6 3.24 3.24 0 0 1-1.3-2.9.3.3 0 1 1 .6 0 2.53 2.53 0 0 0 1 2.3 2.92 2.92 0 0 0 2.4.4 4.27 4.27 0 0 1-.2-4.6c.1-.1.3-.2.4-.1s.2.3.1.4a3.63 3.63 0 0 0 .4 4.2.37.37 0 0 1 .1.3.22.22 0 0 1-.2.2 2 2 0 0 1-1.3.4zm6 9.4a.32.32 0 0 1-.3-.3c0-.2-.2-.4-.4-.6-3.6-3.7-5.8-5.7-9-6.9q-2-.9-2.1-1.5c0-.4.1-1.3.1-1.4a.3.3 0 0 1 .6 0c0 .2-.1.9-.1 1.2a12.37 12.37 0 0 0 1.7 1c3.3 1.3 5.6 3.3 9.2 7a1.29 1.29 0 0 1 .5 1.1c.1.3 0 .4-.2.4zm15.9-66.9c-.1 0-.2 0-.2-.1a.25.25 0 0 1 .1-.4 24.33 24.33 0 0 0 6.5-7 37.13 37.13 0 0 0 3.4-8.3.22.22 0 0 1 .2-.2h.3a6.83 6.83 0 0 1 2.2 3.7c1.1 3.8-1 8.8-3.6 12.1-.1.1-.3.2-.4.1s-.2-.3-.1-.4c2.5-3.2 4.5-8 3.5-11.6a7.66 7.66 0 0 0-1.7-3.1 39.7 39.7 0 0 1-3.3 8 25.47 25.47 0 0 1-6.6 7.2z" fill="#545454"/><path d="M114.9 47.2c-.1 0-.3-.1-.3-.2a.52.52 0 0 1 .2-.4c5.5-1.3 10.1-6.7 10.1-11.6a3.92 3.92 0 0 0-.7-2.7 19.94 19.94 0 0 1-3.8 4.1l-.3.3a16.09 16.09 0 0 1-5.2 3.2c-.2.1-.3 0-.4-.2s0-.3.2-.4a15.36 15.36 0 0 0 5-3.1l.3-.3a18.14 18.14 0 0 0 3.8-4.3c0-.1.1-.1.2-.1h.2s1.1.8 1.2 3.4c.2 5.3-4.6 10.9-10.5 12.3zm-28.6-6.4h-.1c-.2-.1-.2-.2-.2-.4 0 0 1.2-2.9 1.5-3.5a17 17 0 0 1 1.4-2.4c0-.2.2-1.3-.5-1.8a5.25 5.25 0 0 0-4.3 0 23.61 23.61 0 0 0-3.7 1.7c-.1.1-.3 0-.4-.1s0-.3.1-.4 1.9-1 3.7-1.7a5.87 5.87 0 0 1 4.9.1 2.72 2.72 0 0 1 .7 2.4v.1c-.3.5-1.2 1.9-1.4 2.3-.2.6-1.4 3.4-1.5 3.5a.22.22 0 0 1-.2.2z" fill="#545454"/><path d="M80.5 36.1h-.1a7.23 7.23 0 0 1-3-3c-.1-.1 0-.3.1-.4s.2-.1.4 0a8.86 8.86 0 0 0 2.6 1.1 8.06 8.06 0 0 0 2.9-.3.32.32 0 1 1 .2.6 12.69 12.69 0 0 1-3 .3 4.76 4.76 0 0 1-1.8-.6 7.19 7.19 0 0 0 2.1 1.8c.1.1.2.3.1.4a2 2 0 0 0-.5.1zM83.7 53a4.1 4.1 0 0 1-1.1-.1c-1.4-.3-2.4-2-2.5-2s0-.3.1-.4.3 0 .4.1a4.92 4.92 0 0 0 2.1 1.8 3.84 3.84 0 0 0 3.5-.8 1.64 1.64 0 0 0 .5-1.4 3.48 3.48 0 0 1-4 .2c-1.2-.9-1.3-3.4.4-6.2a36.7 36.7 0 0 1 2.9-3.6 2.12 2.12 0 0 1 .3-.7c.1-.1.3-.2.4-.1s.2.3.1.4a1.69 1.69 0 0 0-.2.5c0 .1 0 .1-.1.2s-2 2.3-2.9 3.6c-1.7 2.7-1.3 4.8-.5 5.4a2.91 2.91 0 0 0 3.7-.5.37.37 0 0 1 .3-.1.22.22 0 0 1 .2.2 2.48 2.48 0 0 1-.6 2.5 5.14 5.14 0 0 1-3 1z" fill="#545454"/><path d="M79.2 37.1h-.1a7.91 7.91 0 0 1-1-.5 6.76 6.76 0 0 1-1.2-2.4c0-.1 0-.3.1-.3a.19.19 0 0 1 .3 0l.5.3a1.75 1.75 0 0 0 1.1.2.3.3 0 0 1 0 .6 3.86 3.86 0 0 1-1.2-.2 3.75 3.75 0 0 0 .7 1.3 2.5 2.5 0 0 0 .8.4c.2.1.2.2.2.4a.22.22 0 0 1-.2.2zm23 16.4c-.1 0-.2-.1-.3-.1s0-.3.1-.4a5 5 0 0 0 1.5-1.7 5.66 5.66 0 0 0 .5-3.1 3.88 3.88 0 0 1-1.4 1 3.66 3.66 0 0 1-2.1.1c-.2-.1-.2-.2-.2-.4s.2-.2.4-.2a2.36 2.36 0 0 0 1.7-.1 3.87 3.87 0 0 0 1.6-1.3.37.37 0 0 1 .3-.1.22.22 0 0 1 .2.2c0 .1.4 2.7-.6 4.2a6.4 6.4 0 0 1-1.7 1.9zm-22.3 59.6a4.36 4.36 0 0 1-1.2-.2c-.1 0-.2-.1-.2-.3a.37.37 0 0 1 .1-.3 3.5 3.5 0 0 0 1.2-1.4 8.8 8.8 0 0 0 .6-1.7 3.42 3.42 0 0 1-1.1.1 3 3 0 0 1-2.9-1.6v-.2c0-.1.1-.1.2-.2s2.2-.8 2-2.6c-.1-1.3-.8-2.1-1.9-3.5-.6-.7-1.2-1.5-1.9-2.5a13.21 13.21 0 0 1-2.2-6.7.3.3 0 0 1 .6 0 13.28 13.28 0 0 0 2.1 6.4c.7 1 1.3 1.8 1.9 2.5 1.1 1.3 1.9 2.3 2 3.8a3.49 3.49 0 0 1-2.1 3.1 2.24 2.24 0 0 0 2.1 1 3.46 3.46 0 0 0 1.4-.2c.1-.1.2 0 .3 0a.37.37 0 0 1 .1.3 9.55 9.55 0 0 1-.8 2.4 6.23 6.23 0 0 1-.9 1.2 3.65 3.65 0 0 0 2.6-.7 4.62 4.62 0 0 0 1.9-5.6 11.45 11.45 0 0 0-4.2-6.7l-.6-.4c-2-1.5-3.7-2.8-4.2-4a7 7 0 0 1-.5-2.4.32.32 0 0 1 .3-.3.27.27 0 0 1 .3.3 6 6 0 0 0 .5 2.1c.5 1.1 2.2 2.4 4 3.8l.6.4a12.62 12.62 0 0 1 4.5 7c.7 2.8 0 4.9-2.2 6.3a3.46 3.46 0 0 1-2.4.8z" fill="#545454"/><path d="M75.7 115.6a10.51 10.51 0 0 1-2.8-.5c-.1 0-.2-.2-.2-.3s.1-.2.2-.3 1.3-.5 1.9-3.2c.6-3-1-7.6-1.7-9.6a52.47 52.47 0 0 1-1.5-7.5.3.3 0 0 1 .6 0 51.94 51.94 0 0 0 1.5 7.4c1.1 3.1 2.3 7.1 1.7 9.9a6.08 6.08 0 0 1-1.7 3.3 6.53 6.53 0 0 0 3.9-.1 8.05 8.05 0 0 0 2.1-2c.1-.1.3-.2.4-.1s.2.3.1.4a8.11 8.11 0 0 1-2.3 2.1 4.42 4.42 0 0 1-2.2.5zM78.2 95a4.21 4.21 0 0 1-2.6-.9 4.07 4.07 0 0 1-1.5-3.5.3.3 0 0 1 .6 0 3.61 3.61 0 0 0 1.3 2.9 4.21 4.21 0 0 0 2.2.8 3.47 3.47 0 0 1-.7-2.7c.4-1.7 1.9-2.6 4.6-3a7.52 7.52 0 0 1 2.3 0c.1 0 .2.1.3.2a4.56 4.56 0 0 1-1.8 4.3 3 3 0 0 0 1.4-.5 5 5 0 0 0 2.3-3.5.3.3 0 0 1 .6 0 5.63 5.63 0 0 1-2.6 3.9 3 3 0 0 1-2.7.4c-.1 0-.2-.2-.2-.3s.1-.2.2-.3a3.84 3.84 0 0 0 2.2-3.9 16.67 16.67 0 0 0-1.9.1c-2.4.3-3.7 1.1-4.1 2.5-.3 1.1.9 2.6.9 2.6a.19.19 0 0 1 0 .3.22.22 0 0 1-.2.2c0 .4-.2.4-.6.4z" fill="#545454"/><path d="M72.3 118c-.1 0-.2-.1-.3-.2s0-.3.2-.4c1.1-.4 2.9-1.3 3.1-2.1 0-.2.2-.3.4-.2s.3.2.2.4c-.3 1.4-3.2 2.5-3.5 2.6a.1.1 0 0 0-.1-.1zm22-10.1c-.1 0-.1 0-.2-.1a5 5 0 0 1-1.4-1.5 2.09 2.09 0 0 1-.3-2.1c0-.1.1-.1.2-.2.7-.1 1.1-.5 1.5-1.4.1-.2.2-.2.4-.2s.2.2.2.4a2.84 2.84 0 0 1-1.7 1.7 1.74 1.74 0 0 0 .3 1.4 5.35 5.35 0 0 0 1.3 1.3.3.3 0 0 1 0 .4c-.2.2-.2.3-.3.3z" fill="#545454"/><path d="M94 105.7h-.1a.32.32 0 0 1-.3-.3.27.27 0 0 1 .3-.3 1.65 1.65 0 0 0 1.5-.9c0-.1.1-.1.2-.2h.2c.5.3.9.6 1.3.8.1.1.2.3.1.4s-.3.2-.4.1a10.91 10.91 0 0 0-1.1-.6 1.76 1.76 0 0 1-1.7 1z" fill="#545454"/><path d="M97.3 105.6h-.1c-.1 0-.2-.1-.3-.2s-.2-.3-.1-.4.3-.2.4-.1.2.1.3.1.2.3.1.4-.2.2-.3.2zm-.6-2.7c-.2-.1-.3-.2-.3-.4s-.1-.2-.2-.3l-.1-.1a34.84 34.84 0 0 1-5.8-8.9c-.1-.1 0-.3.1-.4s.3 0 .4.1a36.16 36.16 0 0 0 5.8 8.8l.1.1a1 1 0 0 1 .4.9c-.2.1-.3.2-.4.2zm2.7 6.2a1.36 1.36 0 0 1-1.3-.7c-.1-.1 0-.2 0-.3a3.52 3.52 0 0 0 1-1.9.3.3 0 1 1 .6 0 4.12 4.12 0 0 1-1 2.1 1.39 1.39 0 0 0 1.1.2c.2 0 .3 0 .4.2s0 .3-.2.4zm1.2-.9h-.2c-.1-.1-.2-.3-.1-.4l.6-.9.2-.3a2.54 2.54 0 0 0 .2-1.2 1.45 1.45 0 0 0-.2-.7c-.1-.1 0-.3.1-.4s.3 0 .4.1a1.69 1.69 0 0 1 .3 1 3.93 3.93 0 0 1-.3 1.4v.1l-.3.3-.5.8c0 .2-.1.2-.2.2zm.8-1.5z" fill="#545454"/><path d="M99.9 109c-.1 0-.2-.1-.3-.2s0-.3.2-.4h.1l.5-.7c.1-.1.3-.2.4-.1s.2.3.1.4l-.5.8-.1.1a.6.6 0 0 1-.4.1zm-.5-2.5a.27.27 0 0 1-.3-.3v-.1a10.55 10.55 0 0 1-1.9-.5c-.1-.1-.2-.3-.1-.4s.3-.2.4-.1a10.55 10.55 0 0 0 1.9.5h.1c.1 0 .2.1.2.3v.4c0 .1-.2.2-.3.2zm2-1.7c-.1 0-.2-.1-.3-.2a.1.1 0 0 0-.1-.1l-.1-.1a1.7 1.7 0 0 0-1 0h-.1a8.14 8.14 0 0 1-3.4-1.6l-.1-.1a.78.78 0 0 1 0-.5q0-.15.3-.3a1.64 1.64 0 0 1 1 .2c.1.1.1.1.2.1a10.07 10.07 0 0 0 3.7.7 1.7 1.7 0 0 1 1.4 0c.2.1.3.3.4.4v.1c.1.1 0 .3-.1.4s-.3 0-.4-.1l-.1-.1-.1-.1c-.4-.2-.6-.1-1 0h-.1a11.83 11.83 0 0 1-4-.8c-.1 0-.1-.1-.2-.1s-.1-.1-.2-.1a6.71 6.71 0 0 0 2.7 1.3 1.71 1.71 0 0 1 1.4 0c.2.1.3.3.4.4v.1c.1.1 0 .3-.1.4s0 .1-.1.1z" fill="#545454"/><path d="M101 108.3a.75.75 0 0 1-.5-.1c-.2 0-.2-.2-.2-.4s.2-.2.4-.2a1.1 1.1 0 0 0 .8 0c.2-.1.3 0 .4.2s0 .3-.2.4-.5.1-.7.1z" fill="#545454"/><path d="M101.5 108.2c-.1 0-.2-.1-.3-.2s0-.3.2-.4h.1l1-1.6.2-.3a2.54 2.54 0 0 0 .2-1.2 1.45 1.45 0 0 0-.2-.7c-.1-.1 0-.3.1-.4s.3 0 .4.1a1.69 1.69 0 0 1 .3 1 3.93 3.93 0 0 1-.3 1.4v.1l-.3.3-1.1 1.6-.1.1c.1.1 0 .1-.2.2zm1.6-2.3zm-4.9 3.7h-.4a.22.22 0 0 1-.2-.2v-.3a1.38 1.38 0 0 1 .3-.4l.3-.3c.1-.1.3-.2.4-.1s.2.3.1.4-.1.2-.2.2a2.19 2.19 0 0 0 .5-.3.28.28 0 1 1 .4.4 1.43 1.43 0 0 1-1.2.6zm-2.6-1.5a2.28 2.28 0 0 1-1.1-.3c-.1-.1-.2-.3-.1-.4s.3-.2.4-.1a1.42 1.42 0 0 0 .6.2l-.2-.2a.28.28 0 1 1 .4-.4l.3.3a1.38 1.38 0 0 0 .4.3.37.37 0 0 1 .1.3.22.22 0 0 1-.2.2c-.1.1-.4.1-.6.1z" fill="#545454"/><path d="M94.6 107.8a.75.75 0 0 1-.5-.1c-.2 0-.3-.2-.2-.4s.2-.3.4-.2a1.63 1.63 0 0 0 .7 0 1.44 1.44 0 0 0 .2-.3c0-.1-.1-.2-.3-.4a1.57 1.57 0 0 1-.4-1.2c.1-.1.2-.2.3-.2s.2.1.3.2v.1a1.33 1.33 0 0 0 .3.7c.4.4.4.6.5.6v.1a1.06 1.06 0 0 1-.5.9 1.51 1.51 0 0 1-.8.2zm5.8.9h-.2c-.2-.1-.2-.2-.2-.4s.2-.2.4-.2a1.23 1.23 0 0 0 .8-.4c.1-.1.3-.2.4-.1s.2.3.1.4a1.89 1.89 0 0 1-1.3.7zm-6-37.6a7.46 7.46 0 0 1-3.1-1.5 3.18 3.18 0 0 1-1.1-3.2c.1-.2.2-.2.4-.2s.2.2.2.4a2.84 2.84 0 0 0 .9 2.6 6.77 6.77 0 0 0 2.4 1.2 2.68 2.68 0 0 1 .6-2.2.28.28 0 1 1 .4.4 2.18 2.18 0 0 0-.4 2.2.37.37 0 0 1-.1.3zm19.2-17h-.6a.3.3 0 1 1 0-.6c2.7.3 7.4-1.5 9.5-3.5a9.32 9.32 0 0 0 2.6-7.4 18.68 18.68 0 0 1-12.7 4.8.3.3 0 1 1 0-.6 18 18 0 0 0 12.7-5 .37.37 0 0 1 .3-.1.22.22 0 0 1 .2.2 10.36 10.36 0 0 1-2.7 8.5 15.65 15.65 0 0 1-9.3 3.7z" fill="#545454"/><path d="M99.9 72.4c-2.6 0-4.6-2.3-5.7-4.6-.1-.2 0-.3.1-.4s.3 0 .4.1c1 2.3 3.2 4.7 5.9 4.1a13.07 13.07 0 0 1-2.6-3c-.1-.1 0-.3.1-.4s.3 0 .4.1a13.45 13.45 0 0 0 3 3.2.37.37 0 0 1 .1.3.22.22 0 0 1-.2.2 2.28 2.28 0 0 1-1.5.4zm14.9-12.9a4.87 4.87 0 0 1-1.2-.1.3.3 0 0 1 0-.6 11.41 11.41 0 0 0 7.3-1.8 8.29 8.29 0 0 0 3.3-5.3 26.2 26.2 0 0 1-16.1 1.8c-.2 0-.3-.2-.2-.4s.2-.3.4-.2a25.79 25.79 0 0 0 16.2-2c.1-.1.2 0 .3 0a.37.37 0 0 1 .1.3 9.16 9.16 0 0 1-3.7 6.3 11.56 11.56 0 0 1-6.4 2z" fill="#545454"/><path d="M104.2 71.7c-2.9 0-5.3-2.2-7.4-3.9l-.2-.2a.28.28 0 1 1 .4-.4l.2.2c2.4 2.1 5 4.4 8.1 3.7a13.31 13.31 0 0 1-2.3-3c-.1-.1 0-.3.1-.4s.3 0 .4.1a11.44 11.44 0 0 0 2.6 3.2.37.37 0 0 1 .1.3.22.22 0 0 1-.2.2 11 11 0 0 1-1.8.2zm9.5-7.8a12.63 12.63 0 0 1-5.4-1.3c-.1-.1-.2-.3-.1-.4s.3-.2.4-.1a10.08 10.08 0 0 0 7.1 1 9.46 9.46 0 0 0 5.1-3.4 38.76 38.76 0 0 1-15.8-2.4c-.2-.1-.2-.2-.2-.4s.2-.2.4-.2a38.68 38.68 0 0 0 16.2 2.3c.1 0 .2.1.3.2s0 .2 0 .3a10.54 10.54 0 0 1-5.9 4.2 12.48 12.48 0 0 1-2.1.2z" fill="#545454"/><path d="M108 69.9c-2.2 0-4.3-1.3-6.1-2.4l-.1-.1c-.1-.1-.2-.3-.1-.4s.3-.2.4-.1l.1.1c2.6 1.6 5.5 3.4 8.4 1.5a14.63 14.63 0 0 1-5.7-5.6c-.1-.1 0-.3.1-.4s.3 0 .4.1a15.18 15.18 0 0 0 5.9 5.6.22.22 0 0 1 .2.2.37.37 0 0 1-.1.3 5.43 5.43 0 0 1-3.4 1.2z" fill="#545454"/><path d="M110.5 66.4a8.73 8.73 0 0 1-3.7-.9c-.1-.1-.2-.3-.1-.4s.3-.2.4-.1c2.6 1.3 5.1.9 7.9-.2a24.27 24.27 0 0 1-10.3-4.4c-.1-.1-.2-.3-.1-.4s.3-.2.4-.1a23.86 23.86 0 0 0 11.1 4.4q.15 0 .3.3c.1.2-.1.3-.2.3a14.2 14.2 0 0 1-5.7 1.5zm-.3-17.4c-.1 0-.2-.1-.3-.2s0-.3.2-.4a9.55 9.55 0 0 0 3.8-4.1 4.43 4.43 0 0 0-.1-2.6 19.2 19.2 0 0 1-1.5 1.4 23.52 23.52 0 0 1-3.8 2.3h-.1c-.1.1-.3 0-.4-.1s0-.3.1-.4h.1a32.77 32.77 0 0 0 3.7-2.2c.5-.4 1.8-1.7 1.8-1.7a.37.37 0 0 1 .3-.1.22.22 0 0 1 .2.2 5.37 5.37 0 0 1 .3 3.4c-.5 1.8-3.2 4-4.1 4.4a.31.31 0 0 1-.2.1z" fill="#545454"/><path d="M108.4 51.9c-.1 0-.3-.1-.3-.2a.52.52 0 0 1 .2-.4 8.9 8.9 0 0 0 4.2-2.4 2.09 2.09 0 0 0 .4-.6 10.68 10.68 0 0 1-4.3.6.27.27 0 0 1-.3-.3.32.32 0 0 1 .3-.3 9.64 9.64 0 0 0 4.7-.9h.3a.37.37 0 0 1 .1.3 3.68 3.68 0 0 1-.8 1.5 8.44 8.44 0 0 1-4.5 2.7zM83.2 35h-.1a.3.3 0 0 1 0-.6 3.81 3.81 0 0 0 1-.3 2.46 2.46 0 0 1 1.1-.4 2.2 2.2 0 0 1 .8.1 1.1 1.1 0 0 0 .8 0c.2-.1.3 0 .4.2s0 .3-.2.4a2 2 0 0 1-1.1 0c-.2 0-.4-.1-.6-.1a1.8 1.8 0 0 0-.9.4 3.5 3.5 0 0 1-1.2.3z" fill="#545454"/><path d="M85 35.3a1.42 1.42 0 0 1-1.4-.7c-.1-.1 0-.3.1-.4s.3 0 .4.1c.2.3.5.4 1.1.4a1.2 1.2 0 0 0 1-.7c.1-.2.2-.2.4-.2s.2.2.2.4a1.74 1.74 0 0 1-1.5 1.1z" fill="#545454"/><path d="M70.9 60.1h-2.7a14.09 14.09 0 0 1-2.2.7c-1 .2-1.8-.1-2.9 1a9.72 9.72 0 0 0-2.1 2.5v1.9h.1a.86.86 0 0 1 .8.8l1.1 7.1a.86.86 0 0 1-.8.8h-.1v.8a5.69 5.69 0 0 0 3 3.6c2.3.9 3.9 1.6 4.9 2.1a3.83 3.83 0 0 1 1.5 1.4 4.43 4.43 0 0 1 1.7-1.4c1.1-.5 2.7-1.2 4.9-2.1a5.69 5.69 0 0 0 3-3.6v-.8H81a.86.86 0 0 1-.8-.8l1.1-7.1a.86.86 0 0 1 .8-.8h.1v-1.9a8.3 8.3 0 0 0-2.1-2.5c-1.1-1.1-1.9-.7-2.9-1a14.09 14.09 0 0 1-2.2-.7h-4.1z" fill="#d76446"/><path d="M71.5 83.1c-.1 0-.2-.1-.3-.2a4.25 4.25 0 0 0-1.4-1.3c-1-.5-2.5-1.1-4.9-2.1s-3.1-3.7-3.2-3.8v-.9a.27.27 0 0 1 .3-.3h.1a.47.47 0 0 0 .5-.5l-1.1-7a.56.56 0 0 0-.5-.6h-.1a.27.27 0 0 1-.3-.3v-2a7.69 7.69 0 0 1 2.2-2.6 2.9 2.9 0 0 1 2.2-.9 2.2 2.2 0 0 0 .8-.1 11.42 11.42 0 0 0 2.1-.7H75a15.58 15.58 0 0 0 2.1.7 2.2 2.2 0 0 0 .8.1 2.77 2.77 0 0 1 2.2.9 10.69 10.69 0 0 1 2.2 2.6v2a.27.27 0 0 1-.3.3h-.1a.47.47 0 0 0-.5.5L80.3 74a.54.54 0 0 0 .5.5h.1a.27.27 0 0 1 .3.3v.9a5.87 5.87 0 0 1-3.2 3.8 49.44 49.44 0 0 0-4.9 2.1 10.78 10.78 0 0 0-1.6 1.3c.2.2.1.2 0 .2zm-9.1-7.4a5.46 5.46 0 0 0 2.8 3.4c2.4 1 3.9 1.6 4.9 2.1a3.4 3.4 0 0 1 1.4 1.2 7 7 0 0 1 1.5-1.2c1-.5 2.6-1.1 4.9-2.1a5.46 5.46 0 0 0 2.8-3.4v-.5a1.17 1.17 0 0 1-.9-1.1l1.1-7.1a1.06 1.06 0 0 1 .9-1v-1.6a10.6 10.6 0 0 0-2-2.4 2.65 2.65 0 0 0-1.9-.8 2.77 2.77 0 0 1-.9-.1 19.74 19.74 0 0 1-2.2-.7H68a19.74 19.74 0 0 1-2.2.7 2.77 2.77 0 0 1-.9.1 2.3 2.3 0 0 0-1.9.8 8.8 8.8 0 0 0-2 2.4V66a1.17 1.17 0 0 1 .9 1.1l1.1 7a1.09 1.09 0 0 1-.9 1.1v.5z" fill="#545454"/><path d="M79.1 68.9c-.3-.1-.3-.2-.3-.2a.44.44 0 0 1 .3-.1c.2 0 .5-.2.5-.3s-.1-.3-.3-.2-.5.2-.6.2.4-.3.4-.4-.1-.4-.4-.1-.4.2-.4.2.1-.5.1-.6-.1-.3-.3-.1-.1.5-.2.6-.3 0-.4 0-.3-.2-.3 0 .1.2.2.4.3.4.2.4-.2.3-.7.1-.7-.3-.6-.5.3-.5.5-.8a7.51 7.51 0 0 1 .7-.8s.5-.2.5-.5a1.21 1.21 0 0 0-.1-.5 2.59 2.59 0 0 0 .2-1.5c-.1-.7-.1-1.1-.4-1.3a.52.52 0 0 0-.4-.2c-.6-.2-1 .2-1.6.8a2 2 0 0 1-.5.5l-.2.2v.1a.83.83 0 0 0-.7.4 1 1 0 0 0 0 .8l-.1.1a.78.78 0 0 0 0 .5c0 .2-.1 1-.4 1.2s-.6.2-.8-.3-.1-.9.2-.9.7 0 .8-.2a.32.32 0 0 0-.3-.3 1 1 0 0 1-.4.1s.4-.4.4-.5 0-.4-.3-.3a1.1 1.1 0 0 0-.5.5l-.1-.1s0-.5-.1-.6-.4 0-.3.3a.48.48 0 0 1 0 .4h-.1s-.2-.3-.3-.3a.19.19 0 0 0-.3 0c-.1.1.1.2.1.3l.2.2v.1h-.4c-.1 0-.3.1-.2.3s.2.2.4.2.4 0 .3.3-.1.6-.1.8.5.6.5.7-.1.3-1.1 1-1.4 1.2-1.6 1.3l-.3.3s-.1-.2-.3-.7a1.68 1.68 0 0 0-.6-1.1c-.2-.2-.4-.3-.4-.4s.3-.2.5-.1a.25.25 0 1 0 0-.4 2 2 0 0 0-.5.1 1.4 1.4 0 0 0 .4-.4.24.24 0 0 0-.2-.4c-.3 0-.5.3-.6.4a.31.31 0 0 1-.2.1s.2-.5.1-.7-.3-.4-.5-.2 0 .8 0 .9h-.1a2.74 2.74 0 0 1-.4-.5c-.1-.1-.3-.3-.5-.1s0 .4.2.6.4.4.4.5-.2.2-.4.4a.33.33 0 0 0 0 .5c.1.1.3 0 .4-.1s.3-.3.5-.2a1.58 1.58 0 0 1 .7.7 2.51 2.51 0 0 1-.3 1.6c-.3.5-.6.7-1.6 1.3a4.83 4.83 0 0 0-1.8 2.1 6.25 6.25 0 0 0-.4 2.5 3.54 3.54 0 0 0 .1.6c.1.2.2.2.2.2a1.43 1.43 0 0 0 .3-.7 4.14 4.14 0 0 1 1-2.2c.9-1.1 1.8-1.7 2.5-1.6a2 2 0 0 1 1.4.6 2.65 2.65 0 0 1 .5.6.3.3 0 0 1 0 .4 1.47 1.47 0 0 1-.5.6c-.2.1-.3 0-.5-.1s-.6-.3-.7-.1a.45.45 0 0 0 0 .5 2.54 2.54 0 0 0 .7.2s0 .1-.2.2-.4.1-.4.4.4.3.6.2l.3-.3v.4c0 .2 0 .5.2.5s.3-.2.3-.4v-.4h.1s.1.5.3.6.5.2.5.1 0-.3-.1-.5a1.87 1.87 0 0 0-.3-.4v-.1a2 2 0 0 0 .6.2c.2 0 .4-.1.4-.2a.93.93 0 0 0-.7-.4c-.3 0-.5-.1-.4-.2s.6-.4.7-.7a.82.82 0 0 0-.2-.9c0-.1-.1-.1-.1-.2-.4-.5.3-.7.5-.8a5.87 5.87 0 0 0 2-.8 9 9 0 0 0 2-1.9c.3-.6.3-.8.6-.8s.8.4 1.2.3.7-.6.9-.6a1.42 1.42 0 0 1 .6.2c.2.1.4.1.4-.1.7-.4.6-.4.4-.5z" fill="#eadfa9"/><path d="M143 40.2h.6V27.8c-1.9-4.8-6.9-9.7-14.1-16.7S116.9 6.3 110 4.8A105.43 105.43 0 0 1 95.1 0L76.8 2h-9.9L52.8.5l53.5 125.6c5.7-1.8 11.7-3.7 17.2-5.8 15.3-5.9 20.2-23.7 20.2-23.7v-5.1h-.6a5.44 5.44 0 0 1-5.5-5.3V45.5a5.29 5.29 0 0 1 5.4-5.3z" fill="url(#c)" opacity=".4"/></svg>