<svg xmlns="http://www.w3.org/2000/svg" viewBox="0 0 81.05 94.3"><line x1="79.55" y1="11.06" x2="1.5" y2="89.11" fill="none" stroke="#d75636" stroke-linecap="round" stroke-linejoin="round" stroke-width="3"/><line x1="79.55" y1="89.11" x2="1.5" y2="11.06" fill="none" stroke="#d75636" stroke-linecap="round" stroke-linejoin="round" stroke-width="3"/><path d="M59.81 90.91c-1.07.24-2.11.4-3.24.6a50.21 50.21 0 0 0-5.2 1.05A9.21 9.21 0 0 1 43.73 91c-.24-.16-.49-.34-.71-.51-4.46-3.52-7.55-8.34-9.73-12.14a84.87 84.87 0 0 1-10.67-34.22c-.9-10.16-.37-18.61 1.69-26.66 1.24-4.92 2.81-8.34 5-11.06a8.77 8.77 0 0 1 5.39-3.17l9.06-1.66a4.34 4.34 0 0 1 3.16.53 4.09 4.09 0 0 1 1.54 2.68v.08c.34 1.56.61 3.12.89 4.77.14.84.3 1.69.44 2.56l1.33 7.25c.52 2.82-.55 4.36-3.36 4.87-.77.14-1.53.29-2.28.42-2.25.44-4.38.83-6.59 1.11a.49.49 0 0 0-.13 0 3.9 3.9 0 0 0-3.28 3l-.05.18a41.87 41.87 0 0 0-.64 11.79v0A70.12 70.12 0 0 0 40 63.22a25.81 25.81 0 0 0 1.21 2.39c.37.67.72 1.31 1 1.91 0 .08.07.17.11.24a4.14 4.14 0 0 0 1.29 1.47 4.08 4.08 0 0 0 3.14.56l9.09-1.67a4.32 4.32 0 0 1 3.19.46 3.89 3.89 0 0 1 1.47 2.71L63.19 86c.51 2.7-.63 4.35-3.38 4.91z" fill="none" stroke="#d75636" stroke-linecap="round" stroke-linejoin="round" stroke-width="3"/></svg>