<svg xmlns="http://www.w3.org/2000/svg" viewBox="0 0 70.23 74.01"><path d="M70.09 3.01c-3.87-.59-4.3 1.7-4.28 4.78.08 12.64 0 25.29 0 37.93 0 2.49.37 5.46-2.47 6.51A13.46 13.46 0 0 1 52.7 52c-2.14-1-1.75-3.39-1.75-5.36V8.21c0-2.71.41-5.23-3.84-5.29-4.44-.07-4.24 2.49-4.21 5.47.05 6 .11 12 0 18-.12 4.93-1.48 5.65-8.26 5.71-4.12 0-6.76-1-6.64-5.8.17-6.48-.05-13 .07-19.46.05-2.78-1-3.84-3.77-3.82s-4.59.49-4.3 3.79c.13 1.49 0 3 0 4.49 0 8.07-4.07 11-11.75 8.46a4.09 4.09 0 0 1-3.08-4.06 43.08 43.08 0 0 1 0-6c.49-4.08-.3-7.13-5.06-7.66.41-.63-1-2.15 1-2 1.8 1.11 3.82 1 5.82 1H63.3c2 0 4 .11 5.82-1 2.12.37.48 2.02.97 2.97zm-7.16 23.51c0-6.48-.15-13 .06-19.45.11-3.5-1.53-4.13-4.53-4.12s-4.66.53-4.62 4.06q.2 19.45 0 38.89c0 3.39 1.44 4.23 4.52 4.19s4.71-.64 4.61-4.13c-.17-6.47-.04-12.95-.04-19.44zM39.99 16.01c0-3-.18-6 0-9 .27-3.56-1.58-4.09-4.54-4.09s-4.71.55-4.58 4.08c.2 5.65.17 11.32 0 17-.1 3.34.46 5.22 4.55 5.19s4.8-1.79 4.57-5.19c-.14-2.63.01-5.3 0-7.99zm-22.9-5.51V8.65c.11-3.09.43-5.75-4.36-5.79s-4.89 2.6-4.7 6a14.5 14.5 0 0 1 0 3c-.74 4.84 2 5.55 5.89 5.2 5.17-.51 2.26-4.56 3.17-6.56zm37 63.51c-.13-3.84 3.24-2.36 5.89-3.61-4.19-4.17-8.08-8.13-12.06-12-2.22-2.15-3.35.32-4.31 1.49-2.59 3.18-4.54 2.67-7.19-.11-6.64-7-13.61-13.65-20.34-20.55-1.22-1.25-4.28-2.75-2.35-4.53 1.67-1.55 3.2 1.47 4.49 2.73 6.31 6.14 12.59 12.32 18.67 18.7 2.31 2.43 4.07 3.11 6.2.09 2.46-3.48 4.62-2.57 7.11.19 3.65 4.07 7.59 7.88 11.29 11.69.69-.31 1.09-.36 1.21-.57.75-1.3-.64-4 1.62-4s1.41 2.6 1.47 4.12c.07 2.13.37 4.34-.71 6.36z" fill="#d75636"/><path d="M69.09.01c-1.81 1.11-3.82 1-5.82 1H6.91c-2 0-4 .11-5.82-1zM9.18 31.42a1.06 1.06 0 0 1-.92-1.4 1.4 1.4 0 0 1 1-.84 1.06 1.06 0 0 1 1.25 1.11 1.18 1.18 0 0 1-1.33 1.13z" fill="#d75636"/></svg>