<svg viewBox="0 0 117 68" fill="none" xmlns="http://www.w3.org/2000/svg"><g opacity=".1" clip-path="url(#clip0)" fill="#000"><path d="M63.941 44.592a2.775 2.775 0 0 1 2.062 2.75c-.077 3.166.063 4.434.644 12.738h3.478l.252-7.251c.049-1.379 1.641-2.127 2.735-1.278a3.794 3.794 0 0 0 5.607-1.083c.686-1.176 2.43-1.103 3.003.15a3.442 3.442 0 0 0 4.606 1.683 1.695 1.695 0 0 1 2.42 1.47l.22 6.309h3.403l.354-10.18a1.693 1.693 0 0 1 1.693-1.635h1.648a5.694 5.694 0 0 0 5.525-4.295 2.8 2.8 0 0 1 1.182-1.652 3.775 3.775 0 0 0 1.465-4.437 9.672 9.672 0 0 1-11.393-5.196 6.336 6.336 0 0 1-7.17-.48l-2.3-1.825A1.696 1.696 0 0 1 83.1 28l2.26-2.848c-1.341-1.36-3.59-1.512-5.104-.225-.959.816-2.345.898-3.37.19-2.306-1.59-5.572-.029-5.855 2.672a2.765 2.765 0 0 1-3.658 2.317c-2.852-1-6.055 2.113-4.617 5.137a2.794 2.794 0 0 1-.516 3.126c-1.954 2.018-.987 5.497 1.7 6.223zM74.966 39.1a1.694 1.694 0 0 1 1.714 1.675 2.41 2.41 0 0 0 2.353 2.38 5.093 5.093 0 0 1 .132-2.395 1.694 1.694 0 0 1 3.242.983c-.504 1.66 1.526 2.934 2.797 1.745a1.694 1.694 0 1 1 2.315 2.475 5.1 5.1 0 0 1-6.616.292c-3.722 1.224-7.567-1.528-7.611-5.442a1.694 1.694 0 0 1 1.674-1.713z"/><path d="M96.054 51.653l-.293 8.427h4.576l1.219-10.27a9.072 9.072 0 0 1-5.49 1.843h-.012zm-22.38 3.864l-.159 4.563H77.7l1.168-5.212a7.161 7.161 0 0 1-5.194.65zM87.25 29.13l.53.422c1.2.95 3.029.879 4.16-.512-.49-6.33-.455-5.898-.462-6.044-.332.274-.056-.031-4.32 5.34a.565.565 0 0 0 .091.794zm27.721 0a.564.564 0 0 0 .091-.793l-3.42-4.31c-.451 5.832-.417 5.465-.46 5.791 1.943 1.087 3.471-.436 3.789-.688zm-20.113-6.857c-.02.465-.03.158.482 6.792.192 2.585 2.024 4.838 4.564 5.558v-3.892a1.695 1.695 0 0 1 .019-3.388h3.348a1.693 1.693 0 0 1 .02 3.388v3.892c2.455-.694 4.357-2.881 4.564-5.558.476-6.255.509-6.31.481-6.79a7.236 7.236 0 0 1-6.738-1.23 7.24 7.24 0 0 1-6.74 1.228zm14.978 37.807h3.388v-8.472a1.694 1.694 0 0 0-3.388 0v8.472zm-5.154-5.074a1.68 1.68 0 0 0-.145 1.811c.342.637.754 1.677 1.01 3.263h3.419c-.299-2.227-.883-3.792-1.455-4.857a1.687 1.687 0 0 0-2.829-.217zm10.624 8.462H62.003a1.694 1.694 0 0 0 0 3.388h53.303a1.695 1.695 0 0 0 0-3.388zM97.087 19.236c.917 0 1.762-.321 2.425-.86a7.239 7.239 0 0 1 0-5.995 3.833 3.833 0 0 0-2.425-.861 3.863 3.863 0 0 0-3.859 3.859 3.863 3.863 0 0 0 3.859 3.857zm9.021 0a3.864 3.864 0 0 0 3.859-3.857 3.863 3.863 0 0 0-3.859-3.859 3.863 3.863 0 0 0-3.858 3.859 3.863 3.863 0 0 0 3.858 3.857z"/></g><path d="M0 33.17C0 14.85 14.85 0 33.17 0s33.17 14.85 33.17 33.17-14.85 33.17-33.17 33.17H0V33.17z" fill="#483532"/><path d="M34.176 32.628v3.036h-1.504c-1.611 0-3.223.031-4.834-.015-.276-.015-.645-.247-.798-.493-.384-.602-.66-1.264-.998-1.943-.614.309-1.181.586-1.795.91a125.44 125.44 0 0 1 1.611 3.268c.138.293.276.632.276.94.016 4.424 0 8.833 0 13.258 0 .107-.015.2-.046.37h-2.946V39.78h-1.98v12.178h-3.07V28.974c0-2.143 1.167-3.345 3.3-3.391.844-.016 1.688 0 2.532 0 .998 0 1.689.431 2.134 1.34.782 1.62 1.657 3.207 2.409 4.872.307.678.706.863 1.397.848 1.427-.062 2.854-.015 4.312-.015z" fill="#fff"/><path d="M28.221 43.742v-6.027c.292-.016.538-.031.783-.031h20.012c1.105 0 2.072.277 2.778 1.187 1.442 1.819.399 4.486-1.888 4.84a6.19 6.19 0 0 1-.92.077h-20.09c-.184-.015-.383-.03-.675-.046zm18.201-2.035V39.75h-4.22v1.958h4.22zM36.278 39.75h-4.143v1.943h4.143V39.75zm10.083-10.19v-1.927h4.052v7.97H40.269v-7.97h4.036v1.912c.69.015 1.32.015 2.056.015zm-8.149-1.912v7.955h-1.995v-5.01c-1.396 0-2.732-.124-4.02.03-1.597.201-2.548-.323-2.993-1.88-.108-.355-.323-.694-.522-1.11h3.499v1.912h1.995v-1.912c1.35.015 2.64.015 4.036.015zm-16.083-4.146c-1.688 0-3.008-1.341-3.008-3.022.015-1.68 1.381-3.037 3.039-3.021 1.611.015 2.962 1.387 2.992 3.006.015 1.665-1.366 3.037-3.023 3.037z" fill="#fff"/><defs><clipPath id="clip0"><rect width="56.691" height="56.691" fill="#fff" transform="translate(60.31 10.856)"/></clipPath></defs></svg>