<svg viewBox="0 0 125 67" fill="none" xmlns="http://www.w3.org/2000/svg"><path opacity=".1" d="M71.13 61.125a4.201 4.201 0 0 0-4.197-4.197 4.201 4.201 0 0 0-4.197 4.197 4.201 4.201 0 0 0 4.197 4.196 4.201 4.201 0 0 0 4.197-4.196zm37.405-26.605h1.276c.638-.073 1.355-.258 2.112-.47.16-2.774 1.259-7.023 5.964-10.074L114.66 19c-5.69 3.69-7.677 8.672-8.342 12.202A19.68 19.68 0 0 0 106 33.93c.914.261 1.779.504 2.535.59zM78.939 65.321a4.201 4.201 0 0 0 4.196-4.196 4.201 4.201 0 0 0-4.197-4.197 4.201 4.201 0 0 0-4.196 4.197 4.201 4.201 0 0 0 4.197 4.196zm29.01-27.05c-.829-.077-1.596-.296-2.338-.507-.45-.129-.875-.25-1.262-.323-1.323-.247-2.403-.345-3.396-.308-3.14.12-5.655 1.966-6.902 5.067-2.304 5.729-.968 12.596 3.486 17.921 1.356 1.622 2.838 2.97 4.405 4.006.694.46 1.854 1.227 2.608 1.227h.003c1.657-.005 2.935-.796 3.033-.858l1.035-.73.989.73c.112.071 1.384.853 3.032.858h.003c.753 0 1.914-.768 2.608-1.227 1.566-1.036 3.048-2.384 4.405-4.006 4.454-5.325 5.79-12.192 3.486-17.921-1.247-3.101-3.763-4.948-6.902-5.067-.994-.038-2.073.06-3.397.308-.386.073-.811.194-1.262.322-.742.212-1.509.431-2.338.508l-.083.008h-1.129l-.084-.008z" fill="#000"/><path opacity=".1" d="M91.336 23.91c-2.214 1.275-3.745 3.51-4.551 6.642-.84 3.267-2.503 5.962-4.11 8.568-1.614 2.614-3.138 5.083-3.774 7.989a14.888 14.888 0 0 0-.038 6.209l.075-.002c4.306 0 7.81 3.503 7.81 7.809a7.8 7.8 0 0 1-.364 2.354 15.086 15.086 0 0 0 7.175 1.874h.444a15.182 15.182 0 0 0 3.195-.367 26.246 26.246 0 0 1-2.432-2.547c-5.31-6.349-6.868-14.62-4.067-21.587 1.776-4.416 5.558-7.156 10.117-7.328.324-.012.652-.013.987-.004a20.027 20.027 0 0 1-1.028-2.968c-.805-3.132-2.336-5.367-4.55-6.642a4.9 4.9 0 0 0-2.445-.65c-.845 0-1.69.216-2.444.65zm-15.317.931a19.704 19.704 0 0 1 3.645-.203c-.915-5.38-5.136-8.012-5.336-8.134l-1.888 3.08c.133.082 2.81 1.803 3.579 5.257zm15.878-4.981a8.57 8.57 0 0 1 3.647-.026c-.79-6.622-5.956-9.926-6.193-10.07l-1.878 3.085c.04.025 3.673 2.372 4.424 7.01zM62.923 44.251c0 3.4 1.066 6.553 2.878 9.148a7.795 7.795 0 0 1 7.134 2.738 7.858 7.858 0 0 1 2.421-1.947 18.485 18.485 0 0 1 .017-7.854c.768-3.506 2.527-6.356 4.227-9.113 1.535-2.486 2.983-4.834 3.687-7.57.066-.258.138-.509.212-.755a15.954 15.954 0 0 0-4.56-.662c-8.831 0-16.016 7.184-16.016 16.015z" fill="#000"/><path d="M0 33.5C0 14.998 14.998 0 33.5 0 52.002 0 67 14.998 67 33.5 67 52.002 52.002 67 33.5 67H0V33.5z" fill="#6B9E45"/><g clip-path="url(#clip0)" fill="#fff"><path d="M32.27 21.57a.912.912 0 0 0-1.195 0L17.306 33.446a.915.915 0 0 0-.317.693v17.176c0 .506.41.914.914.914h27.54a.914.914 0 0 0 .913-.914V34.139a.917.917 0 0 0-.317-.693L32.27 21.57zm12.258 28.832h-14.67c2.199-3.84 3.542-12.574 3.589-16.972 1.651 3.053 1.457 8.928-.641 13.03a.457.457 0 0 0 .581.63c1.439-.592 4.118-1.693 5.298-5.362 1.667-5.186-1.502-11.135-7.066-13.26a.455.455 0 0 0-.597.284c-.748 2.278-2.218 3.912-3.638 5.494-1.655 1.841-3.218 3.58-3.16 6.003.066 2.847 2.263 5.685 4.394 7.222.12.132.408 1.04-.157 2.931h-9.644V34.557l12.856-11.09 12.855 11.09v15.845z"/><path d="M51.137 30.926L32.864 15.213a1.828 1.828 0 0 0-2.383 0L12.21 30.926a1.827 1.827 0 1 0 2.383 2.77l17.08-14.689 17.082 14.69a1.825 1.825 0 0 0 2.577-.195 1.827 1.827 0 0 0-.194-2.576z"/></g><defs><clipPath id="clip0"><rect width="40.2" height="40.2" fill="#fff" transform="translate(11.573 13.4)"/></clipPath></defs></svg>