<svg width="4" height="17" viewBox="0 0 4 17" fill="none" xmlns="http://www.w3.org/2000/svg">
<path d="M3.45508 1.62439C3.45508 0.820516 2.80394 0.168945 2.00055 0.168945C1.19715 0.168945 0.546021 0.820516 0.546021 1.62439C0.546021 2.42827 1.19715 3.07986 2.00055 3.07986C2.80394 3.07986 3.45508 2.42829 3.45508 1.62439ZM3.45508 8.41653C3.45508 7.61263 2.80392 6.96109 2.00055 6.96109C1.19718 6.96109 0.546021 7.61266 0.546021 8.41653C0.546021 9.22041 1.19713 9.87198 2.00055 9.87198C2.80394 9.87198 3.45508 9.22044 3.45508 8.41653ZM3.45508 14.7235C3.45508 13.9196 2.80392 13.2681 2.00055 13.2681C1.19718 13.2681 0.546021 13.9196 0.546021 14.7235C0.546021 15.5274 1.19715 16.179 2.00055 16.179C2.80394 16.179 3.45508 15.5274 3.45508 14.7235Z" fill="#ffffff"/>
</svg>
