<svg viewBox="0 0 27 27" fill="none" xmlns="http://www.w3.org/2000/svg"><path d="M7.76 3.159a6.731 6.731 0 0 0-.782 1.337c.45.301.841.682 1.157 1.122.538.824.834 1.782.852 2.766.36-.672.529-1.43.488-2.191-.118-1.374-1.158-2.514-1.715-3.034zM4.344 4.402a6.447 6.447 0 0 0 .037 1.92v.004c.087.538.29 1.05.595 1.502A4.859 4.859 0 0 0 7.64 9.51c.058-.045.112-.092.173-.136.068-.048.134-.083.2-.124a4.858 4.858 0 0 0-.668-3.081 3.74 3.74 0 0 0-1.208-1.072 6.441 6.441 0 0 0-1.794-.695zM3.52 6.906a6.724 6.724 0 0 0-1.515.284c.297.702 1.012 2.069 2.261 2.65.7.298 1.47.4 2.225.292a5.254 5.254 0 0 1-2.306-1.748 4.547 4.547 0 0 1-.665-1.478zM0 26.915h27V23.54H0v3.375zm23.866-2.41a.723.723 0 1 1 0 1.446.723.723 0 0 1 0-1.446zm-20.732 0a.723.723 0 1 1 0 1.446.723.723 0 0 1 0-1.446zM27 14.862H0v3.375h27v-3.375zm-23.866 2.41a.723.723 0 1 1 0-1.446.723.723 0 0 1 0 1.446zm20.732 0a.723.723 0 1 1 0-1.446.723.723 0 0 1 0 1.446zM27 19.2H0v3.376h27V19.2zM3.134 21.613a.723.723 0 1 1 0-1.447.723.723 0 0 1 0 1.447zm20.732 0a.723.723 0 1 1 0-1.447.723.723 0 0 1 0 1.447zM18.321.12a6.453 6.453 0 0 0-1.07 1.596v.002a3.753 3.753 0 0 0-.376 1.572 4.861 4.861 0 0 0 1.22 2.907c.15-.007.3-.007.453 0a4.858 4.858 0 0 0 1.22-2.907 3.753 3.753 0 0 0-.375-1.572A6.434 6.434 0 0 0 18.321.121zm-2.147 13.777h5.587c.232-.948.372-1.917.418-2.893a3.754 3.754 0 0 0-.034-.482H20.25a.482.482 0 0 1 0-.964h1.64a3.791 3.791 0 0 0-3.17-2.388 4.046 4.046 0 0 0-1.354.096 3.845 3.845 0 0 0-2.859 3.251l.005.005a17.478 17.478 0 0 1 1.66 3.375zm2.147-4.339a.482.482 0 1 1 0 .964.482.482 0 0 1 0-.964zM21.5 4.53c.69-1.192.492-2.722.334-3.468a6.845 6.845 0 0 0-1.406.644c.195.506.298 1.042.304 1.584a5.233 5.233 0 0 1-.889 2.755 4.175 4.175 0 0 0 1.658-1.516zm-6.36 9.367a15.787 15.787 0 0 0-1.392-2.79 3.403 3.403 0 0 0-.303-.38l-1.555 1.09a.483.483 0 1 1-.553-.79l1.343-.944a3.829 3.829 0 0 0-3.97-.134 3.892 3.892 0 0 0-.647.45c-.145.125-.281.26-.408.404a3.835 3.835 0 0 0-.879 3.094h8.363zm-5.385-1.764a.482.482 0 1 1 .554.79.482.482 0 0 1-.553-.79zm5.054-11.071c-.159.746-.356 2.276.332 3.467.403.646.975 1.17 1.655 1.516a5.25 5.25 0 0 1-.886-2.755 4.53 4.53 0 0 1 .303-1.591 6.787 6.787 0 0 0-1.404-.637z" fill="#6B9E45"/></svg>