<svg viewBox="0 0 24 24" fill="none" xmlns="http://www.w3.org/2000/svg"><g clip-path="url(#clip0)" fill="#6B9E45"><path d="M12.321 11.679c-2.995-2.995-2.995-7.87 0-10.865L3.235 9.9C.62 12.516.288 16.563 2.24 19.542H.716a.716.716 0 1 0 0 1.433h2.31v2.309a.716.716 0 0 0 1.432 0V21.76a7.677 7.677 0 0 0 4.21 1.252 7.658 7.658 0 0 0 5.432-2.247l9.086-9.086a7.658 7.658 0 0 1-5.433 2.246 7.66 7.66 0 0 1-5.432-2.246z"/><path d="M22.173 1.828A6.23 6.23 0 0 0 17.753 0c-1.6 0-3.2.61-4.418 1.828a6.257 6.257 0 0 0 0 8.838 6.256 6.256 0 0 0 8.838 0 6.257 6.257 0 0 0 0-8.838zM15.63 8.52c-.402 0-.7-.328-.717-.716-.017-.387.342-.717.717-.717.401 0 .699.329.716.717.018.387-.341.716-.716.716zm2.123-3.114c-.402 0-.7-.328-.717-.717-.017-.387.342-.716.717-.716.401 0 .699.328.716.716.017.387-.342.717-.716.717zm2.122 3.114c-.401 0-.699-.328-.716-.716-.017-.387.342-.717.716-.717.402 0 .7.329.717.717.017.387-.342.716-.716.716z"/></g><defs><clipPath id="clip0"><rect width="24" height="24" fill="#fff"/></clipPath></defs></svg>