<svg viewBox="0 0 20 21" fill="none" xmlns="http://www.w3.org/2000/svg"><path d="M15.272 1.55a3.683 3.683 0 0 0-2.024.61.307.307 0 0 1-.258.039.365.365 0 0 1-.21-.18A3.599 3.599 0 0 0 11.584.697 2.904 2.904 0 0 0 10 .217a2.9 2.9 0 0 0-1.584.48A3.6 3.6 0 0 0 7.222 2.02a.365.365 0 0 1-.21.18.307.307 0 0 1-.259-.038c-.622-.4-1.32-.61-2.029-.611C2.362 1.55.44 3.809.44 6.585c0 2.393 1.497 4.523 3.48 4.956a.349.349 0 0 1 .21.145.47.47 0 0 1 .082.269v4.888h11.476v-4.888a.47.47 0 0 1 .084-.27.348.348 0 0 1 .21-.144c.988-.202 1.885-.809 2.53-1.716.647-.906 1.002-2.054 1.003-3.24 0-2.776-1.903-5.035-4.242-5.035zm.416 16.134H4.21v2.464h11.476v-2.464z" fill="#BCBCBC"/></svg>