<svg viewBox="0 0 32 34" fill="none" xmlns="http://www.w3.org/2000/svg"><path d="M19.063 16.638c0 1.759-1.372 3.185-3.063 3.185s-3.063-1.426-3.063-3.185c0-1.759 1.372-3.185 3.063-3.185s3.063 1.426 3.063 3.185z" fill="#000"/><path d="M23.162 11.004a2.974 2.974 0 0 0-.687-1.1 2.837 2.837 0 0 0-1.056-.714c-.324-.13-.81-.286-1.706-.328-.97-.046-1.26-.056-3.713-.056-2.453 0-2.744.01-3.713.055-.895.043-1.382.199-1.706.33-.399.152-.76.397-1.056.714-.305.308-.54.683-.687 1.099-.126.336-.276.842-.317 1.774-.044 1.007-.053 1.309-.053 3.86s.01 2.853.053 3.86c.041.932.19 1.438.317 1.775.147.415.382.79.687 1.098.296.318.657.562 1.056.715.324.13.81.287 1.706.329.97.046 1.26.056 3.713.056 2.453 0 2.744-.01 3.712-.056.896-.043 1.383-.198 1.707-.33a3.106 3.106 0 0 0 1.743-1.812c.126-.337.276-.843.317-1.774.044-1.008.053-1.31.053-3.86 0-2.552-.01-2.854-.053-3.861-.041-.932-.19-1.438-.317-1.774zM16 21.544c-2.606 0-4.718-2.196-4.718-4.906 0-2.71 2.112-4.906 4.718-4.906 2.605 0 4.718 2.196 4.718 4.906 0 2.71-2.113 4.906-4.718 4.906zm4.904-8.86c-.609 0-1.102-.513-1.102-1.146 0-.633.493-1.146 1.102-1.146.61 0 1.103.513 1.103 1.146 0 .633-.494 1.147-1.103 1.147z" fill="#000"/><path d="M16 0C7.165 0 0 7.45 0 16.638c0 9.188 7.165 16.638 16 16.638s16-7.45 16-16.638C32 7.45 24.835 0 16 0zm9.132 20.577c-.044 1.017-.2 1.711-.427 2.319a4.795 4.795 0 0 1-2.687 2.794c-.584.236-1.252.398-2.23.444-.98.047-1.293.058-3.788.058s-2.808-.011-3.788-.058c-.978-.046-1.646-.208-2.23-.444a4.489 4.489 0 0 1-1.627-1.102 4.705 4.705 0 0 1-1.06-1.692c-.227-.608-.382-1.302-.427-2.319-.045-1.019-.056-1.344-.056-3.939 0-2.595.011-2.92.056-3.939.044-1.017.2-1.711.427-2.32a4.702 4.702 0 0 1 1.06-1.691 4.487 4.487 0 0 1 1.627-1.102c.584-.236 1.252-.398 2.23-.444.98-.047 1.293-.058 3.788-.058s2.808.011 3.788.058c.978.046 1.646.208 2.23.444.613.24 1.168.616 1.627 1.102.468.477.83 1.054 1.06 1.692.227.608.383 1.302.427 2.32.045 1.018.055 1.343.055 3.938s-.01 2.92-.055 3.939z" fill="#000"/></svg>