<svg viewBox="0 0 20 22" fill="none" xmlns="http://www.w3.org/2000/svg"><path d="M18.889 15.304c-1.333 0-2.667-.23-4-.693-.333-.115-.778 0-1.111.231l-2.445 2.542C8.223 15.766 5.667 12.994 4 9.759l2.444-2.541c.334-.347.445-.809.223-1.155-.334-1.271-.556-2.657-.556-4.044C6.111 1.326 5.667.864 5 .864H1.111C.444.864 0 1.326 0 2.02c0 10.86 8.444 19.639 18.889 19.639.667 0 1.111-.462 1.111-1.155V16.46c0-.693-.444-1.155-1.111-1.155zm-1.111-4.043H20C20 5.485 15.556.864 10 .864v2.31c4.333 0 7.778 3.582 7.778 8.087zm-4.445 0h2.223c0-3.234-2.445-5.776-5.556-5.776v2.31c1.889 0 3.333 1.502 3.333 3.466z" fill="#000"/></svg>