<?xml version="1.0" standalone="no"?>
<!DOCTYPE svg PUBLIC "-//W3C//DTD SVG 20010904//EN"
 "http://www.w3.org/TR/2001/REC-SVG-20010904/DTD/svg10.dtd">
<svg version="1.0" xmlns="http://www.w3.org/2000/svg"
 width="700.000000pt" height="700.000000pt" viewBox="0 0 700.000000 700.000000"
 preserveAspectRatio="xMidYMid meet">
<metadata>
Created by potrace 1.11, written by Peter Selinger 2001-2013
</metadata>
<g transform="translate(0.000000,700.000000) scale(0.100000,-0.100000)"
fill="#000000" stroke="none">
<path d="M0 3500 l0 -3500 3500 0 3500 0 0 3500 0 3500 -3500 0 -3500 0 0
-3500z m5070 25 l0 -1915 -495 0 -495 0 0 1540 0 1540 -373 0 -374 0 -6 -417
c-6 -413 -22 -703 -52 -971 -51 -449 -149 -845 -253 -1020 -168 -282 -537
-483 -1097 -597 -136 -27 -443 -75 -486 -75 -5 0 -9 164 -9 373 l0 372 112 18
c231 38 394 112 520 237 141 141 191 298 233 735 32 334 37 502 42 1275 2 437
6 801 8 808 4 9 285 12 1365 12 l1360 0 0 -1915z"/>
</g>
</svg>
