<svg viewBox="0 0 778 292" fill="none" xmlns="http://www.w3.org/2000/svg"><path d="M196.4 285.6h-56v-70H0V174L139.6 5.6h56.8v163.6h41.2v46.4h-41.2v70zM140.4 78l-76.8 91.2h76.8V78z" fill="url(#paint0_linear)"/><path d="M389.25 291.2c-24.8 0-46.533-6.933-65.2-20.8-18.133-13.6-32-31.2-41.6-52.8-9.333-21.6-14-45.6-14-72 0-26.133 4.533-49.867 13.6-71.2 9.6-22.4 23.733-40.4 42.4-54C343.383 6.8 364.983 0 389.25 0c36.8 0 66 14.267 87.6 42.8 21.867 28.267 32.8 62.533 32.8 102.8 0 40.267-10.933 74.533-32.8 102.8-21.6 28.533-50.8 42.8-87.6 42.8zm-46-80.4c11.733 17.6 27.067 26.4 46 26.4 19.2 0 34.4-8.8 45.6-26.4 11.467-17.867 17.2-39.6 17.2-65.2 0-25.867-5.733-47.467-17.2-64.8-11.2-17.867-26.4-26.8-45.6-26.8-19.2 0-34.533 8.933-46 26.8-11.467 17.333-17.2 38.933-17.2 64.8 0 25.6 5.733 47.333 17.2 65.2z" fill="url(#paint1_linear)"/><path d="M736.681 285.6h-56v-70h-140.4V174l139.6-168.4h56.8v163.6h41.2v46.4h-41.2v70zm-56-207.6l-76.8 91.2h76.8V78z" fill="url(#paint2_linear)"/><defs><linearGradient id="paint0_linear" x1="388.941" y1="0" x2="388.941" y2="291.2" gradientUnits="userSpaceOnUse"><stop stop-color="#FAFAFA"/><stop offset="1" stop-color="#E6E6E6" stop-opacity="0"/></linearGradient><linearGradient id="paint1_linear" x1="388.941" y1="0" x2="388.941" y2="291.2" gradientUnits="userSpaceOnUse"><stop stop-color="#FAFAFA"/><stop offset="1" stop-color="#E6E6E6" stop-opacity="0"/></linearGradient><linearGradient id="paint2_linear" x1="388.941" y1="0" x2="388.941" y2="291.2" gradientUnits="userSpaceOnUse"><stop stop-color="#FAFAFA"/><stop offset="1" stop-color="#E6E6E6" stop-opacity="0"/></linearGradient></defs></svg>