<?xml version="1.0" standalone="no"?>
<!DOCTYPE svg PUBLIC "-//W3C//DTD SVG 20010904//EN"
 "http://www.w3.org/TR/2001/REC-SVG-20010904/DTD/svg10.dtd">
<svg version="1.0" xmlns="http://www.w3.org/2000/svg"
 width="700.000000pt" height="700.000000pt" viewBox="0 0 700.000000 700.000000"
 preserveAspectRatio="xMidYMid meet">
<metadata>
Created by potrace 1.11, written by Peter Selinger 2001-2013
</metadata>
<g transform="translate(0.000000,700.000000) scale(0.100000,-0.100000)"
fill="#000000" stroke="none">
<path d="M0 3500 l0 -3500 3500 0 3500 0 0 3500 0 3500 -3500 0 -3500 0 0
-3500z m5188 1715 c333 -47 575 -171 744 -383 114 -144 199 -367 202 -532 l1
-75 -328 -14 c-180 -7 -330 -12 -332 -9 -3 2 -16 44 -30 94 -59 203 -165 307
-365 361 -98 26 -367 23 -472 -5 -164 -45 -281 -130 -307 -225 -19 -65 -9
-147 23 -202 69 -116 207 -177 691 -301 564 -145 782 -239 956 -413 146 -147
222 -303 255 -525 67 -455 -153 -876 -559 -1066 -342 -161 -943 -187 -1347
-58 -395 126 -653 413 -755 843 -35 143 -45 216 -31 220 15 6 638 66 642 63 1
-2 12 -41 24 -88 69 -272 210 -438 430 -508 208 -66 515 -48 684 40 81 43 175
137 212 213 26 55 29 69 29 165 0 96 -2 109 -27 151 -52 88 -145 151 -300 203
-40 14 -206 59 -368 101 -339 88 -495 137 -632 199 -404 183 -620 531 -577
930 32 299 217 560 494 699 138 69 325 118 521 136 127 12 384 5 522 -14z
m-3656 -1437 l3 -1373 838 -3 837 -2 0 -280 0 -280 -1175 0 -1175 0 0 1655 0
1655 335 0 335 0 2 -1372z"/>
</g>
</svg>
