<svg viewBox="0 0 88 58" fill="none" xmlns="http://www.w3.org/2000/svg"><path fill-rule="evenodd" clip-rule="evenodd" d="M0 44.8C0 52.09 5.91 58 13.2 58h61.6C82.09 58 88 52.09 88 44.8V14C88 6.71 82.09.8 74.8.8H13.2C5.91.8 0 6.71 0 14v30.8zm57.552-25.432c-2.083-2.259-4.605-3.388-7.568-3.388-3.08 0-5.456 1.07-7.128 3.212v-2.596H37.18v30.8h5.676V36c1.672 2.141 4.048 3.212 7.128 3.212 2.963 0 5.485-1.115 7.568-3.344.156-.167.306-.336.45-.508.152.172.31.342.474.508 2.23 2.23 5.001 3.344 8.316 3.344 2.141 0 4.092-.513 5.852-1.54 1.76-1.056 3.124-2.45 4.092-4.18l-4.928-2.816c-.44.91-1.115 1.628-2.024 2.156-.88.499-1.892.748-3.036.748-1.701 0-3.11-.557-4.224-1.672-1.115-1.144-1.672-2.581-1.672-4.312 0-1.76.557-3.197 1.672-4.312 1.115-1.144 2.523-1.716 4.224-1.716 1.115 0 2.112.264 2.992.792.91.528 1.584 1.247 2.024 2.156l4.884-2.86c-.91-1.73-2.244-3.11-4.004-4.136-1.76-1.027-3.71-1.54-5.852-1.54-3.315 0-6.087 1.115-8.316 3.344-.17.172-.334.348-.49.526-.14-.163-.284-.324-.434-.482zM48.928 33.8c-1.76 0-3.212-.572-4.356-1.716-1.144-1.173-1.716-2.67-1.716-4.488 0-1.819.572-3.3 1.716-4.444 1.144-1.173 2.596-1.76 4.356-1.76 1.76 0 3.212.587 4.356 1.76 1.173 1.144 1.76 2.625 1.76 4.444s-.587 3.315-1.76 4.488c-1.144 1.144-2.596 1.716-4.356 1.716z" fill="#000"/><path d="M49.984 15.98c2.963 0 5.485 1.13 7.568 3.388 2.112 2.23 3.168 4.972 3.168 8.228 0 3.256-1.056 6.013-3.168 8.272-2.083 2.23-4.605 3.344-7.568 3.344-3.08 0-5.456-1.07-7.128-3.212v11.396H37.18v-30.8h5.676v2.596c1.672-2.141 4.048-3.212 7.128-3.212zm-5.412 16.104c1.144 1.144 2.596 1.716 4.356 1.716 1.76 0 3.212-.572 4.356-1.716 1.173-1.173 1.76-2.67 1.76-4.488 0-1.819-.587-3.3-1.76-4.444-1.144-1.173-2.596-1.76-4.356-1.76-1.76 0-3.212.587-4.356 1.76-1.144 1.144-1.716 2.625-1.716 4.444s.572 3.315 1.716 4.488z" fill="#fff"/><path d="M66.792 39.212c-3.315 0-6.087-1.115-8.316-3.344-2.2-2.23-3.3-4.987-3.3-8.272s1.1-6.043 3.3-8.272c2.23-2.23 5.001-3.344 8.316-3.344 2.141 0 4.092.513 5.852 1.54 1.76 1.027 3.095 2.405 4.004 4.136l-4.884 2.86c-.44-.91-1.115-1.628-2.024-2.156-.88-.528-1.877-.792-2.992-.792-1.701 0-3.11.572-4.224 1.716-1.115 1.115-1.672 2.552-1.672 4.312 0 1.73.557 3.168 1.672 4.312 1.115 1.115 2.523 1.672 4.224 1.672 1.144 0 2.156-.25 3.036-.748.91-.528 1.584-1.247 2.024-2.156l4.928 2.816c-.968 1.73-2.332 3.124-4.092 4.18-1.76 1.027-3.71 1.54-5.852 1.54z" fill="#fff"/><path d="M13.2 58C5.91 58 0 52.09 0 44.8V13.89C0 6.66 5.86.8 13.09.8c7.108 0 12.87 5.763 12.87 12.87V58H13.2z" fill="#FF5959"/></svg>