<svg viewBox="0 0 32 32" fill="none" xmlns="http://www.w3.org/2000/svg"><path d="M31.15 10.982L21.019.849A2.885 2.885 0 0 0 18.964 0c-.778 0-1.507.3-2.054.848L.848 16.91A2.884 2.884 0 0 0 0 18.964c0 .778.301 1.507.848 2.054l1.25 1.25 8.398 8.398H9.333a.667.667 0 0 0 0 1.333h13.333a.667.667 0 0 0 0-1.333h-7.092L31.151 15.09a2.908 2.908 0 0 0 0-4.108zm-.942 3.165L14.146 30.208a1.56 1.56 0 0 1-1.109.458h-.005c-.42 0-.814-.163-1.108-.458l-8.412-8.411L18.937 6.372a.667.667 0 0 0-.943-.943L2.57 20.854l-.778-.779a1.56 1.56 0 0 1-.458-1.11c0-.422.163-.817.458-1.112l16.06-16.061a1.56 1.56 0 0 1 1.112-.458c.421 0 .816.162 1.11.458l3.607 3.606L8.256 20.823a.667.667 0 0 0 .943.943L24.624 6.34l5.584 5.583c.613.613.612 1.61 0 2.223z" fill="#3C3636"/><path d="M16.425 19.254a.667.667 0 0 0-.943 0L10.236 24.5a.667.667 0 0 0 .943.943l5.246-5.246a.667.667 0 0 0 0-.943zm-2.152 4.98l-2.151 2.151a.667.667 0 0 0 .943.943l2.151-2.151a.667.667 0 0 0-.943-.943zm1.98-1.98l-.282.283a.667.667 0 1 0 .942.943l.283-.283a.667.667 0 0 0-.943-.943zm9.189-12.017a.667.667 0 0 0-.943 0l-2.828 2.828a.667.667 0 0 0 0 .943l1.886 1.886a.664.664 0 0 0 .942 0l2.829-2.829a.667.667 0 0 0 0-.942l-1.886-1.886zm-1.414 4.243l-.943-.943 1.886-1.886.942.943-1.885 1.886zm-4.007-9.468c.17 0 .342-.065.472-.196l.283-.283a.667.667 0 0 0-.943-.942l-.283.283a.667.667 0 0 0 .471 1.138zM6.7 22.379l-.282.282a.667.667 0 0 0 .943.943l.283-.283a.667.667 0 0 0-.943-.942z" fill="#3C3636"/></svg>