<svg xmlns="http://www.w3.org/2000/svg" viewBox="0 0 72.5 52.2"><path d="M.3 31.6a7.09 7.09 0 0 1 2.2-3.7 5.94 5.94 0 0 1 4-1.4 3.63 3.63 0 0 0 3.3-2.7c.1-.5 0-.7-.5-1a11.69 11.69 0 0 1-6.6-11 11.86 11.86 0 0 1 9-11.4A12.06 12.06 0 0 1 25.1 6a5.74 5.74 0 0 0 .4.7c2.4-4.3 6-6.7 10.8-6.7s8.5 2.4 10.9 6.7a5.73 5.73 0 0 0 .4-.7A12 12 0 0 1 70 13.1a11.51 11.51 0 0 1-6.5 9.7.82.82 0 0 0-.5 1.2 3.41 3.41 0 0 0 3 2.5 6.29 6.29 0 0 1 6.5 5.1v14.2h-2.4V33.1c0-2.6-1.3-4-3.9-4.1a5.52 5.52 0 0 1-4.5-2.5 17.91 17.91 0 0 1-1.2-2.4h-4.9a6.91 6.91 0 0 1-1.4 3.3 20.36 20.36 0 0 0-1.7-1.5c.2-.7.5-1.3.7-2 .2-.5 0-.8-.5-1a12.58 12.58 0 0 1-5-4.7 2.09 2.09 0 0 0-.4-.6l-.2.2a12.79 12.79 0 0 1-5.5 5.3c-.2.1-.3.5-.3.7a3.51 3.51 0 0 0 3.6 2.9 6 6 0 0 1 5.9 6.2v19.3h-2.4v-19q0-3.9-3.9-4.2a8.74 8.74 0 0 1-2.2-.5 6.06 6.06 0 0 1-3.5-4.4 22.85 22.85 0 0 1-2.5.2 19.42 19.42 0 0 1-2.4-.2.1.1 0 0 1-.1.1c-.9 3.1-2.7 4.6-5.9 4.8a3.66 3.66 0 0 0-3.6 3.9v19.2h-2.4V32.7a3.4 3.4 0 0 1 .1-1 6.05 6.05 0 0 1 6-5.1 3.54 3.54 0 0 0 3.4-2.7c.1-.5.1-.8-.5-1a11.5 11.5 0 0 1-5.1-4.9c-.1-.2-.2-.3-.3-.5-.1.1-.1.1-.2.1a12.21 12.21 0 0 1-5.6 5.4c-.2.1-.4.4-.3.6.2.7.4 1.4.6 2.3-.4.4-.9 1-1.5 1.7a16.29 16.29 0 0 1-1.1-1.7 6.07 6.07 0 0 1-.5-1.8H12a.1.1 0 0 1-.1.1A5.92 5.92 0 0 1 6 29a3.66 3.66 0 0 0-3.6 3.9v13H0c.3-4.8.3-9.5.3-14.3zm48.4-18.3a9.47 9.47 0 0 0 10.5 8.4c4.3-.4 8.9-5 8.4-8.4h-1.9a1.56 1.56 0 0 1-1.5-.8 18.82 18.82 0 0 0-1.6-2.3 1.19 1.19 0 0 0-.9-.5h-7.2a1 1 0 0 0-.8.4c-.6.8-1.1 1.6-1.6 2.4a1.36 1.36 0 0 1-1.3.7 14.77 14.77 0 0 1-2.1.1zm-2.8 0h-7.2a4.3 4.3 0 0 1-2.7-.8c-.6-.5-1.3-1.2-2-1.2s-1.4.7-2.1 1.2a3.77 3.77 0 0 1-2.7.8 19.22 19.22 0 0 0-2.4 0 9.63 9.63 0 0 0 19.1 0zm-40.6 0a9.44 9.44 0 0 0 9.8 8.4c4.7-.1 9.4-4.4 9.1-8.4h-7.8A3.19 3.19 0 0 1 15 13c-1.2-.6-2.4-1.2-3.7-1.8-.4.5-.9.9-1.3 1.4a1.85 1.85 0 0 1-1.8.7zM27 10.8c1.7.1 3.4.3 4.8-1 .4-.4 1-.6 1.4-1a1.35 1.35 0 0 1 1.7 0 23.26 23.26 0 0 0 2.6 1.7 2.45 2.45 0 0 0 1.2.4h7.2c0-4.3-4.5-8.3-9.3-8.4s-9.5 3.9-9.6 8.3zm-2.8.1c.2-4.1-4.6-8.4-9.4-8.4s-9.6 4.3-9.5 8.4c1.4-.1 2.8.4 4-1 1.4-1.7 1.6-1.7 3.6-.6a10.87 10.87 0 0 0 7 1.6c1.4-.1 2.9 0 4.3 0zm24.5-.1c1 .2 1.8.1 2.3-.9A8 8 0 0 1 52.3 8a2.09 2.09 0 0 1 1.3-.7q4.65-.15 9.3 0a2.39 2.39 0 0 1 1.3.7 9.06 9.06 0 0 1 1.3 1.9 1.65 1.65 0 0 0 2.3.9c.2-4.1-4.7-8.4-9.5-8.4s-9.8 4.3-9.6 8.4z" fill="#353636"/><path d="M14.3 45.8c-1.3-1.3-2.7-2.6-4-4a1.31 1.31 0 0 1-.3-1.2c.7-3.9 1.5-7.7 2.3-11.6.2-1 .6-1.3 1.5-1.3h2a1.32 1.32 0 0 1 1.4 1.1c.8 3.9 1.6 7.9 2.3 11.8a1.68 1.68 0 0 1-.3 1.2c-1.3 1.4-2.7 2.7-4 4zm.4-2.8c.8-.8 1.4-1.5 2-2.1a1.85 1.85 0 0 0 .2-.7c-.6-3.2-1.3-6.3-1.9-9.4 0-.2-.2-.3-.3-.5-.1.2-.3.3-.3.5-.6 3.1-1.3 6.3-1.9 9.4a1.7 1.7 0 0 0 .1.7c.7.7 1.4 1.3 2.1 2.1zM36 45.8c-1.3-1.3-2.7-2.6-4-4a1.31 1.31 0 0 1-.3-1.2c.7-3.9 1.5-7.7 2.3-11.6.2-1 .6-1.3 1.5-1.3h2a1.32 1.32 0 0 1 1.4 1.1c.8 3.9 1.6 7.9 2.3 11.8a1.68 1.68 0 0 1-.3 1.2c-1.3 1.4-2.7 2.7-4 4zm.5-2.8c.7-.8 1.4-1.4 2-2.1a1.85 1.85 0 0 0 .2-.7c-.6-3.2-1.3-6.3-1.9-9.4a.85.85 0 0 0-.3-.5c-.1.2-.3.3-.3.5-.6 3.1-1.3 6.3-1.9 9.4 0 .2 0 .6.2.7a18.84 18.84 0 0 0 2 2.1zm21.2 2.8c-1.3-1.3-2.7-2.6-4-4a1.31 1.31 0 0 1-.3-1.2c.7-3.9 1.5-7.7 2.3-11.6.2-1 .6-1.3 1.5-1.3h2a1.32 1.32 0 0 1 1.4 1.1c.8 3.9 1.6 7.9 2.3 11.8a1.68 1.68 0 0 1-.3 1.2c-1.3 1.4-2.7 2.7-4 4zm.5-2.8c.8-.8 1.4-1.5 2-2.2a.88.88 0 0 0 .1-.7c-.6-3.2-1.3-6.3-1.9-9.5 0-.2-.2-.3-.3-.7a3.29 3.29 0 0 0-.3.6c-.7 3.2-1.3 6.4-1.9 9.7a1.85 1.85 0 0 0 .2.7z" fill="#353636"/></svg>