<svg xmlns="http://www.w3.org/2000/svg" viewBox="0 0 52.04 83.16"><polyline points="9.11 26.39 11.81 35.77 15.65 37.36 17.92 46.03 26.02 53.22 15.32 50.81 11.98 42.54 7.07 41.58 3.35 36.72" fill="none" stroke="#d75636" stroke-linecap="round" stroke-linejoin="round" stroke-width="3"/><path d="M39.35 64a24.49 24.49 0 0 1-2.73 3.1 1.31 1.31 0 0 0 1.81 1.9 27 27 0 0 0 3-3.44A1.31 1.31 0 1 0 39.35 64zm4.91-15a25.48 25.48 0 0 1-1.77 9.39 1.31 1.31 0 1 0 2.44 1 28.09 28.09 0 0 0 2-10.36 27.63 27.63 0 0 0-9.39-20.93 1.31 1.31 0 0 0-1.73 2A25 25 0 0 1 44.26 49z" fill="#d75636"/><path d="M42.79 24.33A10.67 10.67 0 0 1 40.46 13l4.4-11.24A1.31 1.31 0 0 0 43.64 0H8.41a1.31 1.31 0 0 0-1.23 1.79L11.58 13a10.67 10.67 0 0 1-2.32 11.3c-.23.24-.46.49-.68.74v4.2a27 27 0 0 1 2.56-3.12 13.25 13.25 0 0 0 1.19-1.4H28.9a1.31 1.31 0 0 0 0-2.62H13.83A13.23 13.23 0 0 0 14 12.07l-3.7-9.45h31.42L38 12.07a13.29 13.29 0 0 0 2.89 14.09c5.41 5.55 8.51 13.73 8.51 22.42 0 12.11-6.14 23.06-15.28 27.27a1.3 1.3 0 0 0-.27.15l-.1.08-.08.08-.07.09-.07.1-.06.11v.42c0 .03 0 0 0 0v3.53H18.7v-2.03H26a1.31 1.31 0 1 0 0-2.62h-8.31C8.67 71.47 2.62 60.6 2.62 48.58a35.08 35.08 0 0 1 2-11.78H1.86A37.86 37.86 0 0 0 0 48.58a36.48 36.48 0 0 0 4.69 18.18 27.62 27.62 0 0 0 11.39 11.13v4a1.31 1.31 0 0 0 1.31 1.31h17.26A1.31 1.31 0 0 0 36 81.85v-4a27.61 27.61 0 0 0 11.35-11.09A36.47 36.47 0 0 0 52 48.58c0-9.37-3.33-18.21-9.21-24.25z" fill="#d75636"/></svg>