<svg xmlns="http://www.w3.org/2000/svg" viewBox="0 0 65.6 60.31"><path d="M27.01 4.8C20.96-1.28 10.9.08 5.52 7.81c-6.15 8.85-5.74 17.86-.53 27 5.95 10.4 16.24 16.19 25.1 23.4a3.61 3.61 0 0 0 5 .17c8.69-7.12 18.29-13.21 24.93-22.58a24.44 24.44 0 0 0 4.56-14.48c-.23-5.37-2.09-11.3-6.57-15.53a16.23 16.23 0 0 0-13-4.56c-4.41.32-7 3.05-9.79 5.7.93 2.91 3.41 3.94 4.76 5.93-4.54 4.66-11.1 6.24-16.47 10.37 4.72 4.43 10.72 6.07 15.5 9.57a15.08 15.08 0 0 1-2 6" fill="none" stroke="#d75636" stroke-linecap="round" stroke-linejoin="round" stroke-width="2"/></svg>