<svg xmlns="http://www.w3.org/2000/svg" viewBox="0 0 279.5 279.5"><circle fill="#FFF" cx="139.8" cy="139.8" r="139.8"/><path fill="#2F2F2F" d="M91.1 81.2c-1-2.7-2-5.3-3.1-7.9-1-2.2-.8-4.3 1.2-5.4 1.3-.7 3.5-.8 4.9-.2 2.1 1 2 3.1 1.6 5.4-1.2 6.7-.7 13.3 2.5 19.4 2 3.8 5.5 5.4 9.8 6.2 6 1.1 12 2.7 17.8 4.8 6.9 2.6 12.6 1.5 16.8-4.5 2.2-3 4-6.1 3.9-10.2-.2-4 3.7-7.1 7.6-7 4.1.2 7.3 3.8 7.1 7.9-.3 4-3.6 7.2-7.7 6.8-2.3-.2-3.7.4-5 2.1-.7.8-1.5 1.6-2.2 2.4-7.5 8.3-4.5 21.9 5.9 26.2 1.9.8 4.5.8 6.4.2 3.7-1.1 7.6-2.1 10.1-5.8.6-.9 3.6-1.2 4.9-.6 1.1.6 1.8 2.9 1.7 4.4-.1 2.1-1.9 3-4.1 3-6.5-.2-12.5 1.5-16.1 7-4.1 6.3-4.4 13.5-1.2 20.5 1.2 2.7 3.6 4.4 6.5 5 4.6 1 9.1.5 13.6-1.2 3.4-1.3 6.7.6 7.7 3.9 1 3.2-.6 6.8-3.9 7.4-1.8.4-4-.3-5.8-1-4.3-1.7-8.3-3.9-12.6-5.4-3.5-1.2-7.1.1-9.6 2.6-5.4 5.3-10.8 10.8-15.4 16.9-3.9 5.1-3.7 11 .5 16.4 1.6 2 3 4.2 4.8 5.9 1.3 1.2 3.2 2.3 5 2.7 4.9 1.1 7.5 4.8 6.5 9.7-1.1 5.4-4.4 7.6-9.6 6.3-5.2-1.3-7.5-5.2-6.3-10.2.4-1.8.3-4.1-.3-5.8-1.2-3.1-2.9-6-4.7-8.8-7.4-11.1-26.2-10.6-32.7 1.1-3 5.4-3 11.5-2.9 17.5 0 2.4.6 4.8 1.1 7.2.7 3.1-.4 5.8-2.8 7.1-2.5 1.3-5.5.7-7.2-1.4-1.9-2.3-1.6-5 0-7.8 8.2-14.4 8.8-25.5-1.1-34.8-5.9-5.6-14.1-5-18.8 1.6-2.2 3.2-4.6 6.3-4.9 10.5-.2 2.2-2 3.3-4.1 3.5-2.2.2-3.9-.8-4.7-2.8-.9-2.1-.5-4 1.3-5.6 2.9-2.5 5.9-4.8 8.7-7.4 3.5-3.2 4.4-7.3 3.8-11.8-.8-5.3-2.7-10.2-6.2-14.4-4.1-5-9.2-7.9-15.9-6.9-2 .3-4.1.5-6.2.6-2.1.1-3.8.3-5.2 2.5-1.3 2.2-4.5 2.4-6.6 1-2.2-1.4-3-4.4-1.9-6.7 1.2-2.3 3.8-3.6 6.2-2.5 5.1 2.4 10.4 1.6 15.6 1.2 6.3-.5 12-4.8 12.1-12 .1-3.9 1.3-8 3-11.6 2.9-6.2 1.8-11.8-2.4-16.4-5-5.6-10.9-10.4-16.6-15.3-.8-.7-2.3-.9-3.6-1.1-3.6-.5-5.9-3.2-5.7-6.7.2-3.1 3-5.6 6.2-5.6 3.4 0 5.8 2.7 6.1 6.3.1 1.5.7 3.2 1.7 4.3 3.3 3.6 6.9 7 10.3 10.5 5.1 5.4 11.3 6.7 17.7 3.7 4.9-2.3 9.5-5.6 13.4-9.2 5.2-4.9 5.2-11.2 3.1-17.7zm-10.9 43c-6.9 1.9-11 8.4-9.3 14.5 1.7 6 8.8 9.6 15.5 7.7 6.7-1.9 11-8.5 9.3-14.6-1.8-6.1-8.7-9.5-15.5-7.6zm24 40.5c-1.1-4.2-5.7-6.8-10.2-5.7-4.6 1.1-7.6 5.7-6.6 10s5.8 6.9 10.4 5.8c4.7-1.2 7.6-5.7 6.4-10.1zm30-.8c4.1-1.1 6.5-5 5.6-8.9-.9-3.9-5.3-6.3-9.4-5.3-4.1 1.1-6.8 5.3-5.7 9.2 1 3.9 5.3 6.1 9.5 5zm-26.1-43.5c3.9-1 6.4-4.6 5.4-8.1-.9-3.3-4.8-5.4-8.5-4.4-3.9 1-6.3 4.6-5.4 8.1 1 3.5 4.7 5.4 8.5 4.4zm4.6 28.1c3.3-1 5.3-4.2 4.5-7.2-.9-3.1-4.3-4.8-7.8-3.8-3.3 1-5.4 4.3-4.6 7.2.9 3.1 4.4 4.8 7.9 3.8zm-41.6 11.3c.8 2.4 3.6 3.7 6.2 2.9 2.7-.8 4.2-3.5 3.4-5.9-.8-2.3-3.5-3.5-6-2.8-2.6.7-4.3 3.4-3.6 5.8zm58.7-37.2c-2.5.8-4 3.3-3.3 5.4.7 2 3.2 3.2 5.6 2.5 2.6-.8 4-3.1 3.3-5.3-.8-2.1-3.4-3.3-5.6-2.6zm-13.6 57.2c.7-1.8 1.6-2.9 1.4-3.8-.2-.7-2-1.6-2.6-1.4-.9.4-1.7 1.8-1.8 2.7 0 .7 1.6 1.3 3 2.5z"/><path fill="#D75636" d="M139.8 24c30.9 0 60 12 81.8 33.9s33.9 50.9 33.9 81.8-12 60-33.9 81.8-50.9 33.9-81.8 33.9-60-12-81.8-33.9-34-50.8-34-81.7 12-60 33.9-81.8 50.9-34 81.9-34m0-24C62.6 0 0 62.6 0 139.8s62.6 139.8 139.8 139.8S279.6 217 279.6 139.8 216.9 0 139.8 0z"/><line fill="none" stroke="#D75636" stroke-width="24" stroke-miterlimit="10" x1="34.2" y1="56.2" x2="239.2" y2="220.6"/><path fill="#2F2F2F" d="M200.9 84.8c-1.1-.8-2.4-1.8-3.9-2.8-1.6-1-2.3-2.4-1.6-4.2.6-1.8 2.1-2.6 3.9-2.1 1.9.5 2.6 1.9 2.5 3.9-.1 1 .1 2.3.5 3.2 1.2 2.3 2.6 4.5 4 6.7 2.2 3.5 5.6 4.9 9.7 4.1 1.1-.2 2.2-.6 3.3-.9 6.3-2.1 8.5-5.2 8.1-11.9-.1-1.4-.6-2.8-.4-4.1.1-.9.6-2.1 1.4-2.5.6-.3 2.1 0 2.5.6.5.7.4 1.9.3 2.8-.5 3.2-1.4 6.4-1.5 9.5 0 2.9 1.9 4.8 4.7 5.9 2.8 1.2 5.7 2.6 8.2 4.4 5.5 4 11.4 2.2 13.5-4.3.8-2.6 3.3-3.9 5.5-2.9 1.9.9 2.8 2.5 2.4 4.6-.4 1.9-2.4 3.7-4.3 3.1-3.6-1.1-5.5 1.4-7.6 3.2-2.2 1.9-2.1 6.7-.2 10.1 1.8 3.3 3.6 4.2 7.2 3.5 1.5-.3 3-1.2 4.5-1.5.9-.2 2.2-.2 2.8.2.5.4.8 2 .4 2.5-.5.7-1.8 1.2-2.6 1-8.3-1.2-11.2 1.7-12.7 7.9-1.3 5.3.8 8.4 6.2 9.2 1.3.2 2.6.1 3.9.1 1.8 0 3.3.7 3.4 2.4.1 1.2-.6 2.9-1.5 3.7-1.3 1.2-2.9.6-4.1-.6-1.2-1.1-2.4-2.3-3.6-3.3-3.3-2.8-6.8-2.5-10.2-.3-2.5 1.6-4.8 3.4-7.3 5-6 4.1-3.4 12.8 1.6 15.9 2.4 1.5 3.1 3.5 1.8 6-1.3 2.6-3.1 3.2-5.6 2.1-2.6-1.2-3.5-3.4-2.5-5.8 1.7-3.8-.1-10.4-3.4-13-6-4.7-14.7-3.5-17.1 4.5-.8 2.8-1.4 5.7-1.8 8.6-.2 1.8-.7 3.4-2.6 3.5-1.1.1-2.8-.6-3.4-1.6-1.1-1.5-.3-2.9 1-4.3 5.6-6 7.7-11.6 4.6-17.6-2.6-5-7.7-6-11.7-2.2-1.3 1.2-2 2.9-3.3 4.2-.7.7-1.9 1.5-2.8 1.4-.8-.1-1.9-1.3-2-2-.1-.9.7-2.2 1.4-2.7 1.5-1 3.2-1.6 4.8-2.4 2.7-1.4 4.3-3.7 4.2-6.7-.1-2.8-.5-5.7-1.5-8.3-1.3-3.3-3.9-5.4-7.7-5.6-2.3-.1-4.7-1.4-7 .4-.5.4-2.7-.3-3.1-1-.5-.9-.4-2.8.3-3.4.6-.7 2.4-.7 3.5-.5 2.9.7 5.6 2.1 8.5 2.6 3.8.7 6.1-1.1 7.6-4.7.8-2 1.7-4.1 3.1-5.8 2.7-3.3 2.4-6.7.7-10.1-1.5-2.3-3.2-4.7-5-7.7zm18.6 23.5c2.8-2.3 3.2-5.8 1-8.4-2.5-3-7.2-3.5-10.3-1-2.8 2.2-3.2 5.7-1 8.4 2.3 3 7.2 3.5 10.3 1zm1 17.3c1.9-1.6 2.2-4.2.7-6.1-1.7-2-4.8-2.3-6.8-.6-1.9 1.6-2.2 4.3-.7 6.1 1.6 1.9 4.8 2.2 6.8.6zm20.4-.9c1.7-1.3 2.1-3.8.8-5.5-1.3-1.9-4.5-2.2-6.3-.8-1.7 1.4-1.9 3.8-.6 5.5 1.4 1.9 4.3 2.2 6.1.8zm-7.7-31.4c-1.3-1.6-4.1-1.9-5.8-.5-1.5 1.2-1.8 3.4-.6 4.8 1.3 1.6 4 1.9 5.8.5 1.6-1.3 1.9-3.3.6-4.8zm-2.2 20.4c1.3-1.1 1.5-3 .3-4.3-1.3-1.4-3.6-1.5-5.1-.3-1.3 1.1-1.5 3.1-.3 4.3 1.3 1.4 3.7 1.5 5.1.3zm-21.5 3.9c.3-.2.6-.5.8-.7-.1-1.1.2-2.5-.3-3.4-.9-1.4-2.5-1.4-3.8-.5-1.3.9-1.5 2.4-.4 3.3.9.9 2.4.9 3.7 1.3zm29.5-11.1c.2.3.4.6.6.8 1.2-.2 2.6 0 3.6-.6.5-.3.4-2.6 0-2.8-1-.5-2.5-.6-3.5-.2-.5.2-.5 1.8-.7 2.8z"/></svg>