<svg xmlns="http://www.w3.org/2000/svg" viewBox="0 0 279.5 279.5"><circle fill="#FFF" cx="139.8" cy="139.8" r="139.8"/><g fill="#2F2F2F"><path d="M56.4 233.7s-1-20.2 7.8-29.6c14.6-15.7 24.8-7.7 42.9-13.8 16.1-5.4 35.9-8.9 23.1-56.1s-11.1-69.3 13.9-88.1c25.3-19 55.1-16.6 73.6-3.9 21.9 15.1 14.6 39.9 1.9 47.3-12.7 7.3-27.3 6.8-30.2-5.4s7.8-16.6 11.7-14.6 14.6 12.2 13.2-1c-1.5-13.2-27.3-15.6-34.6-4.9s-11.2 28.3 5.8 34.1c17 5.8 45.3 2.5 27.8 35-9.7 18.1-51.1 9.7-46.3 0 4.9-9.7-8.8-24.9-21.4-15.4s4.4 32.4 2.9 44.1c-1.5 11.7-5.4 27.8 3.9 29.7s13.2-2.4 15.6-12.7c2.4-10.2 20 8.6 3.4 25.5s-25.3 12.5-38.5 4.7-29.2-10.1-41.4-6.7c-10 2.8-23.9 10.6-20 33.9"/><circle cx="73.1" cy="135.9" r="6.5"/><circle cx="103.7" cy="155.4" r="6.9"/><circle cx="81.3" cy="171.9" r="4"/><circle cx="246.4" cy="146.9" r="12.7"/><circle cx="241.7" cy="107.7" r="8"/><circle cx="105.6" cy="223.4" r="4.9"/></g><path fill="#D75636" d="M139.8 24c30.9 0 60 12 81.8 33.9s33.9 50.9 33.9 81.8-12 60-33.9 81.8-50.9 33.9-81.8 33.9-60-12-81.8-33.9-34-50.8-34-81.7 12-60 33.9-81.8 50.9-34 81.9-34m0-24C62.6 0 0 62.6 0 139.8s62.6 139.8 139.8 139.8S279.6 217 279.6 139.8 216.9 0 139.8 0z"/><line fill="none" stroke="#D75636" stroke-width="24" stroke-miterlimit="10" x1="34.2" y1="56.2" x2="239.2" y2="220.6"/><g fill="#2F2F2F"><path d="M122.3 87.1c.4-17.8 7.1-30 21.8-41 25.3-19 55.1-16.6 73.6-3.9 21.9 15.1 14.6 39.9 1.9 47.3-12.7 7.3-27.3 6.8-30.2-5.4s7.8-16.6 11.7-14.6 14.6 12.2 13.2-1c-1.5-13.2-27.3-15.6-34.6-4.9s-11.2 28.3 5.8 34.1c17 5.8 45.3 2.5 27.8 35-9.7 18.1-51.1 9.7-46.3 0 4.9-9.7-8.8-24.9-21.4-15.4"/><circle cx="73.1" cy="135.9" r="6.5"/><circle cx="103.7" cy="155.4" r="6.9"/><circle cx="81.3" cy="171.9" r="4"/><circle cx="246.4" cy="146.9" r="12.7"/><circle cx="241.7" cy="107.7" r="8"/><circle cx="105.6" cy="223.4" r="4.9"/></g></svg>