<svg xmlns="http://www.w3.org/2000/svg" viewBox="0 0 279.5 279.5"><circle fill="#FFF" cx="141.9" cy="139.8" r="137.6"/><path fill="#2F2F2F" d="M101.2 267.5c4.8-3.8 9.4-7.7 14.2-11.5 2-1.5 4.3-2.6 6.4-3.9 1.1-.7 1.6-1.4.8-2.8-.4-.7-.2-1.9 0-2.8.2-.9.7-1.8 1.2-2.9-.7.3-1.2.5-1.7.8-.5.2-.9.5-1.4.7-8.2 4.1-16.8 7.1-26.1 7.8-3.2.2-6.2-.2-9.1-1.6-.5-.3-1.4-.2-1.9 0-2.6.8-5.2 1-7.9.7-1.4-.2-2.9.2-4.6.3-.2-.4-.6-1.3-1-2.1-.5.1-1.1.1-1.2.1-2-3.8-3.9-7.2-7.2-10 .2-.4.5-.9.7-1.1-.7-.8-1.3-1.5-1.9-2.2.6-.3 1.3-.4 1.4-.7.5-1.3.6-2.7 1.2-3.8.8-1.7.7-3.9 2.6-5.2.7-.5 1.4-1.8 1.3-2.6-.5-4.5 1-8.4 3-12.1 3.2-5.8 7.2-10.9 11.8-15.6 1.9-1.9 3.8-3.7 5.4-5.2-1.8-.5-3.8-.5-5.2-1.5-1.2-.8-1.9-.9-2.9-.1-1.7 1.3-3.2 2.9-5 4-4.4 2.7-8.9 5.3-13.3 7.9-2.5 1.4-5 2.8-7.6 4.2-.7.4-1.7.3-2.4.7-3 1.9-5.9 4-8.9 5.9-.9.5-2 .6-3.1.9.1-.8.2-1.7.4-3-3.1 1.4-6.1 2.6-9.1 4-.5.2-.7.8-1.1 1.2.4.3.9.6 1.7 1.3-1 .3-1.8.5-2.5.7-.5-.7-.9-1.3-1.4-2-.4-1.5-.9-3-1.2-4.6-.1-.6.3-1.5.7-1.8.4-.3 1.3 0 2.5 0-.9.7-1.2.9-1.5 1.2.1.2.1.4.2.6 2.9-.4 5.9-.8 9.1-1.2-1-1.8-.2-2.4 1.1-2.7 2-.5 4-.9 5.9-1.5 1.7-.5 3.3-1.1 5-1.7.2-.1.3-.4.5-.7.2-.4.4-.9.7-1.1 1.8-1 3.7-1.8 5.4-2.8 5.6-3.2 11.1-6.4 16.7-9.6 3.5-2 6.9-4.2 10.4-6.1.8-.5 1.9-.6 2.8-.7 2.5-.3 5-.5 7.5-.8 1.6-.2 3.2-.4 4.7-.7 1-.2 2.1-.5 2.9-1 7.4-5.1 14.8-10.3 22.2-15.4 3.4-2.4 6.8-4.7 10.3-7.1-1.6-3-6.1-3.5-6.9-7.3-2.6 1-5 2.2-7.6 3-2.6.9-5.3 1.6-8 2.3-1.4.4-2.9 1-4.3 1-3.2-.1-6 .9-8.9 2-.5.2-1.3-.1-2.2-.1-1.2 1-2.8 2.1-4.7 1.1-.3-.2 0-1.6 0-2.8-2.3.6-4.7 1.1-7 1.8-.5.2-.9.8-1.4 1.2.4.4.8.7 1.2 1.1-1.5 1.1-2.4.9-2.8-.9-.4-1.5-.6-3.1-.5-4.7 0-.7.9-1.4 1.3-2 .6.4 1.3.9 1.9 1.3-.1.2-.2.4-.2.6 2.2 0 4.4.1 6.7.1-.6-2.3-.2-2.8 1.8-2.8.6 0 1.2.1 1.8.2 3.7.4 7.4.7 11.5 1.1-.9-.8-1.5-1.3-1.9-1.7 4.5-1 8.8-2 13.2-3 4.6-1 9.3-2 14-2.8 1.1-.2 2.5.3 3.5.8 3.1 1.7 6.2 3.6 9.3 5.3.5.3 1.3.4 1.8.2 4.7-2.2 8.5-1.2 11.4 3.1 1.1 1.7 2.6 1.7 4.1 1.1-.4-2.9-.9-5.7-1.2-8.5-.1-.7.2-1.6.7-2.1 1.6-1.7 3.4-3.3 5.1-5 .4-.5.8-1.3.7-1.9-.1-4.7-.4-9.4-.6-14.1 0-1.1.1-2.3.6-3.2.9-1.6 2-3.1 3.2-4.7-2.8-.3-5.1-.8-7.4-.8-5.4.1-10.9.6-16.3.7-5.2.1-10.3.3-15.5 1.2-5.7 1-11 2.9-16.3 4.9-2.6 1-5.2 2.3-7.8 3.4-.5.2-1.2 0-1.8 0 .1-.6.1-1.2.2-1.8 1-.7 2-1.4 2.9-2 .3-.1.6-.1.9-.2 4.7-1.3 8.8-4.4 13.8-5.2 1.3-.2 2.5-1.1 3.7-1.3 3.9-.7 7.8-1.4 11.7-1.9 2-.2 4.3.7 6.1 0 3-1.2 5.8-.5 8.7-.4.5 0 1 .1 1.5 0 1.1-.2 2.1-.5 3.2-.7 2.5-.3 5.1 1.3 7.5-.5.2-.2.8 0 1.2 0 1.6.3 3.2.5 4.6 1 1.4.5 2.4.2 3.6-.7 4.6-3.3 9.3-6.5 11.3-12.3l2.1 2.1c.3-.3.5-.4.6-.6 1.4-2.2 2.7-4.4 4.1-6.6.2-.3.6-.8.8-.8 1 .1 1.1-.5 1.3-1.2.2-.7.6-1.3 1-1.9 1.5-2.4 2.5-2.4 4.1.2 2.1-1.8 4.2-3.7 6.4-5.3 1.1-.8 1.1-1.4.1-2.4.7 0 1.5.1 2.2.1.2.2.3.4.5.7-.4 1.7-.2 3.2 1.1 4.5.9.8 1.1 1.9.2 2.5-1.1-.6-1.9-1.6-2.6-1.4-2.1.5-4.2 1.4-6.1 2 .6 1.1 1.4 1.9 1.3 2.5-.2.7-1 1.5-1.8 1.9-1 .5-2.2.7-3.1 1-.5.8-.8 1.8-1.1 1.8-2.8.2-3.7 3.2-6 3.9.9 2.6.7 3.6-1.3 5.2-2.7 2.2-5.6 4.3-7.9 6.1 3.7 1.1 7.7 2.3 12.1 3.6 1.9-1 2.9-.8 4.6 1.3.6.6 1.2 1.2 1.6 1.9 1.8 2.7 4.6 5 4.1 9.2 1.1-.4 1.9-.7 2.7-1 2.9-1.3 5.7-2.8 8.7-3.8 5.3-1.8 10.4-.1 15.5 1.6 1.7.6 3.2 1.2 3.5 3.1.2 1.1-.3 2.2-.3 3.3.2 8.7-3.8 15.2-10.6 20.3-.7.5-1.2 1.4-1.5 1.8 1.4 1.1 2.6 1.8 3.4 2.8 1.4 1.9 2.6 3.9 3.9 5.9 1.9 2.8 1.9 3.9.1 5.8-.4 4.7-.7 8.8-.9 12.5 2.5-1.5 5.4-3.4 8.4-5.2 1.8-1.1 3.7-1.6 5.4.7 1.6-2.1 4.7-1.8 5.9-4.4.1-.3 1.2-.2 2.1-.4.6-.7 1.2-1.8 2.1-2.5.6-.6 1.6-1.1 2.4-1 .6.1 1.1 1.1 1.9 2 1.1-1.2 2.3-2.6 3.6-4 1.1-1.2 1.5-2.4-.5-3.3 1.5-1.2 2.4-.6 2.9.5.8 1.7 2 2.4 3.8 2.6.2.2.3.4.5.7-.2.7-.5 1.4-.6 1.8-.9-.4-1.5-.9-1.8-.8-2.7 1.4-5.2 2.9-7.6 4.3.4 1.1 1 1.9.8 2.5-.2.6-1.1 1-1.8 1.3-1.7.7-3.5.5-5.2 1.5-1.9 1.1-4.5 1.1-6.7 1.5-.5.1-1 .2-1.8.3.4 1 .8 1.9 1.2 2.8-1.5.2-3 .1-4.1.6-3.7 1.7-7.3 3.7-10.9 5.5-1.6.8-2.2 1.9-2.3 3.7-.1 1.9-.3 4.3-1.4 5.7-1 1.3-1.5 2.5-2 3.9-.7 2-.6 4.4-2.8 5.7-.2.1-.1.5-.2.7-.6 2.1-1.1 4.2-1.9 6.2-.4 1.1-1.5 1.9-2 3-1.4 2.7-1.7 5.7-3.8 8.3-2 2.4-2.8 5.7-5.2 8.1-2.3 2.2-3.2 5.6-6.3 7.5-2.1 1.4-3.5 4-5.2 6.1-1 .7-2 1.4-2.9 2-.6-.2-1.2-.3-1.8-.5.2-.6.3-1.2.7-1.7.6-.8 1.2-1.6 1.9-2.2 5-4.8 9.9-9.8 13.3-15.9 1.5-2.7 3-5.4 4.4-8.1 1-1.9 2-3.7 2.9-5.7 2.1-5 4.1-10.1 6-15.2 1-2.8 1.9-5.6 2.8-8.5-1.7.1-3.4-.3-4.5.4-1.6 1-2.9.7-4.3.1-4.3-1.8-8.6-3.7-12.9-5.6-.5-.2-1.2-.6-1.6-.4-2.2.9-4.4 1.9-6.4 3-1.1.6-2 .8-3.1.2-2.4-1.4-4.8-2.7-7.3-4.1-1.2 1.3-1.3 2.7-.3 4.5 2.9 5.2 2.7 6.8-1.1 11.4-.3.4-.7 1.1-.6 1.5.5 3.5 1.2 6.9 1.6 10.4.2 1.3.2 2.7-.2 3.8-.5 1.6-1.4 3.1-2.4 4.5-4.2 6.3-8.6 12.6-12.9 19-.2-.5-.5-1.2-.9-2.3-1.1 4.1-2.2 7.7-3.1 11.4-.6 2.9-1.4 3.5-3.8 2.4-.6 1.7-1.3 3.4-1.8 5.1-.1.4.3 1 .4 1.5.1.6.5 1.4.3 1.7-.4.5-1.3.9-1.8.7-1.7-.7-3.4-1.5-4.9-2.5-1.3-.9-1.1-1.9.3-2.6.3.5.4 1.1.8 1.3.3.1 1-.3 1.3-.6 1.5-2 3-4.1 4.4-6.1-1.1-.3-1.9-.6-2.7-.8.3-.8.4-1.8.9-2.5.7-1.2 2.6-1.6 2.2-3.4 2.2-.6 2.1-3.2 3.6-4.5.7-.6 1-1.8 1.4-2.7.5-1 .7-2.2 1.4-3 3.9-4.8 7.8-9.6 11.7-14.3-3-2-2-6.3-4.3-9-.2.1-.4.1-.6.2-10.8 7.5-21.6 15.1-32.4 22.7-.4.3-.8.5-1 .9-2.1 4-4.1 8-6.1 12-.5.9-1 1.9-1.8 2.5-2.5 2.1-5.1 3.9-7.6 6m78-125.3c-1.1-4.7-5.8-5.7-8.8-8.4-1.8-1.6-5.2-1.4-7.8-2.1-.8-.2-1.6-.3-2.2-.8-2.1-1.5-6.7-1.7-8.7 0-.3.2-.2 1.1-.1 1.7.3 1.1 1 2.1 1.2 3.1.6 3.3 1 6.6 1.4 9.8 2.9-1.1 5.4-2.1 7.9-2.8 1.6-.5 3.1-.1 4.3 1.3 1.1 1.4 1.2 2.7.2 4.2-.1.1.1.3.2.8 1.1-.9 2.1-1.6 3-2.4 1.5-1.4 3.2-2.7 5.3-2.3 2 .3 3.2-.6 4.1-2.1zm4.9 51.8c2.9 1.5 6.1 3.1 9.1 4.9.8.4 1.2 1.4 2 2 .4.4 1.3.8 1.6.6 2.4-1.8 3.6-4.6 3.3-7.2-.2-1.9.1-3.6.4-5.4.3-2.1.7-4.3.4-6.4-.2-2.2-1-4.3-1.8-6.3-.7-1.7-1.7-3.2-2.6-4.6-2.2.5-3.3 1.3-3.9 3.2-.5 1.5-2.2 2.8-3.6 3.9-1 .9-2.3 1.5-3.9 2.4.7.2.9.3 1.1.3 3.4-.2 5.4 2.6 3.6 5.5-1.5 2.4-3.5 4.4-5.7 7.1zm18.2-46c-4.1-1.6-7.1.1-9 4.1-.4 1.5.4 2.5 1.9 2.8 1.9-.7 4.2-.8 5.4-2 1.1-1.2 1.2-3.4 1.7-4.9z"/><path fill="#2F2F2F" d="M61.3 26c.1-.2.1-.4.2-.5.9 0 1.7-.1 2.6 0 1.5.2 2.9.5 4.4.8 2.5.8 5.1 1.7 7.6 2.5.3.2.5.4.8.5 13 5.5 22 15 27.6 27.8.5 1.2 1 2.1 2.6 2 .8-.1 1.6.3 2.3.6 2.9 1 4.9 3.1 6.3 5.8 3.8-1.9 7.5-1.9 11.1.3.9.5 1.5.6 2.4 0 10.4-6 21.5-8.7 33.5-7.1 2.3.3 4.5.8 6.7 1.2 2.5.8 5.1 1.7 7.6 2.5.5.3 1.1.6 1.6.8 1.4.8 2.9 1.5 4.3 2.3-.1.5-.3.9-.4 1.4-4.8-1.3-9.5-3-14.4-3.8-12.6-2-24.5.6-35.3 7.4-.8.5-1.2.9-.9 2 1.6 6.1-2 12-8.1 13.5-.4.1-.8.2-1.1.3.6 2.7 1.3 5.4 1.7 8 .4 2.7.6 5.4.8 8.1 5.2.9 10.3 1.8 15.5 2.8.9.2 1-.4 1.2-1 4.2-12.2 12-20.8 24.3-25.2.6-.2 1.2-.5 1.9-.6.3-.1.9.2 1 .5.1.2-.2.8-.4 1-.3.3-.8.4-1.3.6-3.4 1.6-6.6 3.6-9.4 6.1-6.4 5.9-10.1 13.2-11.1 21.8-.3 2.6-1.6 3.6-4.2 3.2-3.3-.6-6.6-1.2-10-1.8-2.6-.5-5.2-.9-7.8-1.3-.1.4-.1.6-.2.8-1 5.6-1.9 11.2-2.9 16.8-.2 1 .2 1.2.9 1.6 8.5 5 15.6 11.5 21.6 19.4.2.3.5.6.6.9.1.2 0 .6-.1.7-.1.1-.5.1-.7 0-.3-.2-.6-.5-.9-.7-3.5-2.9-7-6-10.7-8.8-3.7-2.9-7.6-5.4-12-7.4-3.8 10.6-8.7 20.5-15.7 29.3 3.6 3.6 7 7 10.5 10.4 1 1 1.5 2 1.3 3.4-.8 7.5-1.6 14.9-2.4 22.4-.1.6-.3 1.3-.7 1.8-4.8 6.5-9.7 13-14.6 19.5-.3.4-.9.7-1.3 1-.2-.1-.4-.1-.5-.2-.7-1 0-1.8.4-2.6 3.4-6.5 6.8-12.9 10.2-19.4.3-.6.6-1.3.7-2 .7-6.4 1.4-12.7 2-19.1.1-.6-.3-1.4-.7-1.8-2.7-2.8-5.4-5.5-8.1-8.2-.2-.2-.5-.4-.8-.6-3.6 3.5-7.4 6.4-12 8.2-.3.1-.6.9-.5 1.4.3 4 1.6 7.7 3.7 11.1.3.5.2 1.2.3 1.7-.6-.1-1.3-.1-1.7-.5-3.7-2.9-6.1-6.7-7.1-11.4-.2-.9-.5-1.1-1.4-1.3-1.8-.4-3.5-1-5.2-1.8-.7-.3-1.1-.4-1.7.2-2.7 2.5-6 4-9.6 4.7-1.2.2-2.5.3-3.7.3-.3 0-.8-.4-.9-.7-.1-.3.3-.7.6-1 .2-.2.6-.3.9-.4 3.6-1.4 6.8-3.5 9.4-6.5.6-.6.7-1.1.2-1.8-2-3.1-3.1-6.5-3.9-10.1-.2-1.1-.4-2.2-.7-3.4-4.1.6-8.2 1.2-12.2 1.7-1 .1-1.5.5-2 1.3-2.7 4.6-5.5 9.2-8.2 13.9-1 1.7-2 3.3-2.3 5.3-1 7.1-2.2 14.3-3.4 21.4-.1.6-.7 1.2-1.1 1.8-.2-.1-.4-.1-.5-.2-.1-.5-.4-1.1-.4-1.6v-24.2c0-.7.2-1.5.6-2.1 3.7-6.4 7.5-12.8 11.3-19.1.7-1.3 1.7-1.9 3.2-2.1 4.4-.6 8.7-1.2 13.1-1.9l1.5-.3c-.3-11.3 1.7-22.1 5-32.8-.2-.1-.3-.2-.5-.2-.7-.1-1.4-.3-2.1-.4-8.3-1.2-16.7-.9-25-.2-.5 0-1 .1-1.4.1-.2 0-.5-.3-.6-.5 0-.2.2-.5.4-.6.3-.2.7-.3 1.1-.4 9.5-2.7 19.1-3.7 28.9-2.6.9.1 1.3-.1 1.7-1 1.8-3.9 3.7-7.7 5.6-11.5.7-1.5 1.6-2.8 2.5-4.3-5.5-2.8-10.8-5.4-16.1-8.1-2.4-1.2-2.9-2.8-1.5-5.1 2.5-4.1 3.9-8.6 4.5-13.4 1-7.8-.8-15.1-4.6-21.9-.3-.5-.9-1.3 0-1.7.3-.1 1.1.3 1.4.8 7.8 10.9 9.4 22.8 5.3 35.5-.4 1.3-.2 1.8 1 2.2.8.3 1.6.8 2.4 1.2 3.7 1.9 7.4 3.7 10.7 5.4 4-3.9 7.9-7.7 11.8-11.5-.1-.1-.4-.5-.8-.9-3.8-4.8-3-11.6 1.7-15.4.9-.7.9-1.3.6-2.3C96.2 51 91.7 44.5 85.7 39c-6.5-6-14.1-9.9-22.6-12.3-.7.3-1.2-.3-1.8-.7z"/><path fill="#D75636" d="M139.8 24c30.9 0 60 12 81.8 33.9s33.9 50.9 33.9 81.8-12 60-33.9 81.8-50.9 33.9-81.8 33.9-60-12-81.8-33.9-34-50.8-34-81.7 12-60 33.9-81.8 50.9-34 81.9-34m0-24C62.6 0 0 62.6 0 139.8s62.6 139.8 139.8 139.8S279.6 217 279.6 139.8 216.9 0 139.8 0z"/><line fill="none" stroke="#D75636" stroke-width="24" stroke-miterlimit="10" x1="34.2" y1="56.2" x2="239.2" y2="220.6"/><path fill="#2F2F2F" d="M199 131.6c-1.1-4.7-5.8-5.7-8.8-8.4-1.8-1.6-5.2-1.4-7.8-2.1-.8-.2-1.6-.3-2.2-.8-2.1-1.5-6.7-1.7-8.7 0-.3.2-.2 1.1-.1 1.7.3 1.1 1 2.1 1.2 3.1.6 3.3 1 6.6 1.4 9.8 2.9-1.1 5.4-2.1 7.9-2.8 1.6-.5 3.1-.1 4.3 1.3 1.1 1.4 1.2 2.7.2 4.2-.1.1.1.3.2.8 1.1-.9 2.1-1.6 3-2.4 1.5-1.4 3.2-2.7 5.3-2.3 2 .3 3.2-.6 4.1-2.1zm21.2 46.6c.3-2.1.7-4.3.4-6.4-.2-2.2-1-4.3-1.8-6.3-.7-1.7-1.7-3.2-2.6-4.6-2.2.5-3.3 1.3-3.9 3.2-.5 1.5-2.2 2.8-3.6 3.9-1 .9-2.3 1.5-3.9 2.4.7.2.9.3 1.1.3 3.4-.2 5.4 2.6 3.6 5.5L165 146.1c1.6-1.7-2.3-2.4-.6-4.1.4-.5.8-1.3.7-1.9-.1-4.7-.4-9.4-.6-14.1 0-1.1.1-2.3.6-3.2.9-1.6 2-3.1 3.2-4.7-2.8-.3-5.1-.8-7.4-.8-5.4.1-10.9.6-16.3.7-5.2.1-10.3.3-15.5 1.2l7.4-4c2-.2 4.3.7 6.1 0 3-1.2 5.8-.5 8.7-.4.5 0 1 .1 1.5 0 1.1-.2 2.1-.5 3.2-.7 2.5-.3 5.1 1.3 7.5-.5.2-.2.8 0 1.2 0 1.6.3 3.2.5 4.6 1 1.4.5 2.4.2 3.6-.7 4.6-3.3 9.3-6.5 11.3-12.3l2.1 2.1c.3-.3.5-.4.6-.6 1.4-2.2 2.7-4.4 4.1-6.6.2-.3.6-.8.8-.8 1 .1 1.1-.5 1.3-1.2.2-.7.6-1.3 1-1.9 1.5-2.4 2.5-2.4 4.1.2 2.1-1.8 4.2-3.7 6.4-5.3 1.1-.8 1.1-1.4.1-2.4.7 0 1.5.1 2.2.1.2.2.3.4.5.7-.4 1.7-.2 3.2 1.1 4.5.9.8 1.1 1.9.2 2.5-1.1-.6-1.9-1.6-2.6-1.4-2.1.5-4.2 1.4-6.1 2 .6 1.1 1.4 1.9 1.3 2.5-.2.7-1 1.5-1.8 1.9-1 .5-2.2.7-3.1 1-.5.8-.8 1.8-1.1 1.8-2.8.2-3.7 3.2-6 3.9.9 2.6.7 3.6-1.3 5.2-2.7 2.2-5.6 4.3-7.9 6.1 3.7 1.1 7.7 2.3 12.1 3.6 1.9-1 2.9-.8 4.6 1.3.6.6 1.2 1.2 1.6 1.9 1.8 2.7 4.6 5 4.1 9.2 1.1-.4 1.9-.7 2.7-1 2.9-1.3 5.7-2.8 8.7-3.8 5.3-1.8 10.4-.1 15.5 1.6 1.7.6 3.2 1.2 3.5 3.1.2 1.1-.3 2.2-.3 3.3.2 8.7-3.8 15.2-10.6 20.3-.7.5-1.2 1.4-1.5 1.8 1.4 1.1 2.6 1.8 3.4 2.8 1.4 1.9 2.6 3.9 3.9 5.9 1.9 2.8 1.9 3.9.1 5.8-.4 4.7-.7 8.8-.9 12.5 2.5-1.5 5.4-3.4 8.4-5.2 1.8-1.1 3.7-1.6 5.4.7 1.6-2.1 4.7-1.8 5.9-4.4.1-.3 1.2-.2 2.1-.4.6-.7 1.2-1.8 2.1-2.5.6-.6 1.6-1.1 2.4-1 .6.1 1.1 1.1 1.9 2 1.1-1.2 2.3-2.6 3.6-4 1.1-1.2 1.5-2.4-.5-3.3 1.5-1.2 2.4-.6 2.9.5.8 1.7 2 2.4 3.8 2.6.2.2.3.4.5.7-.2.7-.5 1.4-.6 1.8-.9-.4-1.5-.9-1.8-.8-2.7 1.4-5.2 2.9-7.6 4.3.4 1.1 1 1.9.8 2.5-.2.6-1.1 1-1.8 1.3-1.7.7-3.5.5-5.2 1.5-1.9 1.1-4.5 1.1-6.7 1.5-.5.1-1 .2-1.8.3.4 1 .8 1.9 1.2 2.8-1.5.2-3 .1-4.1.6-3.7 1.7-7.3 3.7-10.9 5.5m-4.9-53.8c-4.1-1.6-7.1.1-9 4.1-.4 1.5.4 2.5 1.9 2.8 1.9-.7 4.2-.8 5.4-2 1.1-1.2 1.2-3.4 1.7-4.9z"/></svg>