<svg xmlns="http://www.w3.org/2000/svg" viewBox="0 0 279.5 279.5"><circle fill="#FFF" cx="139.8" cy="139.8" r="139.8"/><path fill="#2F2F2F" d="M80.8 257.1h56s9.6-42.9 12.5-46.3c2.9-3.3 8-6.7 11.3-6.2 3.3.5 18.9.3 19.7.4 7.7 1.6 11.3.5 11.3.5s3.8.6 3.7 1.4c-.1.8 5.5 5.6 5.5 5.6l1.7-1.3.9 1.1s2.1-8.4 1.2-11.8c-1-3.4-2.7-6.9-5.3-7.4-4.2-.7-11.4.8-14.8-1.5-3.4-2.4-12.5-3.8-14.5-4.6-2-.7-3.7-1.9-3.7-1.9s.4-1.5 3.8-5c3.4-3.6 12.8-2.7 14.9-5.6 2.1-2.9 4.6-5.3 7.4-4.8 2.8.5 4.1-2.6 4.1-2.6s-1.3-2.8.6-4.2c1.9-1.4 7.6-.9 7.6-.9l1.8.4s.6-.7.4-1.3c-.3-1-.7-.9-.1-.8.3 0 1 .6 1 .6l.7-.2s-2-5.6-3.5-6.5-1.8-2.5-5.9-3.4c-4-.9-4.9-2.7-7.1-.3-2.3 2.4-4 3.7-5.5 4.3s-4.3 3.9-7 3.5c-2.6-.4-7.9-.4-7.9-.4s-.8-14.2 9.9-25.3c14.1-14.6 20.7-19.6 26.7-23.8 6-4.2 17.4-11.4 18.7-14.1 1.3-2.7 1.4-4 1.4-4s8.7-5.7 9.1-7.7c.4-2 3.8-16.7 4.3-20.3.6-3.6-1.2-7.4-5.8-7-4.7.4-22.9 3.6-31.2 3.8-8.2.2-16.3-3-26.1 2.8-8.5 5-10.5 7.8-13.9 8.3l-3.4.5s-.7-13.8-9.6-17.6c-8.4-3.6-21.9 1.7-18.2 11.9 2.3 6.2 7.7 11.6 10.5 15.3 1.3 1.7-.1 2.3.2 2.1-1.3.9-6 4.4-8.3 7.7-2.7 3.9-9.7 22.8-12.6 26.6-2.9 3.9-12.9 12.8-16.7 17.8-3.8 5.1-5.2 12.6-18.2 25.9s-27.3 30-33.4 41.3c-2.5 4.7-5.2 12.2-7.4 19.4M195.8 69.2s-1 1.3-1.8 2-3.7 3.5-4.4 3.9c-.8.5-4.2.1-4.2.1s1-3.9 2.1-5.7c1.1-1.8 4.5-3.8 5.8-3.3.8.3 2 1.3 2.9 1.6l-.4 1.4z"/><path fill="#D75636" d="M139.8 24c30.9 0 60 12 81.8 33.9s33.9 50.9 33.9 81.8-12 60-33.9 81.8-50.9 33.9-81.8 33.9-60-12-81.8-33.9-34-50.8-34-81.7 12-60 33.9-81.8 50.9-34 81.9-34m0-24C62.6 0 0 62.6 0 139.8s62.6 139.8 139.8 139.8S279.6 217 279.6 139.8 216.9 0 139.8 0z"/><rect x="124.7" y="7" transform="rotate(-51.272 136.692 138.435)" fill="#D75636" width="24" height="262.8"/><path fill="#2F2F2F" d="M208.2 108.8c6-4.2 17.4-11.4 18.7-14.1 1.3-2.7 1.4-4 1.4-4s8.7-5.7 9.1-7.7c.4-2 3.8-16.7 4.3-20.3.6-3.6-1.2-7.4-5.8-7-4.7.4-22.9 3.6-31.2 3.8-8.2.2-16.3-3-26.1 2.8-8.5 5-10.5 7.8-13.9 8.3l-3.4.5s-.7-13.8-9.6-17.6c-8.4-3.6-21.9 1.7-18.2 11.9 2.3 6.2 7.7 11.6 10.5 15.3 1.3 1.7-.1 2.3.2 2.1-1.3.9-6 4.4-8.3 7.7m59.9-21.3s-1 1.3-1.8 2-3.7 3.5-4.4 3.9c-.8.5-4.2.1-4.2.1s1-3.9 2.1-5.7c1.1-1.8 4.5-3.8 5.8-3.3.8.3 2 1.3 2.9 1.6l-.4 1.4z"/></svg>