<svg viewBox="0 0 24 24" fill="none" xmlns="http://www.w3.org/2000/svg"><path fill-rule="evenodd" clip-rule="evenodd" d="M16.116 5.501H7.884a2.386 2.386 0 0 0-2.383 2.383v8.232a2.386 2.386 0 0 0 2.383 2.383h8.232a2.386 2.386 0 0 0 2.383-2.383V7.884a2.386 2.386 0 0 0-2.383-2.383zM12 16.28A4.284 4.284 0 0 1 7.721 12 4.284 4.284 0 0 1 12 7.722c2.36 0 4.279 1.92 4.279 4.279 0 2.36-1.92 4.279-4.28 4.279zm4.416-7.673a1.014 1.014 0 0 1 0-2.025 1.013 1.013 0 0 1 0 2.025z" fill="#fff"/><path fill-rule="evenodd" clip-rule="evenodd" d="M12 9.53A2.474 2.474 0 0 0 9.529 12a2.474 2.474 0 0 0 2.47 2.471A2.474 2.474 0 0 0 14.47 12 2.473 2.473 0 0 0 12 9.53z" fill="#fff"/><path fill-rule="evenodd" clip-rule="evenodd" d="M0 0v24h24V0H0zm20.307 16.116c0 2.311-1.88 4.19-4.191 4.19H7.884a4.195 4.195 0 0 1-4.19-4.19V7.884c0-2.31 1.88-4.19 4.19-4.19h8.232c2.311 0 4.19 1.88 4.19 4.19v8.232z" fill="#fff"/></svg>