<svg viewBox="0 0 32 32" fill="none" xmlns="http://www.w3.org/2000/svg"><g clip-path="url(#clip0)" fill="#3C3636"><path d="M29.264 6.667h-1.97l-1.182-3.545a.667.667 0 0 0-.633-.455H14.813a.667.667 0 0 0-.633.455L13 6.667H7.403v-2A.667.667 0 0 0 6.736 4h-4a.667.667 0 0 0-.667.666V6.75A2.74 2.74 0 0 0 0 9.402v14.529a2.739 2.739 0 0 0 2.736 2.736H4.52v2c0 .368.299.666.667.666h21.625a.667.667 0 0 0 .666-.666v-2h1.785A2.739 2.739 0 0 0 32 23.93V9.402a2.739 2.739 0 0 0-2.736-2.735zM15.294 4h9.705l.889 2.667H14.404L15.294 4zM3.402 5.333h2.666v1.334H3.403V5.333zM26.146 28H5.854v-1.333h20.292V28zm4.52-4.07c0 .774-.628 1.403-1.402 1.403H12.138v-2a.667.667 0 0 0-1.333 0v2H9.472V12.91a.667.667 0 1 0-1.334 0v12.423H2.736a1.404 1.404 0 0 1-1.403-1.402V9.402C1.333 8.63 1.963 8 2.736 8h26.528c.774 0 1.403.629 1.403 1.402v14.529z"/><path d="M20.146 9.333c-4.044 0-7.334 3.29-7.334 7.333 0 4.044 3.29 7.334 7.334 7.334 4.043 0 7.333-3.29 7.333-7.334 0-4.043-3.29-7.333-7.333-7.333zm0 13.334c-3.309 0-6-2.692-6-6 0-3.309 2.691-6 6-6 3.308 0 6 2.691 6 6 0 3.308-2.692 6-6 6z"/><path d="M20.146 12a4.672 4.672 0 0 0-4.607 5.41.667.667 0 1 0 1.316-.213 3.337 3.337 0 0 1 3.29-3.864.667.667 0 0 0 0-1.333zm-2.606 6.745a.667.667 0 0 0-1.044.83c.107.134.224.265.349.39a.665.665 0 0 0 .943.002.667.667 0 0 0 .001-.943 3.386 3.386 0 0 1-.25-.28zM8.805 9.756a.667.667 0 0 0-.667.667v.435a.667.667 0 0 0 1.334 0v-.435a.667.667 0 0 0-.667-.667zm19.221-.148c-.55 0-1 .449-1 1 0 .55.45 1 1 1 .551 0 1-.45 1-1 0-.551-.449-1-1-1z"/></g><defs><clipPath id="clip0"><rect width="32" height="32" fill="#fff"/></clipPath></defs></svg>