<svg viewBox="0 0 32 32" fill="none" xmlns="http://www.w3.org/2000/svg"><g clip-path="url(#clip0)" fill="#3C3636"><path d="M10.98 10.045a.67.67 0 0 0 .472-.196l.282-.283a.667.667 0 0 0-.943-.942l-.282.283a.667.667 0 0 0 .471 1.138z"/><path d="M16.58 27.447l.586.587a.665.665 0 0 0 .943 0l13.695-13.696a.667.667 0 0 0 0-.942L19.384.975a3.337 3.337 0 0 0-4.715 0L.977 14.667l-.003.003a2.538 2.538 0 0 0-.173.186l-.011.015a3.31 3.31 0 0 0-.789 2.156c0 .893.346 1.73.973 2.357l1.414 1.414L.196 22.99a.667.667 0 0 0 .472 1.138h3.104v3.104a.666.666 0 0 0 1.138.472l2.192-2.192 5.155 5.155H9.334a.667.667 0 1 0 0 1.333h13.332a.667.667 0 0 0 0-1.333h-8.085a4.708 4.708 0 0 1 1.998-3.22zm-.968-25.53c.78-.78 2.049-.78 2.828 0l11.95 11.95L17.637 26.62 6.16 15.14l3.595-3.595a.667.667 0 0 0-.942-.942L5.17 14.245a3.297 3.297 0 0 0-1.37-.515L15.612 1.917zM5.105 25.623V23.46a.667.667 0 0 0-.666-.666H2.277l2.94-2.94 2.828 2.829-2.94 2.939zm8.268 4.274l-5.328-5.328.942-.943 1.61 1.61a.665.665 0 0 0 .943 0 .667.667 0 0 0 0-.943l-2.08-2.08h-.001L5.688 18.44a.667.667 0 0 0-.943 0l-1.414 1.414-1.414-1.414a1.985 1.985 0 0 1-.583-1.414c0-.536.207-1.039.583-1.414l.009-.01c.375-.37.873-.573 1.405-.573.536 0 1.038.207 1.414.583l10.88 10.88a6.04 6.04 0 0 0-2.252 3.404z"/><path d="M12.373 27.012a.665.665 0 0 0 .943 0 .667.667 0 0 0 0-.943l-.276-.275a.667.667 0 1 0-.942.942l.275.276zm9.142-6.432c.17 0 .341-.065.472-.195l.283-.283a.667.667 0 1 0-.943-.943l-.283.283a.667.667 0 0 0 .471 1.138zm1.98-1.98c.17 0 .341-.065.471-.195l4.067-4.067a.667.667 0 0 0-.943-.942l-4.067 4.066a.667.667 0 0 0 .472 1.138z"/></g><defs><clipPath id="clip0"><rect width="32" height="32" fill="#fff"/></clipPath></defs></svg>