<svg xmlns="http://www.w3.org/2000/svg" viewBox="0 0 52 52"><circle cx="26" cy="26" r="26" fill="#fbfbfb"/><path d="M26 10c-4.35 0-4.89 0-6.6.1a11.76 11.76 0 0 0-3.88.74 8.18 8.18 0 0 0-4.68 4.68 11.74 11.74 0 0 0-.74 3.88c-.1 1.71-.1 2.26-.1 6.6s0 4.89.1 6.6a11.74 11.74 0 0 0 .74 3.88 8.18 8.18 0 0 0 4.68 4.68 11.74 11.74 0 0 0 3.88.74c1.71.08 2.25.1 6.6.1s4.89 0 6.6-.1a11.74 11.74 0 0 0 3.88-.74 7.77 7.77 0 0 0 2.83-1.84 7.87 7.87 0 0 0 1.85-2.83 11.45 11.45 0 0 0 .74-3.88c.08-1.71.1-2.25.1-6.6s0-4.89-.1-6.6a11.45 11.45 0 0 0-.74-3.88 7.87 7.87 0 0 0-1.85-2.83 7.77 7.77 0 0 0-2.83-1.84 11.77 11.77 0 0 0-3.88-.74C30.89 10 30.35 10 26 10zm0 2.88c4.27 0 4.78 0 6.47.09a8.88 8.88 0 0 1 3 .55 5 5 0 0 1 1.84 1.2 4.94 4.94 0 0 1 1.19 1.84 8.8 8.8 0 0 1 .55 3c.08 1.69.1 2.19.1 6.47s0 4.78-.1 6.47a8.8 8.8 0 0 1-.55 3 4.94 4.94 0 0 1-1.19 1.84 5 5 0 0 1-1.84 1.2 8.88 8.88 0 0 1-3 .55c-1.69.08-2.2.09-6.47.09s-4.78 0-6.47-.09a8.84 8.84 0 0 1-3-.55 5.3 5.3 0 0 1-3-3 8.85 8.85 0 0 1-.55-3c-.08-1.69-.09-2.19-.09-6.47s0-4.78.09-6.47a8.85 8.85 0 0 1 .55-3 5.3 5.3 0 0 1 3-3 8.84 8.84 0 0 1 3-.55c1.69-.15 2.2-.17 6.47-.17zm0 4.9A8.22 8.22 0 1 0 34.22 26 8.22 8.22 0 0 0 26 17.78zm0 13.55A5.33 5.33 0 1 1 31.33 26 5.33 5.33 0 0 1 26 31.33zm10.46-13.87a1.92 1.92 0 1 1-1.92-1.92 1.92 1.92 0 0 1 1.92 1.92z" fill="#555"/></svg>