<svg version="1.1" xmlns="http://www.w3.org/2000/svg" xmlns:xlink="http://www.w3.org/1999/xlink" x="0" y="0" viewBox="0 0 263.3 258.4" xml:space="preserve"><defs><rect id="SVGID_1_" width="263.3" height="258.4"/></defs><clipPath id="SVGID_2_"><use xlink:href="#SVGID_1_" overflow="visible"/></clipPath><path clip-path="url(#SVGID_2_)" fill="rgba(137, 128, 195, 0.27)" d="M69.3 117.5c0 .4-.1.9-.1 1.3-2.5 1.2-5.6-.5-5.9-3.3-.6-4.2 2.8-7.5 7.4-7.3 4 .2 8.4 3.9 9.5 7.9 1.1 4-.8 9-4.4 11.3-.9.6-1.8 1.1-2.7 1.6.1.6.5.7.8.8 6.6 2.4 8.6 11.9 3.7 16.6-.4.3-.8.7-.6 1.3-3.3 1.8-6.7 3.2-10.5 1.6-2.7-1.4-3.9-3.5-3.4-6.5.5-3.1 3.8-4.6 6.3-2.9-.1.3-.1.6-.2.9-.4.3-.7.6-1.1.9-.2 0-.3.1-.2.3-.1 0-.2.1-.2.2-.9 1.9-.4 2.8 1.5 2.9 2 .1 4-1.3 4.9-3.4 1-2.4.6-4.7-1.3-6.4-1.5-1.4-3.3-2-5.2-1.8-5.5.7-9.7 3.3-11.8 8.7-1.8 4.7-2.2 9.6-3.2 14.5-1.3 6-2.3 12.2-6 17.4-3.4 4.9-8.4 7.5-13.8 8.9-2.4.6-5.1-.2-7.5-1.7-1.5-.9-3.1-1.6-4.5-2.7-3.5-2.7-5-6.3-6-10.3-.5-2.2-.8-4.7-3-6.1-1-.7-2-1.3-3.2-.7-1.1.5-2.1 1.2-1.7 2.7.3 1.5 1.3 2.2 2.9 2.1.3 0 .7-.4 1.1 0-.6 1.5-1.4 2.8-3.1 2.7-2-.1-3.6-1.2-4.3-3.2-1-2.8-.1-5.6 2.3-7.4 2.6-2 4.9-1.9 8 .3.6.8 1.1 1.6 1.7 2.5.9-1.6 1.8-3.1 2.7-4.7l.1-.1c2.7-2.8 6.1-4.1 9.7-5 2.9-.8 6.1-1 8.6-3.1h.1v-.1l.3-.3.1-.1c.2-.2.4-.4.6-.7 1.3-1.4 1.5-2.9.3-4.4-.9-1-1.9-1.5-3.1-.4h-.1v.1c-1.5 1.2-1.3 2.3.1 3.4.1.8-.6.9-1.1.9-1.5 0-2.5-.6-3.1-2-.1-1.6 0-3.2.6-4.7l-.1.1c.6-.5 1.2-1 1.9-1.4 2.6-1.4 5.2-1.2 7.3.6 2.4 2.1 3 4.9 2.3 8-.9 4-4.2 5.5-7.5 6.9 6.9 3.5 7 12 1.8 16.1-3.2 2.6-7.2 3.2-9.8 1.1-2.8-2.3-3.2-5.5-1.1-8.9 1.6-1.4 3.3-1 5-.1 0 .3.4.5.1.9-1.8.4-2.4 1.6-1.8 3.2.7 1.8 2 2.1 3.6 1.1h-.1c3.1-1.1 4-3.3 2.5-6.1-1.3-2.5-3.1-4.5-6.2-4.5-3.5 0-6.2 1.3-8 4.3-3.6 6.1.4 15.1 7.4 16.6 5.7 1.2 12.9-2.5 15.2-7.8 1.1-2.5 1.8-5.1 2.2-7.8.7-4.6-.6-6.9-4.1-7.9-.1-.2-.2-.4-.3-.5 1.1-1.6 2.6-2.9 4.6-2.1 2.3.9 2.2-.5 2.3-1.9.7-6.8 2.2-13.3 5.4-19.4.5-1 .6-1.7 0-2.8-1.6-3.2-2.9-6.5-3.8-10-.3-1.3-.2-2.7-1.1-3.9v-.4c.3-2.2-.6-4.3-.6-6.5 0-.9-.5-1.2-1.3-.8-2.4 1.1-4-.1-5.4-1.9.1-.1.1-.3.1-.4 2.5-.6 4.2-2.2 4.2-4 .2-3.8-.4-7.6-1.8-11.1-1-2.7-2.4-5.3-5.7-6.1-.1-.3-.2-.4-.5-.3-.1 0-.3-.1-.4-.1l.1.1c-2.5-2.3-5.5-2.5-8.5-2-7.4 1.3-11.6 10.6-7.6 17 1.9 3 4.7 4.2 8.2 4 2.9-.1 4.5-2.1 5.8-4.4 1.5-2.7.7-4.7-2-6.1-1.8-.9-3.2-.6-3.9.9-.8 1.6-.2 2.7 2 3.5l.1.1c-.2.2-.3.4-.5.6l-.1.1c-1.3.9-2.8 1-4.3.7 0-.2-.1-.2-.3-.2-.2-.2-.4-.4-.6-.7v-.1h-.1l-.6-.6-.9-1.8c-.4-5 4.3-8.8 9.1-7.2 1 .3 2 .8 3 1.3 6.5 4.7 5.5 13.8-1.3 16.8.8.3 1.5.6 2.2.9.1.1.2.2.3.2 1.3.8 2.6 1.6 3.6 2.8 2 2.4 2.4 6.2.9 9-1.3 2.5-3.6 3.8-6.5 3.5-2.2-.2-4.4-1.9-4.8-3.9-.4-2.1-.2-4 2.1-5 .7.3 2.5-.8 1.7 1.4-1.2.8-.9 1.8-.2 2.6.8.9 1.9 1.7 3.1.5h.2v-.1c.9-.5 1.2-1.4 1-2.4.1-.4.1-.8-.4-.9-.7-2.8-3.1-3.7-5.4-4.5-2.1-.7-4.4-1.1-6.5-1.7-4-1.2-7.4-3.1-9.4-6.9-.9-1.8-1.8-1.6-3.1-.2-2.1 2.2-4.3 2.5-6.9 1.2-2.7-1.4-4.2-4-3.7-6.8.5-3.4 3.1-5.1 6.4-4 .8.7 1.6 1.4 1.2 2.6-1.5-.5-2.9-.7-3.7 1-.6 1.2-.1 2.4.9 3 1.5.9 2.9.5 4-.8.1-.2.3-.3.4-.5h.1v-.1c.1 0 .2-.1.3-.3l.3-.3c1.1-3.2 2.1-6.5 3.2-9.7.5-.1.4-.6.5-1l-.1.1c.9-1 1.7-2 2.6-2.9 3.7-3.5 8.1-6.5 13.2-5.5 8.2 1.5 14.2 6.2 16.9 14.4 2.2 6.5 3.3 13.2 4.6 20l.2.6v.1l.1.1c.1.8 0 1.6.4 2.3.6 3.1 1.5 6 4.1 8l.1.1c2.4 2.5 5.5 3.7 9 4 3 .2 5.8-1.8 6.6-4.4.6-2.1-.6-5.2-2.7-6.4-1.4-.8-3.2-1.6-4.3.1-1.2 1.3.5 2.2 1.6 3.1m-8.6 10c-.6-.6-1.3-1.2-2.4-1.3.5.9.7 1.7 1.3 2.2.2.8 0 1.7-.2 2.6 2.1.1 3.3-1.6 5.6-2.2-1.8-.5-3.1-.9-4.3-1.3m69.4 104.8c-.1 1.4-.2 2.7.1 4.1-.2.3-.5.6-.5.9-.4 6.3-4.5 9.6-9.7 12-4.1 1.9-8.3 1.6-12.5.4-2.1-.6-4.2-1.7-6.6-.8-.3.1-.7.2-1 .4-1.3.8-2.1 1.8-1.8 3.4.2 1.1 1 1.9 2.1 1.9 1.8 0 2.5-1.1 2.7-2.7.4.2.7.4 1.1.6.2 1.5 1.1 3-.6 4.4-1.7 1.4-3.6 1.7-5.5 1.2-2.1-.5-4.1-3.9-4.2-6.4 0-2.8 1.5-5 4.1-5.9.4-.1.9-.1 1.3-.3 1-.4 1.6-1 .9-2.1-3.3-5.2-2.3-10.5-.4-15.8.9-2.6 1-5.1.8-7.7-.3-2.9-2.9-4.3-5-2.9-1.2.8-1.3 1.9-.8 3.1.5 1.1 1.4 1.7 2.6.8.3.1.6.2.9.2-.2 1.8-1.5 2.8-3.1 2.8-1.9 0-3.4-1.3-4.2-3.1-1-2.4-.4-4.6 1.3-6.4 1.8-1.9 5-2.4 7.5-1.4 4.4 1.8 6.4 6 5.2 10.9-.1.3-.2.5.1 1 2.6-1.8 5.4-2.2 8.4-1.2 5.9 2 8.5 9.4 5.1 14.5-1.6 2.3-3.9 3-6.5 2.6-2.4-.3-3.8-1.8-4.5-4.1-.4-1.3.8-3.3 2-3.6.7-.2.8.3.8.9.2 1.6 1.4 2.2 2.8 2.1 1.4 0 1.9-.9 2.2-2.3.6-3.2-.9-5.3-4.1-5.5-2.8-.1-5.4.4-6.9 2.9-1.7 2.8-2.1 5.9-.5 9 2.4 4.6 6.6 6.4 12.2 5.3 3.7-.7 8.1-3.3 8.4-8.4 1.6-2.6 1.2-5.4.4-7.9-1.8-5.4-5.9-8.9-10.8-11.5-1.6-.8-3.2-.4-4.5.7-1.6 1.3-2 .5-2.4-1-.4-1.6.7-2.6 1.7-3.6.5-.5 1.2-.8.3-1.5-3.4-2.3-6.2-5.3-9.4-7.7-2.1-2.4-4.2-4.8-5.9-7.6-.6-1-1.3-1.3-2.4-1.4-5.6-.3-10.9-1.6-16.1-3.7-1.9-.8-3.9-1.5-5.9-2.3-.6 3.8-1.8 4.9-4.9 4.5.8-1.9.5-3.6-.8-5.2-5.1-4.2-15.7-7.5-22.7-.5-3.7 3.7-4.8 8.4-2.5 13.4 2.2 4.9 6.3 7.1 11.7 6.4 5.3-.7 8.3-6.7 5.4-10.8-.1-2-1.4-3-3.1-3.5-1.9-.5-3.5.5-4.7 1.8-.7.8-.7 2.1.1 3 .7.9 1.6 1.2 2.7.7.5-.2.8-.7 1.4-.6.5 2.9-.7 4.5-3.5 4.6-4.1.2-7.3-4.8-5.5-8.7 2.4-5.3 10.6-7 15-3.2 2.4 2.1 3.7 4.6 3.5 8 1.4-.8 2.5-1.6 3.6-2.2 4.1-2 8.1-1 10.8 2.7 1.8 2.4 1.8 5.5-.2 7.7-1.5 1.6-3.2 2.8-5.6 2.1-2-.6-3.4-1.7-3.4-4 .2-.4.4-.7.6-1.1.7-.5 1.2 0 1.5.5.8 1.1 1.7 1.2 2.9.7 1.1-.5 1.5-1.3 1.3-2.5-.2-1.3-.9-2.3-2.3-2.6-1.8-.3-3.4.3-5 1.2-1.6 1-2.9 2.2-4.1 3.6-4.2 4.9-9 8.4-16.1 7.1.4 1 .7 1.7 1 2.5 1 3.1-.1 5.9-2.9 7.3-2.9 1.4-6.6.7-8.3-1.6-1.1-1.5-1.3-3.3-.6-5 .7-1.6 2.4-1.7 3.9-1.6.3.6-.2.8-.5 1.1-.8.9-.9 1.8-.3 2.8.5.8 1.2 1.3 2.2 1.2 1.2-.2 2.1-.8 2.4-1.9.7-2.3-.2-4.1-1.8-5.7-1.4-1.5-3-2.7-4.3-4.3-4.3-5.7-4.9-11.8-2.4-18.3.2-.5.3-1 .4-1.4.4-.4.9-.7.9-1.3l-.1.1c.3-.1.5-.3.4-.6.3-.8 1.3-.7 1.7-1.3.8 0 1.3-.5 1.9-.9 6.9-4.9 14.2-4.8 22-2.4 7.2 2.2 14.1 5.2 21.6 6.7 4.7.9 12.4-3.3 13.7-8.4.6-2.1-.3-4.9-1.9-6.1-1.9-1.5-4.8-1.4-7.1.1-1.3.8-2.1 1.9-1.4 3.4.7 1.3 2 .8 3.1.4.3-.1.5-.3.7-.5 1.4 1.4 1.4 2.4-.1 3.5-1.6 1.2-3.4 1.5-5.3.6s-3-2.4-3.1-4.6c-.2-2.7.8-4.9 2.5-6.9 4-2.7 8.1-4 12.7-1.5l.1.1h.1c.2.1.3.1.5.2 3.6 2.9 5.2 6.6 4.3 11.8 4.2-3.4 8.2-4 12.5-1.9 4.3 2.1 5.8 5.9 5.5 10.5-.2 3.5-2 5.9-5.2 7.2-3.3 1.4-6.6-.4-7.4-4v-1.8c.5-1.4 1.4-2.1 3-1.7 0 .5 0 1.1.1 1.5.3.9.5 2.2 1.9 2.1 1.3-.1 1.9-1 2.2-2.1.1-.3.2-.7.2-1.1.2-2.2-1.3-4.8-3.2-5.8-2-1-4.8-.6-6.5 1.1-2.8 2.9-3.6 6.5-3.1 10.3.8 5.5 4.6 8.9 8.8 12 1.9 2 4.1 3.7 6.3 5.5l.1.2h.2c0 .1.1.2.3.2v.1h.1c3.4 3.5 7.2 6.5 9.6 10.8 2 3 2.5 6 3.3 9m-35.2-42.8h-.1l-.1.1c-.7.4-1.4.8-2.5 1.5 1.3.2 2.1.3 2.9.1.3.2.6.3.9.5.2.8.5 1.6 1.5 2.1v-3c.1-.5.1-1 .2-1.5.4-.7.6-1.4.3-2.5-1 .9-1.8 1.6-2.6 2.4-.2.1-.4.2-.5.3m24.9-115.4c-3 5.6-7.4 8-12.5 6.7-1.8-.4-3.2-1.5-5-2.5 0 1.9.1 3.5-.2 5-1.3 5.5-6.8 9.1-12.3 7.8l-3.3-.9c-.2-.1-.3-.3-.5-.4l-.9-.9c-2.7-2-3.6-4.7-3.2-7.9.2-2 1.3-3.4 3.2-4 1.9-.6 3.9-.5 5.6.9.9.7.9 1.7.6 2.6-.4.8-1.1.3-1.7.1-1.1-.3-2.2-.7-3 .4-.8 1.2-.1 2.2.8 3l.1.1c3.1 2.9 8 1.7 9.3-2.2 1.1-3.4-.5-5.9-2.8-8.1 0-.2-.1-.3-.3-.3 0-.1-.1-.2-.2-.2v-.1h-.1c-.4-.6-.9-1-1.6-1.2v.1c-.1-.4-.5-.5-.8-.5h.1c-3.5-2.6-7.4-1.6-11.2-.9-4.9.9-9.5 3.1-14.2 4.6-6.9 2.2-13.8 4.1-21.1 1.5l-1.2-.6h-.1c-1.4-.9-2.8-1.7-4.2-2.6l-.1.1c-1.2-1.1-2.4-2.2-3.5-3.3-4.9-8.5-1.7-18 4.1-22.9 1.5-1.3 3.1-2.5 3.5-4.6.3-1.4.5-2.9-.9-4-1-.8-2.1-1-3.2-.1-1.1 1-1.2 2.1-.3 3.3.2.3.5.6.9 1.2-1.9.1-3.7.2-4.3-1.6-.7-1.9-.5-3.9 1.1-5.5 2.2-2.2 5.9-2.4 8.6-.6 2.4 1.6 3.2 4.5 1.9 7.5-.2.5-.5 1-.8 1.8 6.8-1.1 11.5 1.9 15.6 6.6 1.4 1.6 3 3.2 4.9 4.4 1.4.8 2.9 1.3 4.6 1.1 1.5-.2 2.6-1.7 2.4-3.4-.2-1.5-1.2-1.9-2.4-2-1.7-.1-1.8 1.4-2.2 2.5-.9-.2-.9-1.2-1.5-1.7 0-2.8 1.7-4.5 4.4-4.6 2.2-.1 5.7 2.7 6 4.7.7 5.3-4.7 10.1-10 8.8-2.1-.5-3.7-2-5.7-2.9V62c-1.4 1.6-2.4 3.4-4 4.9h.1c-2.6 1.5-5.3 1.8-8.2 1.4-1-.5-2-.9-3-1.4-2.7-2.3-4.8-4.8-3.5-8.6v.1l1.2-1.8c1.4-1.9 3.7-2.7 5.9-1.9 2.1.7 2.3 2.5 2.4 4.3-.3 0-.6.1-.9.1-1.3-1.2-2.6-1.2-3.6.3-1 1.4-.3 2.9 1.7 4h.1c1.5.9 2.9 1.2 4.3-.2 3.5-2.8 4.1-9.2-.3-12-3.3-2.1-7.9-2.3-11.1.1-4.2 3.1-5.9 7.5-4.8 12.5 1.1 5 4.9 8 9.6 9.4 5.4 1.5 10.5-.4 15.2-3 1.3-.7 2.1-2 2.3-3.5.1-.1.1-.2 0-.3 0-.3.2-.6.1-.9-.4-1.9.4-2.1 1.9-1.5.3.1.7.3 1 .4 0 .2.1.2.3.2.9 1.1 1.1 2.4 1.3 3.8.5-.1.9-.2 1.2-.3 6.9-2.9 13.8-5.4 21.4-5.6.9 0 1.3-.4 1.4-1.3l-.6-.2.1.1c.4-.2.4-.6.5-1l-.1.1c2.4-2.1 4-5 6.3-7.1h.1V53l.6-.6c1.9-1.4 3.7-2.9 5.4-4.6l.1-.1c.7-.5 1.4-1 2.2-1.4 1.3-.7 1.3-1.3.1-2.1-.6-.4-1.1-1.2-1.4-1.9-.4-1 0-2.2.5-2.9.7-.9 1.3.3 2 .6 1.3.6 2.5 1.2 3.9.6 5.2-2.4 9.2-6 11.2-11.5.8-2.3.6-4.7.2-7l-.2-.9c-.8-4.5-4.1-7.7-8.8-8.5-5.6-1-9.5.6-12.1 5.2-1.6 2.9-1.4 5.9.2 8.8 1.5 2.7 4.1 3.4 6.9 3.3 3.4-.1 5.1-2.5 4.3-5.8-.4-1.5-1.2-2.1-2.7-1.9-1.6.2-2.4 1.2-2 2.9-.2.7-.8.3-1.2.4-2.3-1.9-2.5-3.4-1-5.7.4-.5.8-1 1.1-1.6 6-1.9 10.2.7 10.4 6.5.2 4.6-1.9 7.7-5.8 9.8-3.1 1-6.2 1.1-9-1.1v2.9c.1 2.7-.4 5.2-2.5 7.1-3.3 3-6.9 2.9-10.6.9l.1.1c0-.5-.2-.9-.7-1.1v-.1c-1.3-2.6-1.5-5.1.4-7.5h.2v-.2c.8-.5 1.7-.6 2.2-1.5.4 0 .8 0 1.3.1.5 1 2 .9 2.3 2.1.2.6.4 1.4-.6 1-1.6-.5-2.4 0-2.8 1.5-.3 1.2 0 2.2 1.2 2.7 1.4.7 2.7.6 3.7-.7 1.2-1.5 1.3-3.4 1.2-5.2-.1-2.4-.9-4.7-1.6-7-1.5-5.1-1.6-10.1 1.9-14.6l.3-.6v-.2c-.3-.4-.8-.2-1.2-.3-3.5-.4-5.4-2-5.9-5.3-.4-2.8 1.3-5.7 4-6.9 2.7-1.2 6 .1 6.7 2.6.2.8.3 1.5-.2 2.3-.2.4-.4.8-.8.9-.6.1-.6-.5-.7-.9-.4-1.1-1.2-1.9-2.5-1.8-1.2 0-1.9.8-2.2 1.8-.4 1.2.1 2.1 1 2.9 1.3 1.1 2.8 1.4 4.5 1.1 2.5-.4 4.9-1.4 7.4-1.8 11.1-1.8 20.5 8 18.8 19.1-1.3 8.4-6.7 13.6-12.5 18.9-4 3.7-8.6 6.8-12.2 11-4 4.7-4.6 9.9-1.9 15.3 1.2 2.4 3.9 4 6.2 3.7 2.6-.4 4.1-2 4.9-4.4.3-.9.3-1.9 0-2.8-.3-1.2-.9-2.2-2.3-2.2s-1.6 1.2-1.8 2.1c-.2.9-.4 1.9-1.4 1.8-.9-.1-1.5-1-1.7-2.1-.2-1.9.2-3.6 1.7-4.9 1.6-1.3 3.4-1.6 5.3-1 4.1 1.4 6.2 5.7 5.3 10.5.1.3 0 .8-.1 1.3m-21.1-2.2c-.7-2.7-.9-4.9-1.2-7.4-.9 2.3-2.7 2.8-4.8 2.7 2.1 1.4 3.9 2.8 6 4.7M161 191.3c0-.2-.1-.4-.2-.5-.2-2.2-.8-4.3-2.5-5.9 0-.2-.1-.3-.3-.2 0-.1-.1-.1-.2-.2l-.1-.2h-.2c-2.4-1.8-4.8-2-6.8-.5-2.2 1.6-3.2 4.3-2.4 6.5.4 1.1.9 2.1 2.3 2 1.3-.1 1.4-1.2 1.8-2.2.2-.6-.4-1.7.9-1.5 1.1.1 1.8.6 2 1.9.6 4.1-3.2 7.3-7.1 5.8-3.9-1.5-5.5-4.5-5.6-8.5.5-5.2 3.2-9.3 8.9-10.3 1.3-.2 2.5-1 3.9-.1 1.7.9 3.4 1.7 5.6 2.9-1.4-2.5-.5-4.3.1-6.2 1.5-4.1 5.5-6.9 9.7-6.9 4.5.1 8.8 2.7 9.9 6.4.8 2.7.3 5.7-1.5 7.1-2 1.6-4.5 1.7-6.5.3-1-.7-1.5-1.7-1.1-2.8.5-1.4 1.4-.2 2.2-.1 1 .1 1.9.3 2.6-.6.6-.9.2-1.7-.3-2.4-1.9-3-7.6-2.9-9.4.1-1.9 3.1-1.1 6.4 2.3 9.4v.1h.1c2 2.1 4.3 3.5 7.2 3.7.2.3.5.3.8.1.7.2 1.3.3 1.9-.1.1 0 .2 0 .4-.1.8-.1 1.5-.2 2.3-.3.2 0 .3 0 .5-.1 4.6-1.1 8.9-2.9 13.3-4.3s8.8-2.9 13.4-3.4c7.5-.8 19.4 4.7 20.6 12.8.9 5.9.1 11.3-4.1 15.9-1.2 1.3-2.5 2.5-3.7 3.7-1.5 1.5-2.3 3.2-1.9 5.3.2 1.2 1 2.1 2.3 2.3 1.1.2 1.8-.3 2.4-1.2.8-1.1.4-2.1-.4-3-.2-.2-.3-.4-.6-.9 1.8-.3 3.3-.2 4.1 1.3 1 1.8.8 3.7-.6 5.3-2 2.4-5.6 2.9-8.6 1.2-2.7-1.6-3.6-4.4-2.4-7.6.2-.5.5-1 .7-1.5-.2-.2-.3-.4-.3-.4-6 .8-10.6-1.7-14.5-6.1-.5-.6-1.1-1.1-1.7-1.7-.2-.2-.4-.4-.6-.5-.2-.2-.4-.3-.6-.5h.1c-2-2.2-4.3-3.8-7.4-3.4-1.6.2-2.3 1.4-2.4 2.9 0 1.2.3 2.3 1.6 2.4 1.4.1 2.8-.3 2.8-2.2h-.1c.2-.1.5-.1.7-.2l.9 1c.5 1.2.2 2.3-.4 3.4-1.9 1.4-3.8 2.4-6.2 1-2.2-1.2-3.6-3-3.5-5.6.1-4.8 5.5-8.5 10.2-7.2 2 .6 3.7 1.9 5.5 3.1-.5-7 6.3-12 13-9.7 5.5 2 7.6 7.4 4.3 11.5-1.4 1.8-3.3 2.3-5.5 1.8-1.5-.3-2.4-1.3-2.6-2.9-.1-1.1-.3-2 1.4-1.1 1.7.8 3 0 3.4-1.8.3-1.6-1.6-3.4-3.8-3.7-2.5-.3-3.7 1.4-4.6 3.2-1.6 3.2-1.4 5.4.6 7.5 1 2 2.9 3.1 4.9 3.5 7.3 1.4 14-5.2 13-12.5-.8-6-4.9-9.3-10.1-10.8-5.6-1.6-10.9.4-15.6 3.6-1.4.9-2 2.6-1.7 4.3.4 2.3-.8 1.8-2.1 1.3-.8-.3-1.6-.8-1.7-1.5-.4-2.8-2.2-1.9-3.8-1.6-1.1.3-2.2.8-3.3 1.2-4.2 1.5-8.5 3.1-13.1 3.2-2.9.1-5.2.8-6.3 3.8-.2.6-.7 1.1-1.1 1.6-3.6 4.3-7.9 7.8-12.3 11.1-1 .8-1.3 1.2-.1 2 .6.5 1.1 1.2 1.4 1.9.5 1.1.1 2.3-.6 3.1-.7.8-1.2-.4-1.8-.7-2-1.1-3.8-1.1-5.8.1-3.2 2-6 4.4-8.1 7.6-3.1 4.9-2.7 9.9 0 14.7 2.2 4 7.5 5.8 12.7 4.9 5.8-1.1 9.3-7.3 7.3-12.7-1.3-3.6-6.1-5.6-9.6-4.1-2.2.9-3.2 4.4-1.9 6.3.5.8 1.3 1.2 2.3 1 .9-.1 1.7-.5 2-1.5.2-.6.3-1.3.4-1.9 2.8 1 3.5 2.7 2.2 5.2-1.3 2.3-3.3 3.4-5.9 3-2.5-.4-4.4-1.9-5.3-4.3-2.7-7.2 3.1-14.5 10.7-13.5 1.4.2 2.3 1.1 3.5 1.8 0-1.8-.1-3.5 0-5.2.3-5.5 7.4-9.2 11.9-6.1 3.7 2.5 3.7 7.6 0 9.8-1.6 1-2.9.6-4.1-.6-.4-.4-.9-.9-.6-1.5.3-.8.9 0 1.3 0 .9 0 1.6-.3 1.9-1.1.4-1 .6-2-.2-2.8-.8-.8-1.9-1.2-3-.7-1.7.6-2.3 2.1-2.5 3.8-.4 2.9.3 5.6 1.2 8.4 1.3 3.9 2 7.8.5 11.8-.6 1.6-1.6 3.1-2.4 4.6.5.5 1.1.3 1.7.3 3.4.5 5.4 2.6 5.5 5.7.1 3.5-2.1 6.4-5.4 7-2 .4-3.6-.5-4.8-2-1.1-1.5-.3-2.9.6-4.2.7.2.6.9.9 1.4.9 1.3 2.1 1.7 3.4.8 1.3-.9 1.6-2.4.5-3.6-1.3-1.6-3-2.1-5.1-1.8-2.7.5-5.3 1.6-8.1 1.9-8.5 1.1-16.8-5.3-18-13.8-.8-5.5.6-10.6 3.5-15.2v-.1c4.5-5.6 10-10.1 15.5-14.7 2.3-2 4.7-3.9 6.3-6.6h.2v-.2c.5-1 1.7-1.8 1.5-3.2 1.6-1.6 2.3-3.4 1.6-5.5m6.2-2.5c-.7-.6-1.4-1.3-2.2-1.9.4 2.4.4 4.6.4 7 1.3-.7 1.3-1.9 2-2.6.8.2 1.6.1 1.8-.8.1-.7-.7-.8-1.2-1l-.8-.7m26.7-47.9c0-1.6.6-2.6 2.5-2.1 3.2 1.9 4.1 3.3 3.5 6.5-.5 2.9-2.8 3.9-5.2 4.5-5.1 1.3-11.6-3.7-11.9-9.1-.1-2 .6-3.9.5-5.8.1 0 .2-.1.1-.2.5-.2.8-.6 1-1.1.4-.5.9-1 1.3-1.6h.1v-.1l.6-.6c1.2-.6 2.5-1.3 4-2-2.6-1.3-4.7-2.6-6.3-4.7v.1c-.1-.2-.3-.3-.4-.5 0-.2-.1-.3-.1-.5-1.7-5.1-1.1-9.6 3.3-13.2l.1-.1c.8-.4 1.6-.8 2.3-1.2 3.1-1.5 6-1 8.6 1 2 1.5 2.7 4.5 1.5 6.6-1.1 2.1-3.1 3-5.2 2.4-1.3-1.3.1-1.8.7-2.5 1.5-1.5 1.3-2.8-.5-3.3-1.9-.5-4.6 1.1-5.5 3.3-1.1 2.6-.6 4.9 1.6 6.2.4.7 1.1 1.2 1.9 1.2 1 1 2.2.9 3.5.7 5.7-.9 9.8-3.8 11.6-9.5 1.1-3.5 2.1-7.1 2-10.9.4-1.9.9-3.8 1.3-5.7.4-.4.4-.9.5-1.4 1.6-8.1 4.7-15.2 12.3-19.5 1.4-.7 3.1-.8 4.1-2.2.6 0 1.1.3 1.7-.1 1.7-.3 3.2-.1 4.9.2 4.4 1 7.8 3.5 10.8 6.7l.1.1c1.7 2.9 2.8 6.1 3.5 9.4.5 2.3 1.5 4.3 4 5.1 1.3.4 2.2-.2 3-1.1.7-.7.6-1.5.2-2.2-.6-.9-1.4-1.7-2.7-1.4-.3.1-.7.3-1.1-.2.3-.6.7-1.2 1-1.8 2.1-1.2 3.8-1 5.4.7 1.7 1.7 1.9 5.1.6 7.1-2.3 3.5-5.9 4.2-9.6 1.9-.7-.9-1.4-1.8-2.2-2.9-1.3 3.6-3.7 6.2-6.8 8.2h.1c-.4 0-.7.1-1 .4l.1.1-.1-.1c-2.6.8-5.2 1.5-7.8 2.1-2.6.6-5.2 1.6-6.9 3.9-1.1 1.5-.9 3.4.4 4.5 1 .8 2 .8 3 0s1.3-1.8.5-2.9c-.3-.4-.7-.7-.7-1.3h.2l.1-.1c3.1 0 4.2 1 4 4 0 .9-.4 1.7-.7 2.5h.1c-.2.2-.3.4-.5.6v-.1l-.9.9c-2.1 1-4.2 1.6-6.5.3-4.8-2.6-5.2-9.7-.8-13.1 1.5-1.2 3.1-1.9 4.9-2.6-4.8-2.6-6.7-7.2-5.1-11.8 1.7-4.7 6.5-7.4 11.3-6.4h.1c3.5 2.2 4.6 4.5 3.8 8.2l-2 2.3c-1.5.7-2.8 0-4.1-.6l-.1-.1c0-.9.9-.9 1.3-1.3.9-.7.9-1.7.6-2.6-.3-.9-.9-1.6-2.1-1.7-2.9-.2-5.4 2.9-4.4 5.6 1 2.6 2.6 4.9 5.5 5.4 3.3.5 6.3-.5 8.4-3.3 2.3-3 3-6.5 1.4-10.1-1.7-4.1-4.8-6.7-9.1-7.6-4.5-1-12.6 2.6-14.5 8.4-.8 2.4-1.5 4.7-1.9 7.2-.7 4.5.2 6.4 4.4 8.4-1 1.6-2.4 2.9-4.3 2.2-2.5-.9-2.5.5-2.6 2.1-.6 5.6-1.5 11.2-4.1 16.2-1.7 3.2-1.6 5.8.1 8.8 2.4 4.2 2.7 9.2 3.8 13.8.2 1.2-.1 2.4.5 3.6-.1 1.1.4 1.4 1.4 1 2.3-.9 3.9 0 5.1 2.1-3.9 1.7-4.8 3.2-4.5 7.5.2 2 .8 4 1.3 6 1.4 5.6 5.2 8.6 10.4 10.1 4.4 1.3 8.2.1 11.3-3.3 3-3.2 4.3-6.9 2.8-11.2-1.2-3.5-3.8-5.6-7.5-6.2-3.5-.5-5.8 1.3-7.5 4.2-1.7 3.1-.4 6.1 3.1 6.8 1.3.3 2.1-.3 2.7-1.4.5-1 .5-2-.5-2.8-.4-.3-.9-.6-1.4-.9 2.8-2.1 5.2-1.4 6.3 1.7.9 2.5-.1 4.4-1.7 6.2-1.6 1.8-3.7 2.4-6 1.7-4.2-1.1-7.1-3.7-8-8.1-.8-4.1 1.2-7.6 5.6-10.3-1.9-.6-3.6-1.5-5-2.7-4.3-3.4-3.8-10.5.9-13 2.5-1.3 5.8-.7 7.4 1.4 1.5 1.9 1.4 4.4-.2 6.4-.6.2-1.1.4-1.7.5-.4.1-.9 0-1.2-.4-.3-.4.1-.7.3-.9.8-.8.9-1.7.2-2.6-.6-.8-1.4-1.4-2.4-1.1-1.1.3-1.9 1.1-2.1 2.3-.3 1.6.4 2.9 1.6 3.8 1.7 1.4 3.6 2.4 5.8 2.8 3.4.6 6.7 1.4 9.7 3.1 2.9 1.7 4.6 4.4 5.9 7.5.4-.5.7-.9.9-1.4 2.1-2.9 4.8-3.7 7.8-2.2 3.1 1.5 4.6 4.9 3.5 8.1-.6 1.9-2.2 3-4.1 3.2-1.8.2-2.8-1-3.4-2.5.3-.6.8-.3 1.2-.2 1.1.1 2.1-.2 2.6-1.2.5-.9.4-1.8-.3-2.6-.8-.8-1.8-1.2-3-.8-1.5.5-2.8 1.5-3.3 3-1.1 3.3-2 6.6-3 10-.2.3-.3.5-.5.8-.5.5-1.1.9-1.6 1.4-4.9 5.1-10.5 7.8-17.6 5.3h-.9c-.1-.1-.2-.1-.4-.2l.1.1c-.1-.9-.9-.9-1.4-1.2-5.2-2.8-8.7-6.9-10.6-12.5-1.5-4.6-2.5-9.4-3.4-14.2-.8-4-.9-8.1-2.9-11.8.1-.4-.1-.7-.4-1-1.7-4.4-7.4-8.1-12.1-7.7-1.7.1-3.3.6-4.5 2-1.4 1.5-2.1 3.3-1.4 5.4.7 2.2 2.2 3.8 4.5 4.3.9.2 1.9.1 2.5-.8.6-.9.2-1.6-.5-2.2l-.6-.6c0-.1-.1-.2-.2-.2 0-.1-.1-.2-.3-.2l-.1-.1.3-.4c.1.1 0 0 0 0m4-11.7c1.9.8 3.3 1.3 4.7 1.9.6.3 1.3-.2 1.2-.4-.9-1.6.8-2.7 1-4.4-2.1 1.2-4.1 2.1-6.9 2.9M161 78.5c-3.4 2.3-6.9 3.5-11.1 2-3.3-1.2-5.2-3.6-6.4-6.7-1-4.1-.3-7.8 3.2-10.6 1.7-1.3 4.1-1.8 5.9-.9 2.2 1.1 3.2 2.8 3.1 5.3-.1 1.2-.6 2.1-1.9 2.3-1.5.2-.9-1.1-1.2-1.8-.4-.8-.5-1.9-1.8-1.9-1.2 0-1.8.8-2.1 1.8-1 2.7.6 6.1 3.3 7.2 2.8 1.1 5 .2 7.6-3.2l.1-.1v-.1c.4-.4.6-.8.6-1.3 1.2-2.9 1.6-5.8.5-8.8-1.1-3.2-3.2-5.7-5.8-7.8-.2-.5-.6-.8-1.1-1.1l-.1-.1c-2-1.7-4-3.4-6-5.2v-.1h-.1l-.3-.3c-3.1-2.8-6.2-5.5-8.9-8.7-4.8-5.8-6.3-12.4-4.5-19.7 1.6-6.5 6.8-9.3 12.8-10.9 3.8-1 7.3.2 10.9 1.2 1.5.4 3.1.8 4.7.3 1.1-.3 2-.9 2.6-1.9.8-1.4.4-2.6-.8-3.4-1.2-.8-2.4-.5-3.2.8-.3.5-.5 1-.9 1.6-1.1-1.7-2-3.1-.4-4.8 1.5-1.6 4.3-2 6.3-.9 3.8 2.1 4.6 6.5 1.9 10.5-1.6 1.2-3.5 1.5-5.8 1.8 4.9 6 3.7 12.2 1.5 18.4-.8 2.2-.9 4.6-.5 6.9.2 1.6 1 2.9 2.7 3.3 1.2.3 2.2-.1 2.9-1 .7-.8.4-1.8 0-2.7-.5-1-1.4-1.2-2.4-.9-.3.1-.7.3-.8-.2-.1-.3 0-.8.2-1 .7-1 1.7-1.8 2.9-1.6 1.6.3 3 1.2 3.8 2.7 1.1 2.2.7 4.8-1.1 6.7-1.8 1.9-4.9 2.6-7.5 1.6-3.5-1.4-6-3.7-5.6-9.7 0-.6.3-1.5-.2-1.9-.7-.5-1.1.5-1.6.7-.6.3-1.2.6-1.8.7-5.2.7-10-2.6-11-7.8-.9-4.5 1-10.4 7.6-9.8 2.3.2 4.5 2.2 4.7 4.5.2 2.1-1.1 3.2-3 3.6.2-1.4 0-2.7-1.5-3.3-1-.4-2-.3-2.8.6-1.5 1.8-.7 5.4 1.4 6.5 3.7 1.8 8.9-.4 10-4.3 1-3.5.5-6.7-2.1-9.4-3.3-3.6-7.5-3.8-11.9-2.7-8.7 2.1-10 14-6 19.4 1.8 2.4 3.7 4.6 6.2 6.3 4 2.8 6.1 2.8 8.8 0 1.5 2.2 1.7 3.6-.1 5.2-1.6 1.4-.9 1.9.3 2.8 5.3 3.9 10.2 8.2 13.8 13.8.9 1.4 1.9 2.2 3.6 2.1 1.6 0 3.2.4 4.8.6 4.2.5 8.1 2.4 12.1 3.6.2.1.4.1.5.2 1.2.7 2.4 1.3 3.8 1.5.1-2.4 1-4.2 3.5-4.7.4.1.9.2 1.3.2-.8 2.7-.4 4.4 1.5 5.7.5.2.9.4 1.4.7.1.5.3.7.8.9 3.5 1.6 7.1 2.8 10.9 2.6 4-.2 7.5-2.1 9.8-5.6.8 0 1.1-.7 1.4-1.3 2.4-4.3 1.7-8.4-.7-12.4-2.3-3.8-5.8-5.2-10.1-4.7-6.2.6-9.1 6.5-5.9 11.8l.1.1c.4.5.7 1.1 1.2 1.5 1.3 1.3 3.6 1.3 4.9 0 1-1 2.8-2 1.1-3.8 0-.1-.1-.2-.2-.2-.9-.9-1.9-.6-2.9-.3-.2.1-.5.3-.7.4-.8-2.7.3-4.5 3-4.8 2.1-.3 3.9.5 5.1 2.3 1.4 2.1 2.1 4.4.6 6.7-1.6 2.7-4 4.4-7.2 4.8-2.7.4-5.2-.1-7.4-1.8-2.5-2.1-4-4.7-3.6-8.4-.9.7-1.5 1.2-2.2 1.6-4.5 3-9.4 2.2-12.3-1.8-2.7-3.8-.9-8.7 3.6-9.9 2-.5 3.6.4 4.9 1.8.8 1 .8 2.3.1 3.5-.4.6-.8 1.3-1.2.1-.6-1.8-1.7-2.1-3.2-1.3-1.5.8-1.6 2.1-.7 3.5l.1.1c1.1 2.1 2.9 1.6 4.5 1.2 2.8-.8 4.8-2.8 6.6-5.1 1.7-1.6 3.2-3.4 5.2-4.6 3.1-2 6.5-2.7 10.4-2.1-.4-1.2-.8-2.2-1.1-3.3-.9-3.2 1.3-6.4 5-7.1 3.6-.7 7 1.4 7.4 4.7.3 2.9-1 4.2-4.3 4.1-.2-.5.3-.8.5-1.1.9-1.5.6-3-.8-3.7-1.3-.7-2.9 0-3.5 1.6-.9 2.5.2 4.4 1.9 6 2.3 2.2 4.7 4.4 6.2 7.3 2.6 5.3 2.9 14.6-3.1 19.5l-3.8 2.6c-3.8 1.8-7.7 3.1-12 2.7-4.3-.4-8.4-1.7-12.5-3-5.5-1.7-10.7-4.2-16.4-5.2-5.5-.9-11 1.5-13.7 6.4-1.8 3.1-1.2 6.1 1.6 8.3 2.1 1.3 4.2 1.3 6.2-.1 1.1-.8 2.5-1.7 1.6-3.3-.9-1.5-2.3-.6-3.5-.3-.1 0-.3.1-.4.2l-.7-.7c-.1-.6.2-1.2-.3-1.7v-.4c3.2-3.5 9.1-1.9 9.7 2 .6 3.3-.3 6.2-3 8.4-1.3 1-2.8 1.4-4.2 2.1-.3.1-.6.2-1 .3-2.5 0-5 .2-7.3-1.1-1.1-1.3-2.3-2.5-3.3-3.9-1.9-2.3-1.6-5.2-1.7-7.9l.1.1-.1-.1zm7.4-9.5c.8-.5 1.5-1 2.5-1.5-1.1-.5-1.9-.3-2.8-.2-1.1-.4-1.7-1.2-2.4-2.5-.1 2.4-.3 4.3-.4 6.3.3.2.1.3-.1.4 0 0-.2 0-.2-.1 0-.2 0-.4.3-.3 1-.9 2.3-1.1 3.1-2.1"/><path clip-path="url(#SVGID_2_)" fill="rgba(137, 128, 195, 0.27)" d="M191.5 220.2c-.6.1-1.1.3-1.7.4-1.7-1.4-3.9-.9-5.8-1.2-.5-.1-.7.4-.9.8-1.1 2.6-2.3 5.2-3.4 7.8-.1.2-.2.3-.3.5-1.7 3.7-3.5 7.4-5.1 11.1-.7 1.7-1.3 3.5.6 4.9.8.6 1.7.9 2.6.3.9-.6.8-1.4.7-2.3-.1-.8-1.1-2 .2-2.4 1.1-.4 2 .6 2.6 1.6.9 1.6 1.6 3.4.4 5.1-1.5 2.1-3.8 2.8-6.2 2.6-5-.5-7.4-4.2-6-9 1.8-6 4.5-11.7 7.1-17.4l2.4-5.4 1.5-3.3c.1-.1.3-.2.4-.3 8 .8 16.1 1.4 24 2.7 1.6.3 3.3.6 4.9 1 3 .8 5.2 3.7 5 6.4-.2 3.4-2.6 6.5-5.6 7.2-1.8.4-3.1-.7-4.1-1.8-1.3-1.4-1.5-2.9-.5-4.6l.1-.1c.7.6 1.3 1.2 2 1.7.9.7 1.8 1.4 2.8.2.9-1.1 1-2.4.1-3.6-.8-1-2.1-1.4-3.3-1.5-4.8-.5-9.7-.9-14.5-1.4M172.2 26.3c-.1-.4.1-1-.5-1.2-.3-2.8-1.7-5.2-2.3-7.8-.7-3 .6-6 3.3-7.3 2.8-1.4 6.9-.9 8.7 1.2 2.2 2.6.8 6.5-2.7 7.5l-.5-.5c.1-.6.3-1.3.4-1.9.2-1.2.2-2.5-1.3-2.8-1.5-.3-2.7.4-3.1 2-.3 1.2-.1 2.3.4 3.4 2.9 6.4 5.8 12.7 8.6 19.1.5 1.2 1.3 1.2 2.2 1.1l12-1.2c2.7-.3 5.4-.5 8.1-.8 1.3-.1 2.5-.4 3.5-1.1 1.5-1 1.6-2.4.7-3.8-1-1.6-2.1-.6-3.1.1-.7.4-1.2 1.8-2 1.2-1-.9-.7-2.3-.1-3.4 2.2-3.8 6.7-3.5 9.2.7 2.6 4.3.6 9.1-4.3 10.2-3 .7-6 1.1-9 1.6l-.2-.1-.2.1-19.2 1.9-.1-.1h-.2c-.7-1.7-1.2-3.4-2.4-4.8-.2-1.2-.9-2.2-1.4-3.2l-.1-.2h-.2l-.1-.1c-.1-.3.1-.8-.4-.9-.3-2.6-1.9-4.7-2.7-7.1 0-.6 0-1.7-1-1.8M17.1 151.1c-.5.4-1 .8-1.4 1.3-2.7 2.6-4.3 2.9-7.4 1.3-2.6-1.3-4.4-4.7-4.1-7.4.4-3.1 2.7-4.3 6.8-3.7.2.1.3.3.5.4.3.4.6.7.9 1.1 0 .2-.1.3-.1.5-.9.3-1.8.5-2.7.9-1.8.9-1.9 2.2-.3 3.4 1.4 1.1 3.1.8 4.7-1.1 1.3-1.5 2.4-3 3.3-4.8 3.2-4.3 6.3-8.7 9.6-13 .7-.9.3-1.4-.2-2.1-2.3-3.1-4.4-6.3-6.7-9.4-1.4-1.9-2.5-4.1-4.4-5.6-.7-1.8-1.8-3.3-3.7-4.1-1.3-.6-2.3.1-3.1.9-.7.7-.6 1.5-.2 2.4.5 1 1.6.6 2.3 1.1.4.3 1.4-.1 1.3.8 0 .7-.6 1.2-1.2 1.4-1.7.6-3.5.4-5-.6s-1.9-2.5-1.7-4.2c.7-5.5 5.5-8.8 11-5.5l6.4 7.4.1.1c.2.2.4.5.6.7l.1-.2-.1.2c.2.3.5.6.7 1l.1.1c.2.2.4.5.6.7 3 4.3 6 8.6 9.1 12.8.7.9.7 1.5 0 2.5-1.4 1.9-2.7 3.8-4 5.7v.1c-4.1 4.9-7.7 10.1-11.8 14.9zM82.8 44.2h-1.5c-7.5-.9-15.1-1.4-22.6-2.7-1.8-.3-3.6-.6-5.3-1.1-2.7-.8-4.9-3.6-4.8-6.1.1-3.3 2.7-6.8 5.6-7.3 3.1-.6 5.6 2.5 5 6.2-.3.1-.6.3-1 .4l-.9-1.2c-.6-.8-1.4-1.6-2.5-1.3-.9.3-1.3 1.2-1.4 2-.1 1.1.2 2.1 1.3 2.6.8.4 1.7.9 2.6 1 6.9.8 13.9 1.4 20.9 2.2 1.2.1 1.8-.3 2.3-1.4l7.2-15.9c.7-1.6 1.6-3.1 1.9-4.9.2-1.1 0-2.2-1-2.9-.9-.6-1.9-1.2-3-.2-.1 0-.2.1-.2.2-.9.9-.4 1.9-.1 2.9.4 1.5-.3 1.8-1.6 1.5-2.3-2.1-3.1-4.3-2.1-6.3 1-2.1 4.2-3.4 6.8-2.9 4.8.9 7 4.4 5.5 9.2-2 6.5-5 12.6-7.8 18.8-1.1 2.3-2.2 4.8-3.3 7.2m147.1 85.5c.1-.3.1-.7.2-1 5-6.9 10-13.8 15.2-20.5l2.3-2.3c2.2-2 5.3-2.4 7.7-1 2.6 1.5 4.3 4.9 3.8 7.6-.4 2.2-1.9 3.2-3.9 3.5-.9.1-1.9-.1-2.8-.1-.3-.3-.6-.5-.9-.8-.7-2 1.2-1.2 1.9-1.8.8-.6 2-.9 1.8-2.1-.2-1.3-1.3-2-2.5-2.1-1.4-.2-2.4.7-3.3 1.8h-.1v.1c-1.1 1.6-2.2 3.1-3.4 4.7h-.1v.1c-.1.2-.2.3-.3.5-3 4.1-5.9 8.1-8.9 12.2-.6.7-.5 1.2 0 1.9 4.1 5.7 8.2 11.4 12.2 17.1.7 1 1.6 1.7 2.7 2.2 1.6.6 2.8-.2 3.4-1.5.8-1.5-.7-1.9-1.6-2.6-.7-.5-2.3.1-2-1.4.3-1.3 1.7-1.5 2.9-1.5 3.6 0 5.5 2.4 4.8 5.9-.6 2.9-2.3 5-5.1 5.8-2.7.8-5-.1-6.9-2.2-3.8-4-6.9-8.5-10.2-12.9-2.2-3-4.3-6-6.5-9-.1-.1-.3-.3-.4-.6M58.2 224.6c.2 0 .3 0 .5.1.9 2.4.5 3.9-1.4 5.4-1.8 1.4-3.4 1.4-5.4.1-2.5-1.7-3.7-4.2-3.4-7.1.4-3.2 2.5-4.9 5.6-5.6 6.4-1.5 12.9-1.9 19.4-2.7 2.5-.3 5.1-.4 7.6-.7.8-.1 1.4-.1 1.8.8 3.9 8.6 8.2 17.1 10.9 26.2.9 2.9-.5 5.9-3 7.3-2.9 1.6-7 1.1-8.9-1-2.3-2.6-.7-6.7 3-7.5 0 .1.1.2.2.2-.1.7-.2 1.4-.3 2.2-.3 1.2-.3 2.5 1.2 2.8 1.4.3 2.4-.3 3-1.6.6-1.4.2-2.7-.4-4-2.8-6.3-5.6-12.5-8.4-18.8-.5-1.1-1.1-1.5-2.3-1.3-7 .7-13.9 1.3-20.9 2.1-1 .1-2 .4-2.8 1.1-1.2 1-1.4 2.8-.4 3.9 1.2 1.4 2.2.3 3.2-.4.3-.5.7-1 1.2-1.5"/><path clip-path="url(#SVGID_2_)" fill="rgba(137, 128, 195, 0.27)" d="M249.7 125.5c0-.4.1-.7.1-1.1.3-.3.5-.6.8-.9h.1v-.1l.6-.3h.2l.1-.1c3.2-1.4 5.4-.4 6.1 3.1.2 1 .6 1.1 1.4 1.1 2 0 3.4.8 4.2 2.8l-.1.1c-1.4 1-2.6 2.3-4.6 1.9-.9-.2-.7.6-.8 1.1-.3 1.9-1.3 3.2-3.3 3.6-2 .4-3.3-.9-4.5-2.2-.4-.4-.5-.8.2-1.1 1.4-.5 1.5-1.6 1.1-2.8-.2-.8 0-1.6.1-2.3.3-1.6.1-2.8-1.7-2.8M69.2 29c-.8.7-1.5-.2-2.3-.1-3.8-2.2-4-4.1-.9-7.3.4-.4.7-.7.2-1.2-.2-.1-.2-.2-.3-.4-1-1.6-.7-3.2.1-4.7.4-.7 3.5 1.1 4.2 2.3.3.5.2 1.4 1.3.8 1.9-1.1 3.7-.8 5 .9 1.4 1.8.9 3.7 0 5.5-1.7-1-3.1-.2-4.5.9-1.7.4-3.4.8-2.8 3.3m117.2 204.5c.2 0 .5.1.7.1 1.1 1.2 2.2.7 3.2 0 .5-.3.8-.9 1.5-1.1 1.9-.3 2.7-1.4 2.3-3.4h.1v-.1c.8.3 1.7.4 2.5.8 3.1 1.4 3.6 4.6.9 6.8-.8.6-1.1 1-.3 1.8.2.1.3.3.3.5.5 1.5.7 3.5-.6 4.2-1 .6-3-.4-3.6-1.7-.8-1.6-1.4-1.5-2.9-1-2.3.8-4.6-1.3-4.6-3.8 0-.6-.1-1.3-.2-1.9.1-.1.1-.2.1-.3.5-.1.6-.4.6-.9m-110.7-.1c2.3.6.9 2.5 1.3 3.8-.9 2.3-2.8 3.9-4.5 3.1-2.2-1.1-2.8.1-3.5 1.7-.2.1-.4.1-.6.2-1 .2-2.1 1.6-3 .4-.9-1.1-.8-2.8 0-4 .7-1.1.7-1.5-.3-2.4-1.3-1-2-2.5-1.2-4.3.8-1.8 2.4-2.4 4.1-2.9.5-.2.8.1.8.7 0 .2-.1.4 0 .7.3 1.9 5.3 4.1 6.9 3M12 128.8v.9c-.7 1.9-.1 3 1.8 3.6l-.6.9c-.6.4-1.1.9-1.7 1.3-2.5 1.6-5.3.3-5.9-2.8-.2-1.1-.5-1.5-1.6-1.3-1.5.3-2.4-.9-3.5-1.5-.7-.4-.5-1.1.1-1.6 1-.9 2.1-1.8 3.6-1.7.5.1 1 .3 1.3-.6 1.5-4.7 3.6-5.3 7.5-2.2.2.2.5.3.7.5 0 .2 0 .3.2.3-2.1.8-2.6 2.2-1.9 4.2M187.5 25.1h-.5c-.4-.9-.6-1.9-.6-3 0-3 2.4-4.9 5.3-3.7 1.1.5 1.6.3 1.9-.7l.3-.6c1.1-1 2.6-2.2 3.8-1.4 1.2.8 1.2 2.8.3 4-.9 1.3-.6 1.8.4 2.7 1.6 1.4 1.8 3.3.6 5.1-1.2 1.1-2.7 1.8-4.3 1.9 0-.1-.1-.2-.2-.2.2-2.1-4.2-5.7-6.1-5-.5.3-.7.6-.9.9M86.8 143.4c1.4-4.9-.4-9-3.3-12.7-.9-1.2-1-1.8 0-3.1 6.5-8.2 4.5-18.1-4.4-22.3-6.3-2.9-11.8-2.2-16.7 2.3l-.1.1-.4.4-.1.1c-.6.4-1.1.9-1.8 1.4-.1-.3-.3-.6-.3-.8-1.8-7.7-3.6-15.4-5.5-23.1-.3-1.3.2-1.6 1.2-1.9 7.9-2.3 15.7-4.7 23.5-7.1 0 .4.1.8.1 1.1-3.3 9.1 1.5 16.7 9.5 19.6.2.1.4.1.6.2.3 0 .6.1.9.1 3.5 1 6.7.6 9.7-1.4.2-.1.4-.2.6-.4l.1-.1c.1-.1.2-.2.4-.3h.1v-.1c1.2-.6 2-1.7 2.7-2.8l.1-.1c.4-.2.4-.5.4-.8 1.6-1.3 2-3.2 2.6-5.1.4-.1.9-.1 1.3-.2.4 0 .8.1 1.2.1.2 0 .4 0 .5.1 1.3.4 2.6.4 3.8 0 .5 0 .9-.1 1.4-.1 5.9-1.2 10.4-5.5 10.9-11.3.9-9.7-3.5-15.8-13.3-17.9 3.9-3.8 7.7-7.4 11.4-10.9h.1v-.1c1.1-.8 2.1-1.6 2.8-2.7l-.1-.1.1.1c.2-.2.5-.3.7-.5 1.4-1.1 2.6-3.4 4.1-3.2 1.5.2 2.7 2.2 4 3.4 4.7 4.4 9.5 8.8 14.2 13.2.6.8.5 1.2-.5 1.4-1.9.4-3.7 1-5.3 2.2-2.8 1.4-4.7 3.5-5.6 6.5-4.6 9.7 1.8 20.2 12.4 20.4 1.4 0 2.8 0 4.1-.3.9-.2 1.3.2 1.7.8.2 1.7 1.1 3.2 2.1 4.5.9 1.2 1.4 2.9 3.2 3.2.6.1 1 .5 1.4.8 2.8 2.3 6 2.9 9.5 1.8.8 0 1.6-.3 2.3-.7.1 0 .2-.1.3-.1 2.4-.8 4.3-2.3 5.8-4.3.7-.5 1.3-1.2 1.7-1.9 2.9-4.4 2.2-9.1.9-13.7l.3-.3c.4.2.7.4 1.1.6 7 2.1 14 4.2 21.1 6.3 2.8.8 2.8.9 2.1 3.8-.3 1.3-.6 2.5-.9 3.8-1.3 5.9-3 11.6-4 17.6-.2.4-.5.8-.7 1.1-6.4-7.3-15-8.3-22.2-2.4-4.8 3.9-6.2 10.4-3.9 15.7.2 1.8 1.3 3.2 2.5 4.5 1.2 1.3 1.1 2.1 0 3.4-2.6 3-3.8 6.6-3.6 10.6.3 5 2.8 8.6 7 11 1.8 1 3.7 2 5.9 2.2 4.4.6 8.3-.7 11.5-3.8 1-.3 1.7-1.1 2.2-2 .3 0 .6-.1.9-.1.2 1.2.4 2.4.7 3.6 1.1 4.8 2 9.6 3.4 14.3.4 1.6-.1 3.6 1.5 4.8-.1.7.1 1.2.5 1.8 0 .2-.1.4-.1.7l-.1.1c-8.4 2.5-16.8 4.9-25.2 7.4l-.1-.1.3-1.2c1-4.9 1.5-9.7-2.2-13.8l-.1-.1c-2-2.2-3.9-4.6-7.2-5-3.1-1.4-6.2-1-9.3-.4-1.2.2-2.3 1-3.4 1.7-3.4 2.4-4.8 6-6.3 9.6l-.1.1c-3-1.3-6.2-1-9.1-.2-6.8 2-10.3 7.9-9.5 15.3.7 7 5.9 12.3 12.8 13.1.2.3.3.7.1 1.1-1.2.7-2.2 1.8-3.1 2.8l-.1.1c-.1 0-.2.1-.3.2-.1 0-.2.1-.2.2-4.6 4.3-9.2 8.5-13.7 12.8-1 .9-1.4.9-2.4 0-5.4-5.3-11-10.4-16.5-15.7-.4-.4-1.3-.4-1.1-1.1.2-.7.9-.5 1.5-.7 8.4-2.2 13-9.2 11.5-17.7-.6-3.5-2.1-6.8-5.5-8.6-4.1-3.1-8.7-3.1-13.4-2.3-1.3-4-3.2-7.6-7-9.8-3.1-2.3-6.7-2.5-10.2-1.5-5.8 1.7-10 5.1-11.5 11.3-.4 2.7-.5 5.4.5 8 0 .1-.1.2-.1.2l.1.1c0 .1.1.3.2.3l-.3 1.2c-.6-.7-1.6-.7-2.4-1-6.9-2.1-13.8-4.2-20.7-6.2-1.4-.4-1.8-.9-1.4-2.4 1.6-6.3 3.1-12.6 4.6-18.8.4-1.5.4-3.2 1.4-4.7 9.4 9.1 22.6 7 26.4-3.9 0-.1.1-.3.1-.4.5-.3.6-.6.7-.9m-12.3 15.8h-3.9c-.9-.2-1.7-.3-2.6-.5-1.4-.4-2.8-.6-4.1-1.2-1.3-.6-1.5 0-1.5 1-.2 1.3-1.1 2.5-.4 3.9-.5.1-.7.5-.7 1-.4 1.8-.8 3.7-1.2 5.5-.2.9-.3 1.7 1 2 1.6.3 3.1.8 4.6 1.2 1.4.6 2.9 1.2 4.4 1.4 2.6 1.1 2.5 1.1 3.1-1.6.3-1.5.9-3 1.3-4.5 2.6-5.9 7.2-9.2 13.2-11.2 8.9-3 18.3 2.9 21.6 7.9.8 1.2 1.5 1.5 2.9 1.7 7.5 1.1 13.4 4.5 16.7 11.8.9 2.1 1 4.4 1.7 6.5.5 6.3-1.8 11.5-6.3 15.9-3 2.9-2.9 2.9.5 5.6l.6.6c1.7 1.5 3.4 3 5 4.6.8.8 1.3.8 2.2 0 2.4-2.3 4.9-4.6 7.5-6.7 1.5-1.2 1.4-1.7 0-3-4.9-4.2-8.1-9.3-7.5-16.1.2-2.7.9-5.3 1.3-7.9 2.1-2.9 4.2-5.7 6.9-7.9 2.7-1.7 5.7-2.9 8.8-3.2 2.3-.2 3.5-1.1 5-2.8 5-5.8 13.2-10.3 23.4-5.9 7 2.7 10.7 8.1 11.8 15.2.3 2.2.7 2.6 2.5 1.6.2-.1.5-.3.7-.4.1 0 .2 0 .4-.1 1.3-.3 2.7-.4 3.8-1.3h.1v-.1c1.5-.4 3-1.1 4.6-1.2 1.4-.1 1.4-.6 1.1-1.6-.6-2.6-1.2-5.2-1.7-7.9-.8-4.2-.8-4.2-4.8-3.1-.3-.2-.5 0-.6.2-5.9 1.3-11.5.5-16.5-3.1-.3-.3-.7-.6-1-.9-.6-.5-1.2-1.1-1.8-1.6-.8-1.2-2-2-2.7-3.4-3.4-6.3-3.4-12.7-.6-19.2.3-.7.8-1.4.3-2.2-2.7-5.2-2.6-10.6-1.3-16.1 2.8-6.8 7.8-11.1 14.9-12.8 3.9-1 7.8-.1 11.5.9.7.2 1.7.9 1.7-.7.2-.3.7-.5.5-1 1-3.2 1.5-6.5 2.3-9.8.3-1.2-.5-1.2-1.1-1.4-3.4-1.1-6.8-2.2-10.1-3.4-1.4-.5-1.7.1-1.8 1.2-.4 2.9-1.5 5.5-2.7 8-.1.3-.3.5-.5.8l.2.1-.2-.1c-4.9 6.8-15.3 11.5-25.1 7.1-3.3-2.2-6.6-4.6-8.7-8.2-.3-.5-.6-.6-1-.6-3.2.1-6.2-1-9.1-2.2-.1-.7-.8-.8-1.3-1.1-4.5-2.8-7.5-6.6-8.6-11.9-.2-.9 0-1.9-.6-2.7v-5.4c1.3-5.3 4.1-9.6 8.3-12.9.9-.7.6-1.1 0-1.7-2.7-2.4-5.5-4.8-8.1-7.3-.9-.8-1.4-.7-2.2.1-1.6 1.5-3.3 3-5 4.5-.9.8-1.7 1.6-2.7 2.3-1.2.9-1.3 1.5 0 2.6 3.9 3.2 6.8 7.2 7.6 12.4.6 3.8-.3 7.4-1.1 11-1.5 3.2-3.5 6-6.5 8.1-2.1 1.6-4.6 2.4-6.9 3.7-1.4.6-2.9.6-4.4.5-1-.1-1.3.4-1.9 1.1-8.8 12.3-23.9 11.8-32.5 1.5-2.3-2.8-3.5-6.2-4-9.8-.2-1.2-.4-1.8-1.9-1.3-3.2 1.2-6.5 2.3-9.7 3.2-1.5.4-1.7 1.2-1.4 2.5.6 2.4 1.2 4.8 1.7 7.2l.1.5c.1.4.2.9.2 1.3.1 1.8.6 2.5 2.6 1.7 3.7-1.5 7.7-1.8 11.6-1 6 1.3 10.1 5.2 13.5 10v.1l.1.1c.5 1.2.9 2.3 1.4 3.5 0 .2 0 .3.1.5 0 .3.1.6.1.9 0 .1-.1.1-.1.2s.1.2.2.3c0 .2.1.5.1.7v6.2c0 .2-.1.4-.1.6h-.1.1c-.4.6-.4 1.3-.4 2-.4.9-.6 1.8-1.1 2.6-.9 1.4-.8 2.4-.1 4 2.6 6 2.7 16.6-4.1 22.4-3.1 2.6-6.4 4.7-10.3 5.8-.2 0-.5 0-.7.1-.1.1-.3.1-.5.1m104.3 51.3c-.2.2-.4.3-.6.5-.7-.4-1.3-.9-2-1.2-1.7-.9-3.2-1.8-4.3-3.5-1.4-2.2-.5-4.4-.5-6.5.4-.1.9-.2 1.3-.3 4.7.9 6.3 3 6.2 7.9 0 .9-.1 2-.1 3.1m-8-154l.1-.1-.1-.1c.1-.7.1-1.4.2-2.1l-.1.1c.8-.2.6-1 .9-1.5 1.5-2.7 4.2-3.5 6.5-4.9h.7c0 1.9.1 3.8.1 5.6 0 2.8-3.4 6.1-6.2 5.8l-.2-.1-.2.1c-1.5-.5-.8-2.1-1.7-2.8m42.1 73.4c0-.4-.1-.7-.1-1.1 3.4-4.1 6.6-3.5 9.2-2.1 1.3.7 2.5 1.5 3.7 2.3v.6c-3.9 3-8 4.9-12.5 1.1 0-.2-.1-.5-.3-.8M90.7 199.2c.2.1.4.3.6.4 1.4 4.2.8 6.3-2.7 9-.3.2-.4.6-.6.8-1.3-.2-2.4 1.7-3.9.5.2-2.4-.4-4.9.6-7.3.4-.2.4-.6.5-1l-.1.1.9-.9c1.4-1 3-1.4 4.7-1.6m-51.3-71.8c1.3-.4 2.3-1.4 3.7-1.7 3-.7 5.2.6 7.1 2.6 0 2.5-2.8 4.6-5.8 4.3-2.5-.2-4.4-1.6-6.4-3-.6-.4-.5-.8 0-1.2.5-.3 1-.7 1.4-1m45-80c3.4 1.5 6.7 2.6 7.7 6.5.4 1.7.4 3.8-.9 4.6-1.5 1-3.3 0-4.7-1.3-1.3-1.2-2.1-2.6-2.1-4.4v-5.4"/><path clip-path="url(#SVGID_2_)" fill="rgba(137, 128, 195, 0.27)" d="M136.3 164.8c-.7 1.7-1.9 3-3.3 4.2-1.1 1-2.2 1-3.2 0-1.6-1.6-3.5-3.1-3-5.9.2-1.1-.4-.9-1.1-.9-3.1 0-5.3-1.4-6-3.8-.7-2.4.9-6.2 3.2-7.6 0 0 .2.1.3.2-.1.4-.1.8.3 1.2 1.6 1.7 3.9 1.3 6.1-1 1.1-.6 1.2-1.8 1.9-3 .6 1.1 1 2.2 1.7 3.1 1.9 2.5 4.7 2.6 6.6.1.6-.8.9-.3 1.3.1 3.6 3.5 3.3 7.6-.9 10.4-.6.1-1.2.4-1.7.3-2.2-.4-2.5.8-2.2 2.6m30.8-15.3l-.3.6c-.8.2-1.5.5-2.3.7-1.8.6-3.6 1.1-5.2-.1-1.4-1.1-1.9-.4-2.1.9h-.1v.1c-.8 1-1.8 1.7-2.9 2.4-4.5.5-6.8-1.1-8-5.4-.2-.6-.5-1 .6-1.1 3.1-.3 4.5-3 3.2-5.9-.4-.8-1.3-1.4-1.3-2.7 1.1 0 2.2.1 3.3 0 2.9-.4 4.4-2.8 3.2-5.4-.5-1 0-1.1.7-1.2 5.4-1.1 9.4 1.1 8.1 7.5-.2.9-2 1.9-1 2.3 3.4 1.3 3.6 4.3 4.1 7.3M117.5 111c-1.7-.4-3.2-.3-4 1.4-.9 1.8-.9 3.5.2 5.2.3.5 1.1 1.1.8 1.7-.4.8-1.3.2-2 .2-2 0-3.6.6-4.6 2.4-.4.7-.7 1.5-.4 2.1 1.9 3.1-.8 2.3-2.1 2.5-2.2.3-4.3-.2-5.6-2.2-1.3-2.1-1.3-4.5.2-6.6.7-.9.5-1.1-.5-1.6-2-.9-3.7-4.5-3.3-6.7.1-.5.2-.8.7-1 2.5-.8 4.9-1.8 7.4-.2.6.3.8.3 1.1-.3 1.3-2.4 3.4-3.8 6.2-3.6 3 .3 4.2 2.5 5.1 5 .3.5.5 1 .8 1.7M130 89.1c2.4-1 6.3 2.1 6.4 5.2 0 1.5.2 1.9 1.8 1.8 2.6-.2 4.8 1.7 5.3 4 .5 2.2-1 6.1-2.7 7-.6.3-.7 0-1-.4-1.8-2.2-4.5-2.2-6.4 0-.8.9-1.3 1.9-1.7 3.3-1.4-1.6-1.6-3.9-3.7-4.7-2.2-.8-3.8-.2-5 2-2.6-1.8-4-4.8-3.3-7.4.6-2.3 2.7-3.7 6.1-4 1.1.5 1.1-.2 1-.9-.2-1.7.6-2.9 1.6-4.1.6-.5 1.4-.9 1.6-1.8m15.8 21.7c.7-1.4 1.1-2.7 1.8-3.8 2.3-3.8 7.5-3.8 9.6.2.6 1.1.9 1.6 2.2.7 2.4-1.5 4.8-.3 7.1.5.5.2.6.6.6 1.1-.3 2.6-.6 5.3-3.5 6.6-1 .5-.9.8-.4 1.6 2.7 4.6.4 8.8-4.9 8.8-1.1 0-2.3-.3-3.5-.5 2-3.7.1-6.6-4.1-6.5-.6 0-1.4.5-1.9-.1-.5-.8.4-1.3.8-1.9.7-1.1 1-2.3.8-3.5-.3-2.2-1.6-3.2-4.6-3.2M99.5 140c-.8-2.4-.9-4.8 1.1-6.7 2.3-2.1 5.1-1.6 7.8-.9-2.4 3.7-.6 5.8 5.9 6.8.1 1-.7 1.5-1 2.3-1.3 3-.1 5.6 3.1 6 .8.1.8.4.7.9-1.7 6.2-6.7 7.4-10.5 3.8-.3-.5-.6-1-.8-1.5-.2-1-.6-1-1.4-.5-2.6 2-5.1.6-7.6-.3-.4-.1-.5-.4-.6-.8-.4-1.6 1.2-5.9 2.8-6.5 2-.7 1.4-1.5.5-2.6m32.1-20.3c.9 0 1.8.1 2.6 0 2.1-.1 3.5.7 4.4 2.6.7 1.4 1.5 2.8 2.4 4.2 1.3 1.9 1.2 3.8-.1 5.7-.9 1.3-1.6 2.6-2.3 4-.9 1.8-2.4 2.8-4.6 2.7-1.6-.1-3.2-.1-4.8 0-2.4.2-3.9-.9-4.9-2.9-.6-1.3-1.3-2.6-2.2-3.8-1.4-1.9-1.3-3.8-.1-5.7.4-.7 1.1-1.3 1.4-2 1.5-4.1 4.1-5.7 8.2-4.8m-4.7 16.7c1.5-.1 2.2-.7 2.8-1.3 1.3-1.3 2.6-1.3 3.9 0 .6.6 1.4 1.2 2.1.7.7-.5.4-1.5.1-2.2-.6-1.8.2-2.6 1.7-3.1.6-.2 1.1-.4 1.6-.6.4-.2 1-.1 1-.7s-.5-.6-.9-.8c-3.8-1.8-3.8-1.8-3.2-5.9.1-.3.3-.7-.1-1.1-1.4 1-2.7 2.5-4.3 2.7-1.7.2-2.8-2.1-4.6-2.8-.2 1.9 1 3.7.2 5.2-.8 1.6-3.2 1.3-5 2.9 4.5.7 6.5 2.7 4.7 7m-.3 64.8l.1-.1-.1-.1c.5-.7 1.1-.6 1.9-.5.9.1 1.9.2 2.6-.5 1.2.6 2.3 1.9 3.8.4.4-.4.6.1.8.3.6.8 1.2 1.7.8 2.8-.4 1-1 1.8-2.2 1.8-1 0-1.3.4-1.5 1.3-.2 1-.7 2.3-2.2 1.2-.7-1.3-.8-3.3-3.1-2.7-.9-1.1-2-2.2-.9-3.9m1.5-142.8c-1.5-1.3-1.8-2.9-1.1-4.8.5-.2 1.1-.5 1.6-.5 1.1 0 1.7-.3 1.8-1.6 0-.7.6-1.4 1.4-1.5.6 0 1.1.7 1.3 1.3.2 1 .6 1.5 1.8 1.7 2.2.5 2.8 2.9 1.2 4.6l-.3.3c-1.5-1.4-3.2.4-4.8-.3-.9-.4-1.9-.9-2.6.4-.1.2-.2.3-.3.4m-56 109.2c-.4.8-.7 1.6-1.1 2.4-1 .7-2.4 1.2-3.2.2-1.2-1.6-2.6-1.1-4.1-1-1-.7-1.3-1.5-.5-2.6 1-.3 1.6-.8 1-2-.3-.5-.2-1.2-.2-1.9 1.3-1.8 2.5-2 4.4-.9-.1.2-.4.6-.3.7 1.4 1.4 2.2 3.3 3.3 4.9 0 .1.3 0 .4 0 0 .2.1.2.3.2m-1.7-74.3c-.1.2-.1.4-.2.6-1.3.3-2.6.7-1.8 2.5v.7h-2.2c-1-.1-2.2-.7-2-1.6.6-2.3-.9-3.9-1.5-5.8.2-.1.4-.3.6-.4 1.6-.3 3.6.8 4.6-1.5h2.4c.4.6.9 1.1 1.3 1.7.3.5.6.9-.4 1.2-1.1.4-1.5 1.4-.8 2.6m129 70.4v.5c-.7 1-1 1.8.2 2.7.5.4.9 1.3.6 1.9-.5.7-1.5.8-2.2.5-1.2-.6-1.5.1-2 .9-1.2.7-2.5 1.2-3.5 0-.7-.8-2.2-1.8 0-2.7.4-.2.8-1 .7-1.2-1.1-1.6.5-2.1 1.2-2.9 1.3 0-.2-2.1 1.6-2 1.9-.1 2.8.7 3.4 2.3m-8.3-73c.3-.2.3-.5.2-.8 1.7-2.8 2.6-2.9 5.2-.8.6.5 1 .2 1.5.1.8-.2 1.8-.2 2.2.5.3.6-.1 1.5-.7 1.9-.9.6-.8 1.2-.6 2.2.4 2-.4 3.1-2.1 3.3-1 .1-2 .2-1.7-1.3.1-.9-.3-1.4-1.2-1.5-.3-.4-1.2-.5-.9-1.3.6-1.7-.4-2.2-1.9-2.3"/></svg>
