<svg viewBox="0 0 20 20" fill="none" xmlns="http://www.w3.org/2000/svg"><path d="M18.726 0H1.277C.572 0 0 .572 0 1.276v17.448C0 19.428.572 20 1.277 20h17.447c.704 0 1.276-.572 1.276-1.276V1.276A1.273 1.273 0 0 0 18.726 0zM16.59 12.187c.366.373 1.159.998 1.015 1.634-.133.585-1.005.371-1.852.405-.966.041-1.54.062-2.12-.405-.275-.221-.436-.484-.698-.777-.239-.266-.54-.741-.949-.723-.735.037-.505 1.061-.766 1.76-4.087.643-5.729-1.881-7.177-4.332C3.342 8.563 2.33 6.014 2.33 6.014l2.89-.01s.927 1.686 1.173 2.121c.209.37.439.663.676.994.199.273.514.81.858.766.56-.072.662-2.245.315-2.974-.139-.295-.47-.398-.813-.498.116-.731 3.242-.883 3.747-.316.734.824-.508 3.119.497 3.788 1.411-.74 2.616-3.836 2.616-3.836l3.385.021s-.53 1.674-1.084 2.416c-.323.435-1.396 1.403-1.354 2.122.034.568.906 1.122 1.355 1.579z" fill="#CCC"/></svg>