<?xml version="1.0" standalone="no"?>
<!DOCTYPE svg PUBLIC "-//W3C//DTD SVG 20010904//EN"
 "http://www.w3.org/TR/2001/REC-SVG-20010904/DTD/svg10.dtd">
<svg version="1.0" xmlns="http://www.w3.org/2000/svg"
 width="700.000000pt" height="700.000000pt" viewBox="0 0 700.000000 700.000000"
 preserveAspectRatio="xMidYMid meet">
<metadata>
Created by potrace 1.11, written by Peter Selinger 2001-2013
</metadata>
<g transform="translate(0.000000,700.000000) scale(0.100000,-0.100000)"
fill="#000000" stroke="none">
<path d="M0 3500 l0 -3500 3500 0 3500 0 0 3500 0 3500 -3500 0 -3500 0 0
-3500z m2812 2164 c262 -44 480 -164 700 -384 l127 -128 34 36 c247 272 550
433 902 483 130 18 369 16 490 -5 389 -67 740 -292 955 -611 48 -71 94 -155
88 -160 -2 -1 -147 -91 -322 -199 -239 -147 -322 -194 -328 -184 -5 7 -18 30
-28 50 -35 65 -117 155 -191 207 -186 131 -436 173 -657 111 -285 -80 -502
-332 -551 -640 -16 -95 -13 -266 5 -361 60 -322 288 -560 597 -626 89 -18 295
-13 382 11 119 32 222 92 310 180 45 45 96 107 114 139 31 55 34 57 55 44 11
-7 152 -91 311 -187 160 -95 296 -178 304 -185 11 -11 8 -23 -24 -75 -187
-307 -490 -552 -810 -655 -303 -97 -672 -94 -966 6 -244 83 -461 226 -634 418
l-36 40 -59 -68 c-144 -168 -350 -313 -549 -388 -167 -63 -388 -91 -578 -73
-322 30 -538 130 -738 342 l-85 91 0 -792 0 -791 -377 2 -378 3 -3 2143 -2
2142 380 0 380 0 0 -176 0 -177 85 91 c90 95 166 155 275 214 218 120 525 162
822 112z"/>
<path d="M2271 4920 c-240 -51 -438 -204 -547 -425 -71 -145 -87 -220 -88
-420 -1 -147 2 -182 22 -258 40 -152 98 -260 195 -363 157 -169 338 -244 584
-244 223 1 397 67 546 209 132 125 214 282 247 471 16 90 14 290 -4 380 -58
299 -268 540 -551 630 -56 18 -98 23 -215 26 -80 2 -165 -1 -189 -6z"/>
</g>
</svg>
