<svg viewBox="0 0 119 40" fill="none" xmlns="http://www.w3.org/2000/svg"><path d="M32.23 34.64a11.907 11.907 0 0 1-5.145 3.185 21.069 21.069 0 0 1-7.202 1.203 19.751 19.751 0 0 1-14.35-5.308 18.981 18.981 0 0 1-4.24-6.504 18.944 18.944 0 0 1-1.277-7.652A19.666 19.666 0 0 1 5.213 5.532C8.678 1.852 13.55.012 19.83.012a17.145 17.145 0 0 1 11.583 3.945l-3.85 6.477a14.642 14.642 0 0 0-7.733-2.318 10.364 10.364 0 0 0-7.628 3.025 11.355 11.355 0 0 0-2.98 8.423 11.352 11.352 0 0 0 3.193 8.263 11.232 11.232 0 0 0 8.213 3.097 13.38 13.38 0 0 0 8.23-2.76l3.371 6.476zm1.239-25.914V.62h31.61v8.106H53.63v29.701h-8.733v-29.7h-11.43z" fill="#36405C"/><path d="M70.656 38.427V.62h8.677v37.807h-8.677zm32.005-13.457v-8.09H119v16.815a17.56 17.56 0 0 1-6.478 3.886 22.905 22.905 0 0 1-7.767 1.466c-6.442 0-11.471-1.766-15.068-5.299a19.076 19.076 0 0 1-4.179-6.569 18.884 18.884 0 0 1-1.19-7.667 19.2 19.2 0 0 1 1.283-7.477 19.394 19.394 0 0 1 4.086-6.423 18.464 18.464 0 0 1 6.34-4.255 18.666 18.666 0 0 1 7.547-1.344 19.61 19.61 0 0 1 12.527 3.939l-3.579 6.959a11.961 11.961 0 0 0-7.821-2.809c-6.603 0-11.13 3.939-11.13 11.428 0 6.959 4.473 11.427 11.291 11.427a11.392 11.392 0 0 0 3.454-.6 7.7 7.7 0 0 0 2.416-1.29V24.97h-8.071z" fill="#79BD9D"/></svg>