<svg version="1.1" xmlns="http://www.w3.org/2000/svg" xmlns:xlink="http://www.w3.org/1999/xlink" x="0" y="0" viewBox="0 0 216.3 219.1" xml:space="preserve"><g opacity=".32"><defs><rect id="SVGID_1_" width="216.3" height="219.1"/></defs><clipPath id="SVGID_2_"><use xlink:href="#SVGID_1_" overflow="visible"/></clipPath><g clip-path="url(#SVGID_2_)"><defs><rect id="SVGID_3_" x="0" width="216.3" height="219.1"/></defs><clipPath id="SVGID_4_"><use xlink:href="#SVGID_3_" overflow="visible"/></clipPath><path clip-path="url(#SVGID_4_)" fill="rgba(63, 63, 63, 0.2)" d="M58.2 55.4c2.5 10.1 7.5 17.9 18 21.2 1 .3 1.6.8 1.8 1.9.2.9-.1.9-.8.7-6.1-1.6-11.1-5-15.2-9.8-3.5-4.1-5.6-8.8-6.5-14.2 0-.1 0-.3-.3-.4-.3 1.4-1.4 1.5-2.6 1.7-1.5.2-3 .6-4.4.9-.5.1-.7 0-.7-.5 0-3.5-.6-7-.2-10.5.1-.8.2-1.5 1-2.1-1 .2-1.9.3-2.9.6-.7.2-.8-.1-.7-.7.3-2 .3-2 2.3-2.5.6-.1 1.2-.3 2-.5-.9-.2-.9-.7-.8-1.4.5-2.9 1.5-5.6 2.2-8.4.3-1.3.5-2.5.3-3.8-.3-1.7-1.2-2.2-2.8-1.6-.1 0-.3.1-.4.1-1.1.4-1.2.4-1.2-.8 0-.9.1-1.8.2-2.7.3-1.5 1.1-2.6 2.6-3.1.4-.2.9-.3 1.3-.5 1.9-.6 3.7-1.3 5.3-3.1.3 2.6-.3 4.8-1.9 6.9 1.9-.4 3-1.3 3.8-2.7.4-.8.8-1.7.9-2.6.1-.8.5-1.1 1.2-1.2 1.4-.1 2.5-.7 3.4-1.8.5-.5.5-.9-.2-1.1-.6-.2-1-.6-1.1-1.3-.2-1.3 0-1.5 1.3-1.7 1.2-.2 2.5-.2 3.7-.2 1.3 0 2.6 0 3.8-.7.7-.4.8-.1.7.6-.1 1.3-.8 2.1-2.1 2.4-.6.1-1.1.3-1.6.5-.4.1-.8.3-.7.9.1.6.2 1.1.9 1.1 1.2.1 2.3.7 3.2 1.4.4.3.7.3 1 0 1.9-1.9 4-1.7 6.3-.7-.5.5-1.1.7-1.7.8-1.8.4-3 1.3-3.6 3.1-.6 1.7-2 2.7-3.8 2.9-1.4.1-2.5-.7-2.8-2-.1-.5-.4-1 .1-1.4.6-.4 1.2-.6 1.9-.4l.6.3c.2.1.4 0 .5-.2.1-.2-.1-.4-.2-.5-1.1-.8-2.4-.7-3.6-.2-1.3.5-2.5 1.4-3.5 2.3-4.2 3.8-7.5 8.2-9.5 13.5-.1.2-.1.4-.2.7v.3c1.9-.8 3.8-1.5 5.7-2.4 1.6-.7 3-1.6 3.7-3.3.3-.8.2-1.5-.4-2.1l-.5-.5c-.6-.6-.6-1 .1-1.6 1.5-1.3 3-2.6 5.2-2.1.5.1 1.3 0 1.5.6.2.7-.1 1.4-.7 1.9-.5.4-1 .6-1.2 1.2-.1.4-.1.6.4.5.9-.2 1.5-.6 2.1-1.4 1.1-1.5 3.2-1.8 4.7-.8.4.3.7.5.1.9-.8.5-1.4 1.2-1.8 2-.5 1-1.3 1.5-2.4 1.5-.3 0-.6 0-.8.3-.2.4-.4.8-.2 1.1.3.4.6 0 .9-.1 2.9-1 4.9-.7 6.5 1.2.1.1.1.2.2.4-.3.3-.7.2-1 .1-2.3-.3-4.3.3-5.5 2.5-.9 1.6-2.4 2.1-4.2 2.1 0-.5.4-.7.6-1 .6-.7 1.2-1.6.8-2.4-.4-.7-1.4-.2-2.1 0-2.6.6-4.2 2.5-5.3 4.8-1 2-1.5 4.3-1.8 6.5-.1.7.2 1 .8 1.1.7.1 1.4.3 2.1.4 1.1.1.9.9.8 1.6 0 .9-.7.4-1.1.4-.8 0-1.5-.1-2.3.1-.5.1-.7.3-.6.8.5 2.5.8 4.4 1.4 6.2M55.1 54c-.1-1.5-.3-2.9-.4-4.4 0-.6-.3-.6-.8-.5l-3 .6c-.7.1-.9-.2-1-.8 0-.8.3-1.3 1-1.4 1.1-.2 2.1-.4 3.2-.5.4 0 .6-.1.5-.6-.3-2.3.3-4.5 1.1-6.6.4-1.2.9-2.3 1.4-3.7-1.8.6-3.4 1.1-5 1.7v-1.2c-.9 1.5-.8 3.3-1.9 4.5 1 0 2.1.2 3.1-.2.4-.1 1.1 0 1.3.4.2.4.1 1-.1 1.5-.2.4-.7.5-1.1.5-1.3.2-2.7.4-4 .6-.1.1-.2.1-.2.2 1.3.2.9 1.1.9 1.8-.1 2.4-.3 4.7-.5 7-.1.7.2 1 .9.9.8-.1 1.6-.1 2.4-.2.7-.2 1.5-.2 2.2.4m-2.5-18.7z"/><path clip-path="url(#SVGID_4_)" fill="rgba(63, 63, 63, 0.2)" d="M43.5 38.5c-2-.4-3.7-.9-5.2-1.8-1.8-1.1-3.4-2.5-4.2-4.5-1-2.5.1-4.6 2.7-5.2 2.4-.6 4.2.3 5.7 2.2 1.4 1.8 1.7 4 2 6.2 0 .2.1.4-.2.5-.8.2-2.1-.5-2.3-1.3-.2-1.2-.6-2.3-1.2-3.3-.3-.5-.7-.9-1.2-1.2-.7-.4-2.6-.6-2.9-.2-.6.7-.1 1.6.2 2.3.9 2.3 2.9 3.3 5.2 3.8 1.7.4 3.5.4 5.2.4.7 0 1 .1.8.9-.2 1.2-.6 1.5-1.7 1.5-.6 0-1.4-.1-1.7.2-.4.4.1 1.1.1 1.7.1 2.4-.4 4.6-1.2 6.8-.5 1.5-1.2 3-1.5 4.7.6-.1.9-.5 1.3-.7.9-.6 1.8-1.3 2.8-1.8.7-.3.8-.1.7.6 0 .8-.5 1.3-1.1 1.6-2.2 1.3-3.8 3.1-4.6 5.6-.2.5-.2 1-.2 1.5.1 1.1.7 1.6 1.7 1.7 1.1.1 2.1-.1 3.3-.5-.8 2.1-2 3.5-4 4.1-1.8.5-3.1-.3-4.3-1.6-.2-.2-.3-.8-.7-.4-.4.4-1.1.6-.7 1.4 1.2 2.1.2 4-.5 6-1-.7-1.2-1.9-2-2.8-.7 2.1-1.9 3.8-2.4 6-.2-.3-.4-.4-.4-.6-.5-1.3-1.3-2.1-2.7-2.2-.2 0-.5 0-.5-.3 0-.2.2-.3.4-.4 1.1-.7 1.9-1.6 2.6-2.7.3-.5.7-.9 1.3-1.3-1.2-.4-2.6-.4-3.5-1.3 0-.2.1-.3.2-.3 1.4.1 1.9-.9 2.2-1.9.3-1 1.1-1.2 1.9-1.5.3-.1.9 0 .9-.5 0-.4-.4-.7-.8-.8-2.2-1-2.7-2.2-2-4.6.3-.9 1-1.1 1.7-1.4.3-.1.4 0 .5.3.1.3.2.7.2 1 .5 1.8 1.8 2.4 3.3 1.3 1.5-1 2.4-2.5 3.2-4 1.7-3.1 2.4-6.5 2.5-10 0-1.2-.1-2.3 1.1-3.2m54.2-27.9c-.3-1.3-1.2-1.8-2.2-2.2-2.6-1-5.1.6-5.2 3.4-.1 2.8 1.5 5.2 4.3 6.3.7.3.9.6.8 1.2-.1 1.1 0 2.2 0 3.4-.8-.4-1.2-1-1.8-1.2-1.6-.7-3.2-.3-4.7.3-2.7 1.1-4.8 2.9-6.8 4.9l-.6.6s-.1.1-.2.1c-.6-1.4.3-2.6.8-4-.5.1-1 .1-1.4.2-.6.1-1.3.1-1.9 0-.3-.1-.7-.1-.8-.4-.1-.4.3-.5.5-.7 1.1-.9 2.1-2 3-3.2.6-.8 1.3-1.2 2.3-1.2 1.1 0 2-.6 3.1-1.4-.2 1.1-.3 1.9-.4 2.6-.1.5-.1.8.6.6 1.2-.3 2.4-.5 3.6-.8.5-.1.9-.2.3-.8-1.3-1.3-2.4-2.8-2.9-4.7-.1-.5-.5-.4-.8-.3-.7.1-1.4.2-2.1.4-1.2.3-2.1-.1-3-.9-.4-.4-.9-.8-1.3-1.3-.7-.8-1.5-1-2.4-.5-.3.1-.6.2-.9.4-.5.2-.7.1-.6-.5.1-.5.2-1 .5-1.4.3-.5.2-.8-.3-1.1-1-.4-1.5-1.3-1.8-2.3-.1-.6.1-.9.7-.6 1.2.5 2.4.4 3.6-.1.9-.4 1.8-.8 2.7-1.1.8-.3 1.5-.4 2 .6.4.9.2 2.1-.7 2.6-.4.3-.9.4-1 1-.2 1.2.2 1.7 1.3 1.8 2.3.2 3.9-.8 5.1-2.7.1-.2.3-.5.4-.7.9-1.7.8-1.7-1-2.3-.8-.2-1.2-1-1.1-1.9.2-1.2.5-1.4 1.6-1.3.9.1 1.7.2 2.5.8 1.2.9 2.4.3 3.6-.3.3-.1.5-.5.8-.2.1.1.1.5.1.8-.1 1.1-.8 1.5-1.7 1.8-.7.2-1.4.4-1.9 1-.3.4-.3.7.3.8.7.1 1.3 0 2-.1.3 0 .5-.2.8-.2.8 0 1.7-.7 2.4.2.8 1.1 1.2 2.3.5 3.6-.4.4-.5.6-.7 1"/><path clip-path="url(#SVGID_4_)" fill="rgba(63, 63, 63, 0.2)" d="M25.8 41.1c.8-.3 1.3-.7 2-.8 1.2-.3 2.2-.9 3.2-1.6.9-.5 1.8-1 2.7-1.3 2.1-.6 3.9.5 4.5 2.5.1.4.1.6-.4.5-.6-.1-1.2-.3-1.9-.3-1.1.1-1.7.7-1.9 1.8-.2 1.1.5 1.5 1.3 1.9.9.4 1.9.3 2.9.1 1-.2 2-.5 2.9-.8.5-.1.7 0 .6.5v.2c-.4 2.4-.4 2.4-2.7 3.4-1.7.7-3.4 1.5-5 2.4-3.5 1.8-6.3 4.2-6.7 8.6-.7-.2-1.1-.7-1.6-1-.3-.1-.5-.4-.8-.3-.3.2-.2.5-.1.8 0 1.1.1 2.1.2 3.4-2-1.6-2.8-3.5-2.9-5.7-.1-2-.1-2-2-1.4-1.3.4-2.6.8-3.7-.6-.4-.5-.4-.8.2-.9 1.8-.4 2.7-1.8 3.5-3.3.6-1 1.2-2.1 1.9-3.1 1-1.6 3.1-1.8 4.6-.6.4.3.2.8.2 1.1 0 1.6-.1 1.6-1.6 2-.2.1-.4.1-.6.2-.3.2-.9 0-.9.4 0 .5.5.6.9.8 2.3.9 4.2-.4 4.6-3 .1-.9.5-1.2 1.2-1.4.4-.1.8-.2 1.1-.5.4-.4.7-.9.6-1.5-.1-.6-.6-.8-1.2-.9-.8-.2-1.6-.3-2.4-.4-.9-.1-1.7-.7-2.7-1.2m10.3 134c-.6 0-1.1.2-1.5.6-.6.5-.9 1.2-.7 2 .2.7.8.9 1.5 1.1.7.2 1.5.2 2.2.1.9-.1.8.2.5.8-.2.4-.5.9-.7 1.3-.2.4-.4.5-.9.5h-3c-.7 0-1.3-.2-1.9-.7-1.1-.9-2.4-1.5-3.8-1.8-.7-.2-1.3-.4-1.9-.9 1.4-.9 2.9-1.3 4.4-1.4.6-.1 1.2-.1 1.5-.8.4-1.1.2-1.8-1-2.1-1.2-.2-1.7-.8-1.8-2 0-.6-.3-1.1-.6-1.6-1.1-1.8-3.1-1.7-4.7-.6-.4.3-.3.6.1.7.7.2 1.3.3 2 .4.7.1.9.4.8 1v.5c-.1.9-.3 1.8-1.3 2.3-1 .4-1.8-.1-2.6-.8-1-.9-1.7-2.1-2.4-3.2-.9-1.7-2-3.2-3.9-3.9-.2-.1-.6-.2-.4-.5.2-.4.2-1 .9-1.1 1.4-.3 2.8-.2 4 .5.8.4 1.1.2 1-.7-.2-2.2.4-4.1 1.9-5.8.2-.2.3-.4.5-.5.1-.1.2-.1.4-.2-.1 1.2-.3 2.2 0 3.3.2.7.4.8 1 .3 1.4-1.2 1.6-1.3 1.9.4.9 4.3 4.2 5.9 7.6 7.6 1.9.9 3.7 1.9 5.6 2.8.5.3.6.9.7 1.4 0 .5-.1 1 .2 1.4 0 .3 0 .5-.4.4-.4-.1-.8-.2-1.1-.3-.1-.2-.3-.2-.5-.1-.1 0-.2-.1-.3-.1-.1-.1-.3-.2-.5-.1-.2 0-.4-.1-.5-.1-.2-.2-.4-.2-.7-.1-.2 0-.4 0-.6-.1-.3 0-.7 0-1 .1"/><path clip-path="url(#SVGID_4_)" fill="rgba(63, 63, 63, 0.2)" d="M40.8 169.5l-.4-1-.1-.2c-.7-1.5-1.5-2.9-2.8-3.9-.6-.5-1.3-.9-2-1.1-1.4-.3-2.2.4-2.1 1.9 0 .4.2.8.3 1.2-1.7.1-2.8-.8-3-2.4v-.2c-.2-2.1.1-2.5 1.9-3.3.2-.1.4-.2.7-.2.3-.1.5-.4.5-.7 0-.4-.3-.5-.5-.5-1.7 0-2.2-1.3-2.8-2.5-.2-.5-.5-.8-1.1-.8-.3 0-.5-.1-.9-.3 1.1-.9 2.4-1.1 3.6-1.4-1.7-1.3-2.4-3.5-4.4-4.4 1.6-.6 3.2-1.1 3.6-3.2l.2.2c.8 1.9 1.6 3.9 2.4 5.9.8-.9 1.1-2.1 1.9-2.9.6 1.4 1 2.7 1.1 4 .1.5.1 1.1-.3 1.5-.2.2-.2.4-.2.7.1.5.3 1.1.7 1.3.4.2.6-.5.8-.7 1.7-1.9 5-1.7 6.8.4.5.6.9 1.3 1.3 2.1-.6.2-1.1-.1-1.6-.2-2.5-.6-3.8.7-3.3 3.2.6 2.6 2.2 4.3 4.4 5.5.9.5 1.2 1 1.3 2 0 .6-.2.7-.7.5-1.2-.5-2.2-1.3-3.2-2-.2-.2-.5-.3-.7-.5-.3.1-.2.2-.2.3.9 2.9 1.9 5.7 2.7 8.6 0 1 0 2 .1 3 0 .6-.1 1-.9 1.1-.7 0-1.3.2-1.4-.8-.2-1.3-.4-2.5-.7-3.7.1-1-.1-1.9-.4-2.8 0-.2-.1-.4-.1-.6.1-.2 0-.3-.1-.5 0-.2-.1-.4-.1-.6.1-.2 0-.3-.1-.5 0-.1-.1-.2-.1-.4.1-.2 0-.3-.1-.5 0-.1-.1-.2-.1-.4.1-.1.1-.2.1-.2m23.7 1.2c0-.9.3-1.5 1.1-1.8 7.7-2.6 13.3-7.7 17.4-14.6 2.2-3.6 3.6-7.5 4.9-11.5.1-.4.2-.9.6-1.1.4-.2.9-.1 1.3.1s.1.6.1.9c-.7 3.5-1.9 6.9-3.6 10.1-3.8 7.5-9.7 12.9-17 16.9-1.2.7-2.6 1-3.8 1.6-.8.4-1.1.2-1-.6m24.6-93.2c-.8.1-1.1-.5-1.3-1.2-1.1-4.6-2.9-8.9-5.6-12.8-3.4-5-7.6-9-13-11.8-1.1-.6-2.2-.9-3.4-1.3-1.1-.3-1.5-1.3-1.2-2.3.2-.7.6-.3.9-.2 2.8.9 5.4 2.1 7.8 3.7 6.4 4.2 10.8 10 13.9 16.9 1.2 2.6 2.1 5.2 2.9 8 .1 1 .1 1-1 1m-41.5 90.7v-5.8c0-.4.1-.7.6-.6 2 .6 4.1 1.1 6.1 1.6 1.1.3.5 1 .5 1.5 0 .6-.4.8-.9.8-1.1 0-2.2-.1-3.2-.2-1.4-.1-1.4-.1-1.3 1.3l.6 7.2c.1.8-.1.9-.9.7-1.8-.5-1.8-.4-1.8-2.2v-4.4h.3zm38.6-27.1h-3.7c-.4 0-1 0-1-.7s0-1.3.8-1.5c3.1-.4 6.2-.6 9.3-.4.3 0 .4.2.4.5-.2 1.2-.9 1.9-2.2 2-1.3.1-2.4 0-3.6.1zm2.3 8.9c.2-1.6 1-2.5 2.5-2.5.7 0 1.4-.2 2.1-.4.5-.1.7-.1.7.6-.2 1.2-.7 1.8-2.1 2.1-1 .1-2.1.1-3.2.2m-47.6-20.8c-.9.3-1.3-.2-1.6-1.1-.2-.6-.5-1.2-.8-1.7-.5-.9-1.2-1.4-2.3-1.4-1.1 0-1.6-.6-1.8-1.6-.1-.5 0-.7.5-.7 3 .1 6.1 2.2 7.1 5 .5 1.5.5 1.5-1.1 1.5"/><path clip-path="url(#SVGID_4_)" fill="rgba(63, 63, 63, 0.2)" d="M.3 103.6c-.5.9-.3 3.5 1.2 4 .6.2.9-.7 1.4-1 1.1-.7 1.8-.7 2.7.2.7.6 1.4 1.3 2.4 1.7.3.1.8.5 1-.1.1-.5.3-1.2-.5-1.5-1.1-.5-1.8-1.6-1.7-3.1 0-1.6 1-3.1 2.3-3.5 1.2-.4 2.5.1 3.3 1.1.4.5.8 1.5 1.5 1.3.6-.2.4-1.2.6-1.9.1-.6.1-1.1 0-1.7-.2-2.1-1.5-3.2-3.8-3.3-.7 0-1.5.4-1.9-.1-.3-.4-.2-1.2-.3-1.9-.2-1.5-.5-3.1-.5-4.6 0-1.5.5-2.6 2-3.1 1.3-.5 2.1-1.4 2.2-2.7.1-.9.4-1.3 1.3-.9.3.1.7.1 1.1.2 1.5.1 2.1-.4 2.5-1.9.2-.7.2-1.5.4-2.2.2-1.1 1.2-1.8 2.2-1.6 1 .2 1.6 1.1 1.5 2.3-.1.8-.4 1.6-1 2.2-.8.9-.9 1.9-.5 3 .4 1.3.7 2.6-.2 3.8-.1.2-.1.4-.4.4-.2 0-.3-.3-.3-.4-.1-.3-.3-.6-.4-.9-.3-.5-.4-1.2-1.3-1.1-1 0-1.5.4-1.9 1.2-.2.6-.3 1.2-.3 1.8-.2 1.7-.7 3-2.5 3.5-.7.2-.7.5-.2.9 1.2 1 2.5.9 3.9.6 1.1-.3 1.1-.3 1 .8-.2 2.1-.4 4.3-.6 6.4-.2 2.3-.9 4.2-3.2 5.3-.1 0-.2.1-.2.2-.3.3-1 .5-.7.9.2.4.8.6 1.4.5 2.9-.4 4.9-2 5.7-4.9.5-1.8.6-3.6.7-5.4 0-1.3.2-2.6.4-3.9.1-.8.5-1 1.3-.9 1 .2 1.6.8 2 1.8 1.7-1.5 2-2.9 1.2-4.8-.6-1.5-1.3-2.9-1.7-4.4-.1-.2-.1-.4-.2-.6-.9-3.6.8-4.5 4.2-4.2.5.1.6.4.8.7.5 1 .7 2 .7 3.1 0 .7.2.8.8.5 1.2-.6 2.3-1.2 3.6-1.7 1.2-.4 2.4-.4 3.6.2 1.2.6 2.1 1.6 3.7 1.5-.5.5-.9.4-1.2.5-1.4.3-2.8.7-3.8 1.8-.6.7-1.1.7-1.9.3-.4-.2-.8-.3-1.3-.3-1.9-.4-3.5.6-4 2.5-.4 1.8.1 3.4 1.5 4.7.2.2.4.4.6.3.3-.1.1-.4.1-.6 0-.5-.2-1.1-.4-1.6-.1-.3-.3-.6-.3-.8-.1-.7-.2-1.8.3-2 .7-.3 1.3.6 1.9 1.1.3.2.1.6 0 .9-.5 1.6-1 3.2-1.2 4.9-.4 3.5 2.1 8.9 6.9 10.2-1.1.3-2.8-.1-4.3-.8-1.3-.7-2.4-1.6-3.6-2.5-.6-.4-1.2-.6-1.9-.5-2.1.3-4.1 0-5.8-1.5-.5-.5-.6-.2-.8.3-.3 1 0 1.8.7 2.5.4.5.8.9 1 1.5.2.7 0 1.2-.8 1.3-.2 0-.4.1-.6 0-2.9-.6-5.1 1.3-7.6 2 .1.5.4.5.7.6 1.2.4 2.4.9 3.5 1.5.7.4 1.5.5 2.4.4.4-.1.9-.1 1.3 0 1.2.1 1.6.9.9 2-.2.3-.5.6-.8.9-.5.4-.8 1-.7 1.6 0 .5 0 1.2.4 1.5.4.2.7-.4 1-.6 1.3-.9 2.8-1.2 4.3-1.1 1.4.1 2.5-.3 3.5-1.1 1.7-1.3 3.6-2.4 5.8-2.7.2 0 .5-.1.7-.1.2 0 .3 0 .5.1 0 .2-.2.2-.3.3-5 2-7.4 6.7-6.2 11.9.3 1.1.6 2.1.9 3.2.1.6-1.4 2-1.9 1.8-.2-.1-.2-.3-.3-.5-.2-.8-.3-1.7.2-2.5.4-.7.7-1.8.3-2-.7-.3-1.2.7-1.6 1.4-.9 1.6-.7 3.3.4 4.7 1.1 1.5 2.8 1.8 4.4.7.5-.4.8-.3 1.3.1 1.1 1.1 2.5 1.6 3.9 2.1.4.2.8.3 1.1.7-.8-.3-1.4.1-2 .6-1.6 1.3-3.3 1.6-5.2.7-1-.5-2-.9-2.9-1.4-.9-.5-1-.2-1 .6 0 .4 0 .8-.1 1.2-.2 1.7-1.3 2.7-3 2.6-1.8-.1-2.8-1.1-2.9-2.8 0-1.7.7-3.2 1.3-4.7.5-1.1 1-2.2 1.2-3.4.1-.6 0-1.2-.3-1.8-.6-1.1-1.1-1.2-2-.3-.4.4-.7.8-1.4.7-.7 0-1.1-.2-1.3-1-.3-1.5-.4-2.9-.4-4.4 0-1.2-.1-2.4-.2-3.5-.4-3.5-3.5-6.3-6.7-6-.3 0-.8-.1-.9.3-.1.4.2.6.5.8.5.3 1.1.5 1.6.9 1.4 1 1.9 2.6 2.1 4.1.3 2.5.5 5 .7 7.4.1.7-.2.6-.7.5-1.4-.4-2.7-.3-4.1.2-.5.2-.6.4-.1.8.5.3.9.7 1.3 1.1.8.6 1.2 1.4 1.1 2.5 0 .5 0 .9.1 1.4.3 1.4.7 1.7 2 1.7 1.1 0 1.5-.6 1.7-1.5.1-.3.1-.6.4-.8.7.8 1.1 1.8.8 2.9-.4 1.8-.4 3.5.9 5.1.5.6.6 1.4.4 2.2-.2.9-.9 1.5-1.8 1.5s-1.6-.5-1.8-1.4c-.2-.8-.3-1.5-.4-2.3-.4-1.8-1.2-2.3-3-2-.4.1-.7.1-1.1.3-.6.3-.8 0-.8-.5-.1-1.6-.9-2.7-2.5-3.3-1.4-.6-1.9-1.8-1.8-3.2.2-2 .4-4.1.7-6.1 0-.4.2-.5.5-.4.4.1.8.2 1.2.2 1.7.1 3.1-.7 3.6-2.3.5-1.4.5-2.8.2-4.3-.1-.5-.3-.6-.7-.3-.3.2-.6.5-.8.9-1.1 2-3.8 2.2-5.2.3-1-1.4-1-3.4 0-4.7.2-.3.5-.6.9-.6.3 0 .5-.2.6-.5.1-.4.2-.9 0-1.2-.3-.3-.8-.1-1.1.1-.5.2-.8.5-1.1.9-1.5 1.8-2.8 1.9-4.6.6-.6-.5-.9-.5-1.3.3-1 1.4-.8 2.5-.5 3.4.9 1.6 2.2 2.4 4 2.3.2 0 .5.2.5.4s-.2.3-.4.4l-.6.3c-1.9.8-2.2 3.3-.5 4.5.7.5 1.5.8 2.2 1.2 2.2 1.1 2.8 2.7 1.9 4.9-.3.7-.5 1.9-1 2.1-.5.2-1.1-.9-1.7-1.3-.9-.7-1.9-1.3-3.4-1.3 1.6 2.1 1.6 4.4 1.6 6.8 0 .7.1 1.4.3 2.1.4 1.1 1.6 1.7 2.8 1.5.4-.1.5-.3.6-.6.3-.5.6-1 1.1-1.6.3 1.1.1 1.8-.3 2.6s-.9 1.7-1.3 2.5c-.8 1.7-.6 2.9.8 4.2 1.2 1.1 2.8 1.8 4.3 2.5.9.4 1.8.7 2.5 1.3 1 .8 1.1 1.6.3 2.7-.4-.3-.5-.9-.7-1.3-.2-.5-.5-.9-1.1-.8-.7.2-1.6 0-2 .9-.9 2.1-.4 4.2 1.6 5.4 1.8 1.1 2.7 2.4 2.6 4.5 0 .3-.1.7.4.8.5.1.7-.3.8-.7.9-2 1.1-4 .4-6.1-.2-.7.1-.8.6-.7 1 .1 1.6.6 2.3 1.2 1.4 1.2 2.8 1.3 4.5.4-.1-.3-.4-.3-.7-.4-.7-.2-1-.6-1.1-1.3-.2-1.1-.4-2.2-.7-3.3-.3-1.2-1.4-1.5-2.3-.6-.4.4-.7.8-1.4 1-.1-1.1.2-1.9.8-2.7.5-.5.5-.7-.1-1.1-1.1-.6-1.8-1.6-2.1-2.8-.1-.6-.2-1.3.5-1.6.7-.3 1.2.1 1.6.6.3.4.6.8 1 1.1 1.3 1.2 2.4 1 3.2-.6.6-1.1.6-1.1 1.5-.2.5.5.9 1 1.6 1.2 1.4.3 2.7-.5 3-2 .1-.5.1-1 0-1.5-.2-.8 0-1.3 1-1.5 1.4-.2 2-1.3 2.2-2.6.1-.8.4-1 1.1-.7 1.4.5 2.9.8 4.4.5 2.3-.3 3.6-1.8 4.5-3.8.2-.4.4-.7.8-.7 1.8-.2 3.4-.8 5.1-1.3 3-.9 6.2-4.9 5.9-7.9-.4.2-.7.7-1.3.8-1.4.3-2.3-.2-2.6-1.7-.1-.4-.2-.7-.2-1.1-.1-2.4 2-3.7 4.2-2.6 1.6.8 2.4 2.3 2.7 4 .8 5.5-1.8 13.2-9.5 15-2.3.5-4.5.2-6.6-.8-.3-.1-.5-.3-.9-.4-.2 1.6.3 2.9 1.5 3.9 1.3 1 1.3 1.1-.1 2.1-2 1.4-3.1 3.2-2.5 5.7.4 1.7 1.3 2.6 3 2.9 1.2.2 2.5.4 3.7.5.8.1 1.3.4 1.4 1.3.1.5.2 1 .4 1.7 1.3-1.8 2.1-3.6 1.6-5.7-.3-1.5-1-2.7-2.6-3.1-.4-.1-.7-.1-1.1-.1-.6-.1-1 .1-1 .8 0 .4-.2.7-.2 1.1 0 .8-.4.8-.9.3-1.5-1.3-1-3.4.9-4.1 1.6-.5 3.2-.5 4.7.3.6.3 1.4 1.1 1.8 1 .6-.2.2-1.2.4-1.9.4-1.7 1.3-2.5 3.1-2.6.7 0 1.3 0 2 .2 1.7.5 2.6 2 2.1 3.7-.1.3-.1.6-.5.5-.3 0-.6 0-.7-.4-.1-.6-.6-1-1-1.3-.7-.7-1.8-.4-2.2.5-.2.5-.4 1-.5 1.5-.4 1.7.2 3.1 1.5 3.7 1.5.7 3.5.5 4.5-.7 1.1-1.3 2.5-2.2 4.2-2.6 1.1-.3 1.2-.6.6-1.6-.5-.8-1.3-1.1-2.2-1.3-.6-.1-.9-.4-.8-1v-2.8c0-.5.1-.7.7-.6 1.4.3 2.8.5 4.2 0 1.4-.5 2.4-1.5 3.1-2.7.3-.4.1-.5-.3-.6-1.1-.2-2.3-.4-3.4-.7-3.7-1.2-6-3.6-6.5-7.5s-.2-7.8 1.6-11.4c1.7-3.4 4.6-5.1 8.8-5.3-2.2 2.6-2.7 5.7-3 8.9-.6-.6-.8-1.2-.9-1.7-.2-.8-.6-1-1.3-1-1.7 0-1.9.1-2 1.9-.1 1 .1 2 .6 2.9.3.6.7 1.2 1.1 1.8 1.1 1.6 1.8 3.1.2 4.9 3.7-.3 3.7-3 4.1-5.7 1.4 2 3.1 3.2 5 4.2.8.4 1.2 1.8.9 2.6-.2.6-.9.5-1.4.8-1.2.5-1.1.4-.4 1.5 1.6 2.3 3.8 3.2 6.6 3.1 2-.1 2 0 1.7 2-.3 2.4-.9 4.7-2 6.8-.3.6-.8 1.3-1.2 1.8-.9 1.2-2.1 1.8-3.7 1.6-2.5-.2-4.6 2-4.3 4.5.2 1.3 1.2 1.9 2.1 2.7.3.3.6.5.2 1-.4.4-.6.4-1 0-.2-.2-.3-.4-.5-.5-.7-.7-1.7-.7-2.4 0-.9 1-1.9 1.8-2.9 2.8.8.5 1.6 1 2.5 1.6-2.3 1.2-4.4 2.6-6.9 3-.6.1-.9.1-.7-.7C59.9 156 63 150.9 68 147c2.5-1.9 5.2-3.6 8.3-4.4.3-.1.7-.3 1-.5.6-.5.8-1.3.6-1.9-.2-.5-.9-.1-1.4.1-10.4 3-16.7 9.9-19.9 20-.9 2.9-1.5 5.8-1.8 8.8-.1 1.3-.2 1.3-1.5 1-.7-.2-1.5-.3-2.2-.4-.5 0-1.1-.1-1.2.7-.1.7.2 1.1.8 1.3 1.1.4 2.2.4 3.4.6.3 0 .6 0 .6.5-.4 3.3.8 6.3 2.2 9.2.1.3.3.6.4.8v.3c-1.7-.5-3.4-1.1-5.1-1.6-.2.4.3.8-.1 1.2-1.1-1.4-.1-4-2.6-4.7 1.3.1 2.6.2 4 .3 1.2.1 1.3-.2 1.3-1.3 0-.6-.4-.8-.9-.9-2.7-.4-5.4-1.1-8.1-1.8-.9-.3-1.3-.1-1 .9.1.3.1.6.1.9.6 1.3 1.9 1.5 3.1 1.6.7.1 1 .2.6.9-.2.2-.3.6-.3.9 0 1.1-.5 1.4-1.6 1.1-2-.4-4 0-5.9.8-1 .4-2 .9-3.1 1.3-.4.2-.6.4-.9.8-.5.7-1 1.3-1.7 1.9-1.5 1.4-1.4 4.4-.2 5.8 1.4 1.5 3.7 1.8 5.6.6 2.2-1.4 3.1-3.7 3.8-6 .5-1.7.5-1.7-1.2-2.8h3.4c.9 0 1.8-.1 2.2-1.2.2.8.5 1.6.7 2.3.5 1.9 1.3 3.7 1.4 5.7 0 .4.1.7 0 1.1-.2 2.2-1.3 2.8-3.3 2.1-.7-.3-.9-.1-1 .5-.6 2.1-.1 3.9 1.6 5.3.9.7 2 1.3 3.1 1.6 1.7.5 3.4 1 4.6 2.7.3-2.7-.5-4.7-1.9-6.9 2.1.5 3.7 1.6 4.1 3.5.4 1.9 1.1 3.1 3.2 3.2.8.1 1.3.8 1.9 1.3.6.6.3 1-.3 1.2-1 .4-1.3 1.1-.9 2.1.2.7.7 1 1.4 1.2 1.2.3 2.5.1 3.7 0 1.2-.1 2.5-.3 3.5.8.2.3.6.1.9 0 .3-.1.1-.4.1-.6 0-1.6-1.2-2.3-2.5-2.7-.3-.1-.5-.1-.8-.2-.4-.2-1.2.1-1.2-.6 0-.8.5-1.4 1.3-1.6.8-.2 1.8-.2 2.4-.8.9-.9 1.4-.7 2.2.1 1.8 1.5 3.7.9 5.9.2-1.3-.7-2.5-1.1-3.7-1.5-.7-.2-1-.6-1.2-1.3-.9-2.6-3-4.2-5.2-3.9-1.4.2-2.1 1-2.1 2.4 0 1.1 1.2 1.7 2.1 1.2.2-.1.3-.2.5-.2s.5.1.6.3c.1.2-.2.3-.3.5-.8.6-1.6.6-2.5.4-1.4-.3-2.6-1.1-3.7-2-4.8-3.9-8.2-8.7-10.4-14.4-.1-.2-.1-.3-.2-.5.6-.2 1 .2 1.5.4 2.3.6 4.5 1.5 6.4 2.9.5.4 1 .8 1.3 1.4.8 1.2.7 1.9-.3 3-1 1-1 1.1.1 2.1.9.9 1.9 1.7 3.2 2.1 1 .3 1.9.2 2.7-.5.6-.5.7-1.1.1-1.7-.6-.6-1.3-1.2-1.7-2.1 1 0 1.7.4 2.3 1 1.8 1.9 2.9 2.1 5.5.7-1-.9-1.7-1.9-2.5-3-.5-.7-1.1-1-1.9-1.1-.3 0-.5 0-.7-.2-.3-.3-.6-.7-.5-1 .2-.4.7-.3 1.1-.1 2.5 1.4 4.3.6 6.6-1.2-.4-.5-1-.4-1.5-.4-2.5.3-4.2-.8-5.4-2.9-.8-1.3-1.9-1.8-3.7-1.6.3.9 1.1 1.5 1.3 2.5.1.8 0 1.1-.9 1-1.7-.1-3.2-.7-4.4-2-1.7-1.8-2.9-3.8-3.3-6.2-.2-1.3-.5-2.6-.8-3.9-.1-.5 0-.7.5-.7.8 0 1.7-.1 2.5-.1.7 0 1-.6.9-1.7-.1-.7-.6-.4-.9-.4-3.5-.1-2.9 0-2.7-2.9.1-1.5.6-2.1 2.1-2.4.9-.2 1.8-.3 2.7-.5.4-.1.6.1.4.5-1.4 3.1-1.1 6.4-.8 9.7.1 1.7.1 1.4-1.4 1.6-.3 0-.6 0-.9.1-.4.1-1.1.1-.9.9.1.7.1 1.4 1.2 1.3 1.3-.1 2.7-.4 4-.7.7-.1.8-.4.7-1.1-.5-2.4-.6-4.9-.3-7.3.4-2.7 1.2-5.2 3.2-7.2.3-.2.5-.6.9-.6.3 1 .1 2.1.4 3.2.5-1.8 2.2-2.1 3.5-2.8 1.3-.6 1.2-1.8-.1-3.1-.5-.5-.7-.8-.3-1.5.3-.4.6-.5 1-.2.4.4.9.7 1.3 1.1 1.2 1.1 2.5 1 3.9.4 1.3-.6 2-1.6 2.1-3.1 0-.8 0-1.6-.1-2.4-.2-.7.1-1.2.7-1.6.6-.3 1.1-.7 1.7-.8 1.4 0 2.1-.9 2.5-2.1.1-.4.3-.7.4-1.2-2.9.4-5.4 1.4-7.6 3.3-.4.4-.6.7-.3 1.3.4 1 .5 2 .4 3.1-.1.9-.8 1-1.3 1.3-.6.3-1.1.3-1.6-.2-.2-.2-.5-.5-.6-.8-.4-1.2-1.4-1.5-2.4-1.9-.7-.3-1.5-.5-1.2-1.6.3-1.2 1-1.9 2.1-1.7.7.1 1.3.3 2 .5.5.2.9.2 1.1-.4.1-.3.4-.6.7-.9 3.6-3.8 4.8-8.4 4.8-13.5 0-1.1-.9-.4-1.4-.7.6-.4 1.2-.4 1.8-.6.8-.2 1.6-.4 2.4-.8.8-.3.8-.8.3-1.4-.5-.7-1.3-1.2-1.9-1.8-.8-.8-.7-1.2.2-1.8 1.6-.9 3.5 0 4.3 2.1-.6-.2-1.1-.5-1.5-.9l-.7-.7c-.6-.4-1.3-.2-1.8.2-.4.4 0 .9.3 1.2.7.8 1.4 1.5 2.1 2.2.9.9 1.5 1.9 1.8 3.1.2 1 1.3 1.6 2.2 1.3.5-.1.3-.4.2-.6-.2-.9-.6-1.9-1-2.7-.5-.9-1-1.9-1.5-2.9.4-.2.8-.1 1.1-.5 1.5-1.9 3.6-2.9 5.9-3.4.2 0 .3-.1.5-.1.6-.2 1.5-.2 1.5-.7.1-.5-.6-1-1.1-1.4-.8-.7-1.7-.6-2.7-.7-.2 0-.4 0-.8-.1 2.4-2.7 3.4-6 4.5-9.3-.7 0-1.1.4-1.6.7-.4.3-.7.3-.9-.3-.2-.7-.5-1.3-.8-2-.3-.7-.8-1.2-1.6-1.4-.2-.1-.5 0-.5-.4 0-.3.2-.4.5-.4 3.3-.9 8.8 1.4 10.4 4.5.8 1.5.9 3-.1 4.5-.8 1.1-2.2 1.6-3.5 1.2-.2-.1-.4-.1-.5-.4-.4-1.2.6-2.5 1.9-2.5h.7c.7 0 1.4-.1 1.5-.9.1-.7-.6-.9-1.2-1.1-1.9-.6-4.2.4-4.9 2.1-.8 1.8.1 3.9 2 4.8 2.2 1.1 4.6.4 5.6-1.8 1.8-4 1-7.1-2.3-10.1-.7-.6-1.5-1.1-2.2-1.6-.5-.3-.7-.6 0-1 2.4-1.3 3.9-3.4 5.1-5.8 1.4-2.7-.6-7.6-3.5-8.3-1.5-.4-3.3.2-4.1 1.5-.9 1.4-.9 3.4 0 4.7.8 1.1 2.8 1.8 4.2 1.3.2-.1.5-.2.6-.3.4-.2.8-.4.7-1-.2-.5-.6-.7-1.1-.7-.7 0-1.3 0-2-.3-.7-.4-1.3-1.5-1-2.2 0-.1 0-.1.1-.2.3-.4 2.9-.3 3.2.1 2.4 2.9 1.9 5.9-1.3 7.8-2.3 1.4-6.7 2.5-8.8 2.1-.2-.5.7-.7.3-1.2 1-.1 1.5-.7 1.9-1.5.1-.2.2-.4.3-.5.3-.5.1-1.4.7-1.5.4-.1 1 .4 1.5.7.2.1.4.1.7.2-1.1-2.9-1.8-5.8-3.6-8.2-.7-1-.1-1.1.6-1.2 1.2-.2 2.2-.7 3-1.6.4-.4.5-.7-.2-.9-.7-.2-1.4-.4-2-.6-1.9-.5-3.6-1.2-4.8-2.8-.2-.3-.5-.5-.8-.7-.5-.3-.9-.4-1.2.3-.4 1.1-1.4 1.6-2.8 1.8.8-.9 1.5-1.6 2.3-2 .2-.1.6-.1.7-.4.6-1.7 1.8-3 2.3-4.7.2-.5.6-1.1-.1-1.5-.6-.3-1.2 0-1.7.4-.2.2-.4.5-.5.8-.7 1.8-1.8 3.3-3.2 4.6-.3.4-.6.7-1 .9-.4.2-.7.5-.2.9.3.3.4.7.7 1.1-.7 0-1.3-.1-1.6-.9-.2-.7.3-.9.7-1.2.5-.4.9-.7 1.4-1.1 1.1-1.7 1.1-1.7-.8-2.3-1.1-.3-2.1-.6-3.3-1 1.7.2 1.3-.9 1.3-1.7 0-4.5-1.4-8.5-4.3-12-.5-.6-.8-1.5-1.4-1.8-.7-.4-1.4.3-2.2.5-.9.2-1.7.1-2.3-.7-.8-.9-.4-2.3.8-2.6 1.2-.3 2-.9 2.6-2 .5-1.1 2.6-1.3 3.3-.3.1.2.1.4.1.7.1 1.1-.1 2.2-.4 3.2-.2.5-.1.8.3 1.2 2 1.9 4.4 2.8 7 3.3.5.1.5-.1.4-.5-.3-1.4-.8-2.6-2.4-2.8-.2 0-.3-.1-.5-.2-2.2-.8-2.3-.9-2.2-3.1v-1.3c-.1-1.4-.7-2.5-2-3.1-1.4-.7-2.7-.7-4 .3-.4.3-.7.7-1.1.9-.3.2-.6.8-1 .3-.3-.4-.6-.9-.2-1.5.3-.3.6-.6.9-1 .7-1 .4-1.9-.7-2.4-.2-.1-.3-.1-.5-.2-1.9-.7-2-.8-2.7-2.5-.5.6-.5.9-.6 3.1-.5.1-.8-.3-1.1-.6-2.3-2.4-3.1-5.4-3.4-8.6-.2-1.8.1-3.6.4-5.4.2-1-.2-1.6-1.1-1.9-1.3-.4-2.6-.3-3.9-.3-.8 0-.5.8-.7 1.2-.2.5.1.6.5.7.6.2 1.2.4 1.9.4.8-.1 1 .3.9 1-.1 1.2-.1 2.4-.2 3.6-.1 2.2.3 4.3.9 6.4.2.7 0 .8-.6.6-.7-.2-1.4-.4-2.2-.5-1.6-.3-1.6-.3-1.5 1.3.4.7 1 1.1 1.8 1.2 2.1.4 3.8 1.4 5.6 2.4.5.3.5.5 0 .7-.5.3-.9.6-1.4.8-.6.3-.5.5-.1.8.9.7 1.6 1.4 2.4 2.2.8.9 1.7.8 2.5 0 .1-.2.2-.4.4-.5.3-.2.8-.2 1 0 .3.2 0 .6-.2.8-.4.5-.8 1-1.3 1.4-1.1 1.1-1 2.4-.4 3.7.6 1.4 1.5 2.7 3.2 2.5 2.9-.4 4.4 1.2 5.6 3.4 1.3 2.5 1.9 5.2 2.1 7.9.1.7-.2.9-.9.9-1 0-2.1 0-3.1.2-2.1.3-3.5 1.5-4.7 3.2-.2.3-.3.5.1.7.2.1.4.2.6.4.4.4 1.3.3 1.3 1.2 0 1-.3 1.9-1.2 2.4-1.1.6-2.2 1.4-3 2.3-.5.5-.9 1.2-1.7 1.6-.3-2.5-.3-5.2-3.7-5.5l-.1.1c1 1.8.5 3.3-.7 4.8-.9 1.2-1.7 2.4-1.8 4-.1 2 .7 2.7 2.6 2.5.5-.1.8-.3.9-.7.2-.5.5-1 .8-1.5 0-.1.1-.1.4-.3-.2 3.2.6 6 2.7 8.6-2 .1-3.6-.4-5-1.3-2.6-1.6-3.9-4.1-4.7-7-.8-3.3-1-6.7-.2-10 .6-2.6 2.2-4.3 4.6-5.4 1.5-.7 3.1-1.1 4.8-1.3.8-.1.7-.4.4-1-1.4-2.2-3.8-3.2-6.5-2.6-1.3.3-1.3.3-1.4-1.1v-.6c-.2-1.4-.2-2.7 1.7-2.9.2 0 .4-.2.6-.4.5-.4 1.2-.9 1.1-1.5 0-.7-.9-.7-1.4-.9-1.5-.4-2.7-1.3-3.7-2.4-1.1-1.1-2.4-1.4-3.8-.9-1.5.5-2.3 1.6-2.5 3.1-.3 2 1.3 2.9 2.8 2.9.6 0 .8-.6 1-1 .3-.5.6-1.2 1.2-1 .5.2.3.9.3 1.5-.1 1.8-1.1 2.9-3 3.1-1.8.3-3.6-.7-4.2-2.3-.3-.8-.4-1.6-.9-2.5-1.4 1.7-3.2 2-5.2 1.6-.7-.1-1.4-.4-1.9-.8-.8-.6-.6-1.5-.5-2.3.1-.7.6-1.1 1.2-1.4.3-.1.3.1.4.3.1.4.1.8.1 1.2.2 1.3.2 1.3 1.5 1.1 2-.3 3.3-1.9 3.4-4.3.1-1.7-.7-3.1-1.7-4.6-.1.2-.2.3-.2.4-.2 2.5-1.1 2.4-2.9 2.7-1.3.2-2.5.4-3.7 1-1.9.9-2.5 2.4-1.8 4.4.6 1.5 1.7 2.8 2.9 3.8.5.5.7.8.1 1.3-1.1.9-1.7 2.2-1.9 3.6-.1.8-.4.9-1.1.7-1.9-.6-3.7-.5-5.5.2-.6.2-.9 0-.9-.6-.1-1.6-1-2.6-2.6-2.9-.5-.1-.6-.4-.6-.9.1-.8 0-1.6-.3-2.4-.6-1.8-2.1-2.3-3.7-1.1-.5.4-.8 1-1.3 1.5-.4-.2-.5-.6-.6-.9-1.1-1.9-2.8-1.9-4-.1-.4.6-.8 1.3-1.7 1.1-.6-.1-.9-.3-.9-1 0-1.5.8-2.6 2-3.4.6-.4.9-.7.2-1.3-.6-.5-.6-1.2-.6-2 0-.2 0-.4.3-.5.2 0 .4.2.5.3.3 1.1 1.1 1.2 2 1 .9-.2 1.1-1 1.2-1.8.1-.4.2-.8.2-1.2-.1-1.5.7-2.4 2.2-2.8-1.7-1.1-3.1-1-4.5.1-.7.6-1.5 1.2-2.5 1.3-.5.1-.9 0-.6-.7.1-.3.2-.7.3-1.1.8-1.8.2-3.4-.7-4.9-.2-.4-.6-.7-1.1-.6-.5.1-.2.6-.3 1-.1 1.8-.7 3.2-2.5 4-1.8.9-2.5 3.6-1.6 5.4.6 1.2 1.5 1.4 2.5.5.3-.3.5-.6.8-.9.2-.2.2-.6.5-.5.3.1.4.5.5.8.1.8-.4 1.3-1 1.8-1.1.8-2.3 1.3-3.5 1.8-1.1.5-2.3.9-3.2 1.8-1.3 1.3-1.5 2.6-.7 4.2.4.9 1 1.8 1.4 2.7.5 1.1.6 1.8.3 2.6-.4-.1-.5-.5-.7-.7-.4-.5-.4-1.3-1.4-1.2-1.1.1-2 .4-2.5 1.5-.3.7-.4 1.5-.4 2.3v1.8c.1 1.6-.1 3-1.2 4.2-.1.1-.3.3-.2.6 2.1-.2 3.6-1.3 5-3 .5 1.4 1.1 2.6 1.4 3.9.2 1-.3 1.8-1 2.4C5.9 94 5 94.5 4 95c-1.1.5-1.9 1.4-1.9 2.6 0 1.3.8 2.1 1.9 2.6.2.1.5.2.6.6-1.7.3-3.5.8-4.3 2.8m34.3 6.5c-2 .7-4.1 1.4-6.1 2.2-.6.2-1.1.2-1.4-.5-.4-.8-1.2-1.2-2-1.5-.5-.2-1-.4-1.8-.6 1.9-1 3.7-1.9 5.5-2.5.1 0 .3 0 .5.1 1.9.8 3.9 1.5 5.9 2.3-.1.4-.3.4-.6.5m7.8 73.9c-.6 1.9-.8 4.1-2.6 5.4-.5.4-1.1.6-1.7.6-1.4 0-2.2-1.4-1.4-2.8.6-1.2 1.7-1.9 2.8-2.5.8-.4 1.6-.8 2.4-1 .2-.1.7-.2.5.3m25.3-79.8c-1.6-4 .2-8.3 4.2-9.6 5.8-1.9 11.5-1.2 16.7 1.9 2.8 1.7 3.7 4.3 3 7.5-.2.9-.5 1.9-.7 2.8-1.2.2-2.3.7-3.5.7-1.6 0-2.3-1-1.6-2.4.3-.5.8-.7 1.3-.9.4-.3.6-.5.3-1-.2-.3-.2-.6-.4-.9-1.2-1.9-3.3-1.8-4.3.1-.4.8-.7.7-1.2.3-1.5-1.1-1.5-1.1-1-2.9.5-1.7-.3-2.9-2.1-2.8-.4 0-.7 0-1.1.1-1.7.4-3.5.9-5.3-.6.3 1.7 1 2.8 2.1 3.8-.7.4-1.4.6-1.6 1.4-.1.5 0 .7.5.5 2.6-1.2 4.3.1 5.8 2.2 1.3 1.7 2.7 3.3 4.8 4.3 1 .4 1.4 1.2.3 2.1-.7.6-1.4 1.2-2.2 1.8-1.4 1.1-2.8 2.2-3.7 3.7-1.1 1.7-2.6 2-4.4 1.4-.3-.1-.8-.4-1-.1-.2.4.1.9.5 1.2.1.1.3.2.4.3.7.4.6.7 0 1.2-.8.7-1.2 1.6-1.4 2.6.3.1.4 0 .6-.1 1.2-.7 2.4-.7 3.7-.3.7.2 1.5.4 2.3.3 1.6-.2 2.4-1.5 1.5-2.9-.4-.6-.3-1.1.1-1.5.2-.3.5-.5.8-.8 1.2-1 1.2-1 1.9.4.2.4.4.7.9.6h.7c1.8 0 2.3-.3 2.8-2.1.2-.5.1-.8-.4-1 0 0-.1 0-.1-.1-.8-.5-1.7-1-1.4-2.2.2-.8 1.1-1.2 2.5-1.1 2 .1 3.7 1.7 3.8 4 .2 3.3-1 6-3.9 7.6-5.1 2.7-10.6 3.1-16.1 1.2-3.6-1.3-5.3-4.3-4.6-7.8.3-1.5 1.1-2.8 2.3-3.7.7-.5 1-.3 1.1.5.2 1.3.2 1.3 1.3.5.7-.5 1.6-.8 2.5-.8.6-.1 1.2-.1 1.7-.4 1.6-1 3.4-1.6 5.2-2.1.5-.1 1.3-.4 1.3-.9.1-.6-.7-.8-1.2-1.1-.1-.1-.2-.2-.4-.2-2.9-.5-5.3-2.4-8.2-3-.8-.1-1.5-.5-2.3-.9.2.8.6 1.3.6 1.9-1.5-.2-2.8-1.2-3.4-2.7m-7.2 5.1c.2 0 .4.2.5.3 0 .1-.1.2-.1.2-1.9.6-3.6 1.4-5 3-1 1.1-2.3.8-3.6-.4-1-.9-.9-.8-1.7.1-2.1 2.1-2.3 4.7-2.4 7.4-.1 3.2-1.4 6-3.3 8.5l-.2.2c-2.8 2-7.3 1.7-9.4-.9-1.8-2.3-2.1-5-1.6-7.8.2-1.1.5-2.1 1.1-3 1.3-2.3 3.6-3.3 6.2-2.9 1.9.3 3.4 2.5 3 4.4-.2 1.2-.9 1.8-2.1 2-.9.1-1.5 0-1.6-1.1-.1-1-.8-1.3-1.8-1-.9.3-1.2.9-.9 1.8.6 1.8 2.6 3.2 4.5 3.2 1.8-.1 3.7-1.7 4.2-3.6 1.1-4-.7-7.3-4.6-8.7-1-.4-2-.7-3-1.3.6-.6 1.4-.7 2.1-.9 3.7-1 5.8-3.9 5.7-7.5-.1-2.7-1.7-4.7-4-5.2-2.1-.4-4.5 1-5 3-.1.5-.1 1 .4 1.4.5.4 1.2.6 1.8.3.5-.2.7-.6.7-1.2-.1-.6.3-.8.8-.8 1.7 0 2.9 1.3 2.7 3.1-.4 2.7-2.7 4.1-5.4 3.3-3.6-1.1-5.6-4.8-4.8-8.8.3-1.7.9-3.3 1.7-4.8.3-.7.8-1.1 1.5-1.3 1.2-.4 2.4-.8 3.7-.9h.7v.2c-.5.3-.9.5-1.4.8-.5.3-1 .7-1 1.3-.2 1.3-1.1 1.9-2.2 2.4-.5.3-1.1.6-1.7.6-.8.1-.8.7-.8 1.1 0 .6.6.6 1 .6 3.3.4 6.9-3.2 6.6-6.5 0-.1 0-.1.1-.2 2.5.7 4.1 2.4 5.1 4.7 1 2.3 1.2 4.8 1.3 7.3 0 2.4 1.3 4 2.7 5.6.3.4.6.2.9 0 .7-.5 1.4-1 2.2-1.3.6-.2 1.2-.3 1.6.2 1.2 1.8 2.9 2.6 4.8 3.1M39.9 80.7c3.1-1.5 6.1-1.3 9 .2C53 83 55.1 86.5 55.7 91c.3 2.1.1 4.2-.7 6.2-.8 1.9-2.6 2.8-4.1 2.1-1.3-.6-2-2.1-1.7-3.8.3-2 1.8-2.6 3.5-1.3.1.1.2.1.4.3-.1-2-.9-3.5-2-5-2-2.6-4.7-3.9-7.9-4-.9 0-1.5-.3-2-1.1s-1.1-1.6-1.7-2.4c-.4-.5-.3-1 .4-1.3m118.2-25.3c.6-1.8.9-3.7 1.3-5.6.1-.5-.1-.7-.6-.8-.8-.2-1.5-.1-2.3-.1-.4 0-1 .5-1.1-.4 0-.7-.3-1.5.8-1.6.7-.1 1.4-.3 2.1-.4.7-.1.9-.4.8-1.1-.3-2.3-.7-4.5-1.8-6.5-1.1-2.3-2.7-4.2-5.3-4.8-.7-.2-1.7-.7-2.1 0-.4.8.2 1.7.8 2.4.2.3.7.5.6 1-1.8 0-3.3-.5-4.2-2.1-1.2-2.2-3.2-2.8-5.5-2.5-.3 0-.7.2-1-.1.1-.1.2-.3.2-.4 1.7-1.9 3.6-2.3 6.5-1.2.3.1.6.5.9.1.2-.4 0-.8-.2-1.1-.2-.3-.5-.3-.8-.3-1.1-.1-2-.5-2.4-1.5-.4-.9-1-1.6-1.8-2-.7-.4-.4-.6 0-.9 1.5-1 3.6-.7 4.7.8.5.7 1.2 1.2 2 1.4.5.1.5-.1.4-.5-.2-.6-.8-.9-1.2-1.2-.6-.5-.9-1.2-.7-1.9.1-.6 1-.5 1.5-.6 2.2-.4 3.7.8 5.2 2.1.7.6.6 1 .1 1.6l-.5.5c-.7.6-.8 1.3-.4 2.1.7 1.7 2.1 2.6 3.7 3.3l5.7 2.4v-.3c-.1-.2-.1-.5-.2-.7-2-5.3-5.3-9.7-9.5-13.5-1.1-1-2.2-1.8-3.5-2.3-1.2-.5-2.4-.7-3.6.2-.1.1-.4.2-.2.5.1.2.3.3.5.2l.6-.3c.7-.3 1.3 0 1.9.4.5.4.2.9.1 1.4-.3 1.3-1.4 2.1-2.8 2-1.9-.1-3.2-1.1-3.8-2.9-.6-1.8-1.9-2.7-3.7-3.1-.6-.1-1.2-.3-1.7-.8 2.3-1 4.4-1.2 6.3.7.4.4.6.4 1 0 .9-.8 2-1.3 3.2-1.4.7-.1.8-.6.9-1.1.1-.6-.3-.8-.7-.9-.5-.2-1.1-.4-1.6-.5-1.3-.3-1.9-1.1-2.1-2.4-.1-.6.1-.9.7-.6 1.2.7 2.5.7 3.8.7 1.2 0 2.5-.1 3.7.2 1.3.2 1.4.5 1.3 1.7-.1.7-.5 1.1-1.1 1.3-.8.3-.7.6-.2 1.1.9 1.1 2 1.6 3.4 1.8.7.1 1.1.3 1.2 1.2.1.9.4 1.8.9 2.6.8 1.4 1.9 2.3 3.8 2.7-1.7-2.1-2.3-4.3-1.9-6.9 1.6 1.7 3.4 2.5 5.3 3.1.5.1.9.3 1.3.5 1.4.6 2.3 1.6 2.6 3.1.2.9.2 1.8.2 2.7 0 1.2-.1 1.2-1.2.8-.1 0-.3-.1-.4-.1-1.6-.6-2.5-.1-2.8 1.6-.2 1.3 0 2.6.3 3.8.7 2.8 1.6 5.6 2.2 8.4.1.6.1 1.1-.8 1.4.8.2 1.4.3 2 .5 2 .5 1.9.5 2.3 2.5.1.6 0 .9-.7.7-.9-.3-1.9-.4-2.9-.6.8.5.9 1.3 1 2.1.4 3.5-.1 7-.2 10.5 0 .5-.2.6-.7.5-1.5-.3-3-.7-4.4-.9-1.1-.2-2.3-.2-2.6-1.7-.3.1-.2.2-.3.4-.9 5.3-3 10-6.5 14.2-4 4.8-9.1 8.2-15.2 9.8-.7.2-1 .2-.8-.7.2-1.1.9-1.6 1.8-1.9 10.9-3.9 16-11.8 18.4-21.8.1 0 0 0 0 0m5.4-1.9c.8.1 1.6.1 2.4.2.8.1 1-.2.9-.9-.2-2.3-.4-4.7-.5-7 0-.7-.5-1.5.9-1.8l-.2-.2c-1.3-.2-2.7-.4-4-.6-.4-.1-.9-.1-1.1-.5-.2-.5-.4-1-.1-1.5.2-.4.8-.5 1.3-.4 1 .3 2.1.2 3.1.2-1.2-1.2-1-2.9-1.9-4.5v1.2c-1.7-.5-3.3-1.1-5-1.7.5 1.3 1 2.5 1.4 3.7.8 2.1 1.4 4.3 1.1 6.6-.1.5.1.6.5.6 1.1.1 2.1.3 3.2.5.7.1 1.1.6 1 1.4 0 .6-.3.9-1 .8l-3-.6c-.5-.1-.7-.1-.8.5-.1 1.5-.3 2.9-.4 4.4.6-.5 1.4-.5 2.2-.4m.2-18.2z"/><path clip-path="url(#SVGID_4_)" fill="rgba(63, 63, 63, 0.2)" d="M172.8 38.5c2-.4 3.7-.9 5.2-1.8 1.8-1.1 3.4-2.5 4.2-4.5 1-2.5-.1-4.6-2.7-5.2-2.4-.6-4.2.3-5.7 2.2-1.4 1.8-1.7 4-2 6.2 0 .2-.1.4.2.5.8.2 2.1-.5 2.3-1.3.2-1.2.6-2.3 1.2-3.3.3-.5.7-.9 1.2-1.2.7-.4 2.6-.6 2.9-.2.6.7.1 1.6-.2 2.3-.9 2.3-2.9 3.3-5.2 3.8-1.7.4-3.5.4-5.2.4-.7 0-1 .1-.8.9.2 1.2.6 1.5 1.7 1.5.6 0 1.4-.1 1.7.2.4.4-.1 1.1-.1 1.7-.1 2.4.4 4.6 1.2 6.8.5 1.5 1.2 3 1.5 4.7-.6-.1-.9-.5-1.3-.7-.9-.6-1.8-1.3-2.8-1.8-.7-.3-.8-.1-.7.6 0 .8.5 1.3 1.1 1.6 2.2 1.3 3.8 3.1 4.6 5.6.2.5.2 1 .2 1.5-.1 1.1-.7 1.6-1.7 1.7-1.1.1-2.1-.1-3.3-.5.8 2.1 2 3.5 4 4.1 1.8.5 3.1-.3 4.3-1.6.2-.2.3-.8.7-.4.4.4 1.1.6.7 1.4-1.2 2.1-.2 4 .5 6 1-.7 1.2-1.9 2-2.8.7 2.1 1.9 3.8 2.4 6 .2-.3.4-.4.4-.6.5-1.3 1.3-2.1 2.7-2.2.2 0 .5 0 .5-.3 0-.2-.2-.3-.4-.4-1.1-.7-1.9-1.6-2.6-2.7-.3-.5-.7-.9-1.3-1.3 1.2-.4 2.6-.4 3.5-1.3 0-.2-.1-.3-.2-.3-1.4.1-1.9-.9-2.2-1.9-.3-1-1.1-1.2-1.9-1.5-.3-.1-.9 0-.9-.5 0-.4.4-.7.8-.8 2.2-1 2.7-2.2 2-4.6-.3-.9-1-1.1-1.7-1.4-.3-.1-.4 0-.5.3-.1.3-.2.7-.2 1-.5 1.8-1.8 2.4-3.3 1.3-1.5-1-2.4-2.5-3.2-4-1.7-3.1-2.4-6.5-2.5-10 0-1.2.1-2.3-1.1-3.2m-54.1-27.9c.3-1.3 1.2-1.8 2.2-2.2 2.6-1 5.1.6 5.2 3.4.1 2.8-1.5 5.2-4.3 6.3-.7.3-.9.6-.8 1.2.1 1.1 0 2.2 0 3.4.8-.4 1.2-1 1.8-1.2 1.6-.7 3.2-.3 4.7.3 2.7 1.1 4.8 2.9 6.8 4.9l.6.6s.1.1.2.1c.6-1.4-.3-2.6-.8-4 .5.1 1 .1 1.4.2.6.1 1.3.1 1.9 0 .3-.1.7-.1.8-.4.1-.4-.3-.5-.5-.7-1.1-.9-2.1-2-3-3.2-.6-.8-1.3-1.2-2.3-1.2-1.1 0-2-.6-3.1-1.4.2 1.1.3 1.9.4 2.6.1.5.1.8-.6.6-1.2-.3-2.4-.5-3.6-.8-.5-.1-.9-.2-.3-.8 1.3-1.3 2.4-2.8 2.9-4.7.1-.5.5-.4.8-.3.7.1 1.4.2 2.1.4 1.2.3 2.1-.1 3-.9.4-.4.9-.8 1.3-1.3.7-.8 1.5-1 2.4-.5.3.1.6.2.9.4.5.2.7.1.6-.5-.1-.5-.2-1-.5-1.4-.3-.5-.2-.8.3-1.1 1-.4 1.5-1.3 1.8-2.3.1-.6-.1-.9-.7-.6-1.2.5-2.4.4-3.6-.1-.9-.4-1.8-.8-2.7-1.1-.8-.3-1.5-.4-2 .6-.5.9-.2 2.1.7 2.6.4.3.9.4 1 1 .2 1.2-.2 1.7-1.3 1.8-2.3.2-3.9-.8-5.1-2.7-.1-.2-.3-.5-.4-.7-.9-1.7-.8-1.7 1-2.3.8-.2 1.2-1 1.1-1.9-.2-1.2-.5-1.4-1.6-1.3-.9.1-1.7.2-2.5.8-1.2.9-2.4.3-3.6-.3-.3-.1-.5-.5-.8-.2-.1.1-.1.5-.1.8.1 1.1.8 1.5 1.7 1.8.7.2 1.4.4 1.9 1 .3.4.3.7-.3.8-.7.1-1.3 0-2-.1-.3 0-.5-.2-.8-.2-.8 0-1.7-.7-2.4.2-.8 1.1-1.2 2.3-.5 3.6.3.4.4.6.7 1"/><path clip-path="url(#SVGID_4_)" fill="rgba(63, 63, 63, 0.2)" d="M190.5 41.1c-.8-.3-1.3-.7-2-.8-1.2-.3-2.2-.9-3.3-1.5-.9-.5-1.8-1-2.7-1.3-2.1-.6-3.9.5-4.5 2.5-.1.4-.1.6.4.5.6-.1 1.2-.3 1.9-.3 1.1.1 1.7.7 1.9 1.8.2 1.1-.5 1.5-1.3 1.9-.9.4-1.9.3-2.9.1-1-.2-2-.5-2.9-.8-.5-.1-.7 0-.6.5v.2c.4 2.4.4 2.4 2.7 3.4 1.7.7 3.4 1.5 5 2.4 3.5 1.8 6.3 4.2 6.7 8.6.7-.2 1.1-.7 1.6-1 .3-.1.5-.4.8-.3.3.2.2.5.1.8 0 1.1-.1 2.1-.2 3.4 2-1.6 2.8-3.5 2.9-5.7.1-2 .1-2 2-1.4 1.3.4 2.6.8 3.7-.6.4-.5.4-.8-.2-.9-1.8-.4-2.7-1.8-3.5-3.3-.6-1-1.2-2.1-1.9-3.1-1-1.6-3.1-1.8-4.6-.6-.4.3-.2.8-.2 1.1 0 1.6.1 1.6 1.6 2 .2.1.4.1.6.2.3.2.9 0 .9.4 0 .5-.5.6-.9.8-2.3.9-4.2-.4-4.6-3-.1-.9-.5-1.2-1.2-1.4-.4-.1-.8-.2-1.1-.5-.4-.4-.7-.9-.6-1.5.1-.6.6-.8 1.2-.9.8-.2 1.6-.3 2.4-.4 1.1-.2 1.8-.8 2.8-1.3m-10.3 134c.6 0 1.1.2 1.5.6.6.5.9 1.2.7 2-.2.7-.8.9-1.5 1.1-.7.2-1.5.2-2.2.1-.9-.1-.8.2-.5.8.2.4.5.9.7 1.3.2.4.4.5.9.5h3c.7 0 1.3-.2 1.9-.7 1.1-.9 2.4-1.5 3.8-1.8.7-.2 1.3-.4 1.9-.9-1.4-.9-2.9-1.3-4.4-1.4-.6-.1-1.2-.1-1.5-.8-.4-1.1-.2-1.8 1-2.1 1.2-.2 1.7-.8 1.8-2 0-.6.3-1.1.6-1.6 1.1-1.8 3.1-1.7 4.6-.6.4.3.3.6-.1.7-.7.2-1.3.3-2 .4-.7.1-.9.4-.8 1v.5c.1.9.3 1.8 1.3 2.3 1 .4 1.8-.1 2.6-.8 1-.9 1.7-2.1 2.4-3.2.9-1.7 2-3.2 3.9-3.9.2-.1.6-.2.4-.5-.2-.4-.2-1-.9-1.1-1.4-.3-2.8-.2-4 .5-.8.4-1.1.2-1-.7.2-2.2-.4-4.1-1.9-5.8-.2-.2-.3-.4-.5-.5-.1-.1-.2-.1-.4-.2.1 1.2.3 2.2 0 3.3-.2.7-.4.8-1 .3-1.4-1.2-1.6-1.3-1.9.4-.9 4.3-4.2 5.9-7.6 7.6-1.9.9-3.7 1.9-5.6 2.8-.5.3-.6.9-.7 1.4 0 .5.1 1-.2 1.4 0 .3 0 .5.4.4.4-.1.8-.2 1.1-.3.1-.2.3-.2.5-.1.1 0 .2-.1.3-.1.1-.1.3-.2.5-.1l.5-.1c.2-.2.4-.2.7-.1.2 0 .4 0 .6-.1.5 0 .8 0 1.1.1"/><path clip-path="url(#SVGID_4_)" fill="rgba(63, 63, 63, 0.2)" d="M175.6 169.5c.1-.3.2-.6.4-1l.1-.2c.7-1.5 1.5-2.9 2.8-3.9.6-.5 1.3-.9 2-1.1 1.4-.3 2.2.4 2.1 1.9 0 .4-.2.8-.3 1.2 1.7.1 2.8-.8 3-2.4v-.2c.2-2.1-.1-2.5-1.9-3.3-.2-.1-.4-.2-.7-.2-.3-.1-.5-.4-.5-.7 0-.4.3-.5.5-.5 1.7 0 2.2-1.3 2.8-2.5.2-.5.5-.8 1.1-.8.3 0 .5-.1.9-.3-1.1-.9-2.4-1.1-3.6-1.4 1.7-1.3 2.4-3.5 4.4-4.4-1.6-.6-3.2-1.1-3.6-3.2-.1.1-.2.1-.2.2-.8 1.9-1.6 3.9-2.4 5.9-.8-.9-1.1-2.1-1.9-2.9-.6 1.4-1 2.7-1.1 4-.1.5-.1 1.1.3 1.5.2.2.2.4.2.7-.1.5-.3 1.1-.7 1.3-.4.2-.6-.5-.8-.7-1.7-1.9-5-1.7-6.8.4-.5.6-.9 1.3-1.3 2.1.6.2 1.1-.1 1.6-.2 2.5-.6 3.8.7 3.3 3.2-.6 2.6-2.2 4.3-4.4 5.5-.9.5-1.2 1-1.3 2 0 .6.2.7.7.5 1.2-.5 2.2-1.3 3.2-2 .2-.2.5-.3.7-.5.3.1.2.2.2.3-.9 2.9-1.9 5.7-2.7 8.6 0 1 0 2-.1 3 0 .6.1 1 .9 1.1.7 0 1.3.2 1.4-.8.2-1.3.4-2.5.7-3.7-.1-1 .1-1.9.4-2.8 0-.2.1-.4.1-.6-.1-.2 0-.3.1-.5 0-.2.1-.4.1-.6-.1-.2 0-.3.1-.5l.1-.4c-.1-.2 0-.3.1-.5 0-.1.1-.2.1-.4-.2-.1-.1-.2-.1-.2m-23.7 1.2c0-.9-.3-1.5-1.1-1.8-7.7-2.6-13.3-7.7-17.4-14.6-2.2-3.6-3.6-7.5-4.9-11.5-.1-.4-.2-.9-.6-1.1-.4-.2-.9-.1-1.3.1s-.1.6-.1.9c.7 3.5 1.9 6.9 3.6 10.1 3.8 7.5 9.7 12.9 17 16.9 1.2.7 2.6 1 3.8 1.6.8.4 1 .2 1-.6m-24.6-93.2c.8.1 1.1-.5 1.3-1.2 1.1-4.6 3-8.9 5.6-12.8 3.4-5 7.6-9 13-11.8 1.1-.6 2.2-.9 3.4-1.3 1.1-.3 1.5-1.3 1.2-2.3-.2-.7-.6-.3-.9-.2-2.8.9-5.4 2.1-7.8 3.7-6.4 4.2-10.8 10-13.9 16.9-1.2 2.6-2.1 5.2-2.9 8-.2 1-.2 1 1 1m41.4 90.7v-5.8c0-.4-.1-.7-.6-.6-2 .6-4.1 1.1-6.1 1.6-1.1.3-.5 1-.5 1.5 0 .6.4.8.9.8 1.1 0 2.2-.1 3.2-.2 1.4-.1 1.4-.1 1.3 1.3l-.6 7.2c-.1.8.1.9.9.7 1.8-.5 1.8-.4 1.8-2.2v-4.4h-.3zm-38.6-27.1h3.7c.4 0 1 0 1-.7s0-1.3-.8-1.5c-3.1-.4-6.2-.6-9.3-.4-.3 0-.4.2-.4.5.2 1.2.9 1.9 2.2 2 1.3.1 2.5 0 3.6.1zm-2.3 8.9c-.2-1.6-1-2.5-2.5-2.5-.7 0-1.4-.2-2.1-.4-.5-.1-.7-.1-.7.6.2 1.2.7 1.8 2.1 2.1 1.1.1 2.1.1 3.2.2m47.7-20.8c.8.3 1.3-.2 1.6-1.1.2-.6.5-1.2.8-1.7.5-.9 1.2-1.4 2.3-1.4 1.1 0 1.6-.6 1.8-1.6.1-.5 0-.7-.5-.7-3 .1-6.1 2.2-7.1 5-.5 1.5-.5 1.5 1.1 1.5"/><path clip-path="url(#SVGID_4_)" fill="rgba(63, 63, 63, 0.2)" d="M211.6 100.8c.1-.4.4-.5.6-.6 1.1-.5 2-1.3 1.9-2.6 0-1.3-.8-2.1-1.9-2.6-1-.5-1.9-1-2.7-1.7-.7-.6-1.2-1.3-1-2.4.3-1.3.9-2.5 1.4-3.9 1.4 1.6 2.9 2.8 5 3 .1-.3-.1-.5-.2-.6-1.1-1.2-1.3-2.7-1.2-4.2v-1.8c0-.8-.1-1.6-.4-2.3-.5-1-1.4-1.3-2.5-1.5-1-.1-1 .7-1.4 1.2-.2.3-.2.6-.7.7-.3-.8-.1-1.5.2-2.1.5-.9 1-1.8 1.4-2.7.8-1.7.6-2.9-.7-4.2-.9-.9-2.1-1.3-3.2-1.8-1.2-.5-2.4-1-3.5-1.8-.6-.4-1.1-1-1-1.8 0-.3.1-.7.5-.8.3-.1.4.3.5.5.3.3.5.7.8.9 1 .9 1.9.7 2.5-.5.9-1.8.2-4.5-1.6-5.4-1.8-.9-2.4-2.2-2.5-4 0-.3.2-.9-.3-1-.4-.1-.8.2-1.1.6-.9 1.5-1.5 3.1-.7 4.9.1.3.2.7.3 1.1.3.7-.1.7-.6.7-1-.1-1.7-.7-2.5-1.3-1.4-1.2-2.7-1.2-4.5-.1 1.5.4 2.3 1.3 2.2 2.8 0 .4.1.8.2 1.2.1.8.3 1.6 1.2 1.8.9.2 1.7 0 2-1 .1-.2.2-.4.5-.3.3 0 .2.3.3.5.1.7 0 1.5-.6 2-.8.6-.5.9.2 1.3 1.2.8 2 1.9 2 3.4 0 .6-.3.9-.9 1-1 .1-1.3-.5-1.7-1.1-1.2-1.8-2.9-1.7-4 .1-.2.3-.3.7-.6.9-.5-.5-.8-1.1-1.3-1.5-1.5-1.2-3-.8-3.7 1.1-.3.8-.3 1.6-.3 2.4 0 .5-.1.8-.6.9-1.6.3-2.5 1.3-2.6 2.9-.1.6-.3.8-.9.6-1.8-.6-3.7-.8-5.5-.2-.7.3-1 .1-1.1-.7-.2-1.4-.8-2.7-1.9-3.6-.7-.5-.4-.8.1-1.3 1.2-1.1 2.3-2.3 2.9-3.8.8-2 .1-3.5-1.8-4.4-1.2-.6-2.4-.8-3.7-1-1.8-.3-2.7-.3-2.9-2.7 0-.1-.1-.2-.2-.4-1 1.4-1.8 2.8-1.7 4.6.1 2.4 1.4 3.9 3.4 4.3 1.2.2 1.3.2 1.5-1.1.1-.4.1-.8.1-1.2 0-.2.1-.5.4-.3.6.3 1.1.7 1.2 1.4.1.8.3 1.7-.5 2.3-.6.4-1.2.7-1.9.8-2 .4-3.8.1-5.2-1.6-.5.8-.7 1.7-.9 2.5-.5 1.6-2.3 2.6-4.2 2.3-1.9-.3-2.9-1.3-3-3.1 0-.5-.2-1.3.3-1.5.6-.2.9.5 1.2 1 .2.4.4 1 1 1 1.5-.1 3.1-.9 2.8-2.9-.2-1.5-1-2.6-2.5-3.1-1.4-.5-2.7-.2-3.8.9-1 1.1-2.2 2-3.7 2.4-.6.2-1.4.2-1.4.9 0 .6.6 1.1 1.1 1.5.2.1.4.3.6.4 1.9.2 1.9 1.4 1.7 2.9v.6c0 1.4 0 1.4-1.4 1.1-2.7-.6-5.1.4-6.5 2.6-.4.6-.4.8.4 1 1.6.2 3.2.6 4.8 1.3 2.4 1 4 2.8 4.7 5.4.8 3.3.6 6.7-.2 10-.7 2.9-2.1 5.3-4.7 7-1.4.9-3 1.4-5 1.3 2.1-2.6 2.9-5.4 2.7-8.6.3.2.4.2.4.3.3.5.6 1 .8 1.5.2.4.4.7.9.7 1.9.2 2.6-.5 2.6-2.5 0-1.6-.8-2.8-1.8-4-1.2-1.5-1.7-3.1-.7-4.8 0 0 0-.1-.1-.1-3.4.2-3.4 2.9-3.7 5.5-.8-.4-1.2-1.1-1.7-1.6-.9-1-1.9-1.7-3-2.3-.9-.5-1.2-1.4-1.2-2.4 0-.9.9-.8 1.3-1.2.2-.2.4-.3.6-.3.4-.2.3-.4.1-.7-1.2-1.6-2.6-2.9-4.7-3.2-1-.1-2.1-.2-3.1-.2-.7 0-1-.2-.9-.9.3-2.8.8-5.5 2.1-7.9 1.2-2.2 2.7-3.8 5.6-3.4 1.7.2 2.5-1.1 3.2-2.5.6-1.3.7-2.6-.4-3.7-.5-.5-.9-.9-1.3-1.4-.2-.2-.5-.5-.2-.8.3-.2.7-.2 1 0 .2.1.2.3.4.5.7.9 1.7.9 2.5 0 .7-.8 1.5-1.6 2.4-2.2.4-.3.5-.6-.1-.8-.5-.2-.9-.5-1.4-.8-.5-.3-.5-.5 0-.7 1.8-1 3.6-2 5.6-2.4.8-.2 1.4-.5 1.8-1.2.1-1.6.1-1.6-1.5-1.3-.7.1-1.4.3-2.2.5-.6.2-.8 0-.6-.6.6-2.1 1-4.2.9-6.4-.1-1.2-.1-2.4-.2-3.6-.1-.7.1-1.1.9-1 .7 0 1.3-.2 1.9-.4.4-.1.7-.2.5-.7-.2-.4.1-1.2-.7-1.2-1.3 0-2.6-.1-3.9.3-.9.3-1.3.9-1.1 1.9.3 1.8.6 3.6.4 5.4-.3 3.2-1.1 6.2-3.4 8.6-.3.3-.5.7-1.1.6 0-2.3-.1-2.5-.6-3.1-.7 1.7-.8 1.8-2.7 2.5-.2.1-.3.1-.5.2-1.2.5-1.4 1.4-.7 2.4.2.4.6.6.9 1 .4.5.1 1.1-.2 1.5-.4.5-.7-.1-1-.3-.4-.3-.7-.6-1.1-.9-1.3-1-2.6-1-4-.3-1.3.6-1.9 1.7-2 3.1v1.3c.1 2.3 0 2.4-2.2 3.1-.2.1-.3.1-.5.2-1.6.2-2.2 1.4-2.4 2.8-.1.4-.1.6.4.5 2.6-.5 5-1.5 7-3.3.4-.4.4-.7.3-1.2-.3-1-.5-2.1-.4-3.2 0-.2 0-.5.1-.7.8-.9 2.8-.8 3.3.3.6 1.1 1.4 1.7 2.6 2 1.1.3 1.5 1.7.8 2.6-.6.7-1.4.9-2.3.7-.7-.2-1.5-.9-2.2-.5-.6.3-.9 1.2-1.4 1.8-2.9 3.5-4.3 7.5-4.3 12 0 .8-.4 2 1.3 1.7-1.2.4-2.2.7-3.3 1-1.9.5-1.9.5-.8 2.3.5.4.9.7 1.4 1.1.4.3 1 .5.7 1.2-.3.8-.9.9-1.6.9.2-.4.4-.8.7-1.1.5-.5.2-.7-.2-.9-.4-.2-.7-.5-1-.9-1.4-1.3-2.6-2.8-3.2-4.6-.1-.3-.3-.6-.5-.8-.5-.4-1.1-.7-1.7-.4-.6.3-.2 1-.1 1.5.5 1.7 1.7 3.1 2.3 4.7.1.3.4.3.7.4.9.5 1.6 1.1 2.3 2-1.4-.2-2.3-.7-2.8-1.8-.3-.7-.7-.6-1.2-.3-.3.2-.6.4-.8.7-1.2 1.6-2.9 2.3-4.8 2.8-.7.2-1.4.4-2 .6-.7.2-.6.4-.2.9.8.9 1.8 1.3 3 1.6.6.1 1.3.2.6 1.2-1.8 2.4-2.5 5.3-3.6 8.2.4-.1.5-.1.7-.2.5-.2 1.1-.8 1.5-.7.5.1.4 1 .7 1.5.1.2.2.4.3.5.4.8 1 1.4 1.9 1.5-.3.5.6.7.3 1.2-2.1.3-6.5-.7-8.8-2.1-3.2-2-3.7-4.9-1.3-7.8.3-.4 2.9-.5 3.2-.1 0 0 .1.1.1.2.2.7-.3 1.9-1 2.2-.6.3-1.3.4-2 .3-.5 0-.9.2-1.1.7-.2.6.3.8.7 1l.6.3c1.4.4 3.4-.2 4.2-1.3.9-1.3.9-3.3 0-4.7-.8-1.2-2.6-1.9-4.1-1.5-2.9.7-4.8 5.6-3.5 8.3 1.2 2.4 2.8 4.5 5.1 5.8.7.4.5.6 0 1-.8.5-1.6 1-2.2 1.6-3.4 3.1-4.1 6.1-2.3 10.1 1 2.3 3.4 3 5.6 1.8 1.9-1 2.7-3 2-4.8-.7-1.7-3.1-2.8-4.9-2.1-.5.2-1.2.4-1.2 1.1.1.8.8.9 1.5.9h.7c1.3 0 2.2 1.3 1.9 2.5-.1.3-.3.3-.5.4-1.3.3-2.7-.1-3.5-1.2-1-1.5-.9-3-.1-4.5 1.6-3.1 7.1-5.4 10.4-4.5.3.1.5.2.5.4 0 .3-.3.3-.5.4-.8.2-1.3.7-1.6 1.4-.3.6-.6 1.3-.8 2-.2.5-.4.6-.9.3-.4-.3-.9-.7-1.6-.7 1.1 3.3 2.1 6.6 4.5 9.3-.4 0-.6 0-.8.1-.9 0-1.9 0-2.7.7-.5.4-1.2.9-1.1 1.4.1.6 1 .5 1.5.7.2.1.3.1.5.1 2.3.5 4.4 1.5 5.9 3.4.3.4.7.3 1.1.5-.5 1-1 1.9-1.5 2.9-.5.9-.8 1.8-1 2.7-.1.2-.3.5.2.6.9.2 2-.4 2.2-1.3.2-1.2.9-2.2 1.8-3.1.7-.7 1.4-1.4 2.1-2.2.3-.3.8-.8.3-1.2-.5-.5-1.1-.6-1.8-.2-.3.2-.5.4-.7.7-.4.4-.8.7-1.5.9.8-2.1 2.8-3 4.3-2.1 1 .6 1 .9.2 1.8-.6.6-1.4 1.1-1.9 1.8-.5.6-.4 1.1.3 1.4.8.3 1.6.5 2.4.8.6.2 1.3.2 1.8.6-.5.4-1.4-.4-1.4.7 0 5.1 1.2 9.7 4.8 13.5.3.3.5.6.7.9.2.6.6.6 1.1.4.6-.2 1.3-.4 2-.5 1.1-.2 1.8.5 2.1 1.7.3 1.1-.4 1.4-1.2 1.6-1 .4-2 .7-2.4 1.9-.1.3-.4.5-.6.8-.5.5-1 .5-1.6.2-.6-.3-1.3-.4-1.3-1.3-.1-1.1.1-2.1.4-3.1.2-.6.1-.9-.3-1.3-2.1-1.9-4.7-2.9-7.6-3.3.2.5.3.8.4 1.2.4 1.2 1 2.1 2.5 2.1.6 0 1.2.4 1.7.8.6.4.9.8.7 1.6-.2.8-.2 1.6-.1 2.4.1 1.5.8 2.5 2.1 3.1 1.4.6 2.7.7 3.9-.4.4-.4.9-.8 1.3-1.1.4-.3.7-.3 1 .2.5.6.2 1-.3 1.5-1.3 1.3-1.3 2.5-.1 3.1 1.4.7 3 1 3.5 2.8.3-1.1.1-2.2.4-3.2.5 0 .7.4.9.6 2 2 2.8 4.5 3.2 7.2.4 2.5.2 4.9-.3 7.3-.1.7 0 1 .7 1.1 1.3.3 2.6.5 4 .7 1.1.1 1.1-.6 1.2-1.3.2-.8-.5-.7-.9-.9-.3-.1-.6-.1-.9-.1-1.5-.1-1.5.2-1.4-1.6.2-3.3.6-6.5-.8-9.7-.2-.4 0-.6.4-.5.9.1 1.8.3 2.7.5 1.5.3 2 .9 2.1 2.4.3 2.9.8 2.8-2.7 2.9-.3 0-.8-.4-.9.4-.1 1.1.2 1.7.9 1.7.8 0 1.7.1 2.5.1.5 0 .6.2.5.7-.3 1.3-.6 2.6-.8 3.9-.5 2.4-1.7 4.5-3.3 6.2-1.2 1.3-2.7 1.9-4.4 2-.9.1-1-.3-.9-1 .1-1 1-1.6 1.3-2.5-1.7-.1-2.9.3-3.7 1.6-1.2 2.1-2.9 3.2-5.4 2.9-.5-.1-1.1-.1-1.5.4 2.3 1.8 4.1 2.6 6.6 1.2.3-.2.9-.3 1.1.1.2.4-.2.7-.5 1-.2.2-.5.2-.7.2-.8.1-1.5.5-1.9 1.1-.8 1-1.5 2.1-2.5 3 2.6 1.4 3.6 1.2 5.5-.7.6-.6 1.3-1.1 2.3-1-.3 1-1 1.5-1.7 2.1-.7.6-.6 1.2.1 1.7.8.7 1.7.8 2.7.5 1.3-.4 2.3-1.2 3.2-2.1 1.1-1 1.1-1.1.1-2.1s-1.1-1.8-.3-2.9c.4-.5.8-1 1.3-1.4 1.9-1.5 4.1-2.4 6.4-2.9.5-.1.9-.6 1.5-.4-.1.2-.1.3-.2.5-2.2 5.7-5.7 10.5-10.4 14.4-1.1.9-2.3 1.6-3.7 2-.9.2-1.7.2-2.5-.4-.2-.1-.4-.3-.3-.5.1-.2.4-.3.6-.3.2 0 .4.1.5.2.9.6 2.1-.1 2.1-1.2 0-1.4-.7-2.2-2.1-2.4-2.2-.3-4.4 1.3-5.2 3.9-.2.7-.6 1-1.2 1.3-1.2.4-2.4.8-3.7 1.5 2.2.7 4.1 1.4 5.9-.2.8-.7 1.4-1 2.2-.1.6.6 1.5.6 2.4.8.9.2 1.3.8 1.3 1.6 0 .7-.8.4-1.2.6-.2.1-.5.2-.8.2-1.3.4-2.5 1.1-2.5 2.7 0 .2-.3.5.1.6.3.1.6.3.9 0 1-1.1 2.3-.9 3.5-.8 1.2.1 2.5.3 3.7 0 .7-.2 1.1-.5 1.4-1.2.3-1 .1-1.7-.9-2.1-.6-.2-1-.6-.3-1.2.5-.6 1.1-1.3 1.9-1.3 2.1-.1 2.8-1.3 3.2-3.2.4-1.9 2-3 4.1-3.5-1.4 2.1-2.2 4.2-1.9 6.9 1.3-1.7 2.9-2.3 4.6-2.7 1.1-.3 2.2-.9 3.1-1.6 1.8-1.4 2.3-3.2 1.6-5.3-.2-.6-.4-.8-1-.5-2 .8-3.1.1-3.3-2v-1.1c.1-2 .9-3.8 1.4-5.7.2-.8.4-1.6.7-2.3.4 1.1 1.3 1.2 2.2 1.2h3.4c-1.6 1-1.6 1-1.2 2.8.6 2.4 1.6 4.6 3.8 6 1.9 1.2 4.2.9 5.6-.6 1.2-1.3 1.3-4.4-.2-5.8-.6-.6-1.2-1.2-1.7-1.9-.3-.3-.5-.6-.9-.8-1-.4-2-.9-3.1-1.3-1.9-.8-3.9-1.2-5.9-.8-1.1.2-1.6 0-1.6-1.1 0-.3-.1-.6-.3-.9-.5-.7-.1-.9.6-.9 1.2-.2 2.4-.3 3-1.6 0-.3.1-.6.1-.9.2-1-.1-1.1-1-.9-2.7.7-5.3 1.4-8.1 1.8-.5.1-.9.3-.9.9-.1 1.1.1 1.4 1.3 1.3 1.3-.1 2.6-.2 4-.3-2.6.6-1.6 3.3-2.6 4.7-.4-.4.2-.7-.1-1.2-1.7.5-3.4 1.1-5.1 1.6v-.3c.1-.3.2-.6.4-.8 1.3-2.9 2.6-5.9 2.2-9.2-.1-.5.2-.5.6-.5 1.1-.1 2.3-.2 3.4-.6.6-.2 1-.5.8-1.3-.1-.8-.7-.8-1.2-.7-.7 0-1.5.2-2.2.4-1.3.3-1.3.3-1.5-1-.3-3-.9-5.9-1.8-8.8-3.2-10.1-9.5-17.1-19.9-20-.5-.1-1.2-.6-1.4-.1-.2.6 0 1.4.6 1.9.3.2.6.4 1 .5 3.1.8 5.8 2.4 8.3 4.4 5 3.9 8.1 9 9.5 15.2.2.8-.1.8-.7.7-2.5-.4-4.6-1.8-6.9-3 .9-.6 1.7-1 2.5-1.6-1-1-2.1-1.8-2.9-2.8-.7-.8-1.6-.8-2.4 0-.2.2-.3.4-.5.5-.3.4-.6.4-1 0-.4-.5-.1-.7.2-1 .9-.8 1.9-1.4 2.1-2.7.3-2.5-1.8-4.7-4.3-4.5-1.6.1-2.8-.4-3.7-1.6l-1.2-1.8c-1.2-2.1-1.8-4.4-2-6.8-.2-2-.2-2.1 1.7-2 2.8.1 5-.7 6.6-3.1.7-1 .8-1-.4-1.5-.5-.2-1.1-.2-1.4-.8-.3-.8.1-2.2.9-2.6 1.9-1.1 3.7-2.2 5-4.2.3 2.7.4 5.4 4.1 5.7-1.7-1.8-.9-3.4.2-4.9.4-.6.8-1.2 1.1-1.8.5-.9.7-1.9.6-2.9-.1-1.7-.3-1.8-2-1.8-.8 0-1.2.2-1.3 1-.1.6-.3 1.2-.9 1.7-.4-3.2-.8-6.2-3-8.9 4.2.2 7 1.9 8.8 5.3 1.8 3.6 2.1 7.5 1.6 11.4-.5 4-2.8 6.4-6.5 7.5-1.1.3-2.2.5-3.4.7-.5.1-.6.2-.3.6.7 1.3 1.7 2.3 3.1 2.7 1.4.4 2.8.3 4.2 0 .6-.1.7 0 .7.6 0 .9-.1 1.9 0 2.8 0 .6-.2.9-.8 1-.9.2-1.7.5-2.2 1.3-.6 1-.5 1.3.6 1.6 1.7.4 3.1 1.2 4.2 2.6 1 1.2 3 1.5 4.5.7 1.2-.6 1.8-2.1 1.5-3.7-.1-.5-.3-1-.5-1.5-.4-.9-1.5-1.1-2.2-.4-.4.4-.9.7-1 1.3-.1.4-.4.4-.7.4-.4.1-.4-.3-.5-.5-.5-1.7.4-3.2 2.1-3.7.7-.2 1.3-.2 2-.2 1.8 0 2.7.9 3.1 2.6.1.7-.2 1.7.4 1.9.4.2 1.2-.6 1.8-1 1.5-.8 3.1-.9 4.7-.3 1.9.7 2.4 2.8.9 4.1-.5.5-.9.5-.9-.3 0-.4-.2-.7-.2-1.1 0-.7-.4-.9-1-.8-.4 0-.7.1-1.1.1-1.6.4-2.3 1.6-2.6 3.1-.4 2.1.4 3.9 1.6 5.7.2-.7.4-1.2.4-1.7.1-.9.6-1.2 1.4-1.3 1.2-.1 2.5-.3 3.7-.5 1.7-.3 2.6-1.2 3-2.9.6-2.5-.5-4.3-2.5-5.7-1.4-1-1.3-1-.1-2.1 1.2-1 1.6-2.3 1.5-3.9-.4.2-.6.3-.9.4-2.1 1-4.3 1.3-6.6.8-7.7-1.8-10.3-9.5-9.5-15 .3-1.7 1.1-3.1 2.7-4 2.1-1.1 4.2.2 4.2 2.6 0 .4-.1.7-.2 1.1-.3 1.4-1.1 1.9-2.6 1.7-.5-.1-.8-.6-1.3-.8-.2 3 2.9 7 5.9 7.9 1.7.5 3.3 1.1 5.1 1.3.4 0 .6.3.8.7.8 2 2.2 3.4 4.5 3.8 1.5.2 3-.1 4.4-.5.8-.3 1.1-.1 1.1.7.1 1.3.8 2.3 2.2 2.6.9.2 1.1.6 1 1.5-.1.5-.1 1 0 1.5.3 1.4 1.6 2.3 3 2 .7-.2 1.1-.7 1.6-1.2.9-1 .9-.9 1.5.2.8 1.6 1.9 1.8 3.2.6.4-.3.7-.8 1-1.1.4-.5.9-.9 1.6-.6.7.3.6 1 .5 1.6-.3 1.2-1 2.2-2.1 2.8-.7.4-.6.6-.1 1.1.7.7.9 1.6.8 2.7-.6-.2-1-.6-1.4-1-.9-.9-2-.6-2.3.6-.3 1.1-.5 2.2-.7 3.3-.1.6-.5 1.1-1.1 1.3-.2.1-.5.1-.7.4 1.6.9 3.1.8 4.5-.4.7-.6 1.3-1.2 2.3-1.2.6 0 .8.1.6.7-.7 2.1-.5 4.1.4 6.1.2.4.3.7.8.7.5-.1.4-.5.4-.8-.1-2.1.8-3.5 2.6-4.5 2-1.1 2.5-3.3 1.6-5.4-.4-.9-1.3-.8-2-.9-.6-.1-.9.3-1.1.8-.2.4-.3.9-.7 1.3-.8-1.1-.7-1.9.3-2.7.8-.6 1.7-.9 2.5-1.3 1.5-.7 3-1.3 4.3-2.5 1.4-1.3 1.6-2.5.8-4.2-.4-.8-.9-1.7-1.3-2.5-.4-.7-.6-1.5-.3-2.6.4.6.7 1.1 1.1 1.6.2.2.3.5.6.6 1.1.2 2.4-.4 2.8-1.5.3-.7.3-1.4.4-2.1.1-2.3.1-4.7 1.6-6.8-1.4 0-2.4.6-3.4 1.3-.6.5-1.2 1.6-1.7 1.3-.5-.2-.7-1.3-1-2.1-.9-2.3-.2-3.8 1.9-4.9.7-.4 1.5-.7 2.2-1.2 1.7-1.2 1.4-3.7-.5-4.5l-.6-.3c-.2-.1-.4-.2-.4-.4 0-.3.3-.4.5-.4 1.8.1 3.2-.6 4-2.3.3-.9.4-2-.5-3.4-.5-.7-.7-.7-1.3-.3-1.8 1.4-3.1 1.2-4.6-.6-.3-.4-.6-.7-1.1-.9-.4-.1-.8-.4-1.1-.1-.3.3-.1.8 0 1.2 0 .3.2.5.6.5.4 0 .7.3.9.6 1 1.4 1 3.4 0 4.7-1.4 1.9-4 1.7-5.2-.3-.2-.4-.5-.6-.8-.9-.4-.3-.6-.2-.7.3-.3 1.4-.3 2.9.2 4.3.6 1.6 1.9 2.5 3.6 2.3.4 0 .8-.1 1.2-.2.3-.1.5 0 .5.4.2 2 .5 4.1.7 6.1.1 1.4-.3 2.6-1.8 3.2-1.5.6-2.3 1.7-2.5 3.3 0 .6-.2.8-.8.5-.3-.1-.7-.2-1.1-.3-1.8-.3-2.6.3-3 2-.2.8-.2 1.5-.4 2.3-.2.9-.9 1.3-1.8 1.4-.9.1-1.6-.6-1.8-1.5-.2-.8-.1-1.6.4-2.2 1.3-1.5 1.3-3.2.9-5.1-.2-1.1.1-2 .8-2.9.3.2.3.6.4.8.2.9.6 1.6 1.7 1.5 1.3-.1 1.7-.4 2-1.7.1-.5.1-.9.1-1.4-.1-1.1.4-1.8 1.1-2.5.4-.4.9-.7 1.3-1.1.5-.4.4-.6-.1-.8-1.3-.5-2.7-.6-4.1-.2-.5.1-.8.2-.7-.5.3-2.5.4-5 .7-7.4.2-1.6.7-3.1 2.1-4.1.5-.4 1.1-.6 1.6-.9.3-.2.6-.4.5-.8-.1-.4-.5-.3-.9-.3-3.2-.3-6.3 2.5-6.7 6-.1 1.2-.1 2.4-.2 3.5-.1 1.5-.1 3-.4 4.4-.2.8-.6.9-1.3 1-.6 0-1-.4-1.4-.7-.9-.9-1.4-.8-2 .3-.3.5-.4 1.1-.3 1.8.2 1.2.7 2.3 1.2 3.4.6 1.5 1.3 3.1 1.3 4.7 0 1.8-1 2.8-2.9 2.8-1.6.1-2.8-1-3-2.6 0-.4-.1-.8-.1-1.2 0-.8-.1-1.1-1-.6-.9.6-1.9 1-2.9 1.4-1.9.9-3.6.6-5.2-.7-.6-.5-1.2-.9-2-.6.3-.4.7-.5 1.1-.7 1.4-.5 2.8-1 3.9-2.1.4-.4.7-.5 1.3-.1 1.6 1.1 3.3.8 4.4-.7 1.1-1.5 1.3-3.1.4-4.7-.4-.7-.9-1.7-1.6-1.4-.4.2-.1 1.3.3 2 .5.8.4 1.6.2 2.5 0 .2 0 .4-.3.5-.5.2-2-1.2-1.9-1.8.3-1.1.6-2.1.9-3.2 1.3-5.3-1.1-9.9-6.1-11.9-.1 0-.3-.1-.3-.3.2 0 .3-.1.5-.1s.5.1.7.1c2.2.3 4.1 1.4 5.8 2.7 1.1.8 2.1 1.3 3.5 1.1 1.5-.1 3 .1 4.3 1.1.3.2.7.8 1 .6.5-.3.4-1 .4-1.5 0-.6-.3-1.2-.7-1.6-.3-.3-.6-.5-.8-.9-.7-1-.3-1.9.9-2h1.3c.8.2 1.6 0 2.4-.4 1.2-.6 2.3-1 3.5-1.5.3-.1.6-.1.7-.6-2.5-.8-4.7-2.6-7.6-2h-.6c-.8-.1-1-.6-.8-1.3.2-.6.6-1.1 1-1.5.6-.7.9-1.6.7-2.5-.1-.5-.3-.7-.8-.3-1.7 1.5-3.7 1.7-5.8 1.5-.7-.1-1.3.1-1.9.5-1.2.9-2.3 1.8-3.6 2.5-1.5.8-3.2 1.1-4.3.8 4.8-1.3 7.3-6.7 6.9-10.2-.2-1.7-.7-3.3-1.2-4.9-.1-.3-.3-.7 0-.9.6-.4 1.2-1.3 1.9-1.1.5.2.4 1.3.3 2 0 .3-.2.6-.3.8-.2.5-.4 1-.4 1.6 0 .2-.2.5.1.6.3.1.4-.1.6-.3 1.4-1.3 1.9-2.8 1.5-4.7-.5-1.9-2.1-2.9-4-2.5-.4.1-.9.1-1.3.3-.7.4-1.2.4-1.9-.3-1-1.1-2.4-1.5-3.8-1.8-.3-.1-.7 0-1.2-.5 1.6.1 2.5-.9 3.7-1.5 1.2-.6 2.4-.6 3.6-.2 1.3.4 2.4 1.1 3.6 1.7.6.3.9.2.8-.5 0-1.1.2-2.1.7-3.1.2-.3.3-.6.8-.7 3.4-.4 5.1.6 4.2 4.2 0 .2-.1.4-.2.6-.4 1.5-1.1 2.9-1.7 4.4-.8 1.9-.4 3.3 1.2 4.8.4-.9 1-1.6 2-1.8.8-.1 1.2.1 1.3.9.2 1.3.3 2.6.4 3.9.1 1.8.2 3.6.7 5.4.8 2.9 2.7 4.5 5.7 4.9.6.1 1.2-.1 1.4-.5.2-.4-.4-.6-.7-.9-.1-.1-.2-.1-.2-.2-2.2-1.1-3-3-3.2-5.3-.2-2.2-.4-4.3-.6-6.4-.1-1.1-.1-1.1 1-.8 1.4.3 2.7.4 3.9-.6.5-.4.5-.7-.2-.9-1.8-.5-2.3-1.8-2.5-3.5-.1-.6-.1-1.2-.3-1.8-.4-.8-.9-1.2-1.9-1.2-.9 0-1 .6-1.3 1.1-.2.3-.3.6-.4.9-.1.2-.1.4-.3.4-.3 0-.3-.2-.4-.4-.9-1.2-.7-2.5-.2-3.8.4-1.1.3-2.1-.5-3-.6-.6-.9-1.4-1-2.2-.2-1.2.4-2.1 1.5-2.3 1.1-.2 2 .5 2.2 1.6.2.7.2 1.5.4 2.2.3 1.5 1 2 2.5 1.9.4 0 .8 0 1.1-.2.9-.4 1.2 0 1.3.9.1 1.4.9 2.3 2.2 2.7 1.4.5 2 1.6 2 3.1 0 1.6-.3 3.1-.5 4.6-.1.6.1 1.4-.3 1.9s-1.3.1-1.9.1c-2.2.1-3.5 1.2-3.8 3.3-.1.6-.1 1.2 0 1.7.1.7-.1 1.7.6 1.9.6.2 1-.8 1.5-1.3.8-1 2.2-1.5 3.3-1.1 1.3.4 2.3 1.9 2.3 3.5 0 1.5-.6 2.6-1.7 3.1-.7.3-.6 1-.5 1.5.1.6.7.2 1 .1.9-.3 1.6-1.1 2.4-1.7 1-.8 1.7-.9 2.7-.2.5.3.9 1.2 1.4 1 1.5-.5 1.7-3 1.2-4-.7-2-2.4-2.5-4.3-2.8m-30.6 8.8c2-.8 3.9-1.6 5.9-2.3.1-.1.3-.1.5-.1 1.9.6 3.6 1.5 5.5 2.5-.8.3-1.3.4-1.8.6-.8.3-1.6.7-2 1.5-.3.7-.8.7-1.4.5-2-.7-4.1-1.4-6.1-2.2-.1-.1-.4-.1-.6-.5m-6.6 74.1c.9.2 1.7.6 2.4 1 1.1.6 2.2 1.4 2.8 2.5.7 1.3 0 2.8-1.4 2.8-.6-.1-1.2-.3-1.7-.6-1.8-1.3-2.1-3.4-2.6-5.4-.1-.5.3-.4.5-.3m-29.2-77c0-.6.5-1.1.6-1.9-.9.3-1.6.7-2.3.9-2.9.5-5.3 2.4-8.2 3-.1 0-.2.1-.4.2-.5.3-1.3.5-1.2 1.1 0 .5.8.8 1.3.9 1.9.4 3.6 1.1 5.2 2.1.5.3 1.1.4 1.7.4.9.1 1.7.3 2.5.8 1.1.8 1.1.8 1.3-.5.1-.8.4-1 1.1-.5 1.3.9 2 2.2 2.3 3.7.7 3.5-1 6.6-4.6 7.8-5.5 1.9-11 1.5-16.1-1.2-2.9-1.5-4.1-4.3-3.9-7.6.2-2.3 1.8-3.9 3.8-4 1.3 0 2.3.4 2.5 1.1.3 1.2-.6 1.7-1.4 2.2 0 0-.1 0-.1.1-.5.2-.5.5-.4 1 .6 1.8 1 2.1 2.8 2.1h.7c.5.1.7-.2.9-.6.7-1.4.7-1.4 1.9-.4.3.2.5.5.8.8.4.5.5 1 .1 1.5-.9 1.4-.1 2.8 1.5 2.9.8.1 1.5-.1 2.3-.3 1.3-.4 2.5-.3 3.7.3.2.1.3.3.6.1-.1-1-.6-1.9-1.4-2.6-.5-.5-.6-.8 0-1.2.1-.1.3-.2.4-.3.4-.3.7-.8.5-1.2-.2-.4-.7 0-1 .1-1.8.6-3.3.3-4.4-1.4-1-1.5-2.3-2.6-3.7-3.7-.8-.6-1.5-1.2-2.2-1.8-1.1-.9-.7-1.7.3-2.1 2.1-.9 3.5-2.5 4.8-4.3 1.5-2 3.1-3.3 5.8-2.2.5.2.6 0 .5-.5-.2-.8-.9-1-1.6-1.4 1.1-1 1.9-2.1 2.1-3.8-1.8 1.4-3.5.9-5.3.6-.4-.1-.7-.1-1.1-.1-1.8 0-2.6 1.1-2.1 2.8.5 1.8.5 1.8-1 2.9-.6.4-.8.5-1.2-.3-1-2-3.1-2-4.3-.1-.2.3-.3.6-.4.9-.2.5-.1.7.3 1 .4.3 1 .4 1.3.9.7 1.4 0 2.5-1.6 2.4-1.2 0-2.3-.5-3.5-.7-.2-.9-.5-1.9-.7-2.8-.8-3.2.1-5.8 3-7.5 5.3-3.1 10.9-3.7 16.7-1.9 4.1 1.3 5.9 5.6 4.2 9.6-.6 1.7-1.9 2.7-3.4 2.7m15.4-.4c.4-.6 1-.5 1.6-.2.8.3 1.5.8 2.2 1.3.3.2.5.3.9 0 1.4-1.6 2.7-3.2 2.7-5.6 0-2.5.3-5 1.3-7.3s2.6-4.1 5.1-4.7c.1.1.1.2.1.2-.3 3.3 3.3 6.8 6.6 6.5.4 0 1 0 1-.6 0-.5 0-1.1-.8-1.1-.6 0-1.1-.4-1.7-.6-1.1-.5-2-1.1-2.2-2.4-.1-.6-.5-1-1-1.3-.5-.3-.9-.5-1.4-.8v-.2h.7c1.3 0 2.5.5 3.7.9.8.2 1.2.6 1.5 1.3.8 1.5 1.4 3.1 1.7 4.8.8 4-1.3 7.7-4.8 8.8-2.7.8-5.1-.6-5.5-3.3-.2-1.7.9-3 2.7-3.1.6 0 .9.2.8.8-.1.6.2 1.1.7 1.2.6.2 1.3 0 1.8-.3s.5-.8.4-1.4c-.5-2-2.9-3.4-5-3-2.3.5-3.9 2.6-4 5.2-.1 3.6 2 6.4 5.7 7.5.7.2 1.5.2 2.1.9-.9.6-2 .9-3 1.3-3.9 1.4-5.6 4.8-4.6 8.7.5 1.9 2.5 3.5 4.2 3.6 1.9.1 3.9-1.4 4.5-3.2.3-.9 0-1.5-.9-1.8-1-.3-1.7 0-1.8 1-.1 1.1-.7 1.2-1.6 1.1-1.2-.2-1.9-.9-2.1-2-.4-1.9 1.1-4 3-4.4 2.6-.4 4.8.6 6.2 2.9.6.9.9 2 1.1 3 .5 2.8.2 5.5-1.6 7.8-2 2.5-6.6 2.9-9.4.9-.1-.1-.2-.1-.2-.2-1.9-2.5-3.1-5.3-3.3-8.5-.1-2.7-.3-5.3-2.4-7.4-.9-.9-.8-1-1.7-.1-1.3 1.2-2.6 1.5-3.6.4-1.4-1.5-3.1-2.4-5-3 0 0 0-.1-.1-.2.2-.1.3-.2.5-.3 2.1-.6 3.7-1.4 4.9-3.1M176.8 82c-.6.8-1.2 1.6-1.7 2.4-.5.8-1.1 1.1-2 1.1-3.3.1-5.9 1.4-7.9 4-1.1 1.4-1.9 3-2 5 .2-.1.3-.2.4-.3 1.6-1.3 3.2-.7 3.5 1.3.3 1.7-.4 3.2-1.7 3.8-1.5.7-3.4-.3-4.1-2.1-.8-2-.9-4-.7-6.2.5-4.5 2.7-8 6.8-10.1 2.9-1.5 6-1.7 9-.2.7.3.8.7.4 1.3"/><path clip-path="url(#SVGID_4_)" fill="rgba(63, 63, 63, 0.2)" d="M134.2 78.1c-2.7.1-5.5.2-8.2.3-1.2 0-1.2 0-.8-1.1.4-1.2 1-2.4 1-3.7 0-.7-.2-.9-.8-.9-.8 0-1.7.2-2.6-.1.3-.6.9-.5 1.3-.6.6-.2 1.3-.2 1.9-.3.4-.1.8-.1 1-.5.3-.6.6-1.3.3-1.8s-.9 0-1.3.1c-1.2.2-2.4.5-3.7.7.3-1 1.1-1.2 1.8-1.4 1.7-.4 1.8-.5 1.3-2.2-.3-1.1-.7-2.2-1.1-3.3-.1-.4-.4-.4-.7-.1-.4.3-.8.5-1.2.7-.9.5-1.7.4-2.4-.3-1.4-1.2-2.4-2.8-4.1-3.9 1-.3 1.7-.6 2.5-.8.7-.2 1.2-.6 1.4-1.3.2-.4.4-1 .2-1.3-.2-.3-.7 0-1.1.1-.8.2-1.5-.1-2.3-.2-.6-.1-1.2-.3-1.8-.4-2.3-.2-2.4 0-2.8 2.2-.1.9-.5 1.6-1.4 2.1-.6.3-1.2.7-1.7 1.3-.3.3-.6.4-.9.2-.3.2-.6.1-.9-.2-.5-.5-1-1-1.7-1.3-.8-.5-1.2-1.2-1.4-2.1-.3-2.2-.5-2.4-2.8-2.2-.6 0-1.2.2-1.8.4-.8.2-1.5.4-2.3.2-.4-.1-.9-.4-1.1-.1-.3.4 0 .9.2 1.3.2.7.8 1.1 1.4 1.3.8.3 1.5.5 2.5.8-1.7 1.2-2.7 2.7-4.1 3.9-.7.7-1.6.7-2.4.3-.4-.2-.8-.5-1.2-.7-.3-.2-.5-.3-.7.1-.4 1.1-.8 2.2-1.1 3.3-.5 1.7-.4 1.7 1.3 2.2.7.2 1.5.3 1.8 1.4-1.3-.3-2.5-.5-3.7-.7-.4-.1-1.1-.6-1.3-.1-.3.5 0 1.3.3 1.8.2.4.6.5 1 .5.6.1 1.3.2 1.9.3.4.1 1 .1 1.3.6-.9.3-1.8.1-2.6.1-.7 0-.8.2-.8.9 0 1.3.6 2.5 1 3.7.4 1.1.4 1.1-.8 1.1-2.7-.1-5.5-.2-8.2-.3-.6 0-.8.2-.7.8.1.9.5 1.6 1.6 1.7 2.3.2 4.6.4 6.9.4 1.8 0 1.8 0 2.2-1.8 0 0 .1-.1.2-.1.6 1.5 1.5 2.8 2.3 4.2.9 1.7 1.1 3.4.5 5.3-.2.5-.3 1-.5 1.5 1.9-.2 2.1-.4 2.9-2.4.4-1.1.8-1.2 1.8-.5.4.3.6.6.8 1 .7 1.5 1.9 2.2 3.5 2.1.4 0 .9-.1 1.1-.5.2-.4-.3-.6-.5-.9-.5-.5-.4-.8.2-1.1.6-.2 1-.6 1.4-1.1.1-.2.2-.6.6-.5.3.1.2.4.3.7.5 3.8.2 7.5-1.7 10.9-.3.6-.7 1.2-.7 1.9 0 .3-.4.7.1.9.5.2.8 0 1.1-.4.6-.9 1.3-1.8 1.8-2.7.4-.6.6-.6.9-.3.3-.3.5-.3.9.3l1.8 2.7c.3.5.6.6 1.1.4.5-.2.1-.6.1-.9 0-.7-.4-1.3-.7-1.9-1.9-3.4-2.2-7.1-1.7-10.9 0-.2 0-.6.3-.7.3-.1.4.3.6.5.4.5.8.9 1.4 1.1.6.3.8.6.2 1.1-.3.2-.7.5-.5.9.2.4.7.4 1.1.5 1.7.1 2.8-.5 3.5-2.1.2-.4.4-.8.8-1 1-.7 1.4-.5 1.8.5.8 2 1.1 2.3 2.9 2.4-.2-.5-.3-1-.5-1.5-.6-1.8-.4-3.6.5-5.3.8-1.4 1.7-2.7 2.3-4.2.1.1.2.1.2.1.4 1.7.4 1.7 2.2 1.8 2.3 0 4.6-.1 6.9-.4 1-.1 1.4-.7 1.6-1.7.4-.7.2-.8-.5-.8m-26.7-9.4c-1.7-1.5-3-3.2-5.4-3-.1.3.1.5.3.6 1 1.1 1.3 2.2.8 3.6v.1c-.7 2.5-.3 3.1 2.1 3.9.3.1.6.1.8.4.5.8.1 1.6-.8 1.7-1.2.2-2.6.3-3.2 1.8-.4.9.2 3.1.9 3.5.3.2.4-.1.6-.2 1.3-.9 2.5-.5 2.8 1.1.3 1.7-.6 3.2-2.3 3.6-2.1.5-3.8-.2-5.1-1.9-1.7-2.3-2.4-5-2.9-7.7 0-.2-.2-.5.2-.5.2 0 .5-.3.6.2.1.5.4.4.7.1 2-2 2-4.4-.3-6.2-.8-.6-.9-1.2-.6-2 .4-1.4 1-2.7 1.9-3.8 1.2-1.4 2.6-2.5 4.6-2.2 2.1.3 3.1 1.7 3.8 3.5.4 1 .5 2 .5 3.4m12.8 7.4c-.6 2.7-1.2 5.4-2.9 7.7-1.3 1.7-3 2.4-5.1 1.9-1.7-.4-2.6-1.9-2.3-3.6.3-1.6 1.5-2.1 2.8-1.1.2.1.3.4.6.2.8-.5 1.3-2.6.9-3.5-.6-1.5-1.9-1.5-3.2-1.8-.9-.2-1.3-.9-.8-1.7.2-.3.5-.3.8-.4 2.4-.8 2.8-1.4 2.1-3.9v-.1c-.6-1.4-.2-2.6.8-3.6.1-.2.4-.3.3-.6-2.4-.2-3.7 1.5-5.4 3 0-1.3.1-2.4.5-3.4.7-1.8 1.7-3.3 3.8-3.5 2-.3 3.4.8 4.6 2.2.9 1.1 1.4 2.4 1.9 3.8.3.9.2 1.4-.6 2-2.3 1.8-2.3 4.1-.3 6.2.3.3.6.5.7-.1.1-.5.4-.2.6-.2.4 0 .2.4.2.5"/><path clip-path="url(#SVGID_4_)" fill="rgba(63, 63, 63, 0.2)" d="M147.2 43.5c-1.3-1-1.9-2.4-2.5-3.8-1.5-3.5-6.9-3.9-9-.7-.4.6-.9 1.2-1.3 1.8-.4.6-.8.7-1.5.3-.7-.4-.6-.8-.3-1.3.2-.5.5-.9.8-1.4 1.2-1.8 1.1-2.5-.1-4.3-.2-.2-.4-.5-.6-.7-.1-.2-.3-.3-.2-.5.1-.3.3-.1.5-.1.8.1 1.5.2 2.3.2 1.2 0 2.1-.7 2.4-1.9h-.3c-2.2.4-4.1.2-5.4-2.1-1-1.9-1.9-1.9-3.9-1.2-1.6.5-3.1.7-4.5-.5-.1-.1-.2-.1-.4-.1.2 2 1.5 3 3.1 4-1.1.7-2.2 1.3-3 2.2-1.3 1.5-1 3.1.6 4.1 1 .6 1.7.3 2-.8.4-1.6 1.4-2.3 2.7-1.9 1.4.4 2.3 1.8 2.3 3.4 0 2-.7 3.2-2.3 3.6-1 .3-2.1.4-3.1.2-.8-.1-1.1.1-1.1.9-.1 2-1.1 3.3-2.9 4.2-1.1.5-2.2.8-3.3 1.1-2.2.6-4.1 1.6-5.7 3.1-.6.6-1.2 1.1-2 1.5-.1-.2-.1-.3 0-.5.8-2.5 2.5-4.5 4.3-6.4 1.4-1.6 3-3 4.1-4.8 2.3-3.7 1.9-7-1.1-10-.4-.4-.5-.6 0-1.1 1.2-1.1 1.9-2.5 2.2-4.1.4-2.2.1-4.5.2-6.8 0-1.8-.5-3.4-1.4-4.9-1-1.7-1.6-1.9-3.5-1.5-1.4.3-2.2-.2-2.5-1.6-.4-2 .4-3 2.6-3.3 1.7-.2 1.8-.4.9-1.9-.4-.7-1-1-1.8-.9-.5 0-1.1.1-1.6.2-.6.1-.8.1-.7-.6.3-1.3 0-2.4-1.5-2.9-.6-.2-1.2-.7-1.6-1.4-.2-.1-.8 0-.8 0h-.8c-.4.8-1 1.2-1.6 1.4-1.5.5-1.7 1.6-1.5 2.9.1.7-.1.8-.7.6-.5-.1-1.1-.2-1.6-.2-.8-.1-1.4.2-1.8.9-.9 1.5-.8 1.7.9 1.9 2.3.3 3 1.2 2.6 3.3-.3 1.4-1 1.9-2.5 1.6-1.9-.4-2.5-.1-3.5 1.5-.9 1.5-1.5 3.1-1.4 4.9.1 2.3-.2 4.5.2 6.8.3 1.6.9 3 2.2 4.1.5.5.4.7 0 1.1-3 3-3.4 6.3-1.1 10 1.1 1.8 2.7 3.3 4.1 4.8 1.8 1.9 3.4 3.9 4.3 6.4.1.2.1.3 0 .5-.8-.4-1.4-1-2-1.5-1.7-1.5-3.6-2.5-5.7-3.1-1.1-.3-2.3-.6-3.3-1.1C93 46 92 44.7 92 42.7c0-.8-.3-1-1.1-.9-1 .2-2.1.1-3.1-.2-1.6-.4-2.3-1.6-2.3-3.6 0-1.6.9-3 2.3-3.4 1.3-.4 2.3.3 2.7 1.9.3 1.1 1 1.4 2 .8 1.7-.9 1.9-2.6.6-4.1-.8-.9-1.9-1.5-3-2.2 1.5-1 2.8-2 3.1-4-.2.1-.3.1-.4.1-1.4 1.2-2.9 1-4.5.5-2-.7-2.9-.6-3.9 1.2-1.3 2.3-3.2 2.5-5.4 2.1h-.3c.3 1.2 1.1 1.9 2.4 1.9.8 0 1.5-.1 2.3-.2.2 0 .4-.2.5.1.1.2-.1.4-.2.5-.2.2-.4.5-.6.7-1.3 1.8-1.3 2.5-.1 4.3.3.5.6.9.8 1.4.3.5.4 1-.3 1.3-.6.4-1.1.3-1.5-.3-.4-.6-.9-1.2-1.3-1.8-2.2-3.1-7.5-2.7-9 .7-.6 1.4-1.2 2.8-2.5 3.8 1.1.4 1.9.4 2.8-.5.5 1.8-.6 2.8-1.5 4 2.4.5 4.1-.1 5.4-2 .4-.6.5-1 0-1.6-.3-.3-.4-.7-.6-1.1-.3-.8-.3-1.6.3-2.2.6-.6 1.4-.6 2.2-.4 1.3.4 2.1 1.5 2.6 2.6.3.6.5 1.2.7 1.9.2.6.4.7 1 .3 2.3-1.3 4.9-.9 6.6.9 2.4 2.6 1.1 6.6-2.3 7.4-2.2.5-3.7-1-3.5-3.4.3.1.3.4.4.6.5.9 1.4 1.3 2.3.9.8-.4.8-1.3.7-2-.3-1.5-.8-1.9-2.3-2-1.5-.1-2.8.5-3.3 1.8-.5 1.1-.6 2.2-.1 3.3.7 1.4.8 2.9.4 4.4-.1.6.1.7.6.7 1.1 0 2.2-.3 3.2-.8.6-.3.9-.2 1 .5.2.9.6 1.7 1.1 2.5 1.9 2.6 4.8 1.9 6.5.1.1-.1.2-.2.2-.3 0-.2-.3-.2-.4-.2-.8 0-1.5 0-2.2-.5-1.3-1-1.5-3.5-.4-5.1 1-1.5 2.5-2.2 4.2-2.3 4.6-.3 8.5 1.1 11.4 4.8.7.9 1 1.9 1.3 2.9.1.3-.1.7.4.7.2 0 .4-.1.5-.2.1.1.2.2.5.2.6 0 .4-.5.4-.7.3-1.1.6-2.1 1.3-2.9 2.9-3.8 6.8-5.1 11.4-4.8 1.7.1 3.2.8 4.2 2.3 1.1 1.6.8 4.1-.4 5.1-.7.5-1.4.6-2.2.5-.2 0-.4 0-.4.2 0 .1.1.3.2.3 1.7 1.8 4.7 2.5 6.5-.1.5-.8.9-1.6 1.1-2.5.1-.7.4-.8 1-.5 1 .5 2.1.8 3.2.8.5 0 .7-.1.6-.7-.4-1.5-.3-3 .4-4.4.5-1.1.3-2.3-.1-3.3-.5-1.3-1.8-1.9-3.3-1.8-1.5.1-2 .5-2.3 2-.2.8-.2 1.6.7 2 .9.4 1.8 0 2.3-.9.1-.2.1-.5.4-.6.2 2.5-1.3 3.9-3.5 3.4-3.4-.8-4.6-4.8-2.3-7.4 1.7-1.8 4.2-2.2 6.6-.9.6.3.8.2 1-.3.2-.6.5-1.3.7-1.9.6-1.2 1.3-2.2 2.6-2.6.8-.2 1.6-.3 2.2.4.6.6.6 1.4.3 2.2-.1.4-.3.8-.6 1.1-.5.6-.3 1.1 0 1.6 1.3 1.8 3 2.5 5.4 2-.9-1.2-2-2.2-1.5-4 .5 1.1 1.3 1.2 2.4.7m-38 7.6c-.2-2.4-.3-4.7.1-7 .2-1 .4-2 .9-2.9.3-.6.7-.7 1.3-.6.7.2 1.2.7 1.7 1.1.3.3.5.4.7-.2.5-2.4.6-4.7-1.9-6.1-.5-.3-.6-.8-.5-1.4.6-2.9 1.7-5.5 3.7-7.7.8-.9 1-1.9.9-3 0-.3 0-.6-.2-.7-.3-.1-.6.2-.7.4-.9 1.3-1.7 2.6-2.5 3.9-.2.3-.3.7-.8.8-.8-3.7-.8-7.5-3.3-10.6-.1.1-.2.3-.3.4-.1-.1-.2-.3-.3-.4-2.5 3.1-2.5 7-3.3 10.6-.5-.1-.6-.5-.8-.8-.9-1.3-1.7-2.6-2.5-3.9-.2-.2-.4-.6-.7-.4-.2.1-.2.5-.2.7-.1 1.1.1 2.1.9 3 1.9 2.2 3.1 4.8 3.7 7.7.1.6.1 1.1-.5 1.4-2.5 1.5-2.4 3.7-1.9 6.1.1.6.4.5.7.2.5-.4.9-.9 1.7-1.1.6-.1 1 0 1.3.6.5.9.8 1.9.9 2.9.4 2.3.3 4.7.1 7-.7-3.1-2.7-5.5-4.5-8-.6-.8-1.2-1.7-1.7-2.5-1.9-3.3-1.7-6.2.8-9 .7-.8.8-1.3 0-1.9-3.7-2.9-3.9-10 .9-13.2 2.2-1.5 3.6-3.4 4.4-5.9.2-.5.4-1 .8-1.4.1.1.2.3.3.4.1-.1.2-.3.3-.4.5.4.7.9.8 1.4.8 2.5 2.2 4.4 4.4 5.9 4.7 3.2 4.6 10.2.9 13.2-.8.7-.7 1.2 0 1.9 2.5 2.8 2.8 5.7.8 9-.5.9-1.1 1.7-1.7 2.5-2 2.5-4 4.8-4.7 8m37.4 124.4c-.9-.1-1.6.2-2.2.7-.3-1.8.7-3 1.8-4.3-1.2 0-2.1 0-3 .1-1.5.3-2.3 1.4-2.9 2.6-.4.8.4 1.2.7 1.8.3.9.6 1.8-.2 2.6-.7.8-1.7.6-2.5.2-.5-.2-.9-.5-1.2-.9-.8-.9-1.3-2-1.5-3.1-.1-.9-.5-1-1.2-.7-.9.4-1.8.5-2.8.5-2.4.1-4.5-1.3-4.9-3.5-.5-2.3.6-4.4 2.9-5.3 2.9-1 4.4 1.1 4 3.3-.3-.3-.5-.7-.8-1-.5-.5-1-.9-1.8-.5-.7.4-1 1-.9 1.8.1 1.4 2.5 2.9 3.8 2.4.1 0 .2-.1.3-.2 1.8-1.6 2.3-3.9 1.3-6.1-.5-1.1-.7-2.2 0-3.4.3-.6 0-.6-.4-.7-1-.1-1.9 0-2.8.4-1.3.6-1.3.6-1.7-.8l-.6-1.5c-1.4-2.4-5.2-2.7-7-.6-.3.4.1.4.3.5.8.3 1.5.5 2.3.8.3.1.6.1.7.5.7 2.4.7 5-2.3 6.2-1.7.7-3.5.8-5.4.6-4.8-.7-8.1-3.2-9.6-7.8-.1-.4-.1-.8-.1-1.2 0-.4.1-.6.5-.7.3-.1.5.1.6.4.3.5.6.8 1.1 1 .9.3 1 .8 1 1.7 0 2.2.9 2.8 2.9 2.3 1.5-.3 3.1-.8 4.7-.4.3.1.4 0 .4-.4 0-1.3-.9-2.4-2.2-2.6-.6-.1-1.3-.2-2.2-.3 1.5-1.4 2.8-2.7 4.2-3.9 1.6-1.4 2.1-1.3 3.7.1.5.5.6.3.7-.3.4-1.4.8-2.7 1.2-4.1.3-.8 0-1.2-.7-1.4-.9-.2-1.8-.6-2.6-1.1-.4-.3-.5-.6-.4-1 .2-1.6.2-1.6 1.8-1.6 2.8-.1 2.9-.2 2.1-2.9-.1-.2-.1-.4-.2-.7-.6-1.8-1.7-3.5-2.7-5-1.9-2.8-2.8-5.6-1-8.8-1.5 0-2.2.5-2.7 1.7-.2.5-.4.9-.7 1.3-.4.5-.7.5-1.2.1-.6-.5-1-1.1-1.4-1.7-.8-1.4-2-1.6-3.5-1.5-.3 0-.7.1-.9.4-.1.4.3.5.4.7.2.3.7.7.3.9-1 .4-1.7 1.2-2.4 2.1-.1-.2-.2-.3-.2-.4-.6-3.7-.4-7.4 1.3-10.9.4-.8.8-1.6 1-2.4.1-.3.2-.7-.2-.9-.4-.2-.5.1-.7.3-.7.7-1.2 1.5-1.7 2.2-.7 1-.9 1.3-1.3.9-.4.3-.6 0-1.3-.9-.5-.8-1.1-1.6-1.7-2.2-.2-.2-.4-.5-.7-.3-.4.2-.3.6-.2.9.2.9.7 1.6 1 2.4 1.6 3.5 1.9 7.1 1.3 10.9 0 .1-.1.2-.2.4-.7-.9-1.4-1.7-2.4-2.1-.4-.2.1-.6.3-.9.2-.2.6-.3.4-.7-.1-.4-.5-.4-.9-.4-1.4-.2-2.7.1-3.5 1.5-.4.6-.8 1.2-1.4 1.7-.5.4-.8.3-1.2-.1-.3-.4-.5-.9-.7-1.3-.5-1.2-1.2-1.7-2.7-1.7 1.8 3.2.9 6-1 8.8-1.1 1.6-2.1 3.2-2.7 5-.1.2-.2.4-.2.7-.8 2.7-.7 2.8 2.1 2.9 1.6.1 1.6.1 1.8 1.6.1.5-.1.8-.4 1-.8.6-1.6.9-2.6 1.1-.7.2-1.1.5-.7 1.4.5 1.3.9 2.7 1.2 4.1.1.5.2.7.7.3 1.6-1.4 2.1-1.5 3.7-.1 1.4 1.2 2.7 2.5 4.2 3.9-.9.1-1.5.2-2.2.3-1.3.2-2.1 1.3-2.1 2.6 0 .3.1.4.4.4 1.6-.4 3.1.1 4.7.4 2.1.4 2.9-.2 2.9-2.3 0-.8.2-1.4 1-1.7.5-.2.9-.5 1.1-1 .1-.2.3-.5.6-.4.3.1.5.3.5.7 0 .4.1.8-.1 1.2-1.6 4.6-4.8 7.2-9.6 7.8-1.8.3-3.6.1-5.4-.6-3-1.2-3-3.8-2.3-6.2.1-.3.4-.4.7-.5.8-.2 1.5-.5 2.3-.8.2-.1.6-.1.3-.5-1.8-2.1-5.5-1.7-7 .6-.3.5-.5 1-.6 1.5-.4 1.4-.4 1.4-1.7.8-.9-.4-1.8-.5-2.8-.4-.4 0-.8.1-.4.7.7 1.1.4 2.2 0 3.4-1 2.2-.4 4.5 1.3 6.1.1.1.2.2.3.2 1.4.5 3.7-1 3.8-2.4.1-.8-.2-1.4-.9-1.8-.7-.4-1.3 0-1.8.5-.3.3-.5.6-.8 1-.4-2.1 1.1-4.3 4-3.3 2.2.8 3.4 2.9 2.9 5.3-.5 2.2-2.5 3.6-4.9 3.5-.9-.1-1.9-.2-2.8-.5-.7-.3-1.1-.3-1.2.7-.2 1.2-.7 2.2-1.5 3.1-.3.4-.7.7-1.2.9-.9.4-1.8.6-2.5-.2s-.5-1.7-.2-2.6c.2-.6 1.1-1 .7-1.8-.6-1.2-1.4-2.3-2.9-2.6-.9-.2-1.8-.1-3-.1 1.1 1.3 2.2 2.5 1.8 4.3-.7-.5-1.4-.8-2.2-.7-.5.1-.8.2-.4.7 1 1.5 2 3.1 3.1 4.5 1.6 1.9 5.7 2.5 7.6.1.6-.8 1.3-1.5 1.9-2.3.4-.5.8-.7 1.4-.3.6.4.8.9.3 1.6-.3.4-.5.8-.8 1.2-1.1 1.5-1.1 2.5 0 4.1.3.4.7.9 1.1 1.4H81c-1.1 0-2 .4-2.6 1.3-.1.1-.3.3-.2.5.1.2.4.1.5.1.7-.2 1.5-.1 2.2-.2.9 0 1.5.3 2 1.1.5 1 1.3 1.7 2.2 2.4.6.4 1.2.6 1.9.3 1.9-.8 3.8-.8 5.7.6-.1-2.3-1.7-3.3-3.3-4.5.7-.3 1.2-.5 1.8-.8 2-.9 2.7-2.6 1.8-4.6-.4-1-1.4-.9-2.3-.9-.7 0-.6.6-.6 1-.2 1.3-.7 1.8-1.8 2-1.3.2-2.4-.3-2.9-1.4-1.4-2.8.1-5.5 3.2-5.6.8 0 1.8.2 2.5-.1.7-.3.4-1.5.7-2.2.5-1.2 1.3-2.2 2.5-2.8 1.1-.5 2.2-.9 3.3-1.2 3-.8 5.4-2.5 7.5-4.7.1-.1.2-.3.5-.1-.7 2.3-2 4.2-3.5 6-1.4 1.5-2.9 3-4.2 4.7-1.3 1.8-2.2 3.7-2.3 5.9-.1 2.1.7 3.8 2.4 4.9.7.5.7.8.2 1.4-1.3 1.6-2.2 3.4-2.4 5.5-.1 1.2-1.1 1.9-2.3 1.8-1.9-.1-3.8-.1-5.7-.3-1.6-.2-2.9-.8-4.1-1.8-1-.9-2-1.8-3.2-2.9 0 1.2 0 2.1.5 3 .5.9.1 1-.7 1h-2.5c-.2 0-.5 0-.6.2-.1.3.2.4.4.5 1.2 1.1 2.5 2.1 3.4 3.6.4.6.9.9 1.6 1 1.3.2 2.5.5 3.6 1.6.1-1-.1-1.8-.3-2.5-.1-.6-.1-.9.7-.7 1.1.3 2.3.3 3.4.9.3.2.7.3.9.7-1.9.9-3 2.5-3.4 4.5-.1.5-.4.5-.7.4-.7-.2-1.4-.3-2.1-.5-1.2-.3-2.2 0-3.1.8l-.6.6c-1 1.4-2.2 2-3.9 1-.2-.1-.7-.3-.7-.1-.1.4-.1.9-.1 1.4 0 .1.2.3.3.4.5.5.6.8-.2 1.2-.8.4-1.3 1-1.8 1.7-.2.3-.3.5-.1.8.2.3.4.4.8.3 1.7-.5 3.3-.1 4.9.7.3.2.7.3 1 .5 1.7.8 2.4 0 2.8-1.7.1-.7-.4-1-.9-1.3-.6-.3-.9-.6-1-1.3-.1-.9.2-1.5 1.2-1.6 2.2-.2 3.8.7 5.1 2.5.1.2.2.3.3.5 1 1.8 1 1.8-.8 2.8-1.1.6-1.4 1.3-1 2.2.4.8 1.2 1 2.1.7.3-.1.7-.2 1.1-.3 2.8-.9 3-.9 5.3.3.2-1.4-.3-2.2-1.6-2.7-.6-.2-1.3-.5-1.9-.7-.3-.1-.4-.4-.4-.6 0-.4.4-.3.6-.4.8-.2 1.5-.3 2.3.1h.1c.9.3 2 .8 2.6.1.8-.8 1.1-2.1.7-3.3-.1-.3-.3-.7-.5-1.2-.8 1.9-2.5 2.1-4.1 2.1-1.7 0-2.9-1.1-3-2.8-.2-1.8.5-3.3 1.6-4.7.9-1.1 2.1-2 3.4-2.7.5-.2.7-.4.8.4.2 2.3 1.3 4.1 2.8 5.7.3.3.6.3.9.2.4-.1.9-.2 1.3-.3 1.5-.2 2.2.3 2.4 1.6.3 1.6-.5 2.9-1.8 3.2-.6.1-1.1.3-1.7.3-.7 0-.6.4-.5.9.5 1.2 1.4 1.7 2.9 1.6.5 0 1.1-.3 1.5-.1.4.3 0 .9 0 1.4 0 .9.3 1.5 1.1 1.9.7.4 1.5.7 2 1.5h1.6c.5-.7 1.3-1.1 2-1.5.8-.4 1.1-1 1.1-1.9 0-.5-.5-1.1 0-1.4.3-.2 1 0 1.5.1 1.5.1 2.5-.4 2.9-1.6.2-.5.3-.8-.5-.9-.6 0-1.1-.2-1.7-.3-1.3-.2-2-1.6-1.8-3.2.2-1.3 1-1.8 2.4-1.6.4.1.9.2 1.3.3.4.1.6.1.9-.2 1.5-1.6 2.6-3.4 2.8-5.7.1-.8.3-.6.8-.4 1.3.6 2.5 1.5 3.4 2.7 1.1 1.4 1.8 2.9 1.6 4.7-.2 1.7-1.4 2.8-3 2.8s-3.3-.2-4.1-2.1c-.2.5-.3.9-.5 1.2-.4 1.2-.1 2.5.7 3.3.6.7 1.7.1 2.6-.1h.1c.7-.4 1.5-.3 2.3-.1.2.1.6 0 .6.4 0 .3-.1.5-.4.6-.6.3-1.2.5-1.9.7-1.3.5-1.8 1.3-1.6 2.7 2.4-1.2 2.5-1.2 5.3-.3.4.1.7.2 1.1.3.9.3 1.7.1 2.1-.7.5-.9.1-1.7-1-2.2-1.8-1-1.8-1-.8-2.8.1-.2.2-.4.3-.5 1.2-1.8 2.8-2.7 5.1-2.5 1 .1 1.3.6 1.2 1.6-.1.7-.4 1-1 1.3-.6.3-1.1.6-.9 1.3.4 1.7 1.1 2.6 2.8 1.7.3-.2.7-.3 1-.5 1.5-.8 3.2-1.2 4.9-.7.4.1.5-.1.8-.3.2-.3.1-.5-.1-.8-.5-.7-1.1-1.3-1.8-1.7-.8-.4-.7-.7-.2-1.2.1-.1.3-.3.3-.4 0-.5.1-1-.1-1.4-.1-.2-.5-.1-.7.1-1.7 1-2.8.4-3.9-1l-.6-.6c-.9-.8-1.9-1.1-3.1-.8-.7.2-1.4.3-2.1.5-.4.1-.6.1-.7-.4-.4-2-1.4-3.6-3.4-4.5.2-.4.6-.5.9-.7 1.1-.6 2.3-.6 3.4-.9.7-.2.8.1.7.7-.2.8-.4 1.5-.3 2.5 1.1-1.1 2.3-1.4 3.6-1.6.7-.1 1.2-.4 1.6-1 .9-1.4 2.1-2.5 3.4-3.6.2-.1.5-.2.4-.5-.1-.2-.4-.2-.6-.2h-2.5c-.8 0-1.2-.1-.7-1 .5-.8.5-1.8.5-3-1.2 1.1-2.2 2-3.2 2.9-1.2 1.1-2.5 1.7-4.1 1.8-1.9.2-3.8.2-5.7.3-1.2.1-2.2-.7-2.3-1.8-.2-2.1-1-3.9-2.4-5.5-.5-.6-.5-.9.2-1.4 1.8-1.1 2.5-2.8 2.4-4.9-.1-2.2-1.1-4.2-2.3-5.9-1.2-1.7-2.8-3.1-4.2-4.7-1.6-1.7-2.8-3.7-3.5-6 .3-.2.4 0 .5.1 2.1 2.2 4.5 3.9 7.5 4.7 1.1.3 2.3.6 3.3 1.2 1.2.6 2 1.5 2.5 2.8.3.7-.1 1.9.7 2.2.7.3 1.7.1 2.5.1 3.1.1 4.6 2.7 3.2 5.6-.6 1.1-1.6 1.6-2.9 1.4-1.1-.2-1.5-.6-1.8-2-.1-.4 0-1-.6-1-.9 0-1.9 0-2.3.9-.8 2-.1 3.7 1.8 4.6.5.2 1.1.5 1.8.8-1.5 1.2-3.2 2.2-3.3 4.5 1.9-1.4 3.8-1.4 5.7-.6.7.3 1.3.1 1.9-.3.9-.6 1.6-1.4 2.2-2.4.4-.8 1.1-1.2 2-1.1.7 0 1.5 0 2.2.2.2 0 .4.1.5-.1.1-.2-.1-.4-.2-.5-.7-.9-1.5-1.3-2.6-1.3h-2.5c.4-.5.7-.9 1.1-1.4 1.1-1.5 1.1-2.5 0-4.1-.3-.4-.5-.8-.8-1.2-.4-.6-.2-1.1.3-1.6.6-.5 1-.3 1.4.3.6.8 1.3 1.6 1.9 2.3 1.9 2.3 6 1.8 7.6-.1 1.2-1.4 2.1-3 3.1-4.5.9-.5.6-.6.1-.7M109 150.7c1.5 1.5 2.9 3.1 5.3 2.9-.4-.8-1.2-1.4-1.4-2.4-.2-1 .5-1.8.5-2.8.1-2.4.3-2.3-2.1-3-.1 0-.2-.1-.3-.1-.6 0-.8-.5-.9-1-.1-.5.2-.7.6-.9.4-.2.8-.3 1.2-.5 2.6-.9 3.1-2.1 1.8-4.5-.3-.6-.5-.8-1.2-.3-1.3.9-2.4.4-2.6-1.2-.3-2.1 1.3-3.9 3.5-3.8 1.9.1 3.3 1 4.4 2.6 1 1.5 1.5 3.3 1.9 5.1v.2l.1.6c.3.8.5 1.6.2 2.5-.4-.8-.5-1.6-.6-2.5-.2-.4-.2-.8-.6-1.1-.9.9-1.4 2-1.6 3.2-.2 1.4.2 2.7 1.5 3.3 1.6.6 1.4 1.6 1.1 2.9-.1.3-.1.7-.2 1-.7 2.4-1.7 4.6-3.9 6-1.4.8-2.8 1-4.2.2-1.5-.9-3-3.9-2.5-6.4m-4.3 6.4c-1.5.8-2.9.7-4.2-.2-2.2-1.4-3.3-3.6-3.9-6-.1-.3-.1-.7-.2-1-.3-1.2-.5-2.2 1.1-2.9 1.3-.5 1.7-1.9 1.5-3.3-.2-1.2-.7-2.3-1.6-3.2-.4.3-.4.8-.6 1.1-.1.9-.1 1.7-.6 2.5-.3-.9-.1-1.7.2-2.5 0-.2.1-.4.1-.6v-.2c.4-1.8.9-3.5 1.9-5.1 1-1.6 2.5-2.4 4.4-2.6 2.1-.1 3.7 1.6 3.5 3.8-.2 1.6-1.3 2.2-2.6 1.2-.6-.5-.8-.3-1.2.3-1.3 2.4-.8 3.6 1.8 4.5.4.1.8.3 1.2.5.4.2.8.4.6.9-.1.4-.3.9-.9 1-.1 0-.2 0-.3.1-2.4.7-2.2.6-2.1 3 0 .9.7 1.8.5 2.8-.2.9-.9 1.5-1.4 2.4 2.5.2 3.9-1.4 5.3-2.9.6 2.5-.8 5.5-2.5 6.4m3.5 1.3c.1.1 0 .4 0 .6v.9c0-.3-.1-.6 0-.9 0-.2-.2-.4 0-.6m3.8 15.5c.9 1.1 1.7 2.3 2.6 3.3 2.8 3 2.2 7.2.5 9.8-.4.6-1.3 1-1.1 1.7.1.6.9 1.1 1.4 1.7 2 2.3 2.3 4.8 1.1 7.6-.7 1.5-1.6 2.9-2.8 4-1.8 1.6-3.1 3.5-3.9 5.7-.3.8-.6 1.6-1.2 2.4-.1-.2-.2-.3-.3-.5-.1.2-.2.3-.3.5-.6-.8-1-1.6-1.2-2.4-.8-2.3-2.1-4.1-3.9-5.7-1.3-1.1-2.2-2.5-2.8-4-1.2-2.8-.9-5.3 1.1-7.6.5-.6 1.3-1 1.4-1.7.1-.6-.8-1.1-1.1-1.7-1.7-2.6-2.3-6.8.5-9.8 1-1 1.7-2.3 2.6-3.3 1-1.2 1.2-2.7 2.1-3.9.2-.3.2-.7.8-.8-.2 3 .2 6.1-1.2 8.9-.4.8-.8.8-1.4.4-.6-.3-1.1-.8-1.6-1.2-1.6 2.1-1.1 5.6 1.5 6.3.4.1.5.3.5.7-.4 3.1-1.2 6-3.6 8.3-1.1 1.1-1.8 2.2-1.5 3.8.1.6.4.6.8.3.9-.8 1.6-1.9 2.3-3 .5-.8 1-1.6 1.6-2.3.1 2.2.9 4.2.9 6.3 0 1.2.4 2.1 1.1 2.9.5.6.7 1.7 1.5 1.6.1 0 .1 0 .2-.1.1 0 .1 0 .2.1.7 0 .9-1.1 1.5-1.6.8-.8 1.1-1.7 1.1-2.9 0-2.1.9-4.1.9-6.3.6.8 1.1 1.5 1.6 2.3.7 1.1 1.3 2.1 2.3 3 .4.4.6.3.8-.3.3-1.6-.4-2.8-1.5-3.8-2.4-2.2-3.2-5.2-3.6-8.3-.1-.4 0-.6.5-.7 2.6-.7 3.1-4.1 1.5-6.3-.5.4-1 .9-1.6 1.2-.6.4-1 .3-1.4-.4-1.5-2.8-1-5.9-1.2-8.9.6.1.6.5.8.8.3 1.2.5 2.8 1.5 3.9"/></g></g></svg>
