<svg viewBox="0 0 16 16" fill="none" xmlns="http://www.w3.org/2000/svg"><path d="M15.992 12.624a.773.773 0 0 1-.237.678l-2.253 2.235a1.27 1.27 0 0 1-.398.288c-.163.08-.324.13-.482.153l-.102.008a2.16 2.16 0 0 1-.22.009c-.215 0-.562-.037-1.042-.11-.48-.074-1.067-.255-1.761-.542-.695-.288-1.482-.72-2.363-1.296-.881-.576-1.818-1.366-2.812-2.371-.79-.78-1.445-1.525-1.965-2.236a15.93 15.93 0 0 1-1.253-1.974 10.627 10.627 0 0 1-.712-1.643 8.717 8.717 0 0 1-.321-1.27 4.195 4.195 0 0 1-.068-.838c.011-.204.017-.317.017-.34.022-.157.073-.318.152-.482a1.27 1.27 0 0 1 .288-.398L2.713.242a.746.746 0 0 1 .542-.237c.147 0 .277.043.39.127a1.2 1.2 0 0 1 .287.314l1.813 3.438c.101.18.13.378.085.593a1.056 1.056 0 0 1-.288.542l-.83.83a.282.282 0 0 0-.06.11.418.418 0 0 0-.025.127c.045.237.147.508.305.813.135.271.344.601.627.99.282.39.683.84 1.202 1.347.508.52.96.924 1.355 1.212.395.287.726.5.991.635s.469.217.61.245l.211.043c.023 0 .06-.009.11-.026a.283.283 0 0 0 .11-.06l.966-.982c.204-.18.44-.27.712-.27.192 0 .344.033.457.101h.017l3.269 1.931c.237.147.378.333.423.56z" fill="#010002"/></svg>