<svg viewBox="0 0 18 16" fill="none" xmlns="http://www.w3.org/2000/svg"><path d="M1.728 5.288c.227.16.914.638 2.059 1.431a503.46 503.46 0 0 1 2.631 1.833l.427.307a10.985 10.985 0 0 0 1.065.708c.204.12.397.21.578.27.18.061.348.091.502.091h.02c.154 0 .322-.03.502-.09.181-.06.374-.15.578-.271.204-.12.378-.23.522-.326a20.8 20.8 0 0 0 .543-.382c.217-.158.36-.26.427-.307l4.7-3.264a4.772 4.772 0 0 0 1.226-1.236c.328-.482.492-.987.492-1.516 0-.442-.16-.82-.477-1.135a1.553 1.553 0 0 0-1.13-.472H1.607c-.516 0-.912.174-1.19.522C.139 1.799 0 2.234 0 2.757c0 .422.184.879.552 1.37.369.493.76.88 1.176 1.161z" fill="#000"/><path d="M16.995 6.363c-2.196 1.486-3.863 2.641-5.002 3.465-.381.281-.691.5-.929.658a5.731 5.731 0 0 1-.949.482c-.395.164-.763.246-1.105.246h-.02c-.342 0-.71-.082-1.105-.246a5.735 5.735 0 0 1-.95-.482 23.715 23.715 0 0 1-.928-.658c-.904-.663-2.568-1.818-4.992-3.465A5.32 5.32 0 0 1 0 5.489v7.975c0 .442.157.82.472 1.135.315.315.693.472 1.135.472h14.786c.442 0 .82-.157 1.135-.472.315-.315.472-.693.472-1.135V5.49a5.539 5.539 0 0 1-1.005.874z" fill="#000"/></svg>