<svg xmlns="http://www.w3.org/2000/svg" shape-rendering="geometricPrecision" text-rendering="geometricPrecision" image-rendering="optimizeQuality" fill-rule="evenodd" clip-rule="evenodd" viewBox="0 0 17146 6271"><g id="Слой_x0020_1"><g id="_2804355976960" fill="#2B2A29"><path d="M16018 5750l-509 32c37 116 334 85 412 49 38-18 84-53 97-81zm-145-218c7-29 2-71 1-102-2-38-1-59-43-59-83 1-557 22-585 30-12 33-8 138 10 163 33 11 261-5 313-7 66-3 268 2 304-25zm-1777-163c-119-46-167 164-54 204 113 41 175-158 54-204zm2527-34c-119-42-174 153-57 194 117 42 179-151 57-194zm37-557c-11 9-38 46-48 59-51 68-100 109-159 157-71 57-101 59-131 82-67 50 55 74 103 76 90 4 331 4 351-74 10-39-16-143-30-175-15-34-63-109-86-125zm-1972 309c-33-22-460-172-509-190-147-56-432-258-457-39-6 55 3 109 15 159 41 163 219 134 375 148 113 10 214 21 329 20 121-1 233 7 247-98zm1611-268c-411 131-682 174-1123 116-245-32-490-83-725-136l-692-169c90 46 235 95 333 130 344 122 722 238 1090 294 468 71 727 20 1140-185 36-17 271-136 295-165l-318 115zm-4479-1877c-24 9-198 119-233 141l-229 145-3 179-8-8 3-164c-57 28-125 79-183 115-28 18-168 101-177 123-8 19-17 56-25 103l-77 66c5-34 11-70 17-107 11-68 28-72 61-108 38-40 515-385 575-428 67-46 130-96 196-142l389-281c316-223 675-481 1015-659 76-40 152-74 227-111 75-38 148-72 231-102 209-77 318-107 573-94 215 12 395 34 599 73 255 48 576 88 781 226 84 56 85 109 148 185 43 53 132 95 199 139 38 24 62 49 95 75 66 52 63 47 68 94 300-50 565-106 825 42 100 57 169 159 216 281 51 135 48 289 35 442-3 36-6 74-35 90-31 16-81 14-100-7-36-39-60-104-77-168-36-132-46-268-95-396-43-117-134-223-264-229-110-6-311 49-422 73 8 7 18 11 23 16 12 14 0-4 2 6v2c1 13 42 30 54 35v-11c13-25 236-56 260-60 121-20 207-34 253 62-99-7-161-8-261 1-41 4-80 8-119 17-21 5-35 9-54 18-27 12-21 15-41 3 23 38 90 233 116 297 94 240 248 697 281 946l30 145c-2 10 61 605 37 726-6 26-20 63-12 86 17 45 67 88 84 140 61 177-7 385-52 557-58 219-6 190-239 202-138 8-279 17-416 27-46 3-41 22-66 48-108 110-285 113-430 87-77-14-83-51-124-96l-1270 40c-146 5-274 7-410-14l-687-678c6-160-7-470-5-527 90-2 375 6 447 28-47-56-363-71-424-87-12-3-5 0-13-4 10-38 34-70 39-110 5-49-22-65-23-125-2-93-8-184-9-278 39 7 85 23 125 34 106 29 297 70 401 68l11 367c0 52-10 109 13 126 22 18 32 14 45 43 7 48-88 51-111 204-15 94-15 205-15 303 0 103-19 337 22 403-8-49-19-71-19-130l6-262c1-117-11-360 68-441 55-55 98-78-2-129-11-108-3-317-16-434-4-32 7-51 4-78-19-260-52-544-74-810-17-196-67-745-142-920-47-107-104-135-218-137-35-14-3-41-79-40v26l29 4c1 1 4 3 5 2 0-1 3 1 4 2-12 15-27 12-52 16-42 7-118 22-154 36-138 53-672 371-822 460l-319 190 29 678 408-167c8 339 14 415-16 752-3 31-3 59-4 87l-594-586 198-81-27-673zm727 1640c180 10 363 17 544 21-2 153 4 231 10 391l-3 131-551-543zm1897-2637c17 13 58 23 85 34 70 30 140 86 168 161-212-20-398-31-610-8-53 6-135 26-179 27-33-155-67-243-247-242-61 1-150 22-196 46-29 16-47 30-46 76 0 25 3 95 9 114 62 16 81-42 119-59-2 151-29 596 58 716 10 14 16 24 30 35 66 53 46 3 60 131 17 158 41 310 55 470 25 312 65 775 379 923 174 82 485 81 687 92 468 25 1058 31 1516-3 199-15 321 8 314-205-4-139-33-320-60-455-57-282-140-553-235-806-106-281-147-443-447-593 9-7-12-10 19 0l66 29c-5-76-25-82-26-100 1 4 6 12 10 15 19 15 2 8 33 13-8-27 1-8-12-27l-154-120c-11-6-20-12-31-18s-20-10-27-21c-22 10-8 2-16 11-1 1-1 6 0 7l-105-55c-20-11-21-10-24-21-139-202-64-183-334-236-79-16-158-31-239-45-80-15-155-34-237-41-103-9-446-46-524-36-99 13-146 99-85 143 47 33 160 38 226 48z"/><path d="M12455 3367c-2-121-47-701-41-760l3-12c0-2 1-2 2-3 7 32 22 433 26 505l14 250c-1 47 5 56 18 111 30 131 35 205 109 289 108 120 359 233 521 276 0 94 7 191 9 284 2 60 29 77 24 126-5 39-30 72-38 111l-869-83c4-40 8-85 14-123l27-375c13-169-7-360-12-524 58-13 137-65 193-72zm1456-439c-70 22-180-36-229-64-73-41-102-95-115-196-17-130-19-467-7-598-28 16-40 24-58 44-20 20-66 59-69 2l-4-92c69-43 225-52 306-15 78 35 99 154 123 249 20 81 82 612 53 670zm1726-816c3 11 4 10 24 21l105 55c-1-1-1-6 0-7 8-9-6-1 16-11 7 11 16 15 27 21s20 12 31 19l154 119c13 19 4 0 12 27-31-5-14 2-33-13-4-3-9-11-10-15 1 18 21 24 26 100l-66-29c-31-10-10-7-19 0-43-14-81-37-129-52-144-44-304-71-452-99-198-39-258-56-465-85-45-7-124-14-161-23-28-75-98-131-168-161-27-11-68-21-85-34 97 8 203 28 301 42 152 21 795 123 892 125zm381 3638c-13 28-59 63-97 81-78 36-375 67-412-49l509-32zM9620 4061c14 4 12 7 12 22-15-7-12-2-12-22zm-2474 162c3 2 11-4 3-2 0 0-8-3-3 2zm1649-1213c3 3 11-4 4-2 0 0-9-3-4 2zm1148 925h9c-3-3-8-8-9 0zm-3616-931h7v-10c-8 5-7-1-7 10zm3579 835h9v-13h-6c-2 6-2 6-3 13zm-1237-669c13-3 9-2 9-16-12 3-9 2-9 16zM7020 4375c0 11 0 7 6 11 2-8 3-8 3-19-7 2-9 1-9 8zm150-200c14-4 13-16 3-22-4 8-3 10-3 22zm1650-1213h6c5-20 5-17-3-22-5 9-3 10-3 22zm-2813 901c4 5 7 5 7 11v8h-13c-1-12-5-12 6-19zm545-1188h49c0 9-1 12 6 16 12-2 10-4 13-16h49c2 8 3 8 7 16 47 95 39 277 39 383 0 38-14 167-12 184 4 35 0 72 0 110 0 100-10 200-9 300 0 17-3 22-4 37 0 13 1 26 1 38-1 14-4 20-4 37 1 12 1 25 0 37-2 12-3 23-3 38 1 28-6 82-9 107-5 38-39 217-104 217-60 0-81-44-106-80-41-60-55-86-48-161 1-15-3-19-3-35-1-17 1-51-16-61-1 12-3 13-12 19-6-11 4-130 6-155 2-16 12-28 12-43 0-79-23-71-1-167 6-25 11-38 11-66-65 13-119 230-145 303l-56 165-105 248c-2 4-3 6-6 11l-41 55c-25 26-55 23-80-5-11-14-14-20-21-38-22-58-22-106-5-164 24-85 8-53-1-88-6-21 18-34 20-56 2-26 12-52 25-75 13-24 8-20 14-46 5-20 20-36 28-54 13-28 32-86 42-118 4-12 6-19 10-29 3-6 4-8 6-14 6-18 13-22 13-44-20 4-27 35-25-6 3-45 36-49 51-84 7-16 4-43 11-55 15 4 4 5 18 8 19-14 22-35 25-56s2-53 7-72c10-38 46-28 45-78 0-13 7-36 19-16 1 2 2 7 2 8 0 27-11 56-18 83-3 9-20 43 4 43 53 0 39-19 47-50 4-15 10-13 1-27-12-19-15-108 16-108 10 0 13 6 22 11 6-24-9-34-10-59 40 0 44 20 44-21 0-11-26-9-4-60 15-35-6-37 4-74 41-8 15 16 40 19 8-15 5-76 10-100 5-20 11-21 27-31 13-7 12-26 30-27l3 16c7-5 11-11 16-18 29-37 39-49 55-52zm-378 739c0-16-1-30 18-35 2 6 7 14-2 28-5 8-4 7-16 7zm772 647c15 4 12 7 12 22-15-7-12-2-12-22zm1941-259c0-11 4-15 16-16 0 15-2 20-3 32h-6c-2-8-7-11-7-16zm-9-182c0 37 19 16 9 51h-27c-5 8-7 22-11 33-4 13-8 22-12 36-4 17 3 17 5 33 1 6-4 18-4 39-10 0-18-3-28-5-5 20-9 36-16 55-13 34-29 66-47 99-9 16-18 29-27 46l-46 99c-9 12-6 10-12 24-9 22-26 52-48 62-19-8-16-4-16-34l95-333c17-53 40-101 67-150 13-22 42-58 43-59 4-3 1 0 5-4 16-15-1-23 19-34l36-22 31 24h-13c0 17-3 22-3 40zm779 131c-16-10-5-53-20-106-12-44-5-35-5-68 16 4 6 9 22 19 27-45 9-51 23-92 5-14 9-25 13-37 11-31 55-186 105-190 0 44-10 87-21 129-3 10-6 18-8 30-4 16-2 27-9 39-5 8-5 6-8 22-8 58-19 94-41 149-6 13-39 97-51 105zm-2674 0c-17-11-5-44-12-73-16-70-19-38-13-101 11 2 13 9 16 19 13-3 11-11 15-24 22-61-4-14 14-68 18-52 52-168 87-206 11-11 19-20 31-21 0 59-17 103-29 159-2 9-3 25-6 33-4 13-8 3-11 28-12 82-30 126-65 202-8 18-16 45-27 52zm1794-642h-7c-2-8-5-17-12-22-13 9-14 38-15 51-1 20-2 46-6 62l-8-15c-3-6-4-11-5-17-13 3-21 16-29 25-10 9-19 20-27 30-9 12-16 21-24 33-7 10-15 22-22 34-15 26-24 47-37 75-9 19-12 43-19 63-4 12-3 10-14 15 5 13 1-2 6 11-16 4-8 14-21 57-25 88-46 179-71 267-6 22-14 43-19 66-7 26-18 31-39 49-8 8-14 13-23 20-8 8-14 17-27 20-1-13-3-6 0-19 1-9 2-12 4-21 10-44 38-126 43-158 2-15 6-27 9-42 6-25 9-61 12-89 3-26 15-54 23-79 3-13 9-29 10-39 3-20-2-28 5-47 23-68 70-197 7-263-22-22-43-9-69-5-96 14-167 270-179 331-9 46-2 59-27 65-20 5-59 16-81 18l40-141c12-28 9-18 13-49 2-14 6-33 10-50 3-16 3-35 6-53 6-33 17-69 17-103 0-15-4-24-6-40-2-31-52-48-80-62l-9-5c-21 12-41 24-63 36-127 74-2 13-67 186-16 44-49 116-59 157l-11 68c-3 9-5 9-8 20l-11 41c-10 24-21 95-33 129-15 41-21 86-33 129-3 12-4 33-14 42 0-43-15-75-24-110-15 4-22 28-29 40-34 55-72 109-112 161-13 17-74 97-98 100-6 1-11-2-14-6-13-15-5-53-6-73 0-19 3-26 4-42 0-16-1-33-1-49 1-49 18-112 31-160 24-89 31-97 67-175l33-65c6-11 11-21 20-30 0 47-53 172-14 213 8 8 13 4 26 7 9 2 10 7 19 12 29-13 30-10 43-37 26-51 22-45 52-43 2-6 3-6 3-13 14 0 16-3 23-10 9-10 7-11 11-23 8-21 24-42 34-61 6-10 2-16 3-29 2-26 9-40 9-78 0-27-8-46-13-71-4-20-7-17-12-29-8-19 1-11-21-26-39-25-22-27-59-22-21 4-17 2-27 17-6 9-12 18-24 21-10-8-3-3-9-14-4-8-6-7-12-13l-45-52c-22-26-42-21-73-14-25 5-13-1-25 13-13 14-10 1-26 28-6 10-13 10-20 18-3 3-4 8-7 12-14 18-26 4-38 36l-11 18c0 1-1 1-1 2-1 0-2 2-3 2-6 7-2 0-6 11-6 21-8 19-21 36-10 14-17 29-28 45-52 75-85 159-123 241-29 63-42 57-42 102 1 53-4 34-7 52-2 12 0 3 1 7 4 12 2-7 3 13 1 16 2 31 8 48s18 34 20 54c-10-6-2-4-15-5-1 16 1 6-7 16-6 7-4 7-8 14-6 10-18 10-29 20-14 11-34 41-55 41-23 0 1-36 5-41 9-9 15-16 25-24 26-21 56-30 47-64-19 2-24 16-28 30-46-1 10-52 10-70 0-8 4-24-10-24-33 0-54 85-55 110-24 2-20 15-28 29-15-3-26-11-37-3-9 6-8 25-42 55-10 9-16 14-35 15-31-41-30-151-30-206 0-16 3-19 3-35 38 3 39 23 94-11 60-39 61-12 87-48l52-81c4-8 6-14 10-22 18-38 34-78 46-118 20-67 50-165 46-233-2-43-12-88-42-121-38-41-67-24-118-11l-129 38c-70 20-94 54-127 112-10 17-19 32-29 50-30 51-49 106-70 161-38 98-60 195-90 296-23 78 3 208 37 266 24 41 50 70 91 97 10 7 31 20 46 21 4-12 24-11 50-26l21 18c9 10 2 12 18 25 37 31 54 43 102 18 13-7 17-11 29-21 14-12 40-36 42-56 35-1 58-72 68-93 5-10 8-17 12-27 4-9 9-17 14-26 6-9 9-15 15-25l13-26s0-1 1-1c5 17 3 70 10 106 15 74 55 110 73 172 8 28 23 31 50 44 40 20 46-6 50-8 16-11 46-6 61 3 6 5 15 18 17 25 54 0 72-14 100-50 20-24 41-60 54-89 6-12 37-86 47-96 24-25 14-14 30-43 5-9 8-15 13-24 4-8 7-15 21-16-21 79-4 164 43 232 34 49 72 44 92-19l127-352c4-11 7-24 12-35 11-25 75-42 105-48 0 14-6 36-9 49-16 82-68 290-68 349 0 31 1 60 21 83 47 52 66-22 105-26 45-5 26 9 61-25 6-7 14-12 21-19 16-14 19-34 36-46 28-20 53-87 65-120l8-15c0 53-3 93 10 138 6 22 13 37 23 54 8 13 22 19 31 30 5 4 3 10 9 10 44 0 95-34 96 27 0 26 13 109 47 113 13 2-4 1 12-1l21 1c11 0 50-17 57-23 23-15 12-15 46-32 17-10 35-18 48-30 15-13 23-30 32-47s14-36 21-55c8-20 44-82 61-93 29-19 60-27 95-20 5 18 0 28 0 48 0 25 5 50 9 72 8 44 26 79 55 113 10 11 25 20 41 26 7 3 11 3 18 6 25-32 72-83 100-116 22-25 87-95 103-117 6-8 15-41 18-53 4-14 15-45 16-57 9 6 9 23 13 35 15 55 47 105 95 144 12 9 49 34 67 35 4-12 23-11 49-26 9 11 16 11 22 18 13 14-3 9 30 33l23 18c47 29 134-52 138-85 15-1 20-6 27-14 32-39 45-93 69-135 14-24 40-55 17-68-11 7-20 25-21 37-13 1-17 5-25 11l-8 6c-12 12-28 37-50 37s-1-35 4-40l52-45c12-11 24-21 24-36s-15-5-19 0c-7 7-9 13-12 22-47-1 9-51 9-70 0-8 5-24-9-24-25 0-46 56-49 75-2 12-5 24-6 35-24 2-20 15-28 29-25-5-37-14-46 11-8 24-37 54-68 56-21-27-19-53-26-92l-5-114c0-16 3-19 3-35 41 3 35 23 95-11 67-39 52-18 71-29 5-3 12-14 16-18l62-104c44-94 73-196 90-297 1-8 1-19 3-29 8-51-23-172-97-172-18 0-195 53-223 62-44 15-71 60-92 94-31 49-52 99-76 151-53 113-86 253-119 372-12 40 8 22-24 68l-38 53c-9 11-30 47-40 53 0-16-3-19-3-32 0-57 25-118 39-164 40-122 91-268 119-391 15-65 24-136-5-198-10-22-35-58-67-58-44 0-98 120-112 151-35 80-76 199-103 283-18 56-75 230-129 262 3-11 8-22 12-33s6-20 11-33c21-66 18-78 5-144-5-25-10-44-17-68-6-21-15-44-23-62-7-15-13-32-28-41-13-8-10-2-16-2-10 0-14-4-25-5l-86-11c-6 12-9 57-9 73h-6c0-13-3-9-3-19 0-11 2-4 2-13-2-51 0-81 23-131 13-28 24-58 38-88 23-50 60-135 60-191 0-52 1-39-45-71-54-37-73-44-106 20-10 20-21 48-27 70zm1171 2306c-16 0-17-40-18-55-3-36 13-83 28-115 32-68 1-101 1-138 0-20 20-3 24 0 7-15-1-5 17-37 37-66 3-52 19-82 6-10 14-25 12-41-5-44 1-16 4-40 2-22 6-21 22-31 17-12 26-53 38-71 7 4 6 3 8 13 23-2 6-21 22-88h8l2 43-31 175c-14 82-51 259-81 333l-52 103c-4 8-14 31-23 31zm-489-717c0 24 7 52 28 62 36 18 32 7 58-22 33-35 43-54 85-83 14-10 19-10 19 8 0 50-60 158-84 205-17 33-33 63-47 98-13 34-26 69-42 102-28 55-61 108-86 166-4 10-6 16-10 27-14 34-29 69-39 105-9 35-33 172-11 215 11 20 25 7 33 26 8 18 8 19 27 29 39 19 41 42 140-33 7-5 14-11 20-16l98-98c6-7 13-12 19-19 20-23 41-81 59-96 6-4 4-2 10-9 6-8 1-6 12-9 11 8 19 38 24 55 3 10 6 21 8 33 4 15 2 16 10 30 9 19 16 36 25 55 9 17 22 38 26 57h147c10-14 34-56 38-72 17 4 15 14 35 16 9-18 2-33 21-43 87-47 158-304 192-388l30-67c23-45 11-13 22-74 6-35 26-142 26-169-12-1-14-4-21-8 0-77-10-152-56-204-35-40-88-39-114 10-11 21-15 47-26 68-8-2-17-11-23-17l-18-19c-17-22-28-14-57-1-68 32-113 120-145 184-18 37-36 77-50 116-9 27-25 63-32 88-11 45-10 49-35 91-22 36-43 69-55 111-22 72 13 28-96 110-4 2-23 19-23 19-53 0-21-59-13-87 9-30 2-20 16-48 45-87 62-135 96-226 11-30 32-50 55-73 9-9 12-15 20-23 22-22 36-51 55-76 13-17 21-35 26-59 11-47 9-108 14-157 6-48-20-97-21-107-3-37-1-52-28-79-17-16-41-44-65-44h-22c-44 0-147 124-178 167-6 8-11 12-16 21-24 35-81 110-81 152zm979-102c0 69 60 72 50 96-9 22-43 71-56 97-10 20-17 51-25 76-13 41-37 67-42 110-3 29-22 93-32 121-34 95-13 138 8 236 5 27 28 123 59 123 10 0 13-3 18-9 15-19 65-118 65-138 0-21 1-27-9-45-7-13-2-12 1-25l30-2c0-21 3-27 7-41 26-80-8-43 11-104 2-8 5-12 6-21l18 18c3-29 28-88 38-114 7-18 15-37 23-55 8-19 14-36 23-55l34-78c3-10 5-21 10-30 10-15 16-38 24-54 28-56 49-46 49-23 0 31-5 35-11 61-25 109-48 218-79 326-13 45-27 83-44 126-16 40-39 77-65 110-6 8-6 19-10 30-5 12-2 4-9 9l-6 5c-9 6-19 11-25 20-6-3-8-6-16-8-15 11-17 35-19 59-1 17-41 94 3 59 8-6 14-12 21-19 7 5 8 13 17 13 11 0 7-10 8-23 1-15 4-41 5-56l8 42c7 25-7 117-10 137-5 26-9 50-14 74-22 108-33 103-79 187-10 19-59 97-71 105 0-42-33-166-83-166-39 0-50-1-70 40-11 21-17 33-24 59-24 94-31 222 0 317 11 31 50 113 87 69 8-9 9-11 18-19 14 7 27 18 32 35h5c2-19 10-27 30-27 0 14-3 8 5 13 12-8 70-89 85-108 14-17 19-13 28-38 7-22 5-27 25-40 21-13 16-23 17-46 1-12 5-49 9-55 7-10 12-3 21-11 11-9 5-14 18-17 14 10 0 15 22 16 1-11 4-16 5-27 2-29 2-62 8-88l8 13c2 7 3 13 5 19 15-4 24-40 32-54 11-19 20-35 25-60 2-9-1-25 4-34l19-24c8-10 9-15 19-24 10-10 25-18 36-28 10-11 11-36 14-50s4-23 8-36c2-11-1-7 6-15 17-20 9-21 14-49 3-14 9-17 13-31 11-40 22-100 32-141l31-140c22-94 47-186 64-281 13-73 12-220-46-270-8-7-13-7-14-21-15 0-21-5-37-5-17 0 5 16-38 16-13 0-18-22-20-36-3-21 0-32-5-53-6-21-21-77-42-77-9 0-4 5-13 3-5-2 5-3-8-3-20 0-54 20-66 30-17 15-4 14-33 16-13 1-31 4-45 5-18 1-78 4-87 13-17 15-28 47-28 70zm-1578 123c0 59 23 56 51 88-6 22-37 70-52 94-3 5-4 9-10 11 4-9 3-15 3-27-10 3-11 10-15 20-10 20-25 42-29 64l1 119c0 6-9 29-12 39-17 68 3 144 19 208 7 29 31 120 57 120 10 0 8-8 16-14 14 11 19 36 35 43l32-5c19-6 14-7 27-16 9 40 19 34 12 81-11 72-26 142-45 213-13 47-43 154-61 198-14 36-26 76-43 112l-15 31c-3 5-1 2-3 4 0-60 5-149-4-202-8-40-40-130-79-130-41 0-52 0-73 42-22 44-31 88-38 139-10 74-8 152 13 223 9 30 30 94 68 94 16 0 29-22 40-32 17 9 28 32 38 35 0-19 10-27 29-27v13h8c3-11 20-27 27-37l28-36c10-13 19-24 28-36 14-18 19-14 27-40 2-6 5-18 9-24 5-9 10-9 18-14 16-10 16-23 16-48-1-71 14-46 31-65 8-8 5-14 20-15 2 8 5 14 13 16 12-9 11-41 13-55 2-15-1-53 8-60 3 10 7 20 8 32 14-1 14-10 19-22 12-30 32-54 39-87 9-45-14-13 22-60 17-24 18-26 42-44 29-21 25-51 35-91 2-6 2-11 5-16 14-25 11-1 15-46 2-19 7-18 12-31 7-16 76-328 79-344 2-11 6-20 8-32 3-11 5-23 8-35 30-115 67-273 17-389-17-39-26-31-39-50-4-6-3-16-40-16-12 0-15 25-19 34-18 40-29 83-43 126l-37 129c-4 15-6 29-11 44-10 29-16 56-25 85s-19 56-28 85l-31 79c-9 18-29 65-49 65-34 0-56-82-56-123 0-46 14-89 32-128 4-10 8-18 12-28 17-38 20-39 37-86 8-21 13-39 19-61 21-76 55-125 55-210 0-16-12-46-27-46-14 0-27 8-40 11-16 5-18-4-33 13-3 3-8 10-10 14-9 21 5 15-58 21-91 9-94 0-115 40-5 9-11 29-11 43zm2428 388c0-9 4-13 13-13 0 15 1 19-2 32h-6c-1-5-5-16-5-19zm-8-174c0 10 5 15 9 23 6 12 2 9-1 23-35 0-22-3-31 27-27 93 4 46-12 114-11-1-12-4-24-5-4 50-52 151-77 201-14 26-38 92-41 98-15 26-25 79-56 86l-7-6c-11-17 3-50 7-64l50-212c15-70 57-203 99-265 8-12 12-21 22-31 17-19 0-26 17-36 30-18 18-13 32-22 13 8 17 16 26 18l-10 6c0 18-3 26-3 45zm-275-187c0 13 0 4-3 8v-8c-6 9-8 23-9 32l-60 263c-4 17-8 32-12 49s-9 34-13 51c-25 101-63 270-2 364 5 8 8 11 16 17 17 11 5 2 13 18 42 0 88-44 88 43 1 27 11 70 27 89 3 4 4 7 10 8 8 2 9 0 11-6 9 6 10 8 20 6 9-1 17-5 23-8 22-11 25-11 39-26 8-10 40-11 52-12 21-1 41-4 59-5 27-2 30-1 42-20 7-12 16-31 17-47 3-54-47-74-48-80 1-15 15-33 21-43 23-41 31-46 44-90 18-64 38-88 47-116 3-12 2-18 4-31 6-30 16-50 23-76 16-53 26-76 17-141-6-43-32-177-65-200-12-9-6 0-23-3-8-2-4-3-12-4-7 0-12 0-18-1-17-2-38-10-57-10-5 21-8 53-8 72-11-8-6-18-8-42-6-81 66-221 93-319 5-20 19-78 16-101-2-25-7-23-23-36-11-9-22-17-33-26-8-7-23-21-40-14-25 9-38 49-46 72-6 15-12 28-15 44-12-9-5-18-19-22-11 47-13 57-13 110h-6c-1-5-6-26-8-29-12 3-12 11-25 26-9 11-12 18-20 30-28 42-50 89-69 137-5 13-10 24-14 36l-12 37c0 1 0 2-1 2v2z"/><path d="M11740 4684c5 3 24-12 24 67 0 27 0 91-3 114-5 32-6 161-12 198-2 16 1 33-3 47s-8 28-22 32c0-21-45-235-45-268 0-79 18-203 52-274 5-10 9-19 22-20 4 8 3 9 6 19 2 10 1 10 13 10-7 15-8 26-13 41-5 16-12 21-19 34zm-265 270c0 19 8 1 8 43 0 27-10 53-13 80-5 39 16 17 29 39 5 9 0 5 0 23 0 10 0 1 3 8 19-1 8-11 8-27 0-12 3-19 2-26 0-7-28-51 19-51-1 15-8 14-6 25 0 6 2 9 3 15 2 11-1 7 4 16 6 10 10 2 10 24 0 7 1 11 1 18 1 11-1 2-1 14 0 24 22 8-28 74l-33 42c-54 56-85 110-132 167-8 9-10 10-13 24-3 8-5 23-7 31-4 12-11 15-11 26 19-10 55-50 56-51-1 38-73 49-32 126 12-3 19-12 29-19 25-18 16-3 16 14 58 0 111-61 145-101 23-27 32-43 51-72 6-10 11-15 17-24l51-72c0-1 60-82 60-55 0 19-19 87-24 110l-11 125c0 21 3 71 11 88 23 48 27 41 57 18l97-85c7-8 13-17 18-28l21-69c12-49 20-99 32-148 2-9 5-55 10-81l80-372c10-49 26-95 38-141 3-15 12-63 9-80-3-22-13-51-39-51-11 0-40 23-49 31-18 17-7 1-26 27-10 15-31 35-51 35-13 0-13-23-15-35-2-16-4-29-7-44-5-27-14-63-44-63-20 0-19 20-41 24-9-1 0-9-38-17-53-12-61-20-105 23-9 9-12 12-19 22-3 5-6 8-9 13-18 25-51 94-63 124l-52 196c-5 18-16 46-16 67z"/><path d="M11502 5193c12 0 20-23 21-35-10 1-14 6-19 13-3 4-12 22-2 22z"/><polygon points="11002 4746 11005 4746 11005 4735 11002 4735"/><path d="M3362 4388c-43-12-93-53-124-73-9-6-17-13-28-22l-84-65c39 7 221 107 236 160zm385-663c17 21 42 50 54 71-39-19-261-194-252-236 3-1 4-3 14-2 4 1 5 3 10 5 80 41 119 92 174 162zm773-116c-20-14-17-15-25-41-35-111-80-237-113-346 20 23 38 57 55 83 36 53 77 127 89 191 7 33 8 87-6 113zm-990-1491c3 3 10 15 14 20 73 83 145 167 213 255 117 152 330 437 400 609 60 147 81 263 33 415-155 4-350-188-487-286-23-17-135-85-172-80-8 51 11 69 37 97 75 80 59 63 117 154 13 20 45 64 53 85-74-19-275-221-327-195-5 41 49 88 67 112 32 42 65 74 47 117-57 4-246-74-294-96-178-84-339-193-513-282-85-44-178-86-280-114-51-14-107-25-162-30-42-4-49 12-58 42-5 17-3 23 6 34 91 123 290 96 456 183 44 24 91 42 136 62 66 30 135 64 192 106 14 11 47 34 32 64-15 8-103-34-122-41-35-14-86-37-132-39l18 15c5 3 8 6 15 9 71 45 154 87 230 120 86 38 188 91 263 143 47 32 89 65 128 105 31 30 54 64 78 101 48 74 132 222 46 301-40 0-144-50-174-68-53-29-103-62-149-93-44-30-258-179-316-171 6 27 28 39 49 49 63 30 177 139 200 203-17-2-68-26-85-34-26-13-51-24-76-37-55-26-103-50-154-76-104-52-202-103-308-151-225-103-447-179-747-155 21 53 97 73 155 91 33 10 57 22 86 33 22 10 70 19 76 41-44 10-82-19-126-5 6 10 12 13 23 19 137 85 291 96 447 127 85 17 166 39 231 76 55 31 142 89 170 142-55 10-129-48-199-40 13 25 227 136 289 212 20 24 31 32 21 72-75 286-540 2-737 15 13 21 81 53 110 75 39 29 61 51 61 116-1 107 104 161 115 264-58-15-215-124-295-163-30-15-77-30-117-31l2 2 7 5c57 39 259 175 155 233-72 40-321 7-402-7-254-46-506-116-782-57 22 32 128 66 179 76 68 14 143 20 215 29 114 13 282 44 357 138-72 67-167 74-282 66-75-6-234-34-301-22 30 11 64 19 94 31 95 38 373 162 346 287-15 71-101 81-146 111 14 23 44 27 55 55 35 85-210 63-244 87 22 5 55 22 79 31l307 138h949c537-310-229-12 507-433 0 0 1865-1212 1853-1259-11-48-31-302-11-308l-51 104-89-286c-7 8-15 13-23 16-14-49-26-75-32-134-12-101-3-204-24-304-4-21-22-111-48-119-10 45 25 150 5 196-38-4-63-101-76-131-60-144-150-262-240-376-30-37-65-74-97-107-37-40-283-300-298-308-21 108 75 186 119 273 11 20 37 74 40 93-14-13-27-28-42-40-43-39-83-85-125-125l-344-321c-10-8-15-10-25-19-8-6-14-10-23-17-16-11-31-23-48-34-29-20-71-50-100-61z"/><path d="M485 4677c-12-43-113-92-142-131-55-73-2-192-32-230-30-3-76 29-95 43-51 36-122 183-143 245-48 140-71 259-73 425-2 275 86 569 222 806 10 18 11 28 36 25 8-61-52-142-62-199 26 16 105 150 141 197l50 58c-52 13-131-46-148 9 41 23 74 43 126 61 99 34 223 43 328 25 98-16 88-24 157-42-19-23-233-66-272-187 19 13 84 85 113 65 6-15 0-24-3-40 90 88 176 112 311 82 71-16 253-89 307-130-34-15-267 31-390-27-21-10-80-41-89-56 29-1 46 15 79-2 10-39-68-95-84-127-21 10-25 21-45 30-13 6-35 17-47 12 4-13 41-40 55-49 42-24 210-54 265-66 84-18 291-65 363-76-45-17-278-17-341-13-62 4-122 11-181 23-28 6-52 12-79 20-21 7-58 22-77 25-8-18-26-37-28-54 36-7 70 20 102 4 20-10 38-55 29-87-186-63-366-33-537-101-48-19-46-17-49-43-8-56 2-115 11-167s10-108 19-162c36-219 150-131 203-166zm1084-1551c-10-8-13-25-18-38-6-16-13-26-20-35 13-18 39-51 30-89-20-80-177-109-259-107-6 12-19 30-28 44-64 104-95 256-122 373-26 111-61 148 58 172 74 15 216 6 168-97-28 10-23 47-48 48-17-26 10-61 27-72 15-9 27-7 42-14 20-9 22-16 48-11 0 52-51 135-80 179-37 55-91 89-138 134-45 42-82 60-145 128-71 77-63 68-115 153 17-3 66-47 78-59 107-106 80-97 226-198 46-32 318-215 357-213-1 11-7 13-6 27 24 9 434 73 472 78 52 7 114 13 162 22-9-41-80-46-122-57l-140-41c9-7 17-6 33-2l487 103c28 6 500 112 515 111-68-55-233-96-320-130l-161-68c-25-10-22-22-35-46-20-38-47-61-74-82-55-44-140-67-223-82l-192-27c-20-4-48-11-64-13-55-7-57 146-197 93-18-7-34-19-44-31-19-24-20-28-7-56 65-138 138-264 235-381 20-24 76-41 111-50 86-21 720 50 819 63 176 24 351 46 525 68 87 11 180 16 267 26 55 7 229 24 281 9l-308-72c-306-68-684-121-997-149-237-20-475-33-717-37-92-1-90-10-150 41-102 87-156 324-211 385z"/><path d="M521 4042c101-18 205-7 301 3 189 21 386 32 573 55 278 32 569 66 840 105 125 18 451 62 566 65-23-36-64-39-113-48-44-8-85-19-128-28-19-4-242-43-258-56 46 1 80 0 125 4 47 5 74 9 125 0-3-3-1-2-7-4l-26-5c-176-28-347-58-525-79-193-24-379-51-573-71l-876-87c-36-3-40-7-70 10-184 107-150 409-107 591 9 39 8 33 40 48 173 79 412 82 611 111 47 7 92 14 143 19 161 17 907 119 1009 108-8-1-33-10-44-13-14-4-29-7-44-11-78-19-205-38-285-48-59-8-341-46-377-67 54-8 546 53 651 50-132-45-850-135-983-154-85-13-164-23-249-36-83-13-162-29-243-43s-84-10-100-48c-17-40-23-87-22-136 4-115 32-155 46-235z"/><path d="M1537 4149c-13 36 26 32 41 106 26 126-61 250-206 241-128-9-224-119-219-237 3-66 24-78 34-110-37-22-78-25-125-19 2 24 1 46 2 69 0 26 8 48 8 68 0 37-14 80-16 121-2 22 0 43 7 64 10 27 13 24 40 32 113 32 225 61 346 68 116 6 109 13 155-52l27-38c0-2 1-2 2-2 3 24-6 40 1 62 48 27 135 51 198 62 77 14 159 15 242 11l2-2 17-28c59-5 108 15 162-9-66-45-310-54-401-68l-100-17c-16-3-22 0-24-15 41-32 384 37 456 39 52 1 92 23 146 15-9-22-95-68-127-82-51-21-99-34-156-46-84-17-173-28-258-45-13-3-30-5-42-9-14-5-21-11-22-28 27-20 181 4 220 9 37 5 73 10 109 14 53 7 89 24 96-7-13-7-31-12-35-26 92-14 200 35 300 26-10-31-48-30-80-38-104-23-174-33-280-51s-284-49-395-41c9 27 15 35 6 66-3 10-13 44-21 49-6-51-22-178-110-152zm-563 678c4-34 42-36-96-45-41-2-95-12-137-17-126-17-220-34-350-40-20-1-19-2-29 11-34 41-49 75-61 137-13 67-14 232 1 302 50 9 101 25 152 35 269 55 526 87 797 119 56 7 109 14 165 21 45 6 117 22 158 21-155-78-337-100-519-143-91-21-177-43-268-65-70-17-202-44-253-76 46-7 126 6 170 11 60 7 105 13 168 11-7-21-37-22-59-27-23-5-44-11-66-17-44-12-86-22-133-34-124-31-174-57-160-175 28-4 173 14 211 18 69 6 138 13 207 20l402 47c-45-42-228-58-300-114zm2147-2293c-27 11-41 60-75 32-23-20-41-35-76-50-74-31-128-25-213-14-11-100 5-111 26-178 16 4 8 3 19 12l56 33c80 36 182 37 250-26l18-17c27 15 19 50 55 51 24-27 16-45-6-87-41-78-136-135-233-137-237-4-352 294-230 434 89 102 234 143 358 87 144-64 68-104 51-140zm-946-159c-60 2-217-37-292 17-21 15-46 77-56 110-7 23-29 116-20 134 23 6 54-8 82-11 15-30 13-48 22-82 9-36 22-52 55-54 58-4 131 9 189 16 35 201 386 214 384 0-57 12-65 71-135 67-15-22-15-42-10-67-29 2-43 18-68-7-31-33-17-124 35-100 17 7 33 38 54 28 11-20-7-46-13-68 23 2 31 24 57 30l5-22v-2c7 16 43 72 54 83 60-1 17-150-117-181-72-17-145 5-193 57-17 18-18 31-33 52zm1541 71c-18-53-110-144-154-183-57-51-190-165-209-229 34-18 86 37 132 29-11-19-29-27-43-38-150-112-303-210-489-255-26-6-36-10-54 6-43 38 33 125 58 147 30 26 394 242 503 321 61 43 115 82 172 130 20 17 67 61 84 72zm-1 142c-17 14-11 30-29 44-13-5-26-22-43-31-67-36-133-24-203-20-54-69-21-124 3-191 14 8 2 5 15 15 27-16 46-5 68 5 27 13 41 24 63 2-7-29-76-84-97-99-59-39-72-43-122 12-95 104-58 305 5 365 82 77 251 101 359 13 18-15 41-30 27-63-5-13-33-45-46-52zM1101 3893c55 15 96 19 158 24 27 2 54 8 81 6 162-8 259 8 419 35 186 31 363 77 552 83 26 1 83 3 51-32-14-16-37-29-59-33-27-4-54-9-80-13-159-28-314-51-476-69-107-13-221-26-332-30l-256-11c-34-1-61 5-58 40zm-108 567c18-24 11-46 11-80-1-60-3-238-8-278-18-1-34 2-44 15-9 11-1 34-6 52-19 7-32 4-43-13-21-32-49-32-84-41-31-8-18-11-40 4-3 171 88 131 123 158 6 76-146 13-157 77-3 21 3 42 12 58 12 22 18 24 43 32 65 21 124 25 193 16zm1743-1159c1-29-21-31-43-40-120-51-161-71-292-111-20-7-42-12-64-16-15-2-59-17-66-3-27 51 170 107 207 118 43 13 84 21 128 31 30 7 106 31 130 21z"/><path d="M1276 4217c1-21 11-23 2-44-35-4-95 103-15 207 68 88 187 72 207 33-38-12-70 2-103-19 7-10 3-4 26-10 28-7 59-30 39-48-11-10-27 12-52 14-42 4-70-30-73-71-3-27 8-38 8-55-14-4-24-4-39-7zm-98 831c1-22-27-23-46-28l-172-46c-63-18-121-28-187-35-25-2-42-4-54 20 1 1 3 4 3 4 36 45 156 64 206 68 42 3 85 4 128 7 27 1 105 17 122 10zm-446-937c-60-5-58 36-75 127-6 33-27 158 9 178 10 6 28 13 39 8 33-15-10-84 20-226 6-30 19-53 7-87zm2376-1644c-28-8-29 4-52-3-32-9-27-43-58-14-17 16-13 15-15 25l82 52 71-30c7 23 1 34 12 52 30 8 47-15 51-38 4-22-2-66-4-91-1-2-51-39-65-42-11 31-9 62-22 89zm974-159c13-17 0-28-10-47-33-71-83-176-128-236-25-34-45-77-73-69-16 55 113 223 148 273 9 14 18 27 28 42 12 17 15 35 35 37zm-669 825c-1-17-25-37-43-56-18-20-35-36-51-51-17-16-89-71-131-59-8 29-2 24 37 54 27 21 157 101 188 112zm-1040 830c4 16 22 23 48 36 48 25 159 59 198 41-3-25-30-26-53-33-21-7-43-13-64-20-21-6-43-13-64-19-20-7-49-22-65-5zm238-334c-16 21 85 54 104 59 20 6 40 11 62 17 11 4 81 33 62 4-13-22-130-67-156-75-12-4-62-17-72-5zm7910-1341c-67 155-56 137 98 184 143 44 750 229 810 225-150-64-278-146-420-216-137-67-309-166-451-216-21-6-14-2-37 23zM9287 914l-262-547c-30-64-51-152-106-191-10 53 1 53 14 97l172 637c5 57 23 39 22 103l-262-291c-37-50-276-376-330-404l306 612 58 119c10 20 2 9 16 28 9 22 24 52 57 71 71 11 128-30 159-105 79 30 149 4 171-52 24-62 8-53-15-77zm698 134c43 39 81 68 145 61l360-869c-20 12-18 9-36 30-12 15-20 32-33 53-19 30-38 61-61 97-88 146-347 495-375 628zm170 82c47 70 18 81 145 112l463-660c8-13 28-43 33-53 9-16 5 0 12-24 9-33 7-3 1-26-71 48-78 91-172 171l-482 480zm-639-175l-66-334-80-340c-20-75-37-197-65-229-19 58-5 212 1 270 10 91 23 566 37 609 20 59-24 27 43 56 38 17 104-6 130-32zm262 25c236 133 160-7 260-437 16-71 87-448 83-497-73 193-326 762-343 934zm-64 0c53-73 25-386 21-493-3-66-12-455-26-487-51 157-61 384-101 562l-39 276c-7 50-31 95 11 125 44 31 99 27 134 17zm724 430c50-28 267-247 321-301 64-66 296-267 327-330-52 4-27 8-114 62l-561 367c-44 28-94 41-80 109 11 52 54 83 107 93zm85 185c86-10 352-195 420-242l172-110c74-46 173-87 227-147l-780 293c-41 18-105 24-116 80-9 41 34 102 77 126zm52 205c80 12 612-214 781-261 113-31 77-4 102-53-130-4-603 98-805 121-50 5-97-3-119 51-22 58 5 112 41 142zm14 197c31 32 73 28 110 15l787-101c-11-21 53-44-130-39l-666-35c-60-6-88-17-115 35-24 46-17 95 14 125zm-31 223c35 16 866 92 926 83 19-3 17-4 29-8-174-65-378-103-560-157-340-100-419-140-395 82zm-576-223c0 80 1 70 77 61 71-8 370-43 396-56-78 0-149-11-224-14-73-3-166-14-238-9-10 2-6 2-11 18zm-800-363l-218-189c-25-22-51-56-82-63 6 26 11 23 25 40l196 245c13 24 17 12 29 40l-170-77c-25-14-191-111-220-112l249 208 49 40c8 7 2 4 12 10 8 7 20 17 38 20 33-9 50-38 49-76 41-2 66-27 65-56-1-31-7-24-22-30zm330-75c26 9 48 14 75-1l-9-447c-6 9-7 7-10 20-3 9-3 18-4 30-3 16-6 33-8 53-11 81-57 282-44 345zm89 3c34 22 24 32 85 22l76-376c1-7 4-24 4-29 1-9 2-2 1-13-3-16 2-3-5-12-22 35-17 55-42 108l-119 300zm-311 46l-92-133-100-133c-23-28-53-78-72-87 3 29 38 93 52 117 22 38 118 242 132 258 20 23-5 17 29 17 21 0 45-23 51-39zm119-39c128 13 68-34 30-240-7-34-48-211-59-232 5 98 3 394 29 472zm-28 12c9-42-63-173-85-219-14-27-92-195-104-207 8 78 47 179 63 264l36 128c6 23 5 47 29 52s48-7 61-18zm397 49c16-21 69-158 82-192 16-41 78-173 80-206-22 12-10 9-38 49l-174 267c-14 20-33 35-14 62 15 21 39 26 64 20zm72 64c36-20 116-151 137-185l54-81c23-33 59-71 71-107l-284 276c-14 16-41 31-35 58 4 19 34 37 57 39zm62 80c37-10 226-210 290-263 44-35 33-16 35-42-58 23-244 157-328 206-20 12-43 17-42 45 1 29 23 48 45 54zm44 83c19 8 37-2 50-15l324-194c-9-7 14-29-64 9l-297 111c-27 9-41 9-43 37-2 25 10 45 30 52zm29 103c18 0 394-125 418-141 8-4 7-4 12-8-88 4-185 27-274 38-167 21-209 19-156 111z"/><path d="M10691 3775c76-26 280-131 373-191l2727 2226-2690-2787-409 189-976-1176c-65-67-78-108-133-175-155 81-323 329-464 390-125-171-1200-1642-1297-1707-75 56-157 204-230 290l-704 882-95-133c-51-80-52-68-79-173L4872 3599c-106-67 11-150-86-250L2909 5506l689-157 1341-1120c89-61 21-154 123-103l1382-1544c122-136 134-103 433-29l849-938c40-45 1179 1121 1288 1219 60 55 135 132 169 90 180-222 411-341 454-295l1054 1146z"/><path d="M5167 5818c20-13 41-28 65-44 630-423 1563-824 2334-991 544-118 954-116 1518-147-319-110-1184-113-1562-91-483 28-998 124-1432 250-627 182-1204 426-1761 736-94 52-349 193-475 287h1313z"/><path d="M3651 5818c43-25 97-65 200-127 342-208 642-374 999-545l1113-424c174-54 444-129 604-155 315-49 607-87 676-133-1536-22-2562 198-3844 800-194 91-329 175-490 272l-353 233c-44 38-58 52-70 79h1165zm2528 0c153-161 363-376 912-655 318-161 429-173 601-252l92-55c-592 53-1511 444-2027 734-109 60-253 152-378 228h800z"/></g></g></svg>