<svg viewBox="0 0 20 15" fill="none" xmlns="http://www.w3.org/2000/svg"><path d="M19.803 1.169H.196V.194h19.608l-.001.974z" fill="#000"/><path fill-rule="evenodd" clip-rule="evenodd" d="M0 1.363V0h20l-.001 1.364H0zm19.803-.194H.196V.194h19.608l-.001.974z" fill="#000"/><path d="M19.803 7.987H.196v-.974h19.608l-.001.974z" fill="#000"/><path fill-rule="evenodd" clip-rule="evenodd" d="M0 8.181V6.818l20 .001-.001 1.363H0zm19.803-.194H.196v-.974h19.608l-.001.974z" fill="#000"/><path d="M19.803 14.805H.196v-.974l19.608.001-.001.973z" fill="#000"/><path fill-rule="evenodd" clip-rule="evenodd" d="M0 15v-1.364l20 .001L19.999 15H0zm19.803-.195H.196v-.974l19.608.001-.001.973z" fill="#000"/></svg>