<svg viewBox="0 0 16 16" fill="none" xmlns="http://www.w3.org/2000/svg"><path fill-rule="evenodd" clip-rule="evenodd" d="M16 .755L8.755 8 16 15.245l-.754.755L8 8.754.754 16 0 15.245 7.245 8 0 .755.754 0 8 7.245 15.246 0 16 .755zM8 7.518L.755.273.273.755 7.52 8 .273 15.245l.482.482L8 8.48l7.246 7.245.48-.481L8.482 8 15.727.755l-.481-.482L8 7.518z" fill="#000"/><path d="M8 7.518L15.246.273l.48.482L8.482 8l7.246 7.245-.481.482L8 8.48.755 15.727l-.482-.482L7.52 8 .273.755.755.273 8 7.518z" fill="#000"/></svg>