<svg viewBox="0 0 110 67" fill="none" xmlns="http://www.w3.org/2000/svg"><g opacity=".1" fill="#000"><path d="M74.126 20.255a3.075 3.075 0 1 0 0-6.15 3.075 3.075 0 0 0 0 6.15zm-1.025-4.1h2.05v2.05h-2.05v-2.05zM61.827 63.303h8.2v-18.45h-8.2v18.45zm3.075-4.1h2.05v2.05h-2.05v-2.05z"/><path d="M65.927 11.03v31.774h5.124a1.025 1.025 0 0 1 1.025 1.025v1.025h2.69l1.549-1.356a12.756 12.756 0 0 0 3.992-12.746 1.027 1.027 0 0 1 .994-1.273h1.464a5.705 5.705 0 0 1 5.543 4.329 15.73 15.73 0 0 1-.4 8.996h7.23a3.58 3.58 0 0 1 1.883 6.627 3.555 3.555 0 0 1-.41 4.648c.56.55.923 1.271 1.032 2.05h6.207V11.03c.004-.722.201-1.43.57-2.05H67.977a2.05 2.05 0 0 0-2.05 2.05zm22.549 2.05h12.299v2.05h-12.3v-2.05zm-4.1 0h2.05v2.05h-2.05v-2.05zm-2.05 4.1h18.449v2.05H82.326v-2.05zm0 4.1h18.449v2.05H82.326v-2.05zm0 4.1h14.35v2.05h-14.35v-2.05zm-8.2-13.325a5.115 5.115 0 0 1 1.794 9.908l2.101 2.802-1.64 1.23-2.255-3.007-2.255 3.006-1.64-1.23 2.102-2.8a5.115 5.115 0 0 1 1.793-9.909zM107.95 8.98a2.047 2.047 0 0 0-2.05 2.05v12.3h4.1v-12.3a2.051 2.051 0 0 0-2.05-2.05z"/><path d="M94.113 47.929h1.025a1.538 1.538 0 0 0 0-3.075H83.351v-2.05h2.381l.013-.032a13.717 13.717 0 0 0 .574-8.468 3.658 3.658 0 0 0-3.554-2.775h-.205a14.79 14.79 0 0 1-4.892 13.512l-1.838 1.61c-.188.164-.43.254-.679.253h-3.075v14.35h3.075a1 1 0 0 1 .459.102 18.473 18.473 0 0 0 8.225 1.947h9.253a1.538 1.538 0 0 0 0-3.075h-1.537v-2.05h2.562a1.538 1.538 0 0 0 0-3.075h-2.562v-2.05h2.562a1.538 1.538 0 0 0 0-3.074h-2.562v-2.05h2.562z"/></g><path d="M0 33.1C0 14.82 14.82 0 33.1 0s33.1 14.82 33.1 33.1-14.82 33.1-33.1 33.1H0V33.1z" fill="#743C3C"/><path d="M14.046 46.111l-2.736 2.735 8.203 8.209 2.736-2.735-8.203-8.209zm18.672 5.075L43.283 45.2a1.34 1.34 0 0 0 .5-.489 1.325 1.325 0 0 0-.001-1.337 1.303 1.303 0 0 0-.56-.513 1.393 1.393 0 0 0-1.303.026l-7.714 4.369a2.706 2.706 0 0 1-1.413 1.323 2.75 2.75 0 0 1-1.042.203h-4.477a.687.687 0 0 1-.48-.196.661.661 0 0 1 0-.944.687.687 0 0 1 .48-.195h4.477a1.372 1.372 0 0 0 .962-.392 1.21 1.21 0 0 0 .305-.473 1.301 1.301 0 0 0-.359-1.473 1.409 1.409 0 0 0-.914-.333h-4.192a2.062 2.062 0 0 1-1.444-.586l-.166-.163a2.03 2.03 0 0 0-1.441-.585h-5.229c-.068 0-.14.005-.215.01-.465.048-.899.25-1.23.575l-1.784 1.75 6.522 6.4.141-.139a2.031 2.031 0 0 1 1.444-.586h7.552a2.03 2.03 0 0 0 1.016-.267z" fill="#fff"/><g clip-path="url(#clip0)" fill="#fff"><path d="M40.317 22.89c-3.874 2.375-6.666 5.374-7.8 6.706l-2.91-2.28c-.077-.055-1.675 1.363-1.632 1.408l5.3 5.389a.195.195 0 0 0 .151.064c.01 0 .027 0 .04-.004a.212.212 0 0 0 .155-.131c.854-2.184 3.674-6.754 7.274-10.07a.213.213 0 0 0 .051-.237c0-.001-.575-.878-.63-.845z"/><path d="M43.793 18.12c-8.026 0-9.384-3.046-9.396-3.075a.404.404 0 0 0-.369-.252h-.007a.41.41 0 0 0-.37.245c-.01.032-1.397 3.082-9.393 3.082a.4.4 0 0 0-.4.4v13.65c0 5.588 9.599 9.858 10.005 10.037a.39.39 0 0 0 .163.032.39.39 0 0 0 .16-.032c.41-.18 10.007-4.449 10.007-10.037V18.52a.402.402 0 0 0-.4-.4zm-1.808 13.257c0 4.372-7.515 7.718-7.835 7.856a.28.28 0 0 1-.125.027.282.282 0 0 1-.127-.027c-.316-.138-7.834-3.484-7.834-7.856V20.692c0-.173.14-.315.314-.315 6.26 0 7.345-2.386 7.356-2.41a.318.318 0 0 1 .289-.193h.005c.128.002.242.08.288.198.01.022 1.073 2.405 7.355 2.405.174 0 .313.142.313.315v10.685z"/></g><defs><clipPath id="clip0"><rect width="27.447" height="27.447" fill="#fff" transform="translate(20.302 14.793)"/></clipPath></defs></svg>