<svg viewBox="0 0 133 77" fill="none" xmlns="http://www.w3.org/2000/svg"><path d="M132.247 36.236c-.89-1.306-2.466-2.087-4.215-2.087h-8.531c.09-1.276.123-2.333.133-3.091.008-.72-.597-1.305-1.325-1.305h-52.96c-.728 0-1.334.583-1.323 1.305.075 5.64 1.534 27.882 19.701 33.299h-17.02c-1.075 0-2.269.807-2.658 1.803l-.53 1.357c-.392.995.16 1.803 1.24 1.803h54.138c1.076 0 1.631-.808 1.241-1.803l-.534-1.356c-.391-.997-1.58-1.804-2.659-1.804h-16.188c6.17-1.918 10.331-5.938 13.131-10.597 11.727-.328 16.774-8.375 18.742-13.225.603-1.487.464-3.054-.383-4.298zm-3.278 2.84c-1.788 4.408-5.481 9.558-12.997 10.6 1.7-4.007 2.618-8.146 3.109-11.61h8.951c.516 0 .827.186.945.363.105.154.103.37-.008.646zM91.326 28.052a1.404 1.404 0 0 0 1.97.14c.583-.5.647-1.376.14-1.954-.032-.042-3.734-4.383-1.355-7.353 3.172-3.963 1.24-7.198-.226-8.354a1.404 1.404 0 0 0-1.962.22 1.38 1.38 0 0 0 .213 1.938c.339.288 1.905 1.825-.213 4.473-3.82 4.77 1.22 10.642 1.433 10.89zm7.472-24.754c.593-.48.688-1.344.21-1.938a1.404 1.404 0 0 0-1.962-.221c-1.464 1.156-3.396 4.392-.223 8.354 2.379 2.97-1.323 7.313-1.36 7.353a1.38 1.38 0 0 0 .142 1.955 1.4 1.4 0 0 0 .914.339c.39 0 .78-.162 1.055-.48.216-.247 5.254-6.12 1.437-10.893-2.122-2.645-.553-4.184-.213-4.47z" opacity=".1" fill="#000"/><path d="M0 42C0 23.222 15.222 8 34 8s34 15.47 34 34.248C68 61.302 52.554 77 33.5 77H0V42z" fill="#414141"/><g clip-path="url(#clip0)" fill="#fff"><path d="M47 36.286H28.43v1.428H47a.714.714 0 1 0 0-1.428zm-7.328 26.428l.357-1.578a2.849 2.849 0 1 0 1.252-5.527l.005-.016v-.022H35.57v-1.428a.714.714 0 0 0-1.428 0v1.428h-1.415l1.608 7.143h5.336zm.678-2.985l.614-2.725a1.428 1.428 0 0 1-.035 2.853c-.2 0-.397-.043-.579-.126v-.002zm-7.635-14.157v.714c0 .394.319.714.714.714h.714v2.857a.714.714 0 1 0 1.428 0V47h2.144v4.286a.714.714 0 1 0 1.428 0V47h2.143v-2.143h-7.857a.714.714 0 0 0-.715.715zM34.143 42h5.714v1.428h-5.714V42zM32 39.143h10v1.428H32v-1.428zm15 25.714a.714.714 0 0 0-.714-.714H28.429V67H47v-2.143zm10-18.929a2.214 2.214 0 0 0-2.422-2.214l-11.864 1.079v2.271l11.864 1.079A2.214 2.214 0 0 0 57 45.928zM17.714 67H27V36.286H17v30c0 .394.32.714.714.714zm5.715-16.428h-2.857a.714.714 0 0 1 0-1.43h2.857a.714.714 0 1 1 0 1.43zM22 39.142a2.857 2.857 0 1 1 0 5.715 2.857 2.857 0 0 1 0-5.714zm-2.857 7.144h5.714a.714.714 0 0 1 0 1.428h-5.714a.714.714 0 0 1 0-1.428z"/><path d="M23.428 42a1.429 1.429 0 1 1-2.857 0 1.429 1.429 0 0 1 2.857 0zm22.144-9.286h-16.43a.714.714 0 0 1 0-1.428h16.43v-2.143A2.15 2.15 0 0 0 43.428 27H19.143A2.15 2.15 0 0 0 17 29.143v5.714h28.572v-2.143zm-19.286 0h-1.429a.714.714 0 0 1 0-1.428h1.429a.714.714 0 1 1 0 1.428z"/></g><defs><clipPath id="clip0"><rect width="40" height="40" fill="#fff" transform="translate(17 27)"/></clipPath></defs></svg>