<svg viewBox="0 0 27 27" fill="none" xmlns="http://www.w3.org/2000/svg"><g clip-path="url(#clip0)" fill="#6B9E45"><path d="M19.296 4.452h-9.65l3 4.399h9.65l-3-4.4zm-6.272 6.003V27h9.65V10.455h-9.65zm1.87 2.027h5.908v7.144h-5.907v-7.144zm5.914 12.491h-5.92V23.37h5.92v1.604zm0-2.673h-5.92v-1.604h5.92V22.3z"/><path d="M19.198 14.086H16.5v3.936h2.7v-3.936zM7.704 4.452L4.326 9.406V27h7.094V9.9L7.704 4.452zM17 0H9.285c-.87 0-1.58.708-1.58 1.58v1.268H18.58V1.579C18.58.71 17.872 0 17 0z"/></g><defs><clipPath id="clip0"><rect width="27" height="27" fill="#fff"/></clipPath></defs></svg>