<svg viewBox="0 0 27 27" fill="none" xmlns="http://www.w3.org/2000/svg"><path d="M23.02 10.175a4.606 4.606 0 0 1-4.04 2.4 4.61 4.61 0 0 1-4.243-2.82L1.22 14.168h25.49l-3.688-3.993zM0 25.022a1.93 1.93 0 0 0 1.93 1.93h23.14a1.93 1.93 0 0 0 1.93-1.93v-2.789H0v2.789zm27-9.319H0v4.5h27v-4.5z" fill="#6B9E45"/><path d="M18.98 11.042a3.068 3.068 0 0 0 1.301-5.847c.166-.452.379-.932.646-1.39.694-1.187 1.762-2.223 3.378-2.223a.767.767 0 1 0 0-1.535c-2.071 0-3.763 1.155-4.907 3.344a10.85 10.85 0 0 0-.648 1.524 3.068 3.068 0 0 0 .23 6.127zm-1.842-3.94c.218-.435.558-.79.984-1.026a.767.767 0 1 1 .744 1.342.881.881 0 0 0-.345.351l-.012.02a.767.767 0 1 1-1.371-.687z" fill="#6B9E45"/></svg>