<svg viewBox="0 0 24 24" fill="none" xmlns="http://www.w3.org/2000/svg"><path d="M11.807 0C5.286 0 0 5.286 0 11.807c0 5.07 3.2 9.38 7.686 11.053l.168-3.26c0-2.362-1.745-1.604-1.745-3.259 0-.925.028-2.855.028-4.303 0-3.86 1.64-7.595 2.043-8.428.404-.832 1.358-1.74 1.368-.867 0 1.268.053 16.017.053 16.017H9.6l.188 4.67c.658.113 1.33.184 2.02.184.845 0 1.668-.091 2.462-.262l.4-7.725s-.695-.229-.848-.302c-1.473-.65-2.544-2.563-2.544-5.044 0-2.708 2.1-5.041 4.13-5.06h.008c2.031.019 4.132 2.352 4.132 5.06 0 2.481-1.073 4.393-2.545 5.044l-.854.31.364 6.998c4.178-1.818 7.102-5.979 7.102-10.826C23.614 5.286 18.328 0 11.807 0z" fill="#6B9E45"/></svg>