<svg viewBox="0 0 25 25" fill="none" xmlns="http://www.w3.org/2000/svg"><path d="M14.187 12.049c-1.129 0-2.207-.078-3.218-.22v9.295c.117-.002.234-.004.353-.004h5.73A7.948 7.948 0 0 0 25 13.172v-2.875c0-.701-.1-1.377-.27-2.025-1.403 2.24-5.47 3.777-10.543 3.777z" fill="#6B9E45"/><path d="M14.59 6.648a.437.437 0 0 1-.036.078c-.008.014-.01.03-.02.043l-3.057 4.21-.006.008-.024.032c.872.111 1.79.172 2.74.172 5.216 0 9.516-1.79 10.134-4.1.05-.188.08-.38.08-.574 0-2.58-4.573-4.673-10.214-4.673-5.64 0-10.214 2.092-10.214 4.673 0 .194.03.386.08.574.226.845.944 1.62 2.021 2.264l7.951-3.235c.014-.005.028-.004.043-.008a.402.402 0 0 1 .326.037c.015.008.031.01.045.02.01.008.014.018.023.025a.41.41 0 0 1 .056.062.45.45 0 0 1 .049.073c.004.01.013.016.017.027.006.015.005.03.009.045a.44.44 0 0 1 .017.087.45.45 0 0 1-.02.16z" fill="#6B9E45"/><path d="M10.31 11.725l-.001-.057-.003-.097-.001-.031-.009-.262-.003-.127-.01-.315-.03-.921h-.034l.22-.087c.025-.015.751-.313 1.062-.459.047-.022.084-.037.127-.056l1.33-1.832-5.877 2.392.007.003-.215.081c-.116.045-.233.09-.35.132-.177.066-.357.125-.537.186l-.038.014-.047-.026a.425.425 0 0 1-.207-.12c-.91-.538-1.61-1.17-2.049-1.87a7.942 7.942 0 0 0-.27 2.024v2.09l-2.255.876-.858.333-.224.086.087.089L0 13.736l.262 5.54v.017l.03.048c.239.38.523.727.827 1.056 1.334 1.443 3.262 2.393 5.584 2.702l.001.058.221-.015a.545.545 0 0 0 .058-.006l.151.02-.003-.092a.188.188 0 0 0 .047-.108l.212-.43.625-1.273 2.096-4.263.346-.703-.14-4.387-.007-.175zm-3 9.505l-.226.46-.016-.485-.18-5.315 2.375-4.38.216-.399.159-.292.01.33.015.45.146 4.55-2.498 5.08z" fill="#6B9E45"/></svg>