<svg viewBox="0 0 32 34" fill="none" xmlns="http://www.w3.org/2000/svg"><path d="M16 0C7.164 0 0 7.449 0 16.638c0 9.189 7.164 16.638 16 16.638s16-7.45 16-16.638C32 7.449 24.836 0 16 0zm8.116 18.437c.746.758 1.535 1.47 2.204 2.306.297.37.576.752.79 1.182.303.613.029 1.286-.5 1.322h-3.277c-.847.072-1.52-.283-2.088-.884-.454-.48-.874-.992-1.311-1.488a3.114 3.114 0 0 0-.59-.547c-.447-.302-.835-.21-1.091.276-.261.494-.32 1.041-.346 1.591-.035.804-.268 1.014-1.044 1.052-1.657.08-3.23-.18-4.69-1.05-1.29-.766-2.288-1.847-3.157-3.072-1.693-2.387-2.99-5.007-4.155-7.702-.262-.607-.07-.932.573-.944 1.07-.022 2.14-.019 3.21-.001.435.007.723.266.89.693.579 1.48 1.287 2.887 2.175 4.192.237.347.479.694.823.94.38.27.669.18.848-.26.115-.28.164-.58.189-.88.085-1.029.095-2.056-.052-3.08-.092-.642-.438-1.056-1.053-1.177-.313-.062-.267-.182-.115-.368.264-.321.512-.52 1.006-.52h3.704c.584.118.715.39.794 1.002l.003 4.28c-.007.236.114.938.523 1.092.327.113.543-.16.74-.376.887-.98 1.52-2.136 2.087-3.334.25-.528.466-1.074.675-1.622.156-.404.398-.603.837-.597l3.567.005c.105 0 .212 0 .316.02.6.107.765.375.58.985-.293.958-.862 1.756-1.418 2.556-.596.857-1.23 1.683-1.82 2.543-.543.787-.5 1.183.173 1.865z" fill="#000"/></svg>