<svg xmlns="http://www.w3.org/2000/svg" viewBox="0 0 148.01 158.32" fill="rgba(102, 196, 176, 0.12)"><polygon points="74.62 49.56 63.72 53.53 72.89 78.71 47.7 87.88 51.71 98.87 76.89 89.71 86.06 114.89 96.96 110.92 87.79 85.74 112.97 76.57 108.97 65.58 83.79 74.75 74.62 49.56"/><path d="M130.49,18.27A21.67,21.67,0,0,1,104.34,4.9a17.22,17.22,0,0,1-1-3.8L103.2,0l-1.1.19c-18.43,2.88-34,6.62-47.33,11.48s-27.58,12-43.63,21.63l-1.06.6.56,1a25.79,25.79,0,0,1,1.71,3.53A21.58,21.58,0,0,1,1,65.4l-1,.47,21.71,47.65c13.41,36.84,85.88,45,86.54,44.8l.28-.1.15-.16c2-2.11,50.34-52.91,37-89.56L131.65,18ZM123,30.68l11.37,40.88.27.75c9.54,26.22-25.15,67.15-30.95,73.73-8.67-1.31-61.53-10.28-71.1-36.59L14.64,70.12a33.19,33.19,0,0,0,9.9-31.27A215.7,215.7,0,0,1,58.64,22.6,215.7,215.7,0,0,1,95.2,13.13,33.11,33.11,0,0,0,123,30.68Z"/></svg>
