<svg xmlns="http://www.w3.org/2000/svg" viewBox="0 0 140.1 156.12"><g id="Слой_2" data-name="Слой 2"><g id="Layer_1" data-name="Layer 1" fill="#66c4b0"><polygon points="75.89 42.5 64.21 42.5 64.21 69.28 37.42 69.28 37.42 80.97 64.21 80.97 64.21 107.75 75.89 107.75 75.89 80.97 102.68 80.97 102.68 69.28 75.89 69.28 75.89 42.5"/><path d="M139 32.15a21.64 21.64 0 0 1-20-21.49 21.07 21.07 0 0 1 .38-3.94l.2-1.11-1.1-.22C100.15 1.77 84.3 0 70.05 0 55.87 0 40 1.78 21.6 5.43l-1.1.22.2 1.11a21.56 21.56 0 0 1 .37 3.9A21.64 21.64 0 0 1 1.14 32.15L0 32.23l4.08 52.2c0 39.21 65.31 71.69 66 71.69h.27l.24-.11c2.64-1.32 65.41-32.5 65.41-71.49l4.08-52.29zm-11.29 9.12l-3.3 42.34v.82c0 27.93-46.63 54.5-54.29 58.68-7.66-4.18-54.29-30.75-54.29-58.68l-3.4-43.16a33.28 33.28 0 0 0 20-26A221.26 221.26 0 0 1 70 11.68a222.21 222.21 0 0 1 37.62 3.59 33.28 33.28 0 0 0 20.05 26z"/></g></g></svg>