<svg xmlns="http://www.w3.org/2000/svg" viewBox="0 0 196.7 158.32"><path d="M195.62 83.72A26.85 26.85 0 0 0 187.06 66a20.72 20.72 0 0 0 .81-7.51 21.05 21.05 0 0 0-17.12-19 24.31 24.31 0 0 0-26.49-28.42 21.74 21.74 0 0 0-38.54 3.7 33.33 33.33 0 0 0-1.51 7.61v.19l.16 110.28v.43a26.93 26.93 0 0 0 26.77 24c.69 0 1.4 0 2.1-.08a26.89 26.89 0 0 0 24.06-20l4.7-.29a21.15 21.15 0 0 0 10.47-3.36 21.8 21.8 0 0 0 8.84-23.92 26.83 26.83 0 0 0 14.31-25.91zM174.46 103c-8.54 1.93-15.26 1-20-2.91-9.28-7.61-8.91-24.13-8.9-24.3l.14-4.4-8.8-.29-.15 4.4c0 .71-.35 14.89 6.91 25.6a25.81 25.81 0 0 0-18.87 20.47l-.13.83 8.69 1.35.13-.82c.09-.57 2.47-14 18.21-14.05a27.78 27.78 0 0 0 14.76 3.9 42.1 42.1 0 0 0 6.41-.54 12.89 12.89 0 0 1-12.52 16.12h-10.67l-.43 3.92a18.18 18.18 0 0 1-36.13.22L113 23a25.72 25.72 0 0 1 .91-5 12.93 12.93 0 0 1 23.92-.32l1.48 3.47 3.66-.93a15.5 15.5 0 0 1 18.32 20.55 19.52 19.52 0 0 1-6.14 6.4c-5.39 3.4-12 3.16-19.56-.72l-3.92-2-4 7.84 3.92 2a33.69 33.69 0 0 0 15.26 4.08 24.4 24.4 0 0 0 7.62-1.21A26.42 26.42 0 0 0 167 48a12 12 0 0 1 12.09 11.15 12.1 12.1 0 0 1-1.23 6.28l-1.66 3.36 3 2.18a18.18 18.18 0 0 1-4.74 32.03zm-81.98 33v-.37l-.16-110.49A27 27 0 0 0 65.54 1q-1 0-2.1.08a26.89 26.89 0 0 0-24.06 20l-4.64.28a21.28 21.28 0 0 0-11.5 4 21.82 21.82 0 0 0-7.87 23.34 27 27 0 0 0-5.74 43.64 20.93 20.93 0 0 0 16.32 26.52 24.31 24.31 0 0 0 26.48 28.41A21.74 21.74 0 0 0 91 143.56a32.86 32.86 0 0 0 1.48-7.56zm-68.2-97.88a12.87 12.87 0 0 1 12-8.17H47l.41-3.95a18.18 18.18 0 0 1 36.13-.18l.16 109.58a25.55 25.55 0 0 1-.91 4.92 12.93 12.93 0 0 1-23.92.32l-1.48-3.47-3.66.93a15.49 15.49 0 0 1-18.32-20.55 19.53 19.53 0 0 1 6.14-6.41c5.39-3.41 12-3.16 19.56.72l3.92 2L69 106l-3.92-2a33.68 33.68 0 0 0-15.22-4 24.39 24.39 0 0 0-7.62 1.21 26.43 26.43 0 0 0-12.55 9.17 12.05 12.05 0 0 1-10.86-17.47l1.66-3.36-3-2.18a18.18 18.18 0 0 1 4.79-32.05c8.55-1.94 15.28-1 20 2.92 9.21 7.57 8.9 23.61 8.88 24.29L51 86.92l8.8.29.15-4.4c0-.71.35-14.9-6.92-25.6a25.81 25.81 0 0 0 18.85-20.47l.13-.83-8.69-1.35-.13.83c-.09.57-2.47 14-18.21 14.05a27.78 27.78 0 0 0-14.76-3.91 42.12 42.12 0 0 0-6.41.54 12.89 12.89 0 0 1 .47-7.95z" fill="#ffbb3f" stroke="#ffbb3f" stroke-miterlimit="10" stroke-width="2"/></svg>